<?xml version="1.0" encoding="UTF-8"?>
<!DOCTYPE svg PUBLIC "-//W3C//DTD SVG 1.1//EN" "http://www.w3.org/Graphics/SVG/1.1/DTD/svg11.dtd">
<!-- Creator: CorelDRAW 2020 (64 Bit) -->
<svg xmlns="http://www.w3.org/2000/svg" xml:space="preserve" width="150.653mm" height="153.184mm" version="1.1" style="shape-rendering:geometricPrecision; text-rendering:geometricPrecision; image-rendering:optimizeQuality; fill-rule:evenodd; clip-rule:evenodd"
viewBox="0 0 15065.34 15318.44"
 xmlns:xlink="http://www.w3.org/1999/xlink"
 xmlns:xodm="http://www.corel.com/coreldraw/odm/2003">
 <defs>
  <style type="text/css">
   <![CDATA[
    .fil2 {fill:#FEFEFE;fill-rule:nonzero}
    .fil15 {fill:#F1626C;fill-rule:nonzero}
    .fil10 {fill:#F7F7F6;fill-rule:nonzero}
    .fil13 {fill:#EFEFEF;fill-rule:nonzero}
    .fil0 {fill:#E5E6E5;fill-rule:nonzero}
    .fil1 {fill:#D9DAD9;fill-rule:nonzero}
    .fil9 {fill:#C28879;fill-rule:nonzero}
    .fil12 {fill:#BC6D5C;fill-rule:nonzero}
    .fil8 {fill:#82353D;fill-rule:nonzero}
    .fil7 {fill:#ABAEAF;fill-rule:nonzero}
    .fil11 {fill:#42616A;fill-rule:nonzero}
    .fil3 {fill:#2C3C43;fill-rule:nonzero}
    .fil6 {fill:#273035;fill-rule:nonzero}
    .fil14 {fill:#222124;fill-rule:nonzero}
    .fil5 {fill:#0047B2;fill-rule:nonzero}
    .fil4 {fill:#0066FF;fill-rule:nonzero}
   ]]>
  </style>
 </defs>
 <g id="Camada_x0020_1">
  <metadata id="CorelCorpID_0Corel-Layer"/>
  <g id="_2201069254096">
   <path class="fil0" d="M6217.25 6128.7c-81.1,104.39 -231.52,123.22 -335.87,42.09 -104.39,-81.14 -123.19,-231.53 -42.06,-335.88 81.11,-104.39 231.53,-123.23 335.88,-42.09 104.36,81.14 123.19,231.53 42.05,335.88zm-993.56 284.55c363.86,282.86 888.08,217.17 1170.94,-146.65 282.86,-363.82 217.17,-888.08 -146.65,-1170.94 -311.22,-241.9 -739.63,-228.67 -1034.1,7.83l-0.28 -0.17 -183.05 -142.32 -271.82 84.74 31.12 -271.85 -229.35 -178.29 -271.81 84.73 31.11 -271.85 -197.16 -153.28 -165.63 51.65 18.94 -165.67 -114.72 -89.21 -260.25 25.68 -34.96 399.91 1363.81 1060.2c-84.39,314.54 20.64,663.08 293.86,875.49z"/>
   <path class="fil0" d="M6183.35 2689.22c54.82,44.77 62.97,125.52 18.17,180.31 -44.77,54.82 -125.52,62.97 -180.34,18.16 -54.79,-44.76 -62.93,-125.51 -18.17,-180.3 44.81,-54.82 125.56,-62.97 180.34,-18.17zm139.42 535.48c156.1,-191.06 127.78,-472.54 -63.29,-628.65 -191.1,-156.1 -472.54,-127.74 -628.68,63.33 -133.53,163.44 -131.98,392.92 -9.21,553.61l-0.11 0.14 -78.52 96.13 41.8 146.62 -145.1 -20.22 -98.42 120.48 41.84 146.61 -145.1 -20.21 -84.6 103.57 25.47 89.33 -88.44 -12.31 -49.21 60.28 10.37 139.6 213.61 23.92 585.19 -716.28c167.25,49.28 355.17,-2.44 472.4,-145.95z"/>
   <polygon class="fil1" points="4435.9,194.27 4435.9,2783.31 717.39,2783.31 583.4,212.4 "/>
   <polygon class="fil2" points="583.4,2777.87 4301.92,2777.87 4301.92,212.41 583.4,212.41 "/>
   <path class="fil1" d="M601.04 2760.24l3683.27 0 0 -2530.2 -3683.27 0 0 2530.2zm3718.55 35.27l-3753.83 0 0 -2600.74 3753.83 0 0 2600.74z"/>
   <polygon class="fil2" points="986.14,2459.1 3899.19,2459.1 3899.19,531.12 986.14,531.12 "/>
   <path class="fil1" d="M3899.19 531.14c0,0 -5.01,0.32 -14.36,0.49 -9.88,0.11 -23.57,0.29 -41.42,0.5 -36.93,0.24 -90.48,0.56 -159.98,1.02 -139.95,0.53 -343.36,1.31 -600.3,2.26 -513.72,1.02 -1240.85,2.47 -2096.99,4.16l8.44 -8.43c0.22,589.07 0.48,1241.74 0.76,1927.75l0 0.21 -9.2 -9.17c1098.89,0.71 2112.03,1.38 2913.05,1.87l-7.34 7.3c1.62,-586.7 2.93,-1067.75 3.88,-1402.75 0.81,-167.42 1.41,-298.27 1.83,-387.91 0.39,-44.31 0.64,-78.32 0.85,-101.92 0.25,-23.1 0.78,-35.38 0.78,-35.38 0,0 0.53,11.22 0.77,33.83 0.22,23.28 0.5,56.87 0.85,100.58 0.42,89.29 1.06,219.53 1.87,386.25 0.88,336.06 2.22,818.7 3.81,1407.3l0.03 7.34 -7.33 0c-801.02,0.5 -1814.16,1.17 -2913.05,1.87l-9.17 0 0 -9.42c0.26,-686.01 0.52,-1338.68 0.75,-1927.75l0 -8.43 8.42 0c858.38,1.69 1587.44,3.14 2102.52,4.13 256.11,0.98 458.91,1.76 598.4,2.29 68.72,0.42 121.75,0.77 158.29,1.02 17.43,0.21 30.84,0.35 40.47,0.5 9.03,0.14 13.37,0.49 13.37,0.49z"/>
   <path class="fil1" d="M583.4 205.21c1.57,-2.01 25.89,13.93 63.94,41.41 38.03,27.45 89.83,66.4 145.77,111.16 55.95,44.81 105.14,87.14 139.77,118.85 34.65,31.75 54.9,52.64 53.26,54.51 -3.45,3.88 -92.85,-69.82 -204.51,-159.03 -111.75,-89.04 -201.5,-162.74 -198.23,-166.9z"/>
   <path class="fil1" d="M4301.92 212.4c3.17,3.99 -84.46,78.57 -195.65,166.59 -111.23,88.01 -203.94,156.14 -207.08,152.15 -3.14,-3.99 84.45,-78.56 195.68,-166.58 111.2,-88.02 203.91,-156.14 207.05,-152.16z"/>
   <path class="fil2" d="M4298.99 2778.23c-138.22,-112.01 -276.4,-224.02 -414.62,-336.02l414.62 336.02z"/>
   <path class="fil1" d="M3884.37 2442.21c3.21,-3.95 98.6,68.08 213.11,160.86 114.52,92.82 204.72,171.21 201.51,175.16 -3.17,3.91 -98.6,-68.09 -213.11,-160.9 -114.44,-92.78 -204.68,-171.21 -201.51,-175.12z"/>
   <path class="fil1" d="M583.4 2777.87c-3.13,-3.98 83.55,-77.82 193.61,-164.85 110.09,-87.06 201.87,-154.41 205.03,-150.42 3.14,3.95 -83.54,77.75 -193.65,164.82 -110.05,87.06 -201.84,154.41 -204.99,150.45z"/>
   <polygon class="fil1" points="1577.6,1777.36 3410.55,1777.36 3410.55,1131.79 1577.6,1131.79 "/>
   <path class="fil3" d="M13667.06 14899.31c0,5.08 -3029.79,9.18 -6766.4,9.18 -3737.88,0 -6767.05,-4.1 -6767.05,-9.18 0,-5.09 3029.17,-9.18 6767.05,-9.18 3736.61,0 6766.4,4.09 6766.4,9.18z"/>
   <polygon class="fil3" points="10837.75,13622.05 11711.05,14891.98 12023.19,14899.31 11450.81,13593.53 "/>
   <polygon class="fil3" points="1624.16,13686.99 1164.09,14886.19 1394.11,14886.19 2197.67,13692.25 "/>
   <path class="fil4" d="M1427.11 9328.98l33.74 1551.7c4.77,219.46 181.47,396.27 400.93,401.14l8685.07 193.32c230.01,5.15 419.28,-179.95 419.28,-410.03l0 -1869.37c0,-551.89 -406.93,-1019.35 -953.67,-1094.53 -1589.86,-218.62 -4869.13,-554.8 -7519.24,-77.08 -627.97,113.24 -1079.97,666.89 -1066.11,1304.85z"/>
   <path class="fil4" d="M1388.08 9871.2c0,0 -715.52,-331.11 -861.87,0 -146.35,331.16 16.26,737.7 178.88,965.34 162.61,227.72 159.98,3024.76 159.98,3024.76l10850.6 -115.96 128.56 -2690.71c0,0 520.38,-640.85 487.85,-917.33 -32.49,-276.43 -471.59,-678.53 -975.67,-266.1 -504.12,412.47 -634.19,1274.34 -634.19,1274.34l-8651.16 65.05c0,0 28.64,-1211.22 -682.98,-1339.39z"/>
   <path class="fil3" d="M10611.66 11682.93c0,5.04 -1922.22,9.14 -4292.84,9.14 -2371.41,0 -4293.24,-4.1 -4293.24,-9.14 0,-5.08 1921.83,-9.21 4293.24,-9.21 2370.62,0 4292.84,4.13 4292.84,9.21z"/>
   <path class="fil3" d="M2025.58 12867.2c-0.3,0 -0.64,-2.9 -0.99,-8.51 -0.3,-6.73 -0.66,-14.92 -1.09,-24.97 -0.84,-21.97 -1.56,-54.4 -1.87,-96.13 -0.21,-85.05 -0.53,-205.35 -0.88,-353.34 -0.43,-298.34 2.09,-710.6 -11.5,-1165.4 -8.28,-227.05 -16.45,-444.64 -49.62,-637.93 -6.31,-23.35 -12.52,-46.39 -18.67,-69.18 -8.86,-22.12 -17.42,-44.17 -26.74,-65.47 -18.64,-42.58 -37.67,-83.58 -58.48,-121.96 -40.91,-77.12 -85.63,-145.34 -132.08,-203.13 -46.38,-57.85 -94.5,-104.95 -140.15,-142.13 -46.26,-36.41 -89.66,-63.11 -126.79,-81.6 -74.6,-36.58 -120.54,-45.54 -119.7,-48.15 0.08,-0.32 2.91,0.24 8.38,1.55 6.52,1.73 14.47,3.81 24.22,6.42 21.43,5.15 52.11,16.37 90.23,33.76 38.03,17.67 82.52,43.81 130.03,79.94 46.83,36.86 96.28,83.96 143.88,142.03 47.66,57.96 93.51,126.57 135.4,204.11 21.31,38.63 40.81,79.87 59.88,122.7 9.54,21.48 18.28,43.6 27.36,65.97 6.52,23.6 13.11,47.55 19.82,71.79 34.55,195.76 43.04,413.14 51.4,640.71 13.59,455.37 9,867.67 6.11,1166.04 -2.08,147.96 -3.76,268.25 -4.95,353.3 -0.66,40.54 -1.2,72.57 -1.57,96.06 -0.3,10.06 -0.54,18.25 -0.74,24.99 -0.27,5.63 -0.56,8.53 -0.89,8.53z"/>
   <path class="fil3" d="M1303.46 10495.69c-0.38,-0.71 9.13,-6.74 28.87,-8.96 19.39,-2.22 49.85,1.66 79.56,22.19 14.59,10.3 29.05,24.69 38.83,43.92 9.7,19.19 14.32,43.14 10.32,67.1 -7,47.24 -44.42,96.98 -101.35,108.2 -57.18,9.63 -109.69,-23.04 -134,-63.89 -12.82,-20.53 -17.86,-44.17 -17.17,-65.51 0.91,-21.42 7.37,-40.57 15.73,-56.27 17.17,-31.65 41.73,-49.39 59.47,-57.29 18.03,-8.12 29.15,-8.29 29.27,-7.41 0.42,1.55 -9.98,4.2 -25.92,13.69 -15.73,9.35 -37.06,27.41 -51.23,56.9 -14.26,28.68 -19.16,71.19 4.26,107 21.77,35.28 68.68,63.04 116.28,54.71 47.36,-8.99 81.26,-52.1 87.95,-92.81 8.14,-42.09 -14.4,-78.88 -40.12,-97.86 -25.86,-19.83 -53.37,-25.51 -71.57,-25.47 -18.48,-0.11 -28.68,3.38 -29.18,1.76z"/>
   <path class="fil3" d="M1352.66 11192.07c-1.38,1.41 -24.16,-17.53 -49.08,-57.89 -24.89,-39.79 -49.71,-103.04 -50.59,-176.07 -0.87,-73.09 22.46,-136.91 46.38,-177.3 23.96,-40.93 46.26,-60.44 47.67,-58.99 2.38,1.91 -16.06,24.17 -36.2,65.09 -20.23,40.6 -40.3,101.74 -39.48,170.95 0.84,69.22 22.35,129.9 43.54,169.94 21.11,40.46 40.09,62.26 37.76,64.27z"/>
   <path class="fil3" d="M1239.21 10144.68c2.77,1.23 -4.88,20.56 -10.79,52.74 -6.05,32.06 -8.4,77.61 1.8,126.26 10.45,48.57 31.1,89.28 49.69,116.09 18.48,26.99 33.32,41.53 31.29,43.82 -1.25,1.59 -19.51,-9.7 -41.66,-35.98 -22.16,-26 -46.24,-68.48 -57.29,-120.12 -10.87,-51.65 -6.16,-100.23 3.5,-133.04 9.58,-32.98 21.67,-50.69 23.46,-49.77z"/>
   <path class="fil3" d="M1027.88 10534.92c4.04,-3.67 36.86,29.49 86.87,55.14 49.73,26.32 95.7,34.29 94.98,39.65 0.06,4.73 -50.06,4.76 -103.46,-23.35 -53.61,-27.66 -82.29,-68.8 -78.39,-71.44z"/>
   <path class="fil3" d="M11757.62 12867.2c0,5.08 -2447.54,9.18 -5465.96,9.18 -3019.53,0 -5466.51,-4.1 -5466.51,-9.18 0,-5.12 2446.98,-9.21 5466.51,-9.21 3018.42,0 5465.96,4.09 5465.96,9.21z"/>
   <path class="fil3" d="M10573.98 11154.43c5.08,0 9.17,383.22 9.17,855.77 0,472.76 -4.09,855.91 -9.17,855.91 -5.08,0 -9.17,-383.15 -9.17,-855.91 0,-472.55 4.09,-855.77 9.17,-855.77z"/>
   <path class="fil3" d="M6950.43 8194.45c0,0 -5.68,0.71 -16.79,1.27 -11.89,0.46 -28.26,1.02 -49.32,1.83 -44.2,1.24 -107.95,3.04 -189.65,5.3 -165.56,3.88 -403.72,9.38 -697.62,16.15 -589.81,11.86 -1403.21,28.23 -2301.66,46.29 -224.74,5.43 -444.47,4.76 -655.52,18.7 -210.72,13.93 -414.37,43.42 -596.97,108.97 -183.2,62.83 -341.06,167.74 -453.89,297.5 -56.13,64.87 -103.46,133.91 -138.96,205.52 -38.02,70.42 -63.31,143.27 -86.36,212.76 -41.84,140.73 -60.66,273.02 -71.4,389.15 -10.8,116.35 -12.07,217.14 -12.61,299.41 -0.36,82.33 1.41,146.26 2.39,189.61 0.44,21.03 0.78,37.43 1.04,49.32 0.14,11.11 -0.26,16.83 -0.26,16.83 0,0 -0.87,-5.64 -1.63,-16.72 -0.68,-11.89 -1.62,-28.26 -2.86,-49.32 -2.16,-43.29 -5.08,-107.24 -5.83,-189.69 -0.57,-82.37 -0.33,-183.44 9.54,-300.28 9.81,-116.7 27.78,-249.84 69.19,-392.08 22.83,-70.24 48.02,-144 86.17,-215.48 35.62,-72.67 83.33,-142.94 140.12,-209.09 114.06,-132.25 274.44,-239.39 459.64,-303.39 184.67,-66.74 389.86,-96.69 601.46,-111.02 212.09,-14.21 431.7,-13.61 656.38,-19.08 898.49,-15.95 1711.96,-30.41 2301.77,-40.89 293.97,-4.34 532.13,-7.87 697.73,-10.3 81.74,-0.78 145.48,-1.45 189.72,-1.87 21.06,-0.03 37.47,-0.03 49.36,-0.03 11.14,0.1 16.82,0.63 16.82,0.63z"/>
   <path class="fil3" d="M4172.84 9402.86c0.63,1.58 -11.68,5.96 -29.88,19.57 -17.99,13.45 -41.49,38.39 -54.68,76.42 -13.48,37.07 -13.55,89.78 19.58,131.12 31.11,40.89 91.12,69.71 149.68,56.27 58.31,-14.36 98.88,-67.2 108.23,-117.72 10.94,-51.86 -12.91,-98.85 -41.63,-125.87 -28.92,-27.98 -61.17,-39.65 -83.29,-43.53 -22.36,-3.96 -35.35,-2.3 -35.49,-4.03 -0.21,-0.74 12.63,-4.97 36.48,-3.03 23.5,1.83 58.7,12.14 91.16,41.1 15.94,14.46 31.18,33.51 41.06,57.4 9.67,23.81 13.8,52.42 8.36,81.03 -9.66,56.55 -53.55,115.67 -120.65,132.54 -67.45,15.2 -133.28,-17.82 -167.36,-63.93 -17.78,-23.03 -26.98,-50.44 -29.1,-76.09 -1.94,-25.72 3.03,-49.6 10.76,-69.71 15.91,-40.5 42.69,-65.58 62.83,-77.82 20.43,-12.49 33.8,-14.5 33.94,-13.72z"/>
   <path class="fil3" d="M4024.14 10316.94c-2.08,0.49 -14.96,-38.67 -26.77,-104.32 -11.26,-65.12 -21.45,-159.91 5.5,-260.31 27.59,-100.69 93.73,-175.65 152.08,-209.59 29.18,-17.39 55.39,-26.39 73.87,-29.95 18.45,-3.7 28.9,-3.74 29.04,-2.72 1.02,3.74 -41.6,7.31 -95.89,43.61 -53.97,35.13 -115.07,107.67 -141.36,203.51 -25.93,96.17 -18.31,188.6 -10.4,253.51 8.39,65.37 16.75,105.59 13.93,106.26z"/>
   <path class="fil3" d="M4152.62 8857.99c2.54,2.36 -25.33,26.67 -51.96,77.79 -26.67,49.95 -48.86,130.81 -29.67,216.07 19.72,85.16 74.79,148.38 120.47,181.83 46.18,34.43 81.85,44.3 80.61,47.55 -0.31,1.02 -9.42,-0.32 -25.18,-5.5 -15.81,-5.08 -37.96,-15 -62.91,-31.44 -49.53,-32.06 -109.85,-97.43 -130.88,-188.38 -20.49,-91.02 5.47,-176.11 36.2,-226.45 15.31,-25.68 31.01,-44.2 43,-55.63 12,-11.5 19.58,-16.69 20.32,-15.84z"/>
   <path class="fil3" d="M4120.31 9564.15c0.32,5.71 -88.87,8.11 -191.31,43.1 -102.84,34.01 -175.33,85.98 -178.51,81.21 -3.21,-3.1 66.46,-63.43 172.65,-98.63 105.83,-36.06 197.84,-30.09 197.17,-25.68z"/>
   <path class="fil5" d="M4324.88 13799.95c-152.36,0 -324.37,-19.51 -400.79,-148.1 -57.85,-97.3 -35.84,-220.35 -12.06,-331.04 31.92,-148.42 63.82,-296.83 95.74,-445.27 431.34,0.31 893.17,0.55 1376.29,0.7 -30.55,79.13 -58.1,159.84 -86.99,238.69 -86.11,235.16 -205.18,480.44 -427.14,596.36 -156.6,81.79 -340.75,86.02 -517.42,88.48 -9.14,0.11 -18.35,0.18 -27.63,0.18zm2197.14 -892.66c-35.49,0 -71.65,-4.59 -106.05,-10.95 -30.44,-5.61 -60.67,-12.27 -90.62,-19.96 110.38,0 220.13,-0.05 328.86,-0.05 -39.23,22.87 -85.13,30.96 -132.19,30.96zm-2510.65 -48.44c56.02,-260.74 112.08,-521.48 168.13,-782.19 -40.92,2.96 -81.91,4.41 -122.9,4.41 -385.66,0 -770.84,-129.99 -1076.12,-365.97l29.83 -26.35c761.84,1.98 1900.11,3.24 3179.11,3.32 147.6,229.02 295.21,458.01 442.81,687.03 48.33,75 97.61,152.23 115.53,239.64 17.5,85.23 -1.3,183.55 -67.48,239.29 -128.34,-0.04 -258.03,-0.04 -388.62,-0.04 -10.34,0 -20.64,0 -30.94,0 -240.6,-74.85 -460.38,-216.71 -626.08,-406.68 -113.2,113.07 -184.39,256.57 -243.52,406.82 -484.4,0.15 -947.28,0.36 -1379.75,0.72zm-987.76 -1181.81l29.01 -25.61c57.22,-14.12 114.48,-27.87 171.87,-41.28 60.36,23.35 125.88,36.2 190.36,36.2 93.3,0 184.41,-26.92 254.43,-88.02 18.91,-16.48 35.6,-34.68 50.59,-54.15 604.91,-117.8 1217.72,-195.02 1832.93,-230.83 33.34,-1.94 67.1,-3.67 100.75,-3.67 68.3,0 136,7.17 198.09,34.29 118.07,51.69 194.52,165.85 264.37,274.22 20.53,31.82 41.06,63.71 61.59,95.53 -1266.65,0.07 -2394.65,1.34 -3153.99,3.32z"/>
   <path class="fil6" d="M6189.42 11692.07c-1279,-0.08 -2417.27,-1.34 -3179.11,-3.32l13.3 -11.71c759.34,-1.98 1887.34,-3.25 3153.99,-3.32 3.95,6.14 7.87,12.24 11.82,18.35z"/>
   <path class="fil6" d="M6325.35 12876.38c-21.7,-5.61 -43.25,-11.72 -64.63,-18.39 10.3,0 20.6,0 30.94,0 130.59,0 260.28,0 388.62,0.04 -1.7,1.41 -3.39,2.79 -5.12,4.13 -6.74,5.26 -13.72,9.99 -20.95,14.17 -108.73,0 -218.48,0.05 -328.86,0.05zm-941.29 -0.14c-483.12,-0.15 -944.95,-0.39 -1376.29,-0.7 1.2,-5.58 2.4,-11.13 3.6,-16.69 432.47,-0.36 895.35,-0.57 1379.75,-0.72 -2.36,6.04 -4.73,12.07 -7.06,18.11z"/>
   <path class="fil7" d="M4899.95 7791.15c226.13,-33.58 454.13,-57.64 681.49,-78.95l158.26 32.88c-4.62,12.24 -9.56,24.31 -14.75,36.13 -40.85,-0.18 -81.81,-0.29 -122.76,-0.29 -232.84,0 -467.47,3.25 -702.24,10.23z"/>
   <path class="fil5" d="M2759.97 11205.41c-185.73,-226.1 -355.15,-470.25 -443.02,-748.49 -164.62,-521.26 -13.73,-1110.58 316.56,-1546.12 199.71,-263.35 457.97,-474.77 745.4,-639.69 104.1,-2.05 209.73,-3.25 316.48,-5.82 590.09,-11.86 1143.56,-23 1621.05,-32.6 -302.69,216.25 -668.76,388.06 -839.09,713.11 -84.84,161.89 -110.13,340.25 -113.48,524.61 -8.86,-14.71 -19.69,-27.09 -30.87,-37.25 -32.46,-28.96 -67.66,-39.27 -91.16,-41.1 -4.37,-0.35 -8.4,-0.49 -11.99,-0.49 -16.16,0 -24.66,2.92 -24.49,3.52 0.14,1.73 13.13,0.07 35.49,4.03 22.12,3.88 54.37,15.55 83.29,43.53 16.76,15.77 31.86,38.38 39.37,64.77 -0.07,22.86 0.14,45.79 0.6,68.79 -11.85,48.08 -51.18,96.38 -106.57,110.03 -9.91,2.26 -19.86,3.35 -29.7,3.35 -48.34,0 -94.13,-25.64 -119.98,-59.62 -14.4,-17.95 -22.51,-38.1 -26,-58.13 24.09,-3.6 38.59,-5.37 38.45,-7.69 0.25,-1.56 -11.26,-3.32 -30.94,-3.32 -2.82,0 -5.82,0.03 -8.96,0.1 -2.05,-22.33 1.3,-44.06 7.87,-62.08 13.19,-38.03 36.69,-62.97 54.68,-76.42 18.2,-13.61 30.51,-17.99 29.88,-19.57 0,-0.11 -0.21,-0.15 -0.6,-0.15 -2.79,0 -15.31,2.86 -33.34,13.87 -20.14,12.24 -46.92,37.32 -62.83,77.82 -7.44,19.44 -12.38,42.4 -10.94,67.21 -36.4,2.18 -87.34,9.59 -141.99,28.22 -106.19,35.2 -175.86,95.53 -172.65,98.63 0.14,0.22 0.39,0.32 0.78,0.32 8.71,0 79.3,-49 177.73,-81.53 52.84,-18.06 102.16,-27.44 137.51,-33.05 3.46,22.61 12.42,45.97 27.9,66 28.37,38.39 78.71,67.67 133.67,67.67 11.11,0 22.37,-1.2 33.69,-3.74 47.35,-11.89 83.15,-44.84 103.51,-83.08 11.15,358.91 65.93,729.61 -101.96,1037.98 -103.25,189.68 -280.56,331.29 -381.45,522.28 -2.76,5.19 -5.47,10.45 -8.12,15.74l-1113.78 8.36zm1494.25 -1495.96c-4.55,0 -13.23,0.89 -25.4,3.32 -18.48,3.56 -44.69,12.56 -73.87,29.95 -58.35,33.94 -124.49,108.9 -152.08,209.59 -26.95,100.4 -16.76,195.19 -5.5,260.31 11.74,65.27 24.51,104.32 26.74,104.32 0.03,0 0.03,0 0.03,0 2.82,-0.67 -5.54,-40.89 -13.93,-106.26 -7.91,-64.91 -15.53,-157.34 10.4,-253.51 26.29,-95.84 87.39,-168.38 141.36,-203.51 54.29,-36.3 96.91,-39.87 95.89,-43.61 -0.04,-0.35 -1.27,-0.6 -3.64,-0.6zm-101.84 -851.57c-1.56,0 -8.93,5.23 -20.08,15.95 -11.99,11.43 -27.69,29.95 -43,55.63 -30.73,50.34 -56.69,135.43 -36.2,226.45 21.03,90.95 81.35,156.32 130.88,188.38 24.95,16.44 47.1,26.36 62.91,31.44 12.55,4.12 20.88,5.82 23.91,5.82 0.78,0 1.2,-0.11 1.27,-0.32 1.24,-3.25 -34.43,-13.12 -80.61,-47.55 -45.68,-33.45 -100.75,-96.67 -120.47,-181.83 -19.19,-85.26 3,-166.12 29.67,-216.07 26.63,-51.12 54.5,-75.43 51.96,-77.79 -0.03,-0.07 -0.1,-0.11 -0.24,-0.11zm-739.97 -605.72c178.24,-99.27 367.04,-180.97 559.59,-246.41 301.34,-102.38 612.85,-167.75 927.95,-214.6 234.77,-6.98 469.4,-10.23 702.24,-10.23 40.95,0 81.91,0.11 122.76,0.29 -79.79,182.06 -223.34,316.68 -387.81,436.52 -482.21,8.58 -1043.3,18.56 -1642.11,29.18 -95.17,2.33 -189.45,3.53 -282.62,5.25z"/>
   <path class="fil5" d="M3224.49 11610.15c-11.59,-4.48 -22.97,-9.35 -34.13,-14.57 -153.42,-71.97 -271.53,-201.01 -380.77,-330.59 -16.63,-19.72 -33.2,-39.58 -49.62,-59.58l1113.78 -8.36c-51.5,102.66 -85.33,218.23 -153.88,307.13 -165.73,32.28 -330.91,67.62 -495.38,105.97z"/>
   <path class="fil6" d="M3378.91 8271.11c11.12,-6.39 22.31,-12.7 33.5,-18.95 93.17,-1.72 187.45,-2.92 282.62,-5.25 598.81,-10.62 1159.9,-20.6 1642.11,-29.18 -6.87,5.01 -13.75,9.99 -20.7,14.96 -477.49,9.6 -1030.96,20.74 -1621.05,32.6 -106.75,2.57 -212.38,3.77 -316.48,5.82z"/>
   <path class="fil6" d="M4228.08 9707.87c-54.96,0 -105.3,-29.28 -133.67,-67.67 -15.48,-20.03 -24.44,-43.39 -27.9,-66 5.47,-0.88 10.58,-1.66 15.35,-2.36 3.49,20.03 11.6,40.18 26,58.13 25.85,33.98 71.64,59.62 119.98,59.62 9.84,0 19.79,-1.09 29.7,-3.35 55.39,-13.65 94.72,-61.95 106.57,-110.03 0.29,14.89 0.67,29.88 1.17,44.84 -20.36,38.24 -56.16,71.19 -103.51,83.08 -11.32,2.54 -22.58,3.74 -33.69,3.74zm-162.95 -146.26c-1.44,-24.81 3.5,-47.77 10.94,-67.21 15.91,-40.5 42.69,-65.58 62.83,-77.82 18.03,-11.01 30.55,-13.87 33.34,-13.87 0.39,0 0.6,0.04 0.6,0.15 0.63,1.58 -11.68,5.96 -29.88,19.57 -17.99,13.45 -41.49,38.39 -54.68,76.42 -6.57,18.02 -9.92,39.75 -7.87,62.08 -4.73,0.11 -9.84,0.32 -15.28,0.68zm298.38 -54.19c-7.51,-26.39 -22.61,-49 -39.37,-64.77 -28.92,-27.98 -61.17,-39.65 -83.29,-43.53 -22.36,-3.96 -35.35,-2.3 -35.49,-4.03 -0.17,-0.6 8.33,-3.52 24.49,-3.52 3.59,0 7.62,0.14 11.99,0.49 23.5,1.83 58.7,12.14 91.16,41.1 11.18,10.16 22.01,22.54 30.87,37.25 -0.22,12.31 -0.32,24.63 -0.36,37.01z"/>
   <path class="fil6" d="M4024.11 10316.94c-2.23,0 -15,-39.05 -26.74,-104.32 -11.26,-65.12 -21.45,-159.91 5.5,-260.31 27.59,-100.69 93.73,-175.65 152.08,-209.59 29.18,-17.39 55.39,-26.39 73.87,-29.95 12.17,-2.43 20.85,-3.32 25.4,-3.32 2.37,0 3.6,0.25 3.64,0.6 1.02,3.74 -41.6,7.31 -95.89,43.61 -53.97,35.13 -115.07,107.67 -141.36,203.51 -25.93,96.17 -18.31,188.6 -10.4,253.51 8.39,65.37 16.75,105.59 13.93,106.26 0,0 0,0 -0.03,0z"/>
   <path class="fil6" d="M4270.8 9381.55c-3.03,0 -11.36,-1.7 -23.91,-5.82 -15.81,-5.08 -37.96,-15 -62.91,-31.44 -49.53,-32.06 -109.85,-97.43 -130.88,-188.38 -20.49,-91.02 5.47,-176.11 36.2,-226.45 15.31,-25.68 31.01,-44.2 43,-55.63 11.15,-10.72 18.52,-15.95 20.08,-15.95 0.14,0 0.21,0.04 0.24,0.11 2.54,2.36 -25.33,26.67 -51.96,77.79 -26.67,49.95 -48.86,130.81 -29.67,216.07 19.72,85.16 74.79,148.38 120.47,181.83 46.18,34.43 81.85,44.3 80.61,47.55 -0.07,0.21 -0.49,0.32 -1.27,0.32z"/>
   <path class="fil6" d="M3751.27 9688.78c-0.39,0 -0.64,-0.1 -0.78,-0.32 -3.21,-3.1 66.46,-63.43 172.65,-98.63 54.65,-18.63 105.59,-26.04 141.99,-28.22 5.44,-0.36 10.55,-0.57 15.28,-0.68 3.14,-0.07 6.14,-0.1 8.96,-0.1 19.68,0 31.19,1.76 30.94,3.32 0.14,2.32 -14.36,4.09 -38.45,7.69 -4.77,0.7 -9.88,1.48 -15.35,2.36 -35.35,5.61 -84.67,14.99 -137.51,33.05 -98.43,32.53 -169.02,81.53 -177.73,81.53z"/>
   <path class="fil8" d="M3414.85 11646.35c-64.48,0 -130,-12.85 -190.36,-36.2 164.47,-38.35 329.65,-73.69 495.38,-105.97 -14.99,19.47 -31.68,37.67 -50.59,54.15 -70.02,61.1 -161.13,88.02 -254.43,88.02z"/>
   <path class="fil3" d="M3231.38 6294.12c81.03,-120.72 186.71,-227.54 316.37,-293.34 129.65,-65.79 284.69,-87.63 422.87,-42.47 138.22,45.12 254.92,162.17 283.11,304.83 22.29,113.03 -7.8,239.4 50.59,338.74 67.2,114.34 229.13,150.53 285.96,270.33 34.22,72.18 20.53,159.88 -17.04,230.33 -37.57,70.49 -96.27,127.04 -154.98,181.22 35.53,25.19 71.65,51.3 96.67,86.93 25.01,35.63 37.32,83.29 20.56,123.47 -17.74,42.48 -62.23,66.64 -104.6,84.63 -195.44,82.82 -416.66,103.6 -624.13,58.62 -55.74,-12.05 -119.49,-27.26 -165.38,6.57l-410 -1349.86z"/>
   <path class="fil9" d="M4643.72 6712.62l-114.08 345.65 771.45 437.62 -775.55 25.12 58 628.81 1493.77 -366.64c0,0 89.64,-609.16 -1433.59,-1070.56l-107.13 -25.19c-38.84,-9.14 -70.7,-36.76 -85.27,-73.91 -11.47,-29.31 -33.2,-53.44 -61.07,-68.01l-127.24 -66.4 0.88 100.93 69.95 82.24 -11.18 195.12c-5.96,86.25 51.4,164.14 135.57,184.01l71.41 16.86 114.08 -345.65z"/>
   <path class="fil10" d="M2954.12 7961.58c-30.53,0 -315.41,69.15 -478.21,276.65 -162.8,207.5 -398.73,985.41 -398.73,985.41l600.3 103.76 258.86 650.45c0,0 1532.65,-200.87 1451.27,-281.55 -81.42,-80.72 -248.85,-205.21 -248.85,-205.21l353.38 -1174.97 424.18 -228.56 -142.67 -587.08 -852.91 115.28 -966.62 345.82z"/>
   <path class="fil4" d="M4419.64 8587.06c0,5.08 -477.87,9.2 -1067.18,9.2 -589.56,0 -1067.34,-4.12 -1067.34,-9.2 0,-5.08 477.78,-9.18 1067.34,-9.18 589.31,0 1067.18,4.1 1067.18,9.18z"/>
   <path class="fil4" d="M4324 8932.46c0,5.05 -477.87,9.21 -1067.19,9.21 -589.56,0 -1067.31,-4.16 -1067.31,-9.21 0,-5.08 477.75,-9.21 1067.31,-9.21 589.32,0 1067.19,4.13 1067.19,9.21z"/>
   <path class="fil4" d="M4324 9305.49c0,5.08 -361.91,9.17 -808.3,9.17 -446.54,0 -808.41,-4.09 -808.41,-9.17 0,-5.08 361.87,-9.21 808.41,-9.21 446.39,0 808.3,4.13 808.3,9.21z"/>
   <path class="fil4" d="M4448.07 9664.69c0,5.08 -361.95,9.17 -808.35,9.17 -446.53,0 -808.4,-4.09 -808.4,-9.17 0,-5.08 361.87,-9.18 808.4,-9.18 446.4,0 808.35,4.1 808.35,9.18z"/>
   <path class="fil4" d="M4830.73 8122.59c0,5.08 -239.11,9.21 -533.96,9.21 -294.96,0 -534,-4.13 -534,-9.21 0,-5.08 239.04,-9.17 534,-9.17 294.85,0 533.96,4.09 533.96,9.17z"/>
   <path class="fil4" d="M4869.54 7756.34c0.1,5.08 -238.02,14.74 -531.85,21.62 -293.9,6.88 -532.2,8.33 -532.31,3.25 -0.14,-5.05 237.95,-14.75 531.89,-21.63 293.79,-6.88 532.16,-8.32 532.27,-3.24z"/>
   <path class="fil3" d="M2802.02 8766.41c4.95,1.13 -20.72,130.35 -57.32,288.57 -36.6,158.26 -70.28,285.61 -75.23,284.45 -4.93,-1.13 20.73,-130.32 57.33,-288.61 36.6,-158.22 70.28,-285.58 75.22,-284.41z"/>
   <polygon class="fil9" points="4470.51,13171.02 4023.75,14579.8 4562.3,14633.84 5068.15,13409.99 "/>
   <path class="fil11" d="M4864.56 14085.8l-256.54 636.1c0,0 560.39,474.38 524.41,596.54l-1251.2 -453.07 359.06 -1007.53 624.27 227.96z"/>
   <path class="fil1" d="M4240.75 14527.56c-26.6,-2.13 -53.2,19.04 -56.45,45.54 -3.24,26.49 18.06,53.73 44.63,56.33 26.56,2.61 59.27,-21.8 59.51,-48.5 0.25,-26.71 -26.49,-57.29 -52.91,-53.48l5.22 0.11z"/>
   <path class="fil1" d="M3881.23 14865.37l40.15 -100.16 1184.62 471.88c0,0 46.92,44.42 26.43,81.35l-1251.2 -453.07z"/>
   <path class="fil3" d="M4630.6 14722.88c-2.43,6.03 -33.97,-2.25 -71.15,6.49 -37.4,7.8 -62.48,28.69 -67.24,24.21 -5.19,-3.21 17.14,-36.48 62.37,-46.29 45.05,-10.2 79.37,10.48 76.02,15.59z"/>
   <path class="fil3" d="M4742.15 14824.7c-0.74,6.42 -30.97,7.22 -61.07,25.58 -30.62,17.42 -46,43.46 -51.96,40.98 -6.1,-1.09 2.65,-38.45 40.5,-60.5 37.68,-22.4 74.54,-11.96 72.53,-6.06z"/>
   <path class="fil3" d="M4759.82 15008.74c-6.03,-0.68 -3.45,-34.33 24.35,-62.08 27.62,-27.99 61.2,-30.77 61.94,-24.74 1.63,6.31 -23.42,17.53 -45.93,40.68 -22.96,22.62 -34.08,47.76 -40.36,46.14z"/>
   <path class="fil3" d="M4672.97 14571.43c-4.55,4.63 -29.56,-13.93 -64.95,-24.09 -35.17,-10.9 -66.21,-9.04 -67.52,-15.45 -1.94,-5.69 32.49,-18.81 74.01,-6.21 41.56,12.21 63.19,42.06 58.46,45.75z"/>
   <path class="fil3" d="M4722.36 14442.19c-0.85,2.53 -26.35,-2.49 -62.55,-23.05 -17.99,-10.3 -38.35,-24.76 -58.24,-43.89 -9.95,-9.55 -19.79,-20.28 -29.11,-32.13 -4.41,-5.79 -9.87,-11.99 -13.58,-21.55 -4.44,-8.82 -2.43,-26.42 8.96,-33.56 9.92,-7.3 22.76,-7.33 31.86,-4.26 9.31,3.03 16.12,7.62 22.33,11.75 12.7,8.47 24.09,17.77 34.11,27.51 19.97,19.48 34.4,40.28 44.03,58.85 19.3,37.35 20.95,63.77 18.41,64.2 -3.49,1.02 -10.68,-23.21 -32.2,-56.13 -10.69,-16.37 -25.4,-34.58 -44.45,-51.72 -9.6,-8.5 -20.25,-16.69 -31.97,-24.08 -11.99,-8.33 -23.24,-12.49 -28.78,-7.85 -2.05,1.85 -2.51,2.65 -1.17,7.56 1.59,4.62 5.68,10.05 10.02,15.77 8.47,11.22 17.32,21.51 26.28,30.9 17.89,18.74 36.06,33.69 52.14,45.16 32.25,23 55.21,33.22 53.91,36.52z"/>
   <path class="fil3" d="M4711.21 14448.04c-2.47,0.14 -6.67,-26.14 5.4,-66.5 6.07,-20.04 16.72,-43.08 33.41,-65.56 8.39,-11.14 18.31,-22.11 29.74,-32.23 11.81,-9.7 26.74,-23.04 51.43,-17.15 12.52,3.99 19.33,17.4 19.83,26.95 1.09,9.95 -0.74,17.5 -1.87,25.26 -3,15.49 -8.47,29.71 -15.24,42.26 -13.58,25.19 -32.53,43.4 -50.2,55 -36.2,23.57 -64.35,21.67 -64.1,19.4 -0.96,-3.77 24.62,-7.89 54.64,-32.27 14.78,-12.03 30.31,-29.28 41.14,-51.69 5.39,-11.15 9.7,-23.52 11.92,-36.64 2.89,-13.97 1.8,-26.54 -3.7,-27 -6.18,-2.33 -20.39,3.85 -29.35,12.6 -10.48,8.93 -19.76,18.52 -27.8,28.36 -16.06,19.76 -27.31,40.18 -34.79,58.14 -15.03,36.13 -16.79,61.31 -20.46,61.07z"/>
   <polygon class="fil9" points="6165.54,11844.89 6832.25,13003.69 7377.61,12653.81 6708.11,11477.4 "/>
   <path class="fil11" d="M7189.48 12322.69l344.38 593.19c0,0 718.56,-150.84 792.85,-47.44l-1126.09 709.04 -574.5 -902.15 563.36 -352.64z"/>
   <path class="fil1" d="M7154.9 13086.31c-18.02,19.73 -17.64,53.66 1.27,72.54 18.91,18.83 53.48,18.72 71.9,-0.64 18.38,-19.33 19.19,-60.15 -1.73,-76.77 -20.92,-16.57 -61.49,-14.29 -74.72,8.93l3.28 -4.06z"/>
   <path class="fil1" d="M7200.66 13577.48l-54.36 -93.2 1100.02 -644.95c0,0 63.85,-9.74 80.39,29.11l-1126.05 709.04z"/>
   <path class="fil3" d="M7548.53 12898.67c3.25,5.61 -22.68,25.4 -38.59,60.11 -16.86,34.29 -15.77,66.89 -22.23,67.91 -5.71,2.12 -18.24,-35.91 1.8,-77.61 19.62,-41.84 57.01,-56.19 59.02,-50.41z"/>
   <path class="fil3" d="M7697.36 12873.12c4.62,4.56 -13.3,28.87 -17.36,63.9 -5.04,34.92 6.07,63.04 0.46,66.22 -4.62,4.16 -28.71,-25.69 -22.86,-69.15 5.47,-43.47 36.37,-66.15 39.76,-60.97z"/>
   <path class="fil3" d="M7853.46 12972.26c-4.27,4.34 -29.21,-18.34 -34.07,-57.33 -5.08,-39.01 13.33,-67.2 18.55,-64.09 5.96,2.56 -0.56,29.24 3.92,61.2 3.7,32.07 16.72,56.24 11.6,60.22z"/>
   <path class="fil3" d="M7455.01 12772.2c0.88,6.42 -29.14,14.74 -58.91,36.45 -30.17,21.05 -47.8,46.7 -53.63,43.8 -5.68,-2.01 5.12,-37.22 40.5,-62.26 35.21,-25.26 72.04,-24.01 72.04,-17.99z"/>
   <path class="fil3" d="M7383.36 12653.77c1.48,2.26 -18.13,19.33 -56.58,35.25 -19.19,7.89 -43.11,15.06 -70.45,19.01 -13.66,1.98 -28.12,3.13 -43.18,3.21 -7.31,-0.08 -15.6,0.46 -25.4,-2.54 -9.7,-1.9 -22.33,-14.28 -20.96,-27.66 0.35,-12.28 8.19,-22.43 16.19,-27.73 8.15,-5.54 15.91,-8.07 23.01,-10.4 14.46,-4.87 28.82,-8.12 42.65,-10.06 27.65,-3.78 52.95,-2.4 73.48,1.38 41.35,7.76 63.22,22.68 62.02,24.94 -1.38,3.35 -24.94,-5.86 -64.07,-9.07 -19.54,-1.58 -42.93,-1.2 -68.15,3.32 -12.6,2.36 -25.61,5.75 -38.67,10.41 -13.9,4.36 -24.09,10.69 -23.81,17.91 0.14,2.73 0.49,3.64 5.19,5.54 4.62,1.6 11.43,1.7 18.62,1.81 14.08,0.2 27.62,-0.46 40.54,-1.74 25.78,-2.6 48.75,-7.79 67.66,-13.44 37.92,-11.28 60.11,-23.17 61.91,-20.14z"/>
   <path class="fil3" d="M7381.14 12666.18c-1.41,2.06 -24.73,-10.75 -49.14,-45.11 -12.1,-17.08 -23.74,-39.65 -31.22,-66.56 -3.64,-13.48 -6.25,-28.06 -7.2,-43.33 -0.39,-15.24 -1.73,-35.25 18.06,-51.08 10.87,-7.44 25.61,-4.59 33.45,0.88 8.53,5.29 13.4,11.36 18.8,17.03 10.37,11.87 18.24,24.92 23.99,37.97 11.53,26.18 14.25,52.28 12.56,73.4 -3.64,43.06 -22.44,64.04 -24.06,62.48 -3.57,-1.58 8.92,-24.26 8.08,-62.93 -0.39,-19.04 -4.48,-41.9 -15.53,-64.2 -5.43,-11.11 -12.59,-22.09 -21.55,-31.93 -9.28,-10.9 -19.86,-17.71 -23.57,-13.66 -5.64,3.43 -9.49,18.43 -8.08,30.87 0.57,13.77 2.47,27 5.26,39.37 5.75,24.81 14.96,46.25 24.52,63.16 19.26,34.03 38.1,50.93 35.63,53.64z"/>
   <path class="fil3" d="M4181.02 11681.48l1309.2 -890.3 825.85 1607.64 750.96 -406.36c0,0 -864.84,-2108.66 -1175.28,-2176.75 -173.92,-38.17 -2168.39,342.8 -2168.39,342.8l-222.85 -112.05 -564.17 -68.61 -36.05 91.23c-199.3,504.47 -176.55,1069.69 62.69,1556.52l27.44 55.88 1190.6 0z"/>
   <path class="fil3" d="M3721.35 10567.97c9.74,44.17 1092.03,1057.63 1092.03,1057.63l-624.49 2098.53 932 178.31 935.89 -2528.09 -1710.62 -1678.05 -781.19 328.82 156.38 542.85z"/>
   <path class="fil11" d="M5490.22 10791.18c2.85,4.19 -287.94,206.94 -649.4,452.72 -361.6,245.88 -656.94,441.78 -659.8,437.58 -2.86,-4.2 287.87,-206.9 649.47,-452.75 361.45,-245.82 656.87,-441.75 659.73,-437.55z"/>
   <path class="fil11" d="M6162.26 12099.38c-1.1,0.64 -12.32,-16.64 -31.61,-48.55 -19.51,-31.7 -46.36,-78.45 -79.13,-136.45 -65.12,-116.17 -151.94,-278.37 -243.8,-459.52 -92.04,-181.19 -172.62,-346.57 -229.49,-466.94 -28.47,-60.18 -51.08,-109.08 -66.21,-143.09 -15.17,-34 -22.93,-53.09 -21.8,-53.65 1.16,-0.53 11.07,17.49 28.25,50.55 18.31,35.98 42.34,83.33 71.44,140.48 61.28,121.56 143.4,284.33 234.17,464.32 91.83,181.01 176.71,344 238.83,461.65 30.1,56.63 55,103.51 73.98,139.17 17.36,32.88 26.46,51.43 25.37,52.03z"/>
   <path class="fil11" d="M5009.1 11250.92c4.51,2.36 -40.36,103.04 -100.16,224.89 -59.83,121.85 -112.04,218.9 -116.66,216.75 -4.62,-2.08 40.22,-102.76 100.19,-224.86 59.9,-122.1 112.15,-219.15 116.63,-216.78z"/>
   <path class="fil9" d="M2077.18 9223.64l-210.33 781.8c-27.22,101.1 -14.71,208.84 34.96,301.02 87.65,162.77 273.42,246.77 453.54,205.14l1677.43 -413.24 -175.36 -348.37 -1321.48 114.58 141.54 -537.17 -600.3 -103.76z"/>
   <polygon class="fil11" points="2821.27,10410.32 2843.16,10296.72 3752.15,10133.39 4016.31,8731.8 5704.77,8530.68 5421.04,10026.85 "/>
   <path class="fil0" d="M4774.46 9486.5c-44.23,-8.54 -72.14,-56.8 -62.3,-107.88 9.85,-51.01 53.7,-85.51 97.93,-76.94 44.28,8.54 72.15,56.8 62.31,107.84 -9.81,51.05 -53.7,85.52 -97.94,76.98z"/>
   <path class="fil9" d="M3068.32 6390.92l3.18 101.35 37.99 1517.22c4.41,176.11 159.37,312.6 347.95,306.42 190.43,-6.21 343.43,-155.47 341.91,-333.44 -1.62,-186.84 0.14,-383.53 0.14,-383.53 0,0 240.21,-42.8 286.42,-357.37 22.97,-156.45 12.17,-412.4 -3.45,-621.52 -14.08,-188.24 -181.86,-326.96 -369.36,-304.91l-644.78 75.78z"/>
   <path class="fil3" d="M3960.78 6794.99c0.99,21.24 -16.15,39.62 -38.34,41.06 -22.16,1.45 -40.96,-14.57 -41.95,-35.84 -0.99,-21.24 16.19,-39.65 38.31,-41.1 22.19,-1.44 40.99,14.61 41.98,35.88z"/>
   <path class="fil3" d="M4028.45 6753.86c-4.94,5.32 -35.71,-16.9 -79.03,-16.27 -43.28,0 -74.86,22.65 -79.62,17.4 -2.33,-2.33 2.65,-11.86 16.37,-22.12 13.55,-10.2 36.65,-20.22 63.64,-20.43 27.02,-0.18 49.85,9.53 63.01,19.54 13.44,10.06 18.06,19.51 15.63,21.88z"/>
   <path class="fil3" d="M3533.04 6810.58c1.02,21.24 -16.17,39.62 -38.34,41.07 -22.15,1.44 -40.94,-14.54 -41.95,-35.81 -0.99,-21.27 16.18,-39.65 38.31,-41.1 22.18,-1.45 40.99,14.57 41.98,35.84z"/>
   <path class="fil3" d="M3602.57 6766.91c-4.94,5.33 -35.73,-16.9 -79.03,-16.3 -43.3,0 -74.86,22.68 -79.62,17.39 -2.32,-2.29 2.6,-11.85 16.38,-22.08 13.52,-10.2 36.66,-20.21 63.64,-20.43 26.99,-0.17 49.81,9.49 63,19.55 13.41,10.05 18.07,19.51 15.63,21.87z"/>
   <path class="fil3" d="M3763.58 7086.46c-0.21,-2.47 26.67,-7.41 70.24,-13.52 11.04,-1.27 21.52,-3.59 23.28,-11.14 2.51,-8.05 -2.26,-19.94 -7.76,-32.74 -10.72,-26.67 -21.94,-54.61 -33.73,-83.89 -46.81,-119.42 -80.85,-217.7 -76.05,-219.54 4.83,-1.87 46.74,93.49 93.55,212.91 11.29,29.45 22.09,57.53 32.35,84.42 4.31,12.52 11.68,26.7 6.25,43.35 -2.9,8.29 -10.94,14.4 -18.03,16.41 -7.06,2.22 -13.3,2.43 -18.73,2.82 -43.92,2.86 -71.16,3.39 -71.37,0.92z"/>
   <path class="fil12" d="M3799.49 7598.94c0,0 -211.1,16.05 -421.85,-107.32 0,0 104.53,214.52 418.47,181.5l3.38 -74.18z"/>
   <path class="fil3" d="M3620 6695.54c-4.8,11.57 -47.77,3.99 -98.85,7.76 -51.16,2.79 -92.79,15.74 -99.03,4.87 -2.79,-5.18 4.86,-15.94 21.95,-26.56 16.93,-10.62 43.63,-20.22 74.27,-22.19 30.64,-1.94 58.34,4.2 76.47,12.59 18.35,8.36 27.27,18.03 25.19,23.53z"/>
   <path class="fil3" d="M4010.31 6603.5c-7.51,9.95 -37.46,0.07 -73.38,0 -35.87,-1.3 -66.21,7.41 -73.34,-2.82 -3.1,-4.94 1.55,-14.89 14.75,-24.34 12.95,-9.46 34.75,-17.29 59.44,-16.83 24.66,0.5 46.18,9.17 58.77,19.12 12.77,9.95 17.08,20.04 13.76,24.87z"/>
   <path class="fil12" d="M3758.82 7243.41c-12.24,3.63 -25.4,-0.74 -37.71,-3.88 -12.35,-3.64 -23.96,-6.81 -33.73,-10.06 -9.81,-3.21 -21.03,-7.62 -33.06,-12.06 -11.78,-4.84 -24.94,-9.18 -32.56,-19.44 -7.48,-9.77 -5.96,-26.78 10.97,-41.84 16.2,-14.85 48.86,-25.26 83.54,-13.83 34.61,11.54 54.61,39.41 58.74,60.96 4.59,22.23 -4.34,36.72 -16.19,40.15z"/>
   <path class="fil3" d="M3764.78 7239.6c-4.2,2.92 -25.26,-40.33 -75.92,-53.38 -50.73,-12.88 -89.99,14.92 -92.25,10.37 -1.48,-1.73 5.75,-11.5 22.9,-20.35 16.79,-8.82 44.55,-15.24 73.87,-7.8 29.31,7.55 50.59,26.49 61.06,42.3 10.83,15.98 12.46,28.05 10.34,28.86z"/>
   <path class="fil3" d="M3431.53 6186.27c100.42,149.55 74.93,370.56 -56.89,493.33 -75.09,69.88 -186.82,124.42 -194.42,226.73 -8.47,113.34 122.78,198.08 122.97,311.71 0.19,116.84 -134.59,191.28 -160.8,305.12 -21.11,91.62 33.65,183.54 97.12,252.93 63.49,69.32 139.82,130.92 177.89,216.92 42.03,94.76 30.14,206.84 -10.7,302.16 -40.84,95.32 -108.01,176.74 -177.33,253.86 -93.67,-33.69 -191.6,-55.49 -290.7,-64.7 6.22,-37.47 12.44,-74.93 18.65,-112.43 2.16,43.64 -34.4,81.7 -75.85,95.35 -41.44,13.73 -86.53,8.43 -129.66,1.63 -132.15,-20.78 -262.32,-54.26 -388.14,-99.77 53.7,-53.8 108.38,-108.94 141.82,-177.2 33.45,-68.3 42.42,-153.28 3.91,-218.83 -30.97,-52.7 -88.13,-86.6 -116.64,-140.65 -42.79,-81.1 -7.56,-184.19 53.24,-252.83 60.77,-68.58 143.05,-113.7 215.31,-170.11 72.25,-56.44 138.65,-132.75 144.48,-224.22 7.55,-118.71 -88.47,-226.87 -76.72,-345.26 13.38,-134.8 155.98,-217.21 211.94,-340.58 40.5,-89.28 35.06,-199.42 97.22,-275.23 46.03,-56.13 122.5,-81.42 195,-77.65 72.48,3.81 141.44,33.48 203.3,71.47l-5 -31.75z"/>
   <path class="fil3" d="M3825.74 7632.65c-56.73,31.33 -53.45,117.44 -18.91,172.26 34.57,54.82 90.1,93.91 124.21,149.02 60.86,98.25 34.58,240.87 -57.36,310.93l135.5 51.26 29.57 -16.68 83.18 -47.1 -39.02 96.1 86.72 -0.04c91.23,1.1 180.97,-52.74 222.99,-133.77 41.98,-81 34.22,-185.39 -19.23,-259.29 -35.7,-49.39 -91.12,-88.69 -103.12,-148.42 -14.5,-72 39.87,-137.33 66.54,-205.76 44.52,-114.34 3.81,-256.05 -94.65,-329.25l-416.42 360.74z"/>
   <path class="fil4" d="M1152.54 4777.81c15.85,7.62 26.78,23.81 26.79,42.58l-0.01 234.95c0.01,14.74 -6.94,28.68 -18.69,37.57 -11.78,8.96 -27.08,11.82 -41.3,7.79 -37.3,-10.51 -79.24,-4.09 -115.02,17.64 -32.94,19.97 -55.8,50.52 -62.69,83.82 -6.91,33.16 1.85,70.56 23.98,102.63 23.7,34.36 59.87,58.38 96.94,64.24 75.7,12.03 160.34,-42.69 184.81,-119.52 7.91,-24.84 34.42,-38.53 59.27,-30.62 25.2,8.11 38.53,34.43 30.64,59.26 -38.48,120.76 -168.36,203.34 -289.56,184.08 -62.84,-10.02 -121.16,-47.87 -159.76,-103.86 -36.72,-53.16 -50.8,-117.12 -38.72,-175.4 12.21,-58.84 50.89,-111.79 106.12,-145.31 39.94,-24.2 85.07,-36.58 129.64,-36.23l-0.02 -181.08c0.02,-26.07 21.13,-47.2 47.2,-47.16 7.32,0 14.22,1.65 20.38,4.62z"/>
   <path class="fil4" d="M1087.59 4679.03c-0.53,-21.31 16.29,-39.02 37.6,-39.58 21.31,-0.53 39.02,16.3 39.57,37.6 0.53,21.31 -16.3,39.02 -37.6,39.59 -21.31,0.56 -39.02,-16.3 -39.57,-37.61z"/>
   <path class="fil3" d="M2238.57 5937.04c0.18,1.09 -11.73,1.79 -31.02,9.7 -19.03,7.72 -45.58,24.83 -65.47,56.16 -9.71,15.59 -17.7,34.61 -20.2,55.95 -2.3,21.27 0.84,44.77 11.81,66.36 20.66,42.89 70.34,80.08 126.41,77.29 56.03,-3.84 100.97,-46.64 116.4,-91.72 8.35,-22.72 8.7,-46.39 3.9,-67.24 -5,-20.96 -15.19,-38.88 -26.67,-53.2 -23.43,-28.75 -51.85,-42.62 -71.64,-48.01 -20.09,-5.58 -32.01,-4.87 -31.96,-5.97 0,-0.35 2.91,-0.59 8.53,-0.7 2.83,-0.18 6.29,-0.04 10.37,0.53 4.12,0.39 8.84,0.95 14.03,2.33 20.72,4.41 50.85,17.71 76.17,47.27 12.42,14.75 23.59,33.44 29.31,55.74 5.53,22.19 5.46,47.91 -3.22,72.32 -8.14,24.44 -23.83,47.8 -45.36,65.79 -21.23,18.31 -49.2,30.8 -79.27,32.95 -30.08,1.41 -59.34,-7.69 -82.57,-23.35 -23.51,-15.31 -41.82,-36.66 -52.82,-60.01 -11.51,-23.18 -14.61,-48.68 -11.74,-71.4 3.04,-22.79 11.93,-42.69 22.51,-58.78 21.67,-32.38 50.01,-49.14 70.05,-55.98 5,-1.98 9.62,-3.11 13.67,-3.95 3.97,-1.06 7.4,-1.59 10.23,-1.77 5.6,-0.56 8.53,-0.67 8.55,-0.31z"/>
   <path class="fil3" d="M2581.76 6278.24c0.14,0.95 -7.32,1.66 -19.25,6.81 -11.78,5.05 -28.18,15.88 -40.38,35.38 -12.22,18.95 -18.77,48.55 -4.82,75.5 12.79,26.46 43.54,49.28 77.9,47.59 34.33,-2.33 62.17,-28.68 71.77,-56.45 10.65,-28.43 0.63,-57.04 -13.73,-74.4 -14.4,-17.95 -31.97,-26.77 -44.27,-30.41 -12.47,-3.67 -19.95,-3.49 -19.93,-4.44 -0.07,-0.42 7.49,-2.01 20.9,0.63 13.22,2.61 32.5,10.9 48.79,29.64 8,9.35 15.21,21.27 18.94,35.59 3.63,14.22 3.64,30.76 -1.9,46.43 -10.29,31.08 -40.54,60.64 -79.98,63.5 -39.49,1.83 -73.01,-23.96 -86.88,-53.59 -7.36,-14.92 -9.3,-31.36 -7.39,-45.93 2.01,-14.61 7.79,-27.31 14.61,-37.54 13.94,-20.56 32.12,-31.04 44.94,-35.17 13.02,-4.23 20.71,-3.56 20.68,-3.14z"/>
   <path class="fil3" d="M2181.57 5237.69c0,0 -0.2,-6 -0.03,-17.68 0.19,-11.95 0.5,-29.28 0.91,-51.89 0.23,-11.39 0.51,-24.13 0.79,-38.17 -0.34,-14.04 -2.11,-29.35 -3.25,-45.97 -1.28,-16.61 -2.68,-34.5 -4.19,-53.58 -0.37,-9.6 -1.88,-19.37 -3.93,-29.43 -1.78,-10.01 -3.65,-20.39 -5.55,-31 -12.47,-85.55 -43.93,-187.96 -97.63,-298.1 -54.27,-109.75 -135.85,-226.41 -251.42,-329.04 -14.54,-12.7 -29.23,-25.57 -44.13,-38.59 -15.59,-12.07 -32.15,-23.32 -48.46,-35.21 -8.2,-5.89 -16.46,-11.82 -24.76,-17.74 -8.24,-6.04 -16.53,-12.1 -25.68,-16.94 -17.85,-10.33 -35.89,-20.81 -54.1,-31.39 -9.15,-5.23 -18.21,-10.73 -27.55,-15.77 -9.69,-4.41 -19.4,-8.86 -29.17,-13.3 -19.56,-8.93 -39.29,-17.92 -59.22,-26.99 -20.16,-8.47 -41.48,-14.61 -62.45,-22.08 -10.54,-3.6 -21.14,-7.24 -31.78,-10.83 -5.35,-1.77 -10.62,-3.81 -16.07,-5.3l-16.53 -3.84c-44.25,-9.88 -88.77,-22.61 -135.64,-26.57 -23.29,-2.61 -46.63,-6.77 -70.38,-8.25 -23.78,-0.64 -47.76,-1.27 -71.91,-1.91 -12.08,-0.1 -24.22,-1.12 -36.35,-0.49 -12.14,0.92 -24.32,1.83 -36.53,2.75 -24.41,2.08 -49.13,3 -73.74,6.11 -48.79,9.27 -99.05,15.09 -147.64,31.07 -12.28,3.43 -24.58,6.88 -36.93,10.34 -6.17,1.84 -12.4,3.35 -18.52,5.36l-18 7.02c-24.05,9.35 -48.23,18.81 -72.55,28.26 -23.83,10.62 -46.87,23.36 -70.55,35 -11.63,6.24 -23.92,11.36 -35.1,18.52l-33.71 21.38c-46.38,26.74 -87.77,61.49 -130.92,94.72 -19.82,18.69 -39.73,37.43 -59.74,56.26l-15.03 14.19c-4.7,5.01 -9.12,10.3 -13.71,15.45l-27.36 31.25 -27.49 31.33 -24.56 33.9 -24.57 34.15 -12.32 17.11c-3.74,5.96 -7.12,12.14 -10.72,18.2 -14.18,24.38 -28.41,48.86 -42.7,73.45 -11.83,25.83 -23.7,51.79 -35.61,77.83 -43.77,105.86 -71.78,219.74 -82.49,337.04 -7.62,117.55 2.33,234.42 29.13,345.83 7.73,27.59 15.44,55.07 23.1,82.44 10.32,26.5 20.59,52.92 30.81,79.2l7.76 19.69 9.52 18.8 18.96 37.53 19.01 37.33 22.31 35.24 22.18 35.1 11.14 17.43 12.65 16.33c16.84,21.7 33.62,43.36 50.3,64.88 37.47,39.51 72.99,80.29 114.65,113.91l30 26.35c9.92,8.82 21.28,15.81 31.8,23.75 21.59,15.16 42.38,31.32 64.28,45.5 22.56,13.16 45,26.21 67.28,39.2l16.72 9.73c5.72,2.93 11.66,5.4 17.45,8.15 11.68,5.33 23.3,10.66 34.9,15.98 45.53,23.29 94.27,36.87 141.05,53.59 23.84,6.88 48.12,11.61 71.9,17.46 11.95,2.83 23.83,5.61 35.68,8.4 11.89,2.5 24.04,3.35 35.98,5.15 23.96,3.1 47.75,6.17 71.37,9.24 23.69,2.23 47.39,1.77 70.77,2.79 46.94,3.39 92.91,-2.33 138.15,-5.22l16.94 -1.24c5.62,-0.63 11.13,-1.83 16.67,-2.75 11.08,-1.94 22.12,-3.84 33.09,-5.75 21.9,-4.2 43.9,-6.88 65.14,-12.13 21.08,-5.9 41.97,-11.72 62.67,-17.5 10.34,-2.86 20.65,-5.72 30.9,-8.57 9.93,-3.81 19.81,-7.59 29.64,-11.36 19.65,-7.62 39.09,-15.14 58.34,-22.62 9.79,-3.38 18.91,-8.08 27.99,-12.73 9.11,-4.62 18.19,-9.17 27.21,-13.72 17.95,-9.25 36.06,-17.75 53.34,-27.27 16.73,-10.55 33.22,-20.96 49.55,-31.26 130.11,-83.5 228.8,-186.09 299.41,-286.07 8.9,-12.49 17.97,-24.55 26.34,-36.76 7.46,-12.8 14.81,-25.36 22,-37.67 7.21,-12.32 14.26,-24.38 21.2,-36.23 3.36,-5.97 7.09,-11.65 10.07,-17.68 2.81,-6.1 5.58,-12.13 8.34,-18.1 10.99,-23.88 21.51,-46.74 31.55,-68.54 9.43,-22.05 15.73,-44.06 23.15,-64.35 3.53,-10.23 6.98,-20.18 10.33,-29.81 3.54,-9.59 6.56,-19.01 8.42,-28.43 4.43,-18.63 8.59,-36.06 12.45,-52.28 3.68,-16.23 7.8,-31.08 10.33,-44.91 1.88,-13.9 3.59,-26.53 5.12,-37.82 3.12,-22.4 5.5,-39.55 7.13,-51.36 1.68,-11.57 2.8,-17.5 2.8,-17.5 0,0 -0.44,5.96 -1.77,17.6 -1.41,11.86 -3.46,29.07 -6.15,51.54 -1.39,11.36 -2.95,24.03 -4.64,38 -2.36,13.86 -6.34,28.78 -9.9,45.08 -3.71,16.3 -7.73,33.83 -12.01,52.6 -1.82,9.46 -4.76,18.91 -8.26,28.58 -3.28,9.7 -6.65,19.68 -10.11,29.95 -7.3,20.42 -13.5,42.58 -22.82,64.77 -9.95,21.94 -20.4,44.98 -31.3,69 -2.74,6.03 -5.49,12.1 -8.29,18.24 -2.94,6.07 -6.66,11.82 -10.02,17.81 -6.89,11.93 -13.93,24.1 -21.1,36.52 -7.19,12.38 -14.51,25.04 -21.95,37.92 -8.34,12.31 -17.39,24.48 -26.31,37.08 -70.53,100.82 -169.43,204.4 -300.14,288.82 -16.38,10.4 -32.98,20.95 -49.77,31.61 -17.38,9.63 -35.59,18.27 -53.63,27.62 -9.08,4.58 -18.19,9.21 -27.37,13.86 -9.14,4.73 -18.31,9.49 -28.15,12.91 -19.37,7.55 -38.93,15.21 -58.69,22.93 -9.91,3.78 -19.78,7.87 -29.85,11.47 -10.31,2.93 -20.67,5.86 -31.1,8.78 -20.83,5.86 -41.87,11.75 -63.09,17.71 -21.39,5.33 -43.55,8.15 -65.6,12.39 -11.06,1.94 -22.17,3.91 -33.33,5.89 -5.59,0.91 -11.16,2.15 -16.8,2.78l-17.07 1.27c-45.59,3 -91.92,8.86 -139.21,5.54 -23.58,-0.99 -47.48,-0.49 -71.36,-2.68 -23.79,-3.07 -47.79,-6.1 -71.94,-9.21 -12.05,-1.76 -24.29,-2.64 -36.3,-5.15 -11.95,-2.78 -23.94,-5.57 -35.98,-8.36 -23.99,-5.89 -48.48,-10.62 -72.54,-17.57 -47.2,-16.75 -96.37,-30.41 -142.32,-53.83 -11.71,-5.33 -23.43,-10.69 -35.22,-16.09 -5.85,-2.71 -11.83,-5.22 -17.61,-8.18l-16.85 -9.77c-22.52,-13.09 -45.17,-26.25 -67.94,-39.48 -22.1,-14.29 -43.1,-30.51 -64.89,-45.82 -10.64,-8.01 -22.09,-15.07 -32.11,-23.96l-30.3 -26.53c-42.03,-33.9 -77.94,-75 -115.75,-114.86 -16.86,-21.7 -33.78,-43.5 -50.8,-65.41l-12.79 -16.47 -11.24 -17.57 -22.44 -35.42 -22.5 -35.56 -19.21 -37.6 -19.15 -37.89 -9.62 -19.02 -7.86 -19.82c-10.31,-26.53 -20.68,-53.2 -31.1,-79.94 -7.76,-27.63 -15.54,-55.35 -23.36,-83.22 -27.09,-112.43 -37.15,-230.4 -29.43,-349.04 10.79,-118.36 39.08,-233.29 83.3,-340.11 12.02,-26.29 24.02,-52.5 35.98,-78.57 14.41,-24.8 28.8,-49.49 43.12,-74.12 3.62,-6.1 7.04,-12.34 10.83,-18.38l12.43 -17.25 24.79 -34.43 24.85 -34.22 27.74 -31.61 27.63 -31.5c4.61,-5.19 9.09,-10.51 13.85,-15.59l15.15 -14.25c20.22,-19.02 40.33,-37.96 60.34,-56.77 43.53,-33.51 85.36,-68.51 132.15,-95.46l34.04 -21.55c11.28,-7.2 23.69,-12.39 35.43,-18.63 23.89,-11.75 47.14,-24.55 71.19,-35.21 24.55,-9.52 48.97,-19.05 73.22,-28.47l18.18 -7.02c6.17,-2.01 12.46,-3.56 18.67,-5.39 12.46,-3.46 24.89,-6.95 37.26,-10.41 49.04,-16.02 99.73,-21.87 148.96,-31.12 24.82,-3.1 49.76,-3.98 74.37,-6.06 12.32,-0.92 24.6,-1.8 36.82,-2.68 12.25,-0.64 24.49,0.38 36.66,0.52 24.35,0.71 48.5,1.38 72.5,2.05 23.92,1.55 47.44,5.72 70.91,8.43 47.21,4.06 92.07,17.01 136.66,27.02l16.66 3.92c5.46,1.52 10.76,3.6 16.15,5.36 10.72,3.67 21.39,7.34 32.01,10.97 21.11,7.62 42.58,13.83 62.88,22.41 20.04,9.17 39.92,18.3 59.59,27.3 9.84,4.52 19.62,9 29.37,13.48 9.39,5.11 18.5,10.69 27.68,15.98 18.33,10.69 36.47,21.27 54.43,31.71 9.19,4.94 17.53,11.04 25.82,17.15 8.33,5.99 16.62,11.99 24.88,17.95 16.4,12 33.02,23.39 48.7,35.6 14.94,13.12 29.7,26.1 44.29,38.95 116.04,103.64 197.68,221.29 251.73,331.85 53.52,110.99 84.52,214 96.46,299.94 1.83,10.68 3.62,21.09 5.36,31.18 1.94,10.05 3.39,19.86 3.71,29.53 1.32,19.15 2.57,37.11 3.72,53.8 0.97,16.65 2.59,31.99 2.77,46.07 -0.47,14.08 -0.9,26.85 -1.3,38.28 -0.83,22.61 -1.47,39.93 -1.9,51.89 -0.51,11.71 -1,17.64 -1,17.64z"/>
   <polygon class="fil2" points="6921.01,11064.76 14203.92,11064.76 14203.92,9.2 6921.01,9.2 "/>
   <polygon class="fil13" points="6905.88,5330.22 14191.01,5330.22 14191.01,572.31 6905.88,572.31 "/>
   <polygon class="fil3" points="8685.88,6000.92 8685.88,6109.16 8841.56,6109.16 8841.56,6147.33 8685.88,6147.33 8685.88,6272.84 8641.53,6272.84 8641.53,5962.33 8860.64,5962.33 8860.64,6000.92 "/>
   <path class="fil3" d="M9089.14 6155.3c0,-50.13 -33.69,-82.52 -78.99,-82.52 -45.22,0 -79.37,32.39 -79.37,82.52 0,50.13 34.15,82.94 79.37,82.94 45.3,0 78.99,-32.81 78.99,-82.94zm-201.37 0c0,-70.1 51.86,-119.77 122.38,-119.77 70.52,0 121.99,49.67 121.99,119.77 0,70.1 -51.47,120.19 -121.99,120.19 -70.52,0 -122.38,-50.09 -122.38,-120.19z"/>
   <path class="fil3" d="M9317.56 6035.53l0 41.28c-3.53,-0.46 -6.63,-0.46 -9.73,-0.46 -45.69,0 -74.09,27.94 -74.09,79.37l0 117.12 -42.58 0 0 -235.09 40.78 0 0 39.48c15.1,-27.48 44.38,-41.7 85.62,-41.7z"/>
   <path class="fil3" d="M9550.89 6149.09c0,-45.68 -33.69,-76.31 -80.72,-76.31 -47.45,0 -81.14,30.63 -81.14,76.31 0,45.23 33.69,76.73 81.14,76.73 47.03,0 80.72,-31.5 80.72,-76.73zm41.7 -111.34l0 203.13c0,82.98 -42.12,120.65 -121.96,120.65 -43.04,0 -86.5,-11.96 -112.25,-35.03l20.42 -32.81c21.74,18.63 55.88,30.59 90.49,30.59 55.42,0 80.72,-25.72 80.72,-78.95l0 -18.63c-20.39,24.41 -50.98,36.37 -84.7,36.37 -67.88,0 -119.31,-46.14 -119.31,-113.98 0,-67.87 51.43,-113.56 119.31,-113.56 35.03,0 66.95,12.88 86.95,38.59l0 -36.37 40.33 0z"/>
   <path class="fil3" d="M9853.43 6155.3c0,-50.13 -33.72,-82.52 -78.99,-82.52 -45.22,0 -79.37,32.39 -79.37,82.52 0,50.13 34.15,82.94 79.37,82.94 45.27,0 78.99,-32.81 78.99,-82.94zm-201.36 0c0,-70.1 51.85,-119.77 122.37,-119.77 70.52,0 121.99,49.67 121.99,119.77 0,70.1 -51.47,120.19 -121.99,120.19 -70.52,0 -122.37,-50.09 -122.37,-120.19z"/>
   <path class="fil3" d="M10087.64 6259.09c-12.84,11.07 -32.38,16.4 -51.43,16.4 -47.45,0 -74.51,-26.18 -74.51,-73.62l0 -129.09 -39.94 0 0 -35.03 39.94 0 0 -51.47 42.58 0 0 51.47 67.41 0 0 35.03 -67.41 0 0 127.32c0,25.3 13.3,39.48 36.79,39.48 12.46,0 24.42,-3.99 33.27,-11.12l13.3 30.63z"/>
   <path class="fil3" d="M10458.94 6155.3c0,-49.67 -34.15,-82.52 -79.41,-82.52 -44.8,0 -78.95,32.85 -78.95,82.52 0,50.13 34.15,82.94 78.95,82.94 45.26,0 79.41,-32.81 79.41,-82.94zm43 0c0,72.28 -50.09,120.19 -118.85,120.19 -33.27,0 -62.55,-12.84 -82.05,-38.14l0 121.54 -42.58 0 0 -321.14 40.78 0 0 37.26c19.08,-26.18 49.24,-39.48 83.85,-39.48 68.76,0 118.85,47.91 118.85,119.77z"/>
   <path class="fil3" d="M10702.5 6200.98l0 -32.84 -65.62 0c-42.19,0 -54.15,16.44 -54.15,36.41 0,23.49 19.51,38.13 51.89,38.13 31.93,0 57.22,-14.64 67.88,-41.7zm42.58 -70.09l0 141.95 -40.36 0 0 -31.08c-14.18,21.31 -40.36,33.73 -77.19,33.73 -53.23,0 -86.92,-28.36 -86.92,-69.18 0,-37.71 24.41,-68.76 94.47,-68.76l67.42 0 0 -8.43c0,-35.95 -20.85,-56.76 -62.97,-56.76 -27.94,0 -56.34,9.74 -74.51,25.26l-17.75 -31.93c24.38,-19.51 59.41,-30.16 97.12,-30.16 64.32,0 100.69,31.05 100.69,95.36z"/>
   <path class="fil3" d="M10794.36 6248.01l17.71 -33.73c19.97,14.18 51.89,24.38 82.51,24.38 39.48,0 55.88,-11.96 55.88,-31.93 0,-52.77 -148.59,-7.09 -148.59,-100.68 0,-42.12 37.72,-70.52 98.04,-70.52 30.62,0 65.19,7.97 85.59,21.31l-18.17 33.69c-21.31,-13.72 -44.81,-18.63 -67.88,-18.63 -37.25,0 -55.42,13.76 -55.42,32.39 0,55.45 149.01,10.19 149.01,101.56 0,42.58 -39.01,69.64 -101.56,69.64 -39.02,0 -77.61,-11.96 -97.12,-27.48z"/>
   <path class="fil3" d="M11016.57 6248.01l17.75 -33.73c19.97,14.18 51.89,24.38 82.51,24.38 39.48,0 55.88,-11.96 55.88,-31.93 0,-52.77 -148.59,-7.09 -148.59,-100.68 0,-42.12 37.72,-70.52 98.01,-70.52 30.65,0 65.22,7.97 85.62,21.31l-18.17 33.69c-21.31,-13.72 -44.81,-18.63 -67.88,-18.63 -37.25,0 -55.42,13.76 -55.42,32.39 0,55.45 149.01,10.19 149.01,101.56 0,42.58 -39.01,69.64 -101.56,69.64 -39.02,0 -77.65,-11.96 -97.16,-27.48z"/>
   <polygon class="fil3" points="11619.82,6037.75 11532.02,6272.84 11491.2,6272.84 11423.36,6094.55 11354.57,6272.84 11313.79,6272.84 11226.41,6037.75 11266.76,6037.75 11335.1,6224.94 11406.04,6037.75 11441.99,6037.75 11511.63,6225.82 11581.69,6037.75 "/>
   <path class="fil3" d="M11835.9 6155.3c0,-50.13 -33.69,-82.52 -78.95,-82.52 -45.26,0 -79.38,32.39 -79.38,82.52 0,50.13 34.12,82.94 79.38,82.94 45.26,0 78.95,-32.81 78.95,-82.94zm-201.36 0c0,-70.1 51.89,-119.77 122.41,-119.77 70.52,0 121.99,49.67 121.99,119.77 0,70.1 -51.47,120.19 -121.99,120.19 -70.52,0 -122.41,-50.09 -122.41,-120.19z"/>
   <path class="fil3" d="M12064.36 6035.53l0 41.28c-3.56,-0.46 -6.67,-0.46 -9.77,-0.46 -45.69,0 -74.05,27.94 -74.05,79.37l0 117.12 -42.62 0 0 -235.09 40.82 0 0 39.48c15.06,-27.48 44.38,-41.7 85.62,-41.7z"/>
   <path class="fil3" d="M12294.12 6155.3c0,-50.13 -34.14,-82.52 -78.95,-82.52 -45.22,0 -79.37,32.39 -79.37,82.52 0,50.13 34.15,82.94 79.37,82.94 44.81,0 78.95,-32.81 78.95,-82.94zm42.16 -211.6l0 329.14 -40.82 0 0 -37.25c-19.08,26.6 -49.24,39.9 -83.85,39.9 -68.72,0 -118.85,-48.33 -118.85,-120.19 0,-71.86 50.13,-119.77 118.85,-119.77 33.3,0 62.58,12.42 82.06,37.71l0 -129.54 42.61 0z"/>
   <path class="fil3" d="M12471.57 6247.13c0,-15.98 12,-28.4 28.86,-28.4 16.44,0 28.4,12.42 28.4,28.4 0,15.52 -11.96,28.36 -28.4,28.36 -16.86,0 -28.86,-12.84 -28.86,-28.36zm84.28 -202.71c0,-28.4 -23.49,-47.91 -63.43,-47.91 -35.91,0 -61.63,12.42 -79.37,35.03l-32.39 -23.07c24.41,-31.47 62.97,-49.67 114.9,-49.67 63.89,0 105.13,29.71 105.13,78.95 0,74.09 -78.53,78.95 -78.53,137.06l-44.38 0c0,-69.64 78.07,-79.41 78.07,-130.39z"/>
   <path class="fil14" d="M13441.99 6910.07c0,5.08 -1248.02,9.17 -2787.22,9.17 -1539.67,0 -2787.44,-4.09 -2787.44,-9.17 0,-5.08 1247.77,-9.18 2787.44,-9.18 1539.2,0 2787.22,4.1 2787.22,9.18z"/>
   <path class="fil14" d="M12252.21 7207.95c0,5.08 -715.32,9.21 -1597.48,9.21 -882.47,0 -1597.62,-4.13 -1597.62,-9.21 0,-5.08 715.15,-9.17 1597.62,-9.17 882.16,0 1597.48,4.09 1597.48,9.17z"/>
   <path class="fil3" d="M11622.75 2385.66c91.76,98.39 86.43,252.59 -11.96,344.38 -98.39,91.79 -252.55,86.43 -344.38,-11.96 -91.76,-98.39 -86.43,-252.55 11.96,-344.35 98.39,-91.79 252.55,-86.46 344.38,11.93zm125.56 1044.47c343,-320.01 361.63,-857.43 41.62,-1200.44 -319.97,-343 -857.42,-361.66 -1200.43,-41.66 -293.4,273.72 -349.25,706.44 -159.07,1040.55l-172.82 161.22 41.31 286.88 -268.22 -75.17 -216.22 201.71 41.28 286.88 -268.18 -75.17 -185.85 173.39 25.16 174.83 -163.44 -45.79 -108.17 100.9 -16.19 265.67 396.24 99.73 1285.66 -1199.51c302.51,135.61 669.75,86.29 927.32,-154.02z"/>
   <path class="fil3" d="M11622.75 2385.66c-1.55,1.62 -15.91,-14.82 -48.4,-34.82 -31.89,-19.58 -85.97,-41.21 -153.35,-33.66 -66.11,6.21 -144.71,48.62 -184.47,128.45 -41.06,77.43 -33.19,190.6 37.64,265.22 69.5,75.88 181.9,91.58 262.01,55.98 82.37,-34.18 130.14,-109.68 140.94,-175.19 12.2,-66.67 -5.65,-122.09 -22.97,-155.29 -17.67,-33.76 -33.09,-49.25 -31.4,-50.69 0.57,-0.5 4.52,3.14 11.68,10.51 7.27,7.3 16.86,19.3 26.95,36.19 20.11,33.06 41.49,90.53 30.52,161.82 -9.53,69.96 -59.16,152.51 -148.03,190.64 -43.5,19.09 -95.42,26.29 -146.44,16.41 -51.25,-8.89 -100.82,-35.95 -138.74,-75.92 -37.29,-40.64 -60.79,-91.97 -66.11,-143.69 -6.32,-51.57 4.48,-102.87 26.52,-144.88 44.17,-86.04 129.97,-129.86 200.42,-134.48 71.86,-6.03 127.7,19.3 159.31,41.63 16.19,11.22 27.48,21.62 34.26,29.42 6.88,7.62 10.23,11.85 9.66,12.35z"/>
   <path class="fil3" d="M11748.31 3430.13c0,0 -3.92,4.19 -12.21,11.74 -8.96,7.98 -21.34,19.02 -37.39,33.34 -34.96,26.81 -87.21,67.35 -164.4,104.49 -76.8,36.83 -178.43,70.88 -301.84,81.14 -122.83,9.21 -268.28,-6.49 -414.09,-70.84l6.99 -1.16c-331.36,310.3 -772.23,723.05 -1283.51,1201.81l-3.81 3.53 -5.05 -1.27c-124.42,-31.19 -258.79,-64.88 -396.38,-99.35l-7.97 -1.97 0.49 -8.26c5.01,-82.86 10.45,-173.67 15.98,-265.67l0.25 -4.03 2.96 -2.78c33.55,-31.36 70.74,-66.04 108.13,-101l4.2 -3.92 5.54 1.55c50.9,14.26 106.99,29.92 163.47,45.72l-13.01 11.4c-7.87,-54.58 -16.55,-114.48 -25.23,-174.8l-0.81 -5.36 4.02 -3.71c58.39,-54.54 121.82,-113.77 185.78,-173.46l4.3 -4.06 5.72 1.63c84.66,23.7 176.03,49.28 268.18,75.07l-13.34 11.71c-13.09,-90.95 -27.13,-188.56 -41.31,-286.88l-0.77 -5.47 4.05 -3.77c18.1,-16.87 37.68,-35.17 57.33,-53.48 53.27,-49.71 106.29,-99.17 158.89,-148.24l4.37 -4.06 5.72 1.59c90.2,25.29 179.6,50.38 268.18,75.21l-13.26 11.64c-13.9,-96.59 -27.66,-192.22 -41.21,-286.84l-0.81 -5.43 4.02 -3.71c58.21,-54.29 115.85,-107.98 172.86,-161.18l-1.94 12.73c-66.92,-120.29 -105.41,-253.71 -110.42,-386.75 -2.75,-66.32 1.24,-132.53 14.12,-196.49 11,-64.35 31.57,-126.05 56.51,-184.75 101.92,-235.94 307.48,-405.8 528.04,-474.14 221.72,-70.34 454.23,-42.19 635.81,48.05 184.29,88.94 314.85,238.48 390.95,390.56 74.29,154.48 96.06,312.25 83.54,445.81 -11.08,134.19 -51.3,244.72 -95.29,327.02 -5.43,10.37 -10.69,20.46 -15.84,30.24 -6,9.27 -11.82,18.23 -17.43,26.95 -11.57,17.18 -21.16,34.04 -32.24,48.19 -22.9,27.62 -40.5,52.42 -57.82,69.67 -16.9,16.9 -29.88,29.85 -39.27,39.19 -8.89,8.75 -13.75,12.85 -13.75,12.85 0,0 4.02,-5.05 12.45,-14.19 9,-9.63 21.52,-22.96 37.78,-40.32 16.83,-17.64 33.83,-42.68 56.16,-70.45 10.73,-14.22 20.04,-31.15 31.26,-48.33 5.5,-8.71 11.15,-17.67 16.97,-26.95 4.94,-9.77 10.02,-19.86 15.27,-30.2 42.66,-82.09 81.43,-191.84 91.3,-324.52 11.36,-131.97 -11.18,-287.37 -85.09,-439.03 -75.74,-149.26 -204.78,-295.66 -385.97,-382.17 -178.51,-87.84 -406.51,-114.61 -623.36,-45.15 -215.62,67.45 -416.35,234.14 -515.41,464.78 -24.27,57.4 -44.31,117.69 -54.96,180.56 -12.49,62.47 -16.26,127.17 -13.44,191.94 5.01,129.89 42.76,260.07 108.16,377.37l3.99 7.16 -5.93 5.54c-56.97,53.23 -114.58,107 -172.72,161.29l3.21 -9.1c13.62,94.58 27.45,190.21 41.35,286.81l2.32 16.05 -15.59 -4.38c-88.62,-24.83 -178.01,-49.88 -268.22,-75.1l10.09 -2.47c-52.63,49.1 -105.62,98.53 -158.89,148.23 -19.61,18.31 -39.23,36.62 -57.32,53.48l3.28 -9.24c14.11,98.32 28.15,195.93 41.24,286.85l2.29 16.08 -15.63 -4.37c-92.11,-25.86 -183.48,-51.51 -268.14,-75.25l10.01 -2.43c-64.06,59.69 -127.52,118.85 -185.94,173.32l3.21 -9.11c8.64,60.33 17.25,120.27 25.08,174.84l2.22 15.73 -15.24 -4.3c-56.48,-15.87 -112.54,-31.61 -163.41,-45.9l9.74 -2.36c-37.43,34.89 -74.65,69.53 -108.23,100.82l3.21 -6.77c-5.68,92.01 -11.33,182.81 -16.41,265.64l-7.51 -10.23c137.48,34.75 271.82,68.69 396.13,100.09l-8.81 2.29c513,-476.92 955.35,-888.12 1287.81,-1197.22l3.14 -2.9 3.92 1.73c143.19,64.17 286.59,80.68 408.05,72.57 122.07,-9.14 222.99,-41.81 299.62,-77.37 77.01,-35.87 129.61,-75.24 165.13,-101.03 16.55,-13.72 29.25,-24.27 38.46,-31.89 8.67,-7.13 13.37,-10.44 13.37,-10.44z"/>
   <path class="fil4" d="M11594.28 2289.28c91.8,98.39 86.43,252.55 -11.96,344.34 -98.39,91.8 -252.55,86.47 -344.34,-11.92 -91.79,-98.39 -86.43,-252.59 11.96,-344.38 98.39,-91.79 252.55,-86.43 344.34,11.96zm125.59 1044.47c343.01,-320.01 361.64,-857.46 41.63,-1200.51 -320,-342.97 -857.46,-361.59 -1200.47,-41.62 -293.37,273.72 -349.21,706.43 -159.06,1040.58l-0.22 0.22 -172.61 161 41.31 286.88 -268.22 -75.17 -216.21 201.71 41.27 286.85 -268.15 -75.18 -185.87 173.39 25.15 174.87 -163.44 -45.82 -108.17 100.93 -16.19 265.64 396.21 99.73 1285.73 -1199.48c302.47,135.57 669.71,86.29 927.31,-154.02z"/>
   <path class="fil3" d="M11594.28 2289.28c-1.55,1.55 -15.91,-14.85 -48.4,-34.86 -31.89,-19.58 -85.93,-41.2 -153.31,-33.65 -66.12,6.21 -144.75,48.65 -184.51,128.44 -41.06,77.44 -33.19,190.65 37.64,265.22 69.5,75.89 181.93,91.58 262.01,55.99 82.38,-34.15 130.18,-109.64 140.94,-175.16 12.2,-66.71 -5.65,-122.13 -22.97,-155.32 -17.71,-33.76 -33.12,-49.25 -31.4,-50.66 0.53,-0.53 4.52,3.1 11.68,10.51 7.27,7.27 16.9,19.26 26.95,36.16 20.11,33.09 41.49,90.56 30.52,161.82 -9.49,69.96 -59.16,152.51 -148.03,190.64 -43.46,19.09 -95.42,26.28 -146.44,16.44 -51.25,-8.93 -100.82,-35.95 -138.74,-75.95 -37.29,-40.61 -60.79,-91.94 -66.11,-143.65 -6.32,-51.58 4.48,-102.87 26.53,-144.93 44.2,-86 129.96,-129.85 200.44,-134.47 71.86,-6.04 127.71,19.29 159.28,41.66 16.2,11.18 27.48,21.59 34.22,29.39 6.92,7.65 10.23,11.88 9.7,12.38z"/>
   <path class="fil3" d="M11719.87 3333.75c0,0 -3.91,4.16 -12.24,11.71 -8.96,8.01 -21.27,19.01 -37.39,33.37 -34.96,26.81 -87.21,67.31 -164.4,104.46 -76.8,36.83 -178.4,70.91 -301.83,81.14 -122.84,9.24 -268.29,-6.49 -414.06,-70.8l6.99 -1.2c-331.4,310.3 -772.27,723.05 -1283.55,1201.8l-3.78 3.53 -5.08 -1.23c-124.39,-31.19 -258.79,-64.88 -396.34,-99.34l-8.01 -2.02 0.53 -8.25c4.97,-82.83 10.44,-173.64 15.98,-265.68l0.25 -4.02 2.96 -2.75c33.55,-31.36 70.73,-66.08 108.09,-101l4.2 -3.95 5.54 1.55c50.94,14.25 107,29.95 163.48,45.72l-13.02 11.43c-7.9,-54.57 -16.55,-114.51 -25.23,-174.8l-0.77 -5.4 3.98 -3.7c58.39,-54.54 121.78,-113.74 185.78,-173.46l4.34 -4.06 5.68 1.62c84.63,23.71 176.03,49.28 268.18,75.11l-13.3 11.68c-13.13,-90.92 -27.17,-188.53 -41.31,-286.85l-0.81 -5.5 4.05 -3.78c18.1,-16.86 37.72,-35.13 57.33,-53.48 53.27,-49.7 106.29,-99.13 158.89,-148.23l4.38 -4.06 5.71 1.62c90.21,25.3 179.6,50.34 268.18,75.18l-13.3 11.67c-13.86,-96.59 -27.58,-192.26 -41.17,-286.87l-0.77 -5.44 3.98 -3.7c58.21,-54.26 115.86,-107.99 172.86,-161.15l-1.9 12.7c-66.96,-120.26 -105.45,-253.72 -110.42,-386.71 -2.75,-66.36 1.2,-132.58 14.08,-196.54 11.04,-64.31 31.6,-126.01 56.55,-184.71 101.84,-235.97 307.44,-405.8 528,-474.14 221.75,-70.37 454.24,-42.19 635.81,48.02 184.29,88.93 314.89,238.51 390.95,390.56 74.29,154.51 96.1,312.28 83.54,445.8 -11.05,134.24 -51.3,244.76 -95.29,327.03 -5.43,10.37 -10.69,20.46 -15.8,30.23 -6,9.28 -11.82,18.24 -17.47,26.95 -11.57,17.18 -21.16,34.05 -32.24,48.19 -22.9,27.63 -40.5,52.43 -57.82,69.71 -16.9,16.86 -29.88,29.85 -39.23,39.2 -8.89,8.71 -13.76,12.84 -13.76,12.84 0,0 3.99,-5.05 12.42,-14.22 9,-9.6 21.56,-22.97 37.82,-40.32 16.79,-17.61 33.83,-42.65 56.13,-70.42 10.72,-14.25 20.03,-31.15 31.25,-48.36 5.47,-8.68 11.18,-17.68 17.01,-26.96 4.9,-9.77 10.01,-19.82 15.24,-30.16 42.65,-82.12 81.38,-191.84 91.26,-324.52 11.39,-132.01 -11.11,-287.41 -85.09,-439.07 -75.67,-149.22 -204.75,-295.62 -385.9,-382.12 -178.55,-87.85 -406.55,-114.66 -623.36,-45.16 -215.66,67.42 -416.39,234.1 -515.45,464.75 -24.27,57.4 -44.27,117.69 -54.92,180.55 -12.53,62.48 -16.27,127.21 -13.48,191.98 5.01,129.9 42.79,260.04 108.16,377.33l4.02 7.2 -5.92 5.54c-57.01,53.2 -114.59,106.96 -172.76,161.25l3.21 -9.1c13.65,94.58 27.41,190.26 41.38,286.85l2.3 16.01 -15.6 -4.37c-88.62,-24.8 -178.01,-49.85 -268.21,-75.11l10.08 -2.47c-52.63,49.11 -105.62,98.57 -158.85,148.27 -19.65,18.31 -39.27,36.59 -57.33,53.49l3.25 -9.28c14.14,98.32 28.15,195.93 41.24,286.84l2.33 16.09 -15.67 -4.38c-92.11,-25.86 -183.51,-51.5 -268.14,-75.21l10.02 -2.47c-64.03,59.69 -127.5,118.85 -185.95,173.32l3.21 -9.1c8.64,60.32 17.25,120.26 25.08,174.87l2.26 15.7 -15.28 -4.3c-56.48,-15.84 -112.5,-31.61 -163.41,-45.9l9.74 -2.36c-37.46,34.89 -74.65,69.53 -108.23,100.82l3.17 -6.77c-5.64,92 -11.25,182.84 -16.4,265.64l-7.48 -10.23c137.51,34.75 271.82,68.68 396.17,100.12l-8.85 2.25c513.04,-476.88 955.35,-888.11 1287.85,-1197.18l3.14 -2.93 3.84 1.76c143.23,64.17 286.63,80.68 408.09,72.57 122.07,-9.17 223,-41.84 299.62,-77.4 77.01,-35.88 129.61,-75.21 165.13,-101.04 16.55,-13.72 29.25,-24.27 38.42,-31.89 8.68,-7.12 13.44,-10.4 13.44,-10.4z"/>
   <path class="fil3" d="M11641.87 3267.46c-2.85,-2.5 49.71,-44.49 114.06,-143.86 32.88,-49.07 63.92,-115.29 87.34,-195.55 22.97,-80.29 35.35,-176.49 24.24,-281.2 -11.32,-104.14 -44.45,-217.77 -111.94,-321.52 -67.52,-102.66 -163.54,-199.88 -288.46,-261.2 -61.28,-32.31 -129.51,-54.99 -200.84,-67.8 -35.49,-7.87 -72.18,-9.45 -109.04,-12.59 -37.01,0.63 -74.44,-0.11 -111.8,5.54 -150.14,16.01 -298.48,84.42 -416.38,192.4 -115.96,110.17 -194.59,253.44 -220.95,402.13 -8.22,36.9 -10.12,74.3 -13.3,111.16 0.6,37.01 -0.38,73.73 5.01,109.72 7.84,72.03 25.72,141.67 53.73,205.07 52.53,128.9 142.88,231.42 240.63,305.89 98.81,74.51 209.9,115.43 312.99,133.95 103.68,18.31 200.51,12.63 282.22,-4.73 81.67,-17.81 149.89,-44.2 201.08,-73.59 103.58,-57.32 149.09,-106.85 151.41,-103.82 0.29,0.28 -2.61,3.21 -8.53,8.64 -6.88,6.14 -15.63,13.97 -26.57,23.78 -11.53,10.69 -26.35,23.25 -45.58,35.88 -18.73,13.26 -40.07,29.14 -66.74,42.75 -51.16,30.84 -119.81,58.74 -202.57,77.93 -82.76,18.74 -181.33,25.65 -287.26,7.94 -105.31,-17.92 -219.22,-58.91 -320.89,-134.58 -100.54,-75.6 -193.68,-180.27 -248.14,-312.39 -29,-65.02 -47.67,-136.45 -55.88,-210.43 -5.65,-36.97 -4.77,-74.72 -5.44,-112.75 3.14,-37.89 5.05,-76.3 13.41,-114.3 26.84,-152.89 107.6,-300.53 226.9,-413.74 121.18,-111.09 274.04,-181.39 428.42,-197.55 38.42,-5.68 76.9,-4.94 114.9,-5.43 37.89,3.28 75.6,5.04 112.08,13.19 73.2,13.37 143.19,36.93 206.02,70.34 128.02,63.5 225.99,163.66 294.39,269.17 68.47,106.65 101.46,223.13 112.08,329.46 10.33,106.89 -3.35,204.75 -27.8,286 -24.91,81.24 -57.5,147.78 -91.76,196.71 -15.49,25.64 -32.77,45.82 -47.31,63.6 -13.97,18.35 -27.51,32.21 -38.98,43.01 -10.55,10.23 -18.94,18.41 -25.54,24.87 -5.82,5.5 -8.92,8.18 -9.21,7.9z"/>
   <path class="fil3" d="M11607.34 2664.74c-1.66,-1.59 17.74,-18.27 41.45,-56.34 23.18,-37.39 48.89,-100.89 40.18,-180.27 -4.59,-39.12 -17.25,-81.67 -42.76,-120.4 -25.5,-38.31 -61.59,-74.58 -108.37,-97.3 -45.97,-23.53 -101.74,-34.75 -157.59,-27.59 -56.05,6.04 -111.33,31.65 -155.32,71.9 -43.29,41.13 -72.68,94.51 -82.59,150.04 -11.04,55.24 -3.67,111.69 16.58,159.17 19.47,48.23 53.13,86.75 89.61,114.83 36.86,28.12 78.42,43.71 117.12,51.01 78.56,14.18 143.72,-7.09 182.63,-27.62 39.62,-20.99 57.54,-39.23 59.06,-37.43 0.53,0.56 -3.78,5.11 -12.56,13.4 -8.57,8.44 -22.72,19.62 -42.51,31.26 -38.77,23.35 -105.98,48.12 -189.13,35.14 -40.95,-6.63 -85.33,-22.33 -125.06,-51.61 -39.3,-29.21 -75.7,-69.85 -97.12,-121.32 -22.22,-50.7 -30.58,-111.24 -19.05,-170.68 10.41,-59.72 41.91,-117.47 88.52,-161.68 47.3,-43.39 107.13,-70.83 167.39,-77.04 60.11,-7.41 119.91,5.15 168.91,30.83 49.88,24.91 87.88,64.06 114.3,105.27 26.46,41.66 39.02,87.03 42.86,128.3 7.16,83.86 -22.19,149.19 -48.19,186.27 -12.98,18.98 -25.08,32.28 -34.08,40.25 -8.89,8.19 -13.75,12.17 -14.28,11.61z"/>
   <path class="fil3" d="M9403 4640.22c-3.98,-4.3 285.54,-280.88 646.58,-617.75 361.17,-336.97 657.11,-606.56 661.1,-602.29 4.02,4.3 -285.43,280.84 -646.64,617.82 -361.03,336.83 -657.05,606.49 -661.04,602.22z"/>
   <path class="fil4" d="M9562.64 2956.73l11.71 -26.21 15.8 24.03c12.6,19.22 30.48,34.46 51.47,43.88l26.25 11.71 -24.06 15.77c-19.23,12.6 -34.43,30.48 -43.85,51.47l-11.75 26.25 -15.73 -24.02c-12.63,-19.27 -30.48,-34.47 -51.51,-43.89l-26.21 -11.71 23.99 -15.77c19.26,-12.63 34.5,-30.48 43.89,-51.51z"/>
   <path class="fil4" d="M8775.27 2760.52l6.81 -15.24 9.17 13.93c7.31,11.19 17.68,20.04 29.92,25.47l15.24 6.85 -13.97 9.13c-11.18,7.31 -20,17.68 -25.51,29.92l-6.81 15.2 -9.13 -13.93c-7.34,-11.18 -17.71,-20.04 -29.88,-25.51l-15.24 -6.8 13.93 -9.14c11.18,-7.34 20.04,-17.71 25.47,-29.88z"/>
   <path class="fil4" d="M11254.42 4102.31l6.84 -15.21 9.14 13.94c7.34,11.18 17.71,20.04 29.88,25.47l15.24 6.81 -13.97 9.17c-11.15,7.34 -20,17.71 -25.44,29.88l-6.84 15.24 -9.1 -13.97c-7.34,-11.18 -17.71,-20 -29.92,-25.47l-15.24 -6.81 13.97 -9.14c11.15,-7.3 20,-17.71 25.44,-29.91z"/>
   <path class="fil4" d="M12468.26 3414.32l11.74 -26.25 15.74 24.03c12.59,19.26 30.48,34.47 51.5,43.88l26.21 11.75 -24.02 15.77c-19.23,12.6 -34.47,30.48 -43.89,51.47l-11.71 26.25 -15.77 -24.06c-12.59,-19.23 -30.48,-34.47 -51.5,-43.85l-26.21 -11.75 24.06 -15.73c19.19,-12.63 34.43,-30.48 43.85,-51.51z"/>
   <path class="fil4" d="M12310.14 2450.53l19.72 -44.09 26.46 40.39c21.17,32.35 51.22,57.92 86.54,73.69l44.06 19.72 -40.4 26.46c-32.35,21.2 -57.89,51.26 -73.69,86.54l-19.72 44.06 -26.46 -40.36c-21.24,-32.35 -51.22,-57.92 -86.54,-73.73l-44.06 -19.68 40.36 -26.5c32.35,-21.2 57.93,-51.22 73.73,-86.5z"/>
   <path class="fil4" d="M9317.99 2153.32l19.68 -44.06 26.46 40.35c21.24,32.35 51.26,57.96 86.57,73.73l44.06 19.72 -40.39 26.46c-32.35,21.2 -57.89,51.23 -73.7,86.54l-19.72 44.06 -26.45 -40.39c-21.21,-32.32 -51.23,-57.89 -86.51,-73.7l-44.09 -19.68 40.35 -26.5c32.35,-21.2 57.97,-51.22 73.74,-86.53z"/>
   <path class="fil3" d="M13063.53 8870.62c0,0 11.26,-1.2 33.2,-2.61 11.04,-0.28 24.59,-1.73 40.64,-4.8 8.04,-1.3 16.72,-2.72 26.03,-4.2 9.18,-2.4 18.91,-4.9 29.25,-7.58 41.27,-10.87 91.69,-29.74 143.86,-64.38 51.97,-34.29 107.42,-83.29 150.32,-152.4 22.12,-34.01 40.04,-73.21 54.43,-115.79 12.28,-43.03 23.25,-89.5 23.25,-138.92 1.24,-24.52 0.88,-50.27 -0.03,-75.88 -0.67,-12.84 -1.34,-25.79 -2.05,-38.84 -1.97,-12.95 -3.99,-26.04 -6.03,-39.23 -9.95,-52.42 -28.26,-105.41 -56.38,-155.54 -55.56,-100.26 -153.67,-187.26 -277.35,-228.5 -61.81,-21.51 -128.69,-27.41 -198.15,-25.99 -69.43,0.1 -140.73,0.21 -213.72,0.35 -1168.64,0.7 -2782.36,1.62 -4564.69,2.68 -109.22,1.27 -218.2,36.09 -303.15,103.54 -42.68,33.05 -79.94,72.74 -110.2,117.09 -29.78,44.73 -51.72,94.15 -65.97,145.41 -7.69,25.61 -11.29,51.97 -15.14,78.25 -1.55,26.53 -3.38,52.74 -2.89,79.9 0.25,53.52 3.42,106.19 19.12,156.67 14.6,50.38 36.55,98.35 65.26,141.82 29.53,42.89 65.27,81.1 105.59,113.27 40.08,32.64 86.11,57.05 133.81,75.07 23.67,9.81 48.72,15.14 73.31,21.59 25.18,3.64 50.16,8.72 75.6,8.86 102.2,2.5 205.03,0.74 305.92,1.38 202.18,0.1 400.09,0.21 593.2,0.31 772.37,0.71 1467.91,1.41 2052.14,1.94 583.89,1.27 1056.4,2.26 1383.53,2.93 163.02,0.74 289.66,1.31 376.13,1.73 42.65,0.39 75.32,0.71 97.79,0.92 22.05,0.28 33.37,0.95 33.37,0.95 0,0 -11.32,0.63 -33.37,0.92 -22.47,0.21 -55.14,0.53 -97.79,0.91 -86.47,0.39 -213.11,0.99 -376.13,1.73 -327.13,0.67 -799.64,1.66 -1383.53,2.93 -584.23,0.53 -1279.77,1.24 -2052.14,1.94 -193.11,0.11 -391.02,0.21 -593.2,0.32 -101.24,-0.53 -202.84,1.34 -306.81,-1.13 -26.31,-0.18 -52.17,-5.33 -78.24,-9.14 -25.54,-6.63 -51.47,-12.2 -76.03,-22.33 -49.46,-18.63 -97.15,-43.92 -138.67,-77.72 -41.84,-33.26 -78.88,-72.81 -109.47,-117.29 -29.81,-45.02 -52.63,-94.76 -67.73,-146.97 -16.27,-52 -19.65,-107.7 -19.86,-161.61 -0.53,-26.74 1.27,-54.4 2.92,-81.84 3.95,-27.2 7.76,-54.54 15.67,-81.07 14.74,-53.2 37.5,-104.46 68.4,-150.85 31.33,-46 69.96,-87.14 114.23,-121.39 88.02,-69.96 201.15,-106.19 314.33,-107.42 1782.33,1.06 3396.05,2.01 4564.69,2.72 72.99,0.1 144.29,0.21 213.72,0.31 69.28,-1.27 139.1,5.01 201.89,27.24 126.47,42.65 226.27,131.97 282.54,234.56 28.47,51.22 46.95,105.41 56.83,158.86 2.01,13.44 3.95,26.77 5.93,39.96 0.67,13.3 1.3,26.5 1.94,39.59 0.78,26.14 0.99,51.26 -0.39,76.37 -0.28,50.24 -11.64,97.4 -24.41,141.11 -14.89,43.18 -33.34,82.8 -56.02,117.2 -43.96,69.78 -100.51,118.92 -153.35,153.1 -53.1,34.54 -104.14,53.02 -145.88,63.4 -10.51,2.54 -20.28,5.22 -29.56,7.16 -9.38,1.34 -18.13,2.61 -26.28,3.77 -16.16,2.79 -29.81,3.92 -40.89,3.88 -22.08,0.81 -33.34,0.78 -33.34,0.78z"/>
   <path class="fil4" d="M13063.53 10158.36l-4817.74 0c-279.51,0 -506.13,-226.62 -506.13,-506.16l0 -48.47c0,-279.54 226.62,-506.13 506.13,-506.13l4817.74 0c279.54,0 506.13,226.59 506.13,506.13l0 48.47c0,279.54 -226.59,506.16 -506.13,506.16z"/>
   <path class="fil3" d="M8910.14 8551.78c-0.53,-0.53 -1.06,-11.36 -1.62,-31.33 -0.46,-21.87 -1.1,-50.45 -1.84,-85.79 -0.99,-75.43 -2.29,-179.78 -3.88,-306l7.34 7.33c-174.91,0.5 -393.45,1.13 -630.34,1.8 -2.02,2.01 17.32,-17.35 9.13,-9.1l0 56.09c0,18.6 -0.03,37.05 -0.03,55.43 -0.04,36.65 -0.11,72.7 -0.14,108.12 -0.22,70.77 -0.43,138.86 -0.57,203.45l-8.43 -8.4c183.02,1.63 338.91,3.07 451.77,4.13 54.18,0.92 97.93,1.69 130.56,2.26 14.01,0.39 25.61,0.74 35.24,1.02 8.12,0.32 12.49,0.64 12.81,0.99 0.67,0.63 -14.89,1.3 -44.42,1.97 -32.17,0.6 -75.28,1.38 -128.69,2.3 -114.23,1.02 -272.03,2.43 -457.27,4.12l-8.4 0.08 0 -8.47c-0.21,-64.59 -0.38,-132.68 -0.6,-203.45 -0.03,-35.42 -0.1,-71.47 -0.14,-108.12 -0.03,-18.38 -0.03,-36.83 -0.03,-55.43l-0.04 -28.01 0 -28.08c-8.18,8.15 11.22,-11.25 9.25,-9.24 236.89,0.67 455.43,1.34 630.34,1.83l7.44 0.04 -0.1 7.34c-1.59,128.13 -2.9,233.99 -3.85,310.51 -0.74,34.75 -1.37,62.76 -1.87,84.21 -0.56,19.12 -1.09,28.89 -1.62,28.4z"/>
   <path class="fil3" d="M8910.14 8128.66c1.66,1.87 -32.1,34.15 -88.05,84.8 -55.99,50.66 -134.1,119.67 -221.09,194.99 -24.1,0.03 -6.77,-0.04 -12.17,-0.08l-0.14 -0.1 -0.25 -0.21 -0.49 -0.46 -1.03 -0.85 -2.04 -1.76 -4.06 -3.53 -8.08 -7.02 -15.98 -13.9c-10.55,-9.17 -20.95,-18.24 -31.22,-27.2 -20.28,-17.81 -39.93,-35.03 -58.81,-51.61 -36.23,-32.35 -69.49,-62.02 -98.92,-88.27 -55.95,-50.65 -89.71,-82.93 -88.05,-84.8 1.66,-1.94 38.45,26.84 96.59,75 30.16,25.33 64.31,54.04 101.46,85.26 19.08,16.34 38.98,33.27 59.51,50.8 10.3,8.89 20.78,17.89 31.4,27.03l16.05 13.83 8.08 7.02 4.06 3.49 2.04 1.76 0.99 0.85 0.53 0.46 0.25 0.24 0.14 0.11c-5.33,0.04 12.1,0.11 -11.89,0.07 87.03,-75.35 166.48,-142.8 224.61,-190.92 58.14,-48.16 94.9,-76.94 96.56,-75z"/>
   <path class="fil3" d="M8507.48 8325.82c3.56,3.57 -44.49,57.08 -107.39,119.46 -62.9,62.44 -116.73,110.1 -120.33,106.5 -3.56,-3.63 44.49,-57.08 107.39,-119.52 62.86,-62.37 116.77,-110.07 120.33,-106.44z"/>
   <path class="fil3" d="M8910.14 8551.78c-3.78,3.39 -54.47,-47.45 -113.14,-113.45 -58.73,-66.01 -103.22,-122.28 -99.41,-125.66 3.74,-3.36 54.43,47.41 113.14,113.45 58.7,66 103.22,122.27 99.41,125.66z"/>
   <polygon class="fil3" points="9290.86,8424.81 9290.86,8438.78 9144.49,8438.78 9144.49,8226.62 9286.31,8226.62 9286.31,8240.59 9159.94,8240.59 9159.94,8324.24 9273.01,8324.24 9273.01,8337.85 9159.94,8337.85 9159.94,8424.81 "/>
   <path class="fil3" d="M9602.25 8346.36l0 92.42 -15.17 0 0 -91.22c0,-35.78 -18.48,-54.54 -49.42,-54.54 -35.74,0 -57.86,23.95 -57.86,61.49l0 84.27 -15.17 0 0 -91.22c0,-35.78 -18.45,-54.54 -49.35,-54.54 -35.81,0 -57.92,23.95 -57.92,61.49l0 84.27 -15.17 0 0 -158.22 14.6 0 0 33.94c10.27,-22.12 31.79,-35.14 60.57,-35.14 28.51,0 49.43,13.02 57.89,38.17 10.3,-23 33.34,-38.17 63.93,-38.17 38.2,0 63.07,22.76 63.07,67z"/>
   <path class="fil3" d="M9763.51 8392.08l0 -29.67 -53.94 0c-32.74,0 -44.24,13.61 -44.24,31.82 0,20.6 16.05,33.34 43.92,33.34 26.71,0 45.16,-12.74 54.26,-35.49zm15.13 -53.63l0 100.33 -14.53 0 0 -28.18c-10.02,18.2 -29.42,29.38 -56.98,29.38 -35.45,0 -56.97,-18.2 -56.97,-45.15 0,-23.96 15.17,-44.24 59.09,-44.24l54.26 0 0 -12.74c0,-29.42 -16.05,-45.15 -46.96,-45.15 -21.83,0 -41.55,8.18 -54.57,20l-7.59 -10.9c15.77,-13.97 38.81,-22.44 63.36,-22.44 39.09,0 60.89,20.01 60.89,59.09z"/>
   <path class="fil3" d="M9840.94 8280.56l15.17 0 0 158.22 -15.17 0 0 -158.22zm-4.83 -50.59c0,-6.7 5.47,-12.45 12.42,-12.45 6.98,0 12.42,5.51 12.42,12.14 0,6.95 -5.44,12.45 -12.42,12.45 -6.95,0 -12.42,-5.5 -12.42,-12.14z"/>
   <polygon class="fil3" points="9919.97,8438.78 9935.14,8438.78 9935.14,8213.92 9919.97,8213.92 "/>
   <path class="fil2" d="M9412.53 9676.68c51.26,0 78.6,-23.92 78.6,-64.95 0,-41.34 -27.34,-64.94 -78.6,-64.94l-68.4 0 0 129.89 68.4 0zm80.29 93.66l-57.04 -80.01c-7.55,1.06 -15.07,1.73 -23.25,1.73l-68.4 0 0 78.28 -17.43 0 0 -239.25 85.83 0c60.15,0 96.38,30.06 96.38,80.64 0,37.96 -20.5,64.28 -56.06,74.86l59.8 83.75 -19.83 0z"/>
   <path class="fil2" d="M9565 9671.88l136.74 0c-2.4,-38.63 -30.41,-66.28 -68.37,-66.28 -37.96,0 -65.62,27.3 -68.37,66.28zm153.14 13.34l-153.49 0c1.73,42.4 32.84,71.08 75.56,71.08 22.54,0 43.39,-8.18 57.08,-24.94l9.91 11.29c-15.73,19.16 -40.32,29.07 -67.34,29.07 -54.01,0 -91.97,-37.64 -91.97,-90.59 0,-52.99 36.62,-90.6 85.48,-90.6 48.86,0 85.09,36.94 85.09,89.93l-0.32 4.76z"/>
   <path class="fil2" d="M9745.16 9748.79l7.87 -13.65c13.69,11.6 37.92,21.52 64.24,21.52 37.64,0 52.64,-13.34 52.64,-33.48 0,-51.97 -118.26,-13.69 -118.26,-83.75 0,-27.02 22.58,-48.9 67.7,-48.9 22.55,0 47.17,6.85 61.17,17.43l-7.83 13.69c-15.06,-10.97 -34.57,-16.05 -53.69,-16.05 -34.85,0 -50.27,14.32 -50.27,33.48 0,53.69 118.29,15.69 118.29,83.74 0,29.04 -24.95,48.9 -70.42,48.9 -29.39,0 -57.4,-9.91 -71.44,-22.93z"/>
   <path class="fil2" d="M9932.49 9671.88l136.74 0c-2.4,-38.63 -30.41,-66.28 -68.37,-66.28 -37.96,0 -65.62,27.3 -68.37,66.28zm153.14 13.34l-153.49 0c1.72,42.4 32.84,71.08 75.56,71.08 22.54,0 43.39,-8.18 57.08,-24.94l9.91 11.29c-15.73,19.16 -40.32,29.07 -67.34,29.07 -53.98,0 -91.97,-37.64 -91.97,-90.59 0,-52.99 36.62,-90.6 85.48,-90.6 48.86,0 85.09,36.94 85.09,89.93l-0.32 4.76z"/>
   <path class="fil2" d="M10227.48 9759.05c-8.85,8.58 -23.21,12.67 -36.55,12.67 -31.46,0 -48.54,-18.49 -48.54,-48.54l0 -116.6 -32.84 0 0 -14.67 32.84 0 0 -38.95 17.08 0 0 38.95 56.76 0 0 14.67 -56.76 0 0 114.87c0,22.93 11.28,35.56 33.16,35.56 10.62,0 20.53,-3.42 27.69,-9.91l7.16 11.95z"/>
   <path class="fil2" d="M10532.78 9611.73c0,-41.34 -27.34,-64.94 -78.6,-64.94l-68.41 0 0 129.54 68.41 0c51.26,0 78.6,-23.57 78.6,-64.6zm17.78 0c0,50.28 -36.23,80.33 -96.38,80.33l-68.41 0 0 78.28 -17.42 0 0 -239.25 85.83 0c60.15,0 96.38,30.06 96.38,80.64z"/>
   <path class="fil2" d="M10713.96 9717.71l0 -33.51 -60.82 0c-36.9,0 -49.91,15.38 -49.91,35.87 0,23.25 18.09,37.61 49.56,37.61 30.06,0 50.94,-14.36 61.17,-39.97zm17.11 -60.5l0 113.13 -16.4 0 0 -31.82c-11.29,20.53 -33.16,33.2 -64.28,33.2 -39.97,0 -64.27,-20.53 -64.27,-50.94 0,-26.99 17.11,-49.92 66.67,-49.92l61.17 0 0 -14.36c0,-33.12 -18.1,-50.9 -52.99,-50.9 -24.58,0 -46.81,9.24 -61.52,22.54l-8.54 -12.31c17.78,-15.7 43.75,-25.3 71.44,-25.3 44.1,0 68.72,22.58 68.72,66.68z"/>
   <path class="fil2" d="M10775.2 9748.79l7.84 -13.65c13.68,11.6 37.92,21.52 64.24,21.52 37.64,0 52.67,-13.34 52.67,-33.48 0,-51.97 -118.29,-13.69 -118.29,-83.75 0,-27.02 22.58,-48.9 67.7,-48.9 22.58,0 47.16,6.85 61.17,17.43l-7.83 13.69c-15.07,-10.97 -34.57,-16.05 -53.69,-16.05 -34.86,0 -50.24,14.32 -50.24,33.48 0,53.69 118.25,15.69 118.25,83.74 0,29.04 -24.94,48.9 -70.41,48.9 -29.39,0 -57.4,-9.91 -71.41,-22.93z"/>
   <path class="fil2" d="M10938.61 9748.79l7.87 -13.65c13.69,11.6 37.92,21.52 64.24,21.52 37.64,0 52.63,-13.34 52.63,-33.48 0,-51.97 -118.25,-13.69 -118.25,-83.75 0,-27.02 22.58,-48.9 67.7,-48.9 22.58,0 47.17,6.85 61.17,17.43l-7.83 13.69c-15.06,-10.97 -34.57,-16.05 -53.69,-16.05 -34.86,0 -50.27,14.32 -50.27,33.48 0,53.69 118.28,15.69 118.28,83.74 0,29.04 -24.94,48.9 -70.41,48.9 -29.39,0 -57.4,-9.91 -71.44,-22.93z"/>
   <polygon class="fil2" points="11379.9,9591.91 11312.24,9770.34 11296.19,9770.34 11236,9615.47 11175.5,9770.34 11159.8,9770.34 11092.1,9591.91 11108.51,9591.91 11167.99,9751.19 11228.84,9591.91 11243.55,9591.91 11304.05,9750.84 11364.2,9591.91 "/>
   <path class="fil2" d="M11555.97 9681.13c0,-44.77 -30.76,-75.18 -71.75,-75.18 -41.03,0 -71.79,30.41 -71.79,75.18 0,44.76 30.76,75.17 71.79,75.17 40.99,0 71.75,-30.41 71.75,-75.17zm-160.97 0c0,-52.99 37.96,-90.6 89.22,-90.6 51.26,0 89.18,37.61 89.18,90.6 0,52.95 -37.92,90.59 -89.18,90.59 -51.26,0 -89.22,-37.64 -89.22,-90.59z"/>
   <path class="fil2" d="M11710.84 9590.53l0 16.76 -4.09 -0.35c-39.65,0 -63.22,26.31 -63.22,70.41l0 92.99 -17.11 0 0 -178.43 16.41 0 0 38.98c10.93,-26 34.53,-40.36 68.01,-40.36z"/>
   <path class="fil2" d="M11897.85 9681.13c0,-44.77 -30.76,-75.18 -71.76,-75.18 -41.02,0 -71.82,30.41 -71.82,75.18 0,44.76 30.8,75.17 71.82,75.17 41,0 71.76,-30.41 71.76,-75.17zm17.07 -164.43l0 253.64 -16.72 0 0 -42.05c-14,27.7 -41.03,43.43 -73.16,43.43 -50.28,0 -88.2,-37.29 -88.2,-90.59 0,-53.66 37.92,-90.6 88.2,-90.6 31.82,0 58.49,15.74 72.81,42.72l0 -116.55 17.07 0z"/>
   <path class="fil3" d="M14191.01 572.31c0,5.08 -1630.96,9.17 -3642.39,9.17 -2012.11,0 -3642.74,-4.09 -3642.74,-9.17 0,-5.08 1630.63,-9.21 3642.74,-9.21 2011.43,0 3642.39,4.13 3642.39,9.21z"/>
   <path class="fil3" d="M7318.91 282.96c0,48.97 -39.69,88.65 -88.65,88.65 -48.93,0 -88.66,-39.68 -88.66,-88.65 0,-49 39.73,-88.69 88.66,-88.69 48.96,0 88.65,39.69 88.65,88.69z"/>
   <path class="fil3" d="M7573.65 282.96c0,48.97 -39.72,88.65 -88.69,88.65 -48.96,0 -88.65,-39.68 -88.65,-88.65 0,-49 39.69,-88.69 88.65,-88.69 48.97,0 88.69,39.69 88.69,88.69z"/>
   <path class="fil3" d="M7828.31 282.96c0,48.97 -39.69,88.65 -88.65,88.65 -48.97,0 -88.66,-39.68 -88.66,-88.65 0,-49 39.69,-88.69 88.66,-88.69 48.96,0 88.65,39.69 88.65,88.69z"/>
   <path class="fil3" d="M14203.92 11064.76c-0.07,-75.46 -3.49,-4548.75 -8.43,-11055.56l8.43 8.4c-2229.91,0.25 -4699.56,0.49 -7294.97,0.78l-0.89 0 9.21 -9.18c-0.7,4171.92 -1.34,8018.21 -1.87,11055.52l-7.34 -7.3c4449.55,4.48 7236.17,7.27 7295.86,7.34 -59.69,0.03 -2846.31,2.82 -7295.86,7.3l-7.3 0 0 -7.34c-0.49,-3037.31 -1.16,-6883.6 -1.87,-11055.52l0 -9.2 10.06 0c2595.41,0.24 5065.06,0.53 7294.97,0.77l8.43 0 0 8.43c-4.94,6506.81 -8.36,10980.13 -8.43,11055.56z"/>
   <path class="fil3" d="M14070.64 14044.32c0.28,-0.21 -1.73,-5.09 -5.99,-14.47 -4.8,-10.2 -11.22,-23.88 -19.41,-41.3 -16.47,-36.52 -37.85,-91.81 -56.94,-165.42 -37.71,-147.08 -50.83,-371.84 4.84,-638.85 25.89,-133.66 67.55,-277.04 118.5,-429.05 50.16,-152.3 108.4,-313.86 155.99,-488.55 47.03,-174.22 84.14,-363.38 76.98,-561.63 -7.2,-198.72 -66,-397.02 -130.7,-594.43 -64.56,-197.7 -131.34,-390.99 -151.35,-585.37 -22.61,-194.06 18.91,-384.52 107.35,-540.59 85.62,-157.77 193.36,-292.67 273.97,-432.44 81.85,-139.28 133.07,-282.54 164.64,-415.68 61.17,-268.57 39.76,-494.87 10.45,-644.03 -31.79,-149.93 -67.21,-227.43 -67.21,-227.43 -0.32,0.14 1.02,5.25 3.99,15.13 3.35,10.76 7.86,25.19 13.58,43.6 11.85,38.32 27.2,95.54 41.77,170.22 26.81,148.84 45.72,373.59 -16.69,639.16 -32.21,131.76 -83.64,273.09 -165.2,410.46 -80.47,138.08 -188.63,272.41 -275.95,432.01 -90.24,157.83 -133.66,354.51 -110.66,551.6 20.11,197.67 87.38,392.26 151.76,589.74 64.7,197.17 122.84,393.46 130.18,588.79 7.33,195.23 -28.86,382.58 -75.18,555.98 -46.78,173.81 -104.35,335.41 -153.88,488.13 -50.31,152.48 -91.48,297.05 -116.56,431.63 -54.22,268.95 -38.77,496.01 1.62,643.57 20.43,73.88 43.18,129.05 60.93,165.17 8.99,17.12 16.01,30.55 21.31,40.57 4.9,9.07 7.55,13.66 7.86,13.48z"/>
   <path class="fil4" d="M14334.38 9690.09c0,0 163.69,-523.45 -129.96,-829.98 -10.31,-10.76 -28.47,-5.65 -31.12,8.99 -15.7,86.43 -35.28,349.78 161.08,820.99z"/>
   <path class="fil3" d="M14236.31 9034.52c-2.79,0.56 1.9,37.39 11,96.63 10.76,66.49 23.39,144.56 37.36,230.85 13.69,86.29 26.07,164.36 36.62,230.9 9,59.09 14.36,95.74 17.36,95.53 2.64,-0.18 2.4,-37.47 -2.93,-97.3 -5.43,-59.83 -15.98,-142.1 -30.83,-232.41 -14.75,-90.34 -30.52,-171.66 -43.29,-230.26 -12.8,-58.59 -22.54,-94.47 -25.29,-93.94z"/>
   <path class="fil4" d="M14142.08 10924.7c0,0 -100.12,-539.25 -503.03,-672.85 -14.14,-4.69 -27.79,8.33 -23.28,22.54 26.57,83.72 132.4,325.62 526.31,650.31z"/>
   <path class="fil3" d="M13748.84 10391.13c-2.22,1.8 19.12,32.17 54.86,80.22 40.67,53.76 88.33,116.87 141,186.62 52.49,69.85 99.91,133.07 140.37,186.93 35.6,48.05 57.47,77.97 60.01,76.35 2.22,-1.41 -15.42,-34.22 -48.08,-84.64 -32.78,-50.3 -80.61,-118.11 -135.93,-191.02 -55.28,-72.92 -107.28,-137.45 -146.01,-183.24 -38.67,-45.82 -64.07,-72.99 -66.22,-71.22z"/>
   <path class="fil4" d="M14250.95 12277.58c0,0 60.82,-545.12 -285.93,-789.95 -12.13,-8.61 -29,-0.14 -28.82,14.75 1.09,87.87 32.1,350.06 314.75,775.2z"/>
   <path class="fil3" d="M14029.61 11652.77c-2.64,1.05 8.97,36.3 29.25,92.67 23.25,63.29 50.55,137.55 80.72,219.53 29.88,82.09 56.97,156.35 80.01,219.64 20.07,56.34 32.35,91.3 35.24,90.49 2.57,-0.71 -4.8,-37.21 -21.45,-94.96 -16.72,-57.65 -42.79,-136.43 -74.54,-222.25 -31.75,-85.84 -62.76,-162.67 -86.5,-217.74 -23.71,-55.1 -40.11,-88.44 -42.73,-87.38z"/>
   <path class="fil4" d="M13947.45 13638.31c0,0 41.24,-546.92 -314,-779.21 -12.49,-8.12 -29,0.95 -28.3,15.83 4.24,87.74 44.63,348.66 342.3,763.38z"/>
   <path class="fil3" d="M13703.86 13021.85c-2.54,1.14 10.3,35.96 32.56,91.56 25.51,62.4 55.46,135.6 88.55,216.49 32.77,80.98 62.51,154.24 87.8,216.68 22.09,55.57 35.6,90.07 38.49,89.15 2.51,-0.77 -6.17,-37.04 -24.83,-94.12 -18.81,-57.05 -47.66,-134.83 -82.52,-219.49 -34.78,-84.64 -68.51,-160.27 -94.19,-214.49 -25.72,-54.19 -43.29,-86.93 -45.86,-85.78z"/>
   <path class="fil4" d="M14569.61 9230.17c0,0 486.16,-253.89 495.72,-678.25 0.36,-14.89 -16.08,-24.17 -28.36,-15.7 -72.25,49.95 -272.45,222.11 -467.36,693.95z"/>
   <path class="fil3" d="M14964.41 8697.72c-2.4,-1.58 -25.12,27.73 -60.58,75.99 -39.51,54.61 -85.86,118.71 -137.09,189.51 -51.4,70.66 -97.89,134.59 -137.51,189.02 -35.52,48.16 -57.68,77.82 -55.42,79.76 2.05,1.77 28.19,-24.76 66.82,-70.8 38.52,-46.04 89.32,-111.65 142.76,-185.95 53.49,-74.26 99.95,-142.87 132.37,-193.32 32.45,-50.41 50.97,-82.65 48.65,-84.21z"/>
   <path class="fil4" d="M14047.57 10354.37c0,0 500.7,-223.88 536.01,-646.86 1.2,-14.85 -14.6,-25.08 -27.37,-17.39 -75.18,45.48 -285.47,205.14 -508.64,664.25z"/>
   <path class="fil3" d="M14473.94 9846.86c-2.26,-1.73 -26.78,26.18 -65.09,72.21 -42.72,52.07 -92.89,113.28 -148.31,180.84 -55.59,67.41 -105.9,128.37 -148.73,180.34 -38.38,45.86 -62.3,74.12 -60.15,76.23 1.91,1.87 29.64,-23 70.98,-66.64 41.24,-43.63 95.92,-106.01 153.81,-176.91 57.89,-70.88 108.41,-136.53 143.83,-184.93 35.45,-48.4 55.92,-79.41 53.66,-81.14z"/>
   <path class="fil4" d="M14335.65 11608.35c0,0 343.78,-427.35 182.56,-820 -5.68,-13.75 -24.41,-15.66 -32.28,-2.99 -46.21,74.71 -160.72,312.63 -150.28,822.99z"/>
   <path class="fil3" d="M14484.1 10962.38c-2.82,-0.53 -11.93,35.49 -25.08,93.91 -14.29,65.83 -31.08,143.16 -49.64,228.53 -18.8,85.34 -35.81,162.56 -50.34,228.32 -13.27,58.31 -21.66,94.36 -18.77,95.25 2.51,0.81 15.88,-33.98 32.84,-91.62 16.83,-57.64 37.12,-138.08 56.31,-227.58 19.26,-89.5 34.36,-170.92 43.88,-230.15 9.49,-59.23 13.55,-96.17 10.8,-96.66z"/>
   <path class="fil4" d="M13995.15 13084.06c0,0 496.85,-232.27 525.04,-655.78 0.99,-14.88 -15.03,-24.83 -27.63,-16.94 -74.4,46.75 -282.01,209.91 -497.41,672.72z"/>
   <path class="fil3" d="M14412.94 12569.42c-2.33,-1.65 -26.31,26.64 -63.89,73.31 -41.83,52.85 -90.98,114.83 -145.23,183.33 -54.47,68.31 -103.72,130.12 -145.74,182.82 -37.57,46.46 -60.99,75.14 -58.84,77.22 1.94,1.83 29.25,-23.52 69.89,-67.8 40.46,-44.35 94.12,-107.67 150.77,-179.53 56.69,-71.83 106.12,-138.33 140.73,-187.29 34.64,-48.96 54.57,-80.37 52.31,-82.06z"/>
   <path class="fil3" d="M13005.47 10927.63c-0.46,0.04 -0.64,4.16 -0.6,12.1 0.21,9.56 0.49,21.1 0.84,35.07 1.48,32.95 3.46,77.47 5.89,132.99 6.42,116.92 15.35,279.93 26,474.95l0.04 0.42 0.1 0.67c35.49,198.48 136.56,418.43 272.35,632.04 99.59,157.34 203.98,300.35 294,433.39 90.63,132.64 167.11,255.52 220.45,364.38 53.66,108.73 84.88,202.15 103.16,267.41 8.71,32.77 15.27,58.35 19.08,75.81 4.06,17.43 6.53,26.52 7.23,26.43 0.71,-0.16 -0.42,-9.5 -3.21,-27.25 -2.47,-17.8 -7.79,-43.71 -15.38,-76.98 -15.98,-66.24 -45.36,-161.28 -97.82,-271.7 -52.07,-110.63 -127.88,-235.12 -217.84,-368.68 -89.4,-133.96 -193.25,-277.22 -292.31,-433.74 -135.08,-212.52 -235.62,-429.16 -272.38,-624.46l0.1 1.17c-13.65,-194.84 -25.12,-357.69 -33.34,-474.53 -4.48,-55.38 -8.04,-99.8 -10.72,-132.64 -1.41,-13.93 -2.54,-25.4 -3.49,-34.92 -0.99,-7.87 -1.66,-11.93 -2.15,-11.93z"/>
   <path class="fil15" d="M13301.34 12175.05c0,0 -210.43,-506.51 54.26,-838.34 9.31,-11.64 27.83,-8.22 31.78,6.14 23.46,84.67 66.82,345.12 -86.04,832.2z"/>
   <path class="fil3" d="M13339.65 11513.31c-2.82,-0.31 -9.28,36.3 -16.68,95.85 -7.45,59.48 -15.77,141.89 -22.34,233.19 -6.56,91.3 -9.63,174.2 -9.59,234.28 0.1,60.07 3.21,97.2 5.89,97.15 3,-0.04 5.05,-37.04 8.61,-96.69 4.48,-67.24 9.73,-146.13 15.59,-233.29 6.07,-87.21 11.61,-166.09 16.26,-233.3 3.74,-59.79 5.08,-96.87 2.26,-97.19z"/>
   <path class="fil5" d="M13301.34 12175.05c0,0 -0.92,-2.22 -2.58,-6.45 2.12,-12.1 3.99,-44.88 6.78,-91.51 4.48,-67.24 9.73,-146.13 15.59,-233.29 6.07,-87.21 11.61,-166.09 16.26,-233.3 3.74,-59.79 5.08,-96.87 2.26,-97.19l-0.03 0c-2.86,0 -9.28,36.55 -16.65,95.85 -7.45,59.48 -15.77,141.89 -22.34,233.19 -6.56,91.3 -9.63,174.2 -9.59,234.28 0.07,34.43 1.09,61.31 2.47,77.96 -20,-54.96 -71.54,-214.17 -71.47,-395 0.07,-140.87 31.46,-294.85 133.56,-422.88 3.81,-4.76 9.17,-7.02 14.43,-7.02 7.62,0 15.02,4.69 17.35,13.16 10.2,36.8 24.13,106.79 24.13,214.17 -0.03,139.67 -23.74,342.62 -110.17,618.03z"/>
   <path class="fil6" d="M13298.76 12168.6c-1.3,-3.39 -3.1,-8.09 -5.25,-14.01l0 0c-1.38,-16.65 -2.4,-43.53 -2.47,-77.96 -0.04,-60.08 3.03,-142.98 9.59,-234.28 6.57,-91.3 14.89,-173.71 22.34,-233.19 7.37,-59.3 13.79,-95.85 16.65,-95.85l0.03 0c2.82,0.32 1.48,37.4 -2.26,97.19 -4.65,67.21 -10.19,146.09 -16.26,233.3 -5.86,87.16 -11.11,166.05 -15.59,233.29 -2.79,46.63 -4.66,79.41 -6.78,91.51l0 0z"/>
   <path class="fil15" d="M13953.1 13395.63c0,0 -168.7,-521.9 122.06,-831.19 10.19,-10.86 28.4,-5.95 31.18,8.68 16.51,86.3 38.6,349.39 -153.24,822.51z"/>
   <path class="fil3" d="M14044.93 12739.18c-2.79,-0.57 -12.18,35.41 -24.38,94.16 -12.28,58.7 -27.27,140.19 -41.17,230.6 -13.97,90.5 -23.74,172.88 -28.58,232.74 -4.76,59.86 -4.69,97.15 -2.04,97.33 3,0.18 8.04,-36.55 16.44,-95.7 9.95,-66.65 21.59,-144.82 34.46,-231.25 13.13,-86.41 25.05,-164.61 35.18,-231.21 8.53,-59.27 12.87,-96.13 10.09,-96.67z"/>
   <path class="fil5" d="M13953.1 13395.63c0,0 -0.74,-2.3 -2.05,-6.66 3.07,-11.94 7.59,-44.46 14.15,-90.66 9.95,-66.65 21.59,-144.82 34.46,-231.25 13.13,-86.41 25.05,-164.61 35.18,-231.21 8.53,-59.27 12.87,-96.13 10.09,-96.67 -0.04,0 -0.04,0 -0.08,0 -2.85,0 -12.17,35.88 -24.3,94.16 -12.28,58.7 -27.27,140.19 -41.17,230.6 -13.97,90.5 -23.74,172.88 -28.58,232.74 -2.71,34.32 -3.88,61.24 -3.84,77.95 -13.05,-47.58 -42.55,-171.1 -42.55,-316.89 0,-161.44 36.16,-350.13 170.75,-493.3 3.77,-4.01 8.64,-5.88 13.44,-5.88 8.15,0 15.98,5.36 17.74,14.56 4.98,25.97 10.45,67.91 10.45,126.76 0,136.81 -29.57,364.96 -163.69,695.75z"/>
   <path class="fil6" d="M13951.05 13388.97c-1.02,-3.47 -2.43,-8.3 -4.09,-14.34l0 0c-0.04,-16.71 1.13,-43.63 3.84,-77.95 4.84,-59.86 14.61,-142.24 28.58,-232.74 13.9,-90.41 28.89,-171.9 41.17,-230.6 12.13,-58.28 21.45,-94.16 24.3,-94.16 0.04,0 0.04,0 0.08,0 2.78,0.54 -1.56,37.4 -10.09,96.67 -10.13,66.6 -22.05,144.8 -35.18,231.21 -12.87,86.43 -24.51,164.6 -34.46,231.25 -6.56,46.2 -11.08,78.72 -14.15,90.66l0 0z"/>
   <path class="fil15" d="M13033.33 11556.03c0,0 -449.29,-314.53 -403.96,-736.56 1.59,-14.82 19.05,-21.87 30.13,-11.89 65.19,58.88 241.51,255.41 373.83,748.45z"/>
   <path class="fil5" d="M13033.33 11556.03c0,0 -282.29,-197.59 -376.76,-489.72 -0.35,-1.02 -0.67,-2.08 -0.99,-3.11 -18.45,-57.89 -29.46,-119.45 -29.42,-183.9 0,-19.68 1.06,-39.62 3.21,-59.83 1.09,-10.05 9.49,-16.55 18.2,-16.55 4.17,0 8.36,1.45 11.93,4.66 65.19,58.88 241.51,255.41 373.83,748.45z"/>
   <path class="fil3" d="M12710.65 10977.06c-2.51,1.27 11.68,35.63 37.32,89.81 25.65,54.22 62.87,128.27 106.29,208.78 43.47,80.57 85.34,152.19 117.59,202.84 32.31,50.63 54.89,80.3 57.08,78.85 2.54,-1.66 -15.6,-33.97 -44.6,-86.25 -32.28,-59.13 -70.16,-128.52 -112,-205.22 -41.63,-76.8 -79.31,-146.36 -111.41,-205.63 -28.96,-52.42 -47.73,-84.45 -50.27,-83.18z"/>
   <path class="fil15" d="M13771.91 12878.18c0,0 -541.94,-84.46 -687.1,-483.35 -5.08,-13.97 7.47,-28.04 21.8,-23.92 84.49,24.13 329.35,122.91 665.3,507.27z"/>
   <path class="fil5" d="M13771.91 12878.18c0,0 -0.71,-0.11 -2.08,-0.33 -3.39,-0.55 -10.76,-1.86 -21.45,-4.05 -105.62,-21.62 -536.5,-129.9 -663.57,-478.97 -0.78,-2.14 -1.13,-4.3 -1.17,-6.42 0,-9.84 8.01,-18.23 17.92,-18.23 1.62,0 3.35,0.23 5.05,0.73 84.49,24.13 329.35,122.91 665.3,507.27z"/>
   <path class="fil3" d="M13227.19 12500.49c-1.7,2.3 26.17,26.84 73.09,64.24 46.89,37.36 112.89,87.42 187.36,140.59 74.51,53.24 143.62,99.1 194.91,130.35 51.33,31.21 84.6,47.94 85.97,45.61 1.52,-2.58 -28.96,-23.6 -78.07,-57.71 -54.96,-38.92 -119.52,-84.53 -190.88,-134.94 -71.23,-50.63 -135.72,-96.49 -190.61,-135.54 -49.11,-34.33 -80.05,-54.82 -81.77,-52.6z"/>
   <polygon class="fil11" points="14413.12,13875.51 14257.69,14895.1 13636.9,14894.06 13427.78,13875.51 "/>
   <path class="fil3" d="M13846.56 14202.82c15.87,-24.1 26.99,-53.28 28.75,-85.27 2.33,-31.22 -9.91,-69.14 -42.12,-87.66 -32.07,-18.52 -73.49,-11.82 -104,8.57 -31.89,20.71 -50.55,56.97 -59.48,93.62 -8.92,37.27 -9.91,76.03 -7.69,115.2 2.5,39.15 9.74,79.37 25.15,117.75 15.03,38.35 39.23,74.65 71.97,102.62 32.56,27.87 74.37,47.83 119.45,49.92 45.16,2.01 88.23,-13.58 124.28,-36.06 36.23,-22.79 67,-51.57 92.71,-83.82 25.4,-32.23 44.56,-70.8 46.96,-112.01 1.94,-40.46 -12.31,-82.58 -44.06,-108.01 -32.21,-26.18 -77.86,-24.28 -110.03,-6.71 -33.1,16.69 -57.68,48.37 -63.43,83.08 -11.96,69.99 28.85,133.06 78.45,161.44 50.84,28.99 106.05,29.83 149.86,21.65 44.52,-8.64 79.66,-26.17 106.82,-41.8 27.13,-15.91 46.71,-30.48 59.77,-40.46 13.01,-10.13 19.5,-15.87 19.19,-16.34 -0.39,-0.5 -7.59,4.38 -21.21,13.55 -13.65,9.06 -33.72,22.65 -60.99,37.47 -27.27,14.53 -62.2,30.75 -105.23,38.21 -42.48,7.08 -95.22,5.07 -142.07,-22.66 -45.58,-26.56 -82.27,-86.29 -70.77,-148.3 5.33,-30.48 26.99,-57.82 56.41,-72.5 28.86,-15.31 67.03,-16.08 93.45,5.68 26.57,21.28 39.59,58.66 37.58,94.86 -2.23,36.48 -19.65,72.11 -43.82,102.55 -24.45,30.52 -54.36,58.35 -88.51,79.72 -34.11,21.21 -73.87,35.28 -114.55,33.45 -40.57,-1.86 -78.95,-19.93 -109.25,-45.79 -30.48,-25.99 -53.13,-59.62 -67.49,-95.98 -14.71,-36.27 -21.84,-74.76 -24.41,-112.57 -2.33,-37.86 -1.41,-75.67 6.74,-110.43 8.11,-34.44 25.04,-66.89 52.52,-84.87 26.85,-18.27 62.66,-23.72 88.66,-8.75 26.53,14.92 37.64,46.14 36.02,74.85 -1.27,29.04 -11.22,56.65 -25.69,79.24 -30.55,44.94 -74.93,72.6 -115.74,86.71 -41.21,14.49 -79.77,16.3 -110.32,13.16 -61.77,-7.02 -90.87,-29.74 -91.72,-27.27 -0.14,0.29 1.62,1.51 5.22,3.81 3.64,2.09 8.86,5.75 16.3,9.32 14.85,7.26 38.03,16.36 69.43,20.7 31.25,4.27 71.08,3.46 114.16,-10.68 42.68,-13.91 89.39,-41.54 122.73,-89.19z"/>
  </g>
 </g>
</svg>
