<?xml version="1.0" encoding="UTF-8"?>
<!DOCTYPE svg PUBLIC "-//W3C//DTD SVG 1.1//EN" "http://www.w3.org/Graphics/SVG/1.1/DTD/svg11.dtd">
<!-- Creator: CorelDRAW 2020 (64 Bit) -->
<svg xmlns="http://www.w3.org/2000/svg" xml:space="preserve" width="157.758mm" height="155.598mm" version="1.1" style="shape-rendering:geometricPrecision; text-rendering:geometricPrecision; image-rendering:optimizeQuality; fill-rule:evenodd; clip-rule:evenodd"
viewBox="0 0 15775.8 15559.82"
 xmlns:xlink="http://www.w3.org/1999/xlink"
 xmlns:xodm="http://www.corel.com/coreldraw/odm/2003">
 <defs>
  <style type="text/css">
   <![CDATA[
    .fil2 {fill:#FEFEFE;fill-rule:nonzero}
    .fil3 {fill:#F7F7F6;fill-rule:nonzero}
    .fil7 {fill:#EFEFEF;fill-rule:nonzero}
    .fil1 {fill:#E5E6E5;fill-rule:nonzero}
    .fil0 {fill:#D9DAD9;fill-rule:nonzero}
    .fil12 {fill:#C66E69;fill-rule:nonzero}
    .fil13 {fill:#A05450;fill-rule:nonzero}
    .fil10 {fill:#9FAAAC;fill-rule:nonzero}
    .fil8 {fill:#42616A;fill-rule:nonzero}
    .fil9 {fill:#33484E;fill-rule:nonzero}
    .fil4 {fill:#2C3C43;fill-rule:nonzero}
    .fil6 {fill:#222124;fill-rule:nonzero}
    .fil5 {fill:#0066FF;fill-rule:nonzero}
    .fil11 {fill:#99C2FF;fill-rule:nonzero}
   ]]>
  </style>
 </defs>
 <g id="Camada_x0020_1">
  <metadata id="CorelCorpID_0Corel-Layer"/>
  <g id="_2199056622080">
   <polygon class="fil0" points="311.25,5361.81 3325.94,5361.81 3325.94,371.63 311.25,371.63 "/>
   <polygon class="fil1" points="211,5361.81 3225.68,5361.81 3225.68,371.63 211,371.63 "/>
   <polygon class="fil2" points="339.36,5260.63 3097.31,5260.63 3097.31,472.8 339.36,472.8 "/>
   <polygon class="fil1" points="864.41,4638.47 2560.31,4638.47 2560.31,1094.96 864.41,1094.96 "/>
   <path class="fil0" d="M864.41 3384.53c-3.93,-330.98 293.71,-654.16 621.49,-700.34 156.3,-22.05 322.38,8.96 468.42,-50.9 260.7,-106.93 343.65,-453.29 606,-556.02l11.97 2561.2 -1707.88 0 0 -1253.94z"/>
   <polygon class="fil0" points="15260.92,624.6 15260.92,3017.46 11824.13,3017.46 11700.3,641.33 "/>
   <polygon class="fil2" points="11700.3,3012.42 15137.1,3012.42 15137.1,641.34 11700.3,641.34 "/>
   <path class="fil0" d="M11716.6 2996.12l3404.2 0 0 -2338.5 -3404.2 0 0 2338.5zm3436.83 32.59l-3469.42 0 0 -2403.68 3469.42 0 0 2403.68z"/>
   <polygon class="fil2" points="12072.55,2717.81 14764.92,2717.81 14764.92,935.9 12072.55,935.9 "/>
   <path class="fil0" d="M14764.92 935.9c0,0 -4.66,0.31 -13.3,0.49 -9.1,0.11 -21.8,0.25 -38.28,0.42 -34.11,0.25 -83.68,0.53 -147.88,0.96 -129.33,0.49 -317.36,1.19 -554.81,2.11 -474.77,0.92 -1146.81,2.26 -1938.1,3.81l7.8 -7.79c0.21,544.44 0.46,1147.69 0.67,1781.7l0 0.21 -8.47 -8.47c1015.62,0.64 1951.99,1.24 2692.37,1.73l-6.81 6.74c1.48,-542.25 2.72,-986.86 3.6,-1296.49 0.7,-154.73 1.3,-275.63 1.73,-358.49 0.28,-40.96 0.53,-72.39 0.7,-94.23 0.29,-21.34 0.78,-32.7 0.78,-32.7 0,0 0.46,10.37 0.7,31.29 0.18,21.55 0.43,52.53 0.75,92.92 0.38,82.55 0.98,202.92 1.72,357.01 0.89,310.62 2.09,756.67 3.57,1300.69l0.03 6.77 -6.77 0c-740.38,0.5 -1676.75,1.1 -2692.37,1.73l-8.5 0 0 -8.71c0.28,-634.01 0.5,-1237.26 0.71,-1781.7l0 -7.8 7.79 0.03c793.33,1.56 1467.17,2.9 1943.21,3.81 236.71,0.92 424.15,1.63 553.05,2.12 63.57,0.39 112.54,0.71 146.3,0.92 16.12,0.21 28.5,0.35 37.43,0.46 8.32,0.17 12.38,0.46 12.38,0.46z"/>
   <path class="fil0" d="M11700.3 634.66c1.45,-1.87 23.92,12.88 59.09,38.28 35.18,25.4 83.08,61.41 134.76,102.76 51.69,41.38 97.16,80.54 129.19,109.85 32,29.32 50.73,48.62 49.21,50.35 -3.21,3.63 -85.79,-64.53 -189.01,-146.94 -103.3,-82.33 -186.27,-150.42 -183.24,-154.3z"/>
   <path class="fil0" d="M15137.1 641.33c2.93,3.7 -78.07,72.6 -180.83,153.95 -102.8,81.35 -188.46,144.32 -191.35,140.62 -2.96,-3.67 78,-72.57 180.8,-153.96 102.8,-81.35 188.49,-144.28 191.38,-140.61z"/>
   <path class="fil2" d="M15134.38 3012.73c-127.7,-103.5 -255.44,-207.04 -383.15,-310.55l383.15 310.55z"/>
   <path class="fil0" d="M14751.23 2702.18c2.93,-3.63 91.12,62.94 196.92,148.7 105.84,85.76 189.2,158.26 186.23,161.85 -2.92,3.67 -91.08,-62.9 -196.92,-148.66 -105.8,-85.76 -189.19,-158.25 -186.23,-161.89z"/>
   <path class="fil0" d="M11700.3 3012.42c-2.89,-3.67 77.23,-71.9 178.97,-152.37 101.74,-80.47 186.58,-142.7 189.47,-138.99 2.93,3.67 -77.18,71.86 -178.96,152.33 -101.71,80.43 -186.55,142.7 -189.48,139.03z"/>
   <polygon class="fil0" points="12619.18,2087.75 14313.29,2087.75 14313.29,1491.1 12619.18,1491.1 "/>
   <path class="fil0" d="M12436.02 10746.26c-160.76,-100.93 -344.91,-164.29 -533.75,-183.69 -87.21,-8.96 -182.49,-6.42 -252.45,46.39 -14.85,11.25 -29.31,27.8 -26,46.14 2.44,13.44 13.83,23.21 24.7,31.5 217.17,165.7 545.64,186.59 787.5,59.66z"/>
   <path class="fil0" d="M12422.3 10731.16c-120.83,-94.3 -242.36,-189.23 -344.7,-303.32 -102.38,-114.05 -185.56,-249.48 -216.11,-399.7 -9.32,-45.54 -12.17,-97.58 17.04,-133.73 274.78,214.59 490.64,492.19 543.77,836.75z"/>
   <path class="fil0" d="M12433.16 10744.18c-20.7,-150.32 -28.15,-304.8 6.35,-452.58 34.54,-147.75 114.94,-289.17 241.09,-373.49 47.52,111.02 27.1,238.87 -6.35,354.86 -51.68,179.25 -132.78,349.96 -239.08,503.27l-2.01 -32.06z"/>
   <path class="fil0" d="M12702.55 11226.88c-163.52,19.86 -305.93,106.08 -428.03,216.61 -122.1,110.56 -208.88,259.57 -244.86,420.33 160.4,-9.95 296.47,-123.05 395.14,-249.87 98.71,-126.82 167.08,-265.99 275.49,-384.6l2.26 -2.47z"/>
   <path class="fil0" d="M12761.04 11304.07c-131.73,-324.45 -84,-715.36 121.88,-998.57 93.17,331.36 58.98,705.69 -121.88,998.57z"/>
   <path class="fil0" d="M13116.95 11727.86c-148.38,-9.21 -299.29,26.14 -428.13,100.33 -128.83,74.16 -235.19,186.9 -301.76,319.83 -9.07,18.1 -17.04,41.03 -4.91,57.22 10.48,14.07 30.87,15.42 48.4,14.29 143.83,-9.36 271.32,-95.88 376.52,-194.45 105.2,-98.57 196.85,-212.41 313.09,-297.64l-3.21 0.42z"/>
   <path class="fil0" d="M13105.59 11704.79c-76.55,-244.97 -81.31,-511.84 -13.54,-759.39 26.74,-97.72 71.65,-200.62 162.03,-246.49 7.72,-3.88 16.68,-7.37 24.76,-4.33 7.69,2.89 12.14,10.76 15.7,18.16 32.17,67.17 41.56,143.44 38.21,217.84 -3.32,74.4 -18.74,147.68 -34.15,220.53 -28.47,134.83 -43.57,279.68 -117.51,395.92 -17.57,27.59 -33.02,57.39 -47.03,86.96 -13.97,29.56 -14.07,39.93 -26.91,63.46l-1.56 7.34z"/>
   <path class="fil0" d="M14047.72 11845.16c-69.78,-265.5 4.27,-587.37 171.59,-805.04 12.32,-16.01 28.65,-33.19 48.76,-31.36 30.87,2.86 38.84,43.92 37.46,74.82 -12.13,271.33 -102.62,538.7 -257.81,761.58z"/>
   <path class="fil0" d="M14132.67 11903.23c322.55,83.96 692.61,2.33 960.93,-195.44 -159.03,-80.58 -346.43,-103.61 -520.2,-63.85 -173.78,39.75 -332.57,117.58 -440.73,259.29z"/>
   <path class="fil0" d="M14204.28 11726.45c180.7,-294.57 527.02,-486.8 872.14,-504.3 -39.76,140.38 -155.11,249.45 -285.25,315.39 -130.18,65.9 -275.42,94.58 -418.65,122.41 -55.7,10.83 -132.11,22.72 -168.24,66.5z"/>
   <path class="fil0" d="M14065.68 10868.64c48.93,-167.61 98.07,-336.69 111.51,-510.79 13.44,-174.1 -11.36,-355.81 -101.67,-505.21 -168.8,326.56 -185.88,708.06 -14.89,1033.49l5.05 -17.49z"/>
   <path class="fil0" d="M14633.83 10581.44c197.34,-358.67 599.97,-645.16 1007.35,-685.31 -157.16,391.3 -585.75,693.71 -1007.35,685.31z"/>
   <path class="fil0" d="M14509.65 10651.71c294.32,44.88 545.08,232.84 820.14,346.78 58.81,24.38 122.27,43.78 185.38,35.49 63.15,-8.25 125.45,-50.59 139.56,-112.67 11.75,-51.54 -11.71,-106.3 -48.68,-144.04 -37.01,-37.82 -85.87,-61.39 -134.66,-81.71 -299.58,-124.74 -620.85,-127.84 -936.38,-52.21l-25.36 8.36z"/>
   <path class="fil0" d="M14339.36 10858.16c66.64,19.08 89.4,53.55 142.14,98.53 179.03,152.44 393.7,262.75 621.91,319.44 23.74,5.89 54.93,8.25 66.71,-13.23 10.27,-18.73 -2.72,-41.42 -16.09,-58.14 -95.6,-119.62 -231.98,-201.43 -375.49,-254.91 -143.51,-53.41 -267.9,-117.87 -439.18,-104.04l0 12.35z"/>
   <path class="fil0" d="M14147.17 9611.41c239.32,223.41 576.44,338.1 902.34,307.02 14.81,-1.41 30.97,-3.78 41.06,-14.75 22.72,-24.73 -4.55,-62.86 -31.01,-83.46 -265.25,-206.84 -586.63,-292.6 -912.39,-208.81z"/>
   <path class="fil0" d="M14375.03 9528.05c316.37,-237.21 750.15,-308.79 1125.96,-185.81 -141.82,139.77 -338.56,214.94 -536.54,235.55 -198.05,20.63 -396.31,-1.34 -589.42,-49.74z"/>
   <path class="fil0" d="M14284.47 8955.1c-26.07,-264.76 -9.14,-473.78 -27.55,-739.81 -1.45,-21.27 -6.03,-46.81 -25.89,-54.47 -27.66,-10.69 -50.77,23.35 -59.87,51.61 -78.81,245.22 -35.74,526.45 112.92,736.85l0.39 5.82z"/>
   <path class="fil0" d="M14265.39 8984.38c179.49,-110.98 314.14,-255.94 438.64,-426.33 86.64,-118.54 159.67,-260.53 140.02,-406.01 -121.71,-2.47 -237.32,64.66 -316.41,157.12 -79.13,92.43 -126.19,207.97 -161.29,324.49 -35.14,116.52 -59.72,236.22 -100.96,350.73z"/>
   <path class="fil0" d="M14696.34 8864.65c393.88,-145.67 761.36,-362.34 1079.46,-636.48 -128.94,-51.97 -276.57,-20.89 -405.44,31.18 -294.57,118.89 -535.17,319.55 -679.63,602.44l5.61 2.86z"/>
   <path class="fil0" d="M14386.6 9129.23c199.25,21.8 401.67,35.95 599.37,2.93 194.35,-32.46 377.97,-109.5 559.54,-185.95 15.06,-6.28 31.47,-13.9 38.07,-28.86 7.16,-16.19 -0.5,-35.95 -13.66,-47.83 -13.12,-11.93 -30.62,-17.61 -47.73,-22.37 -197.38,-55.25 -410.42,-29.39 -604.66,36.09 -194.27,65.54 -353.52,143.33 -530.93,245.99z"/>
   <path class="fil0" d="M13248.75 9620.47c-135.96,-274.42 -127.14,-594.67 -9.67,-877.5 82.66,125.95 92.75,286.39 77.65,436.28 -15.13,149.93 -60.75,304.2 -63.71,454.84l-4.27 -13.62z"/>
   <path class="fil0" d="M12705.65 9346.54c-339.44,-6.49 -678.99,138.15 -909.46,387.42 169.44,26.6 343.89,-17.07 497.98,-92.32 154.13,-75.25 291.04,-180.83 426.79,-285.61l-15.31 -9.49z"/>
   <path class="fil0" d="M12340.52 9224.41c-166.05,-13.44 -325.82,-34.01 -485.49,14.92 -159.67,48.93 -304.97,159.99 -370.06,313.76 155.29,17.54 312.81,-21.45 455.15,-85.93 142.35,-64.53 271.82,-153.85 400.4,-242.75z"/>
   <path class="fil0" d="M12881.16 9230.02c-149.37,-97.9 -302.79,-197.56 -476.75,-238.13 -173.92,-40.5 -375.46,-10.54 -496.78,120.51 140.83,82.66 311.61,92.4 474.88,92.29 163.26,-0.11 363.39,-1.98 517.27,52.49l-18.62 -27.16z"/>
   <path class="fil0" d="M12882 9237.92c-255.37,-250.79 -352.17,-701.29 -249.41,-1044.15 200.73,305.01 290.62,681.32 249.41,1044.15z"/>
   <path class="fil0" d="M13584.28 8527.36c48.15,-111.94 82.02,-229.49 125.23,-343.47 43.22,-113.95 96.95,-226.13 178.58,-316.65 81.63,-90.45 194.56,-157.83 316.3,-163.9 -76.2,345.05 -305.4,653.38 -613.9,825.82l-6.21 -1.8z"/>
   <path class="fil0" d="M13457.17 8675.45c-79.69,-109.75 -171.77,-258.65 -279.86,-340.53 -108.09,-81.88 -248.81,-131.45 -380.71,-100.02 134.12,239.82 387.63,408.87 660.57,440.55z"/>
   <path class="fil0" d="M13482.61 8536.49c-52.25,-132.75 -104.88,-266.87 -125.98,-407.98 -21.13,-141.08 -8.29,-291.79 63.85,-414.87 140.2,265.01 185.35,549.45 69.29,825.85l-7.16 -3z"/>
   <path class="fil0" d="M13585.55 7713.64c79.41,-262.71 319.93,-456.11 579.65,-544.87 32.73,-11.21 67.45,-20.53 101.6,-15.24 34.22,5.26 67.73,28.68 74.93,62.52 9.49,44.69 -27.45,84.73 -62.16,114.44 -202.25,172.89 -439.95,304.16 -694.02,383.15z"/>
   <path class="fil0" d="M13588.44 7498.8c10.09,-169.37 20.64,-341.21 75.71,-501.69 55.1,-160.48 161.32,-311.01 315.77,-381.28 26.28,171.06 -49.21,341.28 -140.23,488.49 -91.02,147.18 -200.73,286.14 -255.41,450.36l4.16 -55.88z"/>
   <path class="fil0" d="M13584.28 7615.39c-65.65,-191.45 -72.43,-434.62 -187.04,-601.42 -80.19,-116.59 -208.5,-196 -277.54,-319.47 -45.86,115.32 -31.85,248.21 16.16,362.69 47.94,114.48 127.21,213.01 212.06,303.6 84.84,90.59 157.48,158.75 236.36,254.6z"/>
   <path class="fil0" d="M13585.55 13253.42c-5.12,0 -9.53,-1277.13 -9.84,-2852.21 -0.36,-1575.65 3.45,-2852.53 8.57,-2852.53 5.08,0 9.49,1276.88 9.88,2852.53 0.35,1575.08 -3.53,2852.21 -8.61,2852.21z"/>
   <path class="fil0" d="M14701.63 9427.75c0.35,1.24 -16.76,7.59 -48.01,18.03 -34.5,11.64 -78.88,26.6 -132.15,44.59 -111.45,37.92 -264.52,92.92 -430.64,161.01 -164.5,70.55 -319.62,127.84 -407.95,204.4 -44.13,37.78 -69.46,78.63 -82.02,108.44 -12.63,29.99 -14.89,48.33 -16.58,48.01 -0.64,-0.1 -0.43,-4.69 0.53,-13.4 1.44,-8.61 3.7,-21.45 9.38,-37.19 10.8,-31.53 35.42,-75.21 80.01,-115.64 44.38,-40.46 106.19,-76.83 177.02,-109.96 70.81,-33.02 149.3,-67.52 232.63,-101.77 166.61,-68.27 320.88,-121.46 433.56,-156.32 56.34,-17.53 102.27,-30.51 134.16,-39.05 31.89,-8.33 49.71,-12.35 50.06,-11.15z"/>
   <path class="fil0" d="M15067.46 8529.16c0.39,0.49 -4.2,5.39 -13.44,14.35 -10.9,10.2 -24.45,22.97 -40.99,38.49 -38.07,34.61 -89.85,81.67 -153,139.03 -132.08,117.62 -311.26,277.11 -509.24,453.39 -198.79,176.95 -370.55,346.01 -489.62,473.29 -59.58,63.57 -106.5,116.24 -138.53,153 -14.96,17.04 -27.2,31.04 -37.01,42.22 -8.57,9.6 -13.33,14.47 -13.83,14.05 -0.49,-0.39 3.28,-6 10.94,-16.37 7.72,-10.27 18.98,-25.58 34.36,-44.52 30.41,-38.25 75.99,-92.36 134.51,-157.24 116.88,-129.85 287.73,-300.92 486.91,-478.19 199.46,-176.53 380.96,-335.1 512.9,-449.44 64.74,-55.56 117.79,-101.1 156.85,-134.58 17.49,-14.5 31.78,-26.39 43.28,-35.91 10.02,-8.05 15.49,-12.07 15.91,-11.57z"/>
   <path class="fil0" d="M14136.23 9354.34c-5.22,-2.37 36.3,-98.22 77.65,-219.47 41.8,-121.21 61.45,-223.59 66.75,-222.67 4.83,0.46 -6.95,105.8 -49.25,228.6 -20.78,61.28 -43.75,115.22 -61.81,153.49 -18.1,38.28 -31.08,61.04 -33.34,60.05z"/>
   <path class="fil0" d="M13586.71 10127.34c-1.02,0.75 -11.89,-11.95 -30.62,-35.56 -20.78,-26.67 -47.09,-60.39 -78.49,-100.61 -65.9,-85.23 -157.02,-202.81 -259.15,-331.54 -102.2,-128.69 -196.08,-244.16 -264.09,-327.69 -32.07,-39.69 -58.95,-72.96 -80.19,-99.24 -18.7,-23.6 -28.64,-37.08 -27.66,-37.92 0.96,-0.82 12.7,11.07 33.13,33.26 20.46,22.16 49.39,54.75 84.7,95.54 70.63,81.42 166.23,195.72 268.57,324.59 102.24,128.87 191.84,247.89 255.13,335.17 31.68,43.6 56.87,79.23 73.84,104.18 16.97,24.94 25.86,39.05 24.83,39.82z"/>
   <path class="fil0" d="M13342.03 9813.2c-3.04,3.21 -68.34,-74.26 -102.56,-191.95 -25.22,-82.9 -26.35,-158.82 -23.25,-193.5l8.19 0.64c-3.67,14.81 -6.35,22.61 -7.8,22.36 -1.44,-0.25 -1.51,-8.46 -0.31,-23.67l8.14 0.71c2.97,34.36 8.22,107.63 32.74,188.2 33.02,114.06 89.78,194.07 84.85,197.21z"/>
   <path class="fil0" d="M13026.08 9415.76c-2.37,2.57 -23.39,-23.92 -71.58,-41.6 -47.8,-18.48 -119.77,-22.54 -198.76,-15.77 -78.98,5.79 -149.57,19.87 -200.09,32.28 -50.52,12.53 -81.39,22.37 -82.34,19.79 -0.85,-2.18 28.54,-16.43 78.85,-32.35 50.2,-15.83 121.74,-32.2 202.21,-38.13 79.87,-6.91 155.57,-0.74 205.03,22.12 50.1,22.15 68.3,53.2 66.68,53.66z"/>
   <path class="fil0" d="M12951.18 9319.45c-1.41,2.89 -41.7,-16.69 -109.64,-39.9 -67.87,-23.35 -164.5,-47.84 -273.61,-56.34 -109.19,-8.15 -208.43,1.41 -279.02,14.18 -70.73,12.67 -113.49,25.9 -114.44,22.86 -0.42,-1.2 9.92,-5.54 29.07,-12.42 19.02,-7.09 47.34,-15.2 82.8,-23.24 70.84,-16.23 171.84,-28.09 283,-19.79 111.09,8.64 209.12,35.66 276.64,62.47 33.84,13.3 60.61,25.65 78.36,35.53 17.88,9.66 27.41,15.52 26.84,16.65z"/>
   <path class="fil0" d="M13584.28 8912.2c-4.94,1.24 -40.78,-123.19 -79.98,-277.81 -39.23,-154.73 -67.02,-281.09 -62.09,-282.36 4.94,-1.24 40.75,123.11 79.98,277.81 39.23,154.66 67.03,281.06 62.09,282.36z"/>
   <path class="fil0" d="M13589.36 8912.2c-5.51,1.73 -28.51,-81.35 -88.62,-166.33 -58.56,-86.79 -133.21,-130.35 -130.49,-134.66 0.99,-1.9 21.62,5.65 50.37,26 28.83,20.04 64.46,54.05 95.18,98.04 62.45,88.44 78,176.6 73.56,176.95z"/>
   <path class="fil0" d="M13585.55 12572.58c-1.98,0.32 -5.75,-30.68 -20.11,-84.91 -14.25,-54.21 -41.06,-131.16 -85.34,-221.12 -88.26,-180.33 -248.81,-408.94 -452.82,-637.92 -101.14,-115.54 -199.22,-224.51 -282.44,-328.83 -83.39,-104.17 -151.94,-203.45 -201.96,-291.29 -50.2,-87.73 -82.87,-163.02 -101.95,-216.14 -9.39,-26.6 -16.23,-47.38 -20.04,-61.81 -4.02,-14.29 -5.86,-21.87 -5.22,-22.05 1.65,-0.53 10.9,29.25 31.96,81.28 21.02,52.07 55.24,125.94 106.54,212.16 51.08,86.33 120.22,184.12 203.9,287.2 83.58,103.22 181.79,211.63 283.07,327.3 204.58,229.63 364.74,461.11 450.71,644.42 43.18,91.48 68.33,169.86 80.54,225.08 5.93,27.65 9.88,49.21 11.29,64.06 1.87,14.75 2.5,22.5 1.87,22.57z"/>
   <path class="fil0" d="M14594.1 11433.47c0.57,1.34 -18.73,11.15 -52.88,29.67 -33.9,19.05 -82.02,48.4 -137.09,90.63 -55.14,42.19 -116.77,97.61 -180.05,164.21 -63.22,66.75 -128.27,144.33 -194.74,227.37 -132.85,166.68 -257.07,314.14 -331.47,431.87 -37.78,58.41 -65.23,107.64 -83.22,142.17 -18.17,34.47 -27.76,53.83 -29.1,53.19 -0.6,-0.2 1.13,-5.39 4.9,-14.95 3.95,-9.52 9.28,-23.78 17.75,-41.42 16.08,-35.66 42.01,-86.25 78.63,-145.94 72.25,-120.58 195.51,-270.05 328.12,-436.46 66.53,-83.22 132.47,-160.93 196.85,-227.57 64.49,-66.57 127.78,-121.61 184.5,-162.92 56.76,-41.38 106.43,-69.32 141.61,-86.57 17.49,-8.78 31.78,-14.18 41.24,-18.24 9.52,-3.88 14.67,-5.61 14.95,-5.04z"/>
   <path class="fil0" d="M14613.82 11803.04c0.22,2.68 -42.68,7.87 -111.72,16.23 -68.83,8.89 -164.64,20.39 -264.94,52.14 -99.97,32.59 -183.12,82.19 -237.24,124.53 -54.72,42.25 -80.47,77.21 -83.04,75.17 -0.89,-0.63 4.48,-10.19 16.54,-25.71 11.96,-15.63 31.54,-36.55 58.25,-59.55 53.23,-45.93 137.16,-98.53 239.78,-132.01 102.8,-32.53 199.92,-41.95 269.34,-47.56 69.68,-5.08 112.82,-5.64 113.03,-3.24z"/>
   <path class="fil0" d="M13949.51 12030.51c-5.86,-3.32 44.52,-80.19 83.54,-183.66 36.65,-104.38 45.26,-195.89 51.82,-194.84 2.4,0.29 2.29,23.18 -1.87,59.94 -4.37,36.62 -13.19,87.56 -32.56,141.22 -19.51,53.55 -45.16,98.32 -64.81,129.5 -19.93,31.12 -34.04,49.11 -36.12,47.84z"/>
   <path class="fil0" d="M14920.71 10441.35c0.21,0.6 -5.93,3.88 -17.85,9.53 -13.9,6.28 -31.26,14.14 -52.53,23.84 -23,9.85 -50.91,22.34 -82.38,38.95 -31.54,16.26 -68.37,33.06 -106.71,56.09 -19.51,11.04 -39.83,22.65 -60.96,34.65 -21.13,12.17 -42.05,26.56 -64.31,40.53 -44.91,27.23 -89.93,60.78 -137.97,95.07 -94.02,71.37 -192.87,155.79 -288.01,253.33 -94.26,98.46 -175.33,200.17 -243.38,296.58 -32.64,49.18 -64.63,95.32 -90.35,141.15 -13.16,22.72 -26.88,44.1 -38.31,65.62 -11.26,21.59 -22.12,42.29 -32.53,62.12 -21.69,39.09 -37.18,76.48 -52.39,108.59 -15.52,31.99 -27.05,60.32 -36.12,83.64 -8.93,21.62 -16.23,39.23 -22.05,53.3 -5.26,12.14 -8.29,18.38 -8.89,18.17 -0.6,-0.21 1.27,-6.88 5.4,-19.44 4.97,-14.39 11.18,-32.49 18.84,-54.61 8.08,-23.81 18.66,-52.63 33.33,-85.16 14.4,-32.66 29.14,-70.62 50.2,-110.35 10.13,-20.14 20.71,-41.16 31.72,-63.04 11.15,-21.83 24.62,-43.53 37.61,-66.57 25.29,-46.49 57.04,-93.24 89.5,-143.08 67.83,-97.65 149.15,-200.52 244.12,-299.76 95.95,-98.32 195.93,-183.05 291.18,-254.17 48.68,-34.12 94.33,-67.46 139.95,-94.34 22.54,-13.76 43.78,-27.94 65.23,-39.86 21.48,-11.71 42.15,-23.04 61.91,-33.83 38.98,-22.44 76.41,-38.49 108.55,-53.98 32.03,-15.73 60.46,-27.34 83.99,-36.23 21.84,-8.36 39.69,-15.24 53.98,-20.71 12.38,-4.55 19.01,-6.63 19.23,-6.03z"/>
   <path class="fil0" d="M14122.55 10976.13c-1.63,-0.25 7.26,-31.26 43.88,-65.34 35.7,-34.04 100.9,-65.58 176.81,-67.87 75.67,-2.01 141.29,19.19 186.13,36.37 45.01,17.67 71.23,32.07 70.34,34.18 -1.05,2.54 -29.1,-7.55 -74.64,-21.87 -45.37,-13.9 -109.54,-32.17 -181.23,-30.2 -71.43,2.19 -133.13,29.67 -168.91,59.27 -36.54,29.46 -49.46,57.26 -52.38,55.46z"/>
   <path class="fil0" d="M14003.24 11099.25c-5.08,-2.83 39.93,-68.83 50.2,-163.37 11.78,-94.41 -16.83,-168.98 -11.26,-170.57 2.01,-0.85 12.07,16.54 20.75,47.59 8.71,30.9 14.46,75.95 8.82,125.09 -5.79,49.14 -21.77,91.62 -37.4,119.7 -15.59,28.26 -29.35,42.83 -31.11,41.56z"/>
   <path class="fil0" d="M12703.46 12755.6c27.52,488.07 174.59,984.43 400.83,1486.33l983.75 0c215.76,-496.88 352.68,-992.51 377.02,-1486.33l-1761.6 0z"/>
   <path class="fil3" d="M14305.64 13545.41c0,5.07 -323.92,9.21 -723.37,9.21 -399.63,0 -723.48,-4.14 -723.48,-9.21 0,-5.11 323.85,-9.25 723.48,-9.25 399.45,0 723.37,4.14 723.37,9.25z"/>
   <path class="fil3" d="M14283.66 13722.19c0,5.11 -303.67,9.24 -678.18,9.24 -374.61,0 -678.18,-4.13 -678.18,-9.24 0,-5.09 303.57,-9.21 678.18,-9.21 374.51,0 678.18,4.12 678.18,9.21z"/>
   <path class="fil3" d="M13120.16 13076.08c5.12,0 9.25,101.45 9.25,226.57 0,125.17 -4.13,226.64 -9.25,226.64 -5.08,0 -9.2,-101.47 -9.2,-226.64 0,-125.12 4.12,-226.57 9.2,-226.57z"/>
   <path class="fil3" d="M13647.25 13076.08c5.11,0 9.24,105.05 9.24,234.62 0,129.65 -4.13,234.71 -9.24,234.71 -5.08,0 -9.21,-105.06 -9.21,-234.71 0,-129.57 4.13,-234.62 9.21,-234.62z"/>
   <path class="fil3" d="M14142.09 13072.08c5.12,0 9.21,107.18 9.21,239.32 0,132.23 -4.09,239.37 -9.21,239.37 -5.08,0 -9.24,-107.14 -9.24,-239.37 0,-132.14 4.16,-239.32 9.24,-239.32z"/>
   <path class="fil3" d="M14433.84 13076.08c0,5.07 -379.91,9.23 -848.43,9.23 -468.7,0 -848.54,-4.16 -848.54,-9.23 0,-5.13 379.84,-9.25 848.54,-9.25 468.52,0 848.43,4.12 848.43,9.25z"/>
   <path class="fil4" d="M15298.35 14437.65c0,5.04 -3416.47,9.13 -7629.94,9.13 -4214.9,0 -7630.63,-4.09 -7630.63,-9.13 0,-5.11 3415.73,-9.21 7630.63,-9.21 4213.47,0 7629.94,4.1 7629.94,9.21z"/>
   <path class="fil2" d="M10091.74 10.1l-1012.72 -0.63c-135.82,-0.07 -245.95,115.39 -245.95,257.84l-0.07 184.36c0.03,142.53 -110.14,257.95 -245.93,257.88l-1974 -1.2c-135.78,-0.07 -245.85,-115.67 -245.85,-258.16l0.07 -184.36c0,-142.49 -110.1,-258.06 -245.92,-258.13l-356.13 -0.24 -886.39 -0.53c-440.19,-0.25 -797.21,357.75 -797.28,799.57l-2.32 12828.06c-0.08,441.56 356.44,799.67 796.39,799.95l5212.86 3.14c440.16,0.25 797.17,-357.78 797.31,-799.57l2.29 -12828.09c0.07,-441.57 -356.44,-799.64 -796.36,-799.89z"/>
   <path class="fil4" d="M10091.74 10.1c0,0 9.14,0.14 27.34,0.92 18.07,1.73 45.55,-0.35 80.93,6.42 70.8,8.47 178.44,31.71 299.3,104.21 60.99,34.71 123.12,84.42 181.64,148.24 58.39,63.85 112.47,143.51 151.17,238.86 39.23,95.04 60.29,205.88 59.16,324.21 0.1,117.96 0.21,243.55 0.35,376.62 0.46,1064.47 1.2,2604.49 2.08,4507.41 0.21,1903.09 0.5,4169.02 0.78,6685.06 0,314.51 0,632.96 0,955.05 0,80.53 0,161.29 0,242.29 0.85,40.28 -2.37,81.45 -4.34,122.41 -6.42,40.5 -10.83,81.48 -22.79,121.03 -39.79,159.99 -133.99,305.54 -260.14,413.63 -64.03,53.17 -135.96,96.95 -213.01,129.54 -77.32,32.31 -160.26,50.13 -243.87,57.41l-63.01 3.06 -62.51 -0.03 -125.24 -0.04c-83.57,-0.03 -167.35,-0.1 -251.35,-0.14 -335.95,-0.18 -675.18,-0.36 -1017.41,-0.52 -684.53,-0.36 -1381.13,-0.75 -2088.06,-1.1 -353.48,-0.21 -709.54,-0.39 -1067.96,-0.6 -179.21,-0.11 -359.02,-0.22 -539.4,-0.31 -180.94,9.34 -368.05,-39.21 -518.62,-144.69 -151.48,-104.49 -262.46,-262.74 -314,-437.58 -27.77,-87.17 -32.95,-179.98 -32.71,-269.74 0.04,-89.91 0.04,-179.7 0.07,-269.34 0.07,-358.53 0.14,-714.73 0.22,-1068.28 0.17,-707.14 0.35,-1403.95 0.52,-2088.58 0.43,-1369.31 0.85,-2690.15 1.24,-3948.4 0.53,-1258.22 1.02,-2453.85 1.48,-3572.83 0.28,-559.47 0.57,-1099.78 0.81,-1619.14 0.07,-64.95 0.11,-129.54 0.14,-193.78 -0.81,-32.03 2.51,-64.56 3.64,-96.7 2.96,-32.03 8.68,-63.82 13.97,-95.39 27.27,-125.41 83.96,-242.57 162.35,-340.61 153.34,-189.67 390.01,-299.45 622.85,-298.66 7.51,0.02 15.02,0.16 22.52,0.42 237.87,0.25 470.07,0.5 696.42,0.75 113.13,0.1 224.82,0.24 334.99,0.38 55.11,0.04 109.82,0.11 164.15,0.18 54.15,-2.54 112.04,8.18 157.55,39.41 46.43,29.49 81.32,74.5 101.18,124.56 9.95,25.15 15.34,51.72 17.78,78.35 1.87,26.96 0.63,52.6 0.99,78.74 0.56,51.79 -1.49,104.28 1.27,154.34 5.22,49.96 24.55,97.9 55.66,136.35 31.12,38.28 73.31,67.31 120.16,80.33 33.16,10.16 68.16,9.67 103.22,9.17 14.11,-0.21 28.23,-0.39 42.2,0.11 97.75,0.1 193.85,0.24 288.36,0.32 377.93,0.52 729.65,0.98 1053.43,1.41 161.85,0.24 316.75,0.49 464.43,0.67 13.01,-0.14 26.07,-0.04 39.05,0.07 23.71,0.21 47.2,0.42 69.92,-1.13 35.31,-3.39 69.07,-15.45 98.5,-33.52 59.16,-36.19 99.48,-96.69 113.56,-160.62 7.65,-32.03 6.77,-64.66 6.84,-97.04 0.03,-32.35 0.1,-64.21 0.14,-95.61 0.42,-31.22 -1.41,-62.44 3.74,-93.02 4.83,-30.41 14.75,-59.48 28.89,-85.77 28.05,-52.88 74.33,-92.85 125.73,-114.12 41.91,-18.87 86.33,-18.45 128.34,-18.03 10.13,0.11 20.11,0.22 29.88,0.04 204.79,0.49 378.11,0.88 518.2,1.2 139.98,0.49 246.73,0.88 318.7,1.13 71.79,0.35 108.58,1.02 108.58,1.02 0,0 -36.79,0.57 -108.58,0.85 -71.97,0.14 -178.72,0.39 -318.7,0.7 -140.09,0.18 -313.41,0.36 -518.2,0.57 -9.87,0.21 -19.86,0.14 -29.95,0.03 -41.98,-0.28 -85.33,-0.6 -126.05,17.92 -50.09,20.92 -95.14,60.01 -122.41,111.69 -13.72,25.69 -23.32,54.08 -27.97,83.79 -4.94,29.6 -3.14,60.61 -3.43,92 0,31.4 0.04,63.26 0.07,95.61 0,32.06 0.96,65.65 -6.84,98.6 -14.36,65.72 -55.63,128.06 -116.59,165.48 -30.31,18.7 -65.2,31.23 -101.64,34.82 -23.74,1.66 -47.13,1.49 -70.73,1.31 -12.91,-0.11 -25.89,-0.21 -39.05,0 -147.68,0.03 -302.58,0.07 -464.47,0.14 -323.74,0 -675.46,0.07 -1053.39,0.11 -94.51,0 -190.65,0 -288.36,0 -24.45,0 -48.97,0 -73.63,0 -24.69,-0.14 -50.52,-1.87 -74.79,-9.49 -49.03,-13.59 -93.17,-43.92 -125.69,-83.82 -32.53,-40.11 -52.74,-90.07 -58.25,-142.14 -2.92,-52.31 -0.84,-103.19 -1.51,-155.47 -0.36,-25.86 0.81,-52.53 -1.03,-77.85 -2.36,-25.51 -7.55,-50.98 -17.11,-75.04 -19.08,-47.87 -52.49,-90.91 -96.8,-118.96 -43.95,-29.7 -97.15,-39.79 -151.2,-37.36 -54.36,-0.03 -109.04,-0.03 -164.15,-0.03 -110.17,0 -221.86,0 -335.03,-0.04 -226.31,-0.03 -458.51,-0.03 -696.38,-0.1 -236.86,-7.87 -479.11,101.21 -634.79,293.83 -77.01,96.45 -132.61,211.63 -159.32,334.89 -5.18,31.04 -10.79,62.3 -13.65,93.77 -1.06,31.78 -4.34,63.14 -3.56,95.46 0.03,64.24 0.03,128.83 0.07,193.78 0.07,519.36 0.14,1059.67 0.21,1619.14 0.07,1118.98 0.14,2314.61 0.21,3572.83 -0.07,1258.25 -0.1,2579.09 -0.17,3948.4 -0.07,684.63 -0.15,1381.44 -0.25,2088.58 -0.04,353.55 -0.11,709.75 -0.14,1068.28 -0.04,89.64 -0.04,179.43 -0.07,269.34 -0.14,89.65 4.83,179.01 31.99,264.63 50.38,170.81 158.82,325.53 306.89,427.63 147.77,103.05 328.5,150.5 508.1,141.36 180.38,0.14 360.19,0.25 539.4,0.35 358.42,0.24 714.48,0.42 1067.96,0.67 706.93,0.46 1403.53,0.95 2088.06,1.38 342.23,0.25 681.46,0.49 1017.41,0.75 84,0.02 167.82,0.09 251.39,0.18l125.2 0.09 62.51 0.04 61.67 -3.03c81.77,-7.12 162.88,-24.49 238.48,-56.06 75.42,-31.89 145.73,-74.65 208.42,-126.66 123.47,-105.72 215.65,-248.07 254.6,-404.63 11.78,-38.67 16.01,-78.77 22.36,-118.43 1.91,-40.18 5.15,-79.93 4.27,-120.64 0,-80.96 0.04,-161.72 0.07,-242.25 0.11,-322.09 0.25,-640.54 0.36,-955.05 1.16,-2516.04 2.25,-4781.97 3.17,-6685.06 1.59,-1902.92 2.86,-3442.94 3.7,-4507.41 0.18,-133.07 0.36,-258.66 0.5,-376.62 1.41,-117.76 -19.16,-227.58 -57.89,-322.16 -38.14,-94.79 -91.65,-174.17 -149.47,-237.84 -57.97,-63.61 -119.6,-113.32 -180.17,-148.17 -120.01,-72.64 -227.12,-96.45 -297.64,-105.52 -35.27,-7.02 -62.69,-5.29 -80.71,-7.3 -18.17,-1.13 -27.31,-1.87 -27.31,-1.87z"/>
   <path class="fil5" d="M9731.45 10443.93l-4803.28 0c-112.47,0 -203.59,-91.13 -203.59,-203.56l0 -728.69c0,-112.47 91.12,-203.63 203.59,-203.63l4803.28 0c112.43,0 203.59,91.16 203.59,203.63l0 728.69c0,112.43 -91.16,203.56 -203.59,203.56z"/>
   <path class="fil6" d="M6187.69 3497.91l41.42 -91.79c44.38,32.35 110.59,54.92 173.81,54.92 72.25,0 101.6,-24.09 101.6,-56.44 0,-98.57 -306.28,-30.87 -306.28,-226.52 0,-89.53 72.25,-164.04 222,-164.04 66.22,0 133.95,15.8 182.88,46.64l-37.64 92.57c-48.93,-27.84 -99.34,-41.39 -146.01,-41.39 -72.22,0 -100.05,27.1 -100.05,60.19 0,97.12 306.25,30.13 306.25,223.52 0,88.05 -72.99,163.3 -223.49,163.3 -83.54,0 -167.82,-24.84 -214.49,-60.96z"/>
   <path class="fil6" d="M6700.88 3144.95l117.4 0 0 404.89 -117.4 0 0 -404.89zm-14.32 -121.88c0,-36.87 29.35,-65.48 73.02,-65.48 43.64,0 72.99,27.1 72.99,63.22 0,39.13 -29.35,67.74 -72.99,67.74 -43.67,0 -73.02,-28.61 -73.02,-65.48z"/>
   <path class="fil6" d="M7229.13 3334.61c0,-59.44 -44.42,-99.31 -106.12,-99.31 -61.7,0 -106.85,39.87 -106.85,99.31 0,59.48 45.15,99.34 106.85,99.34 61.7,0 106.12,-39.86 106.12,-99.34zm115.88 -189.66l0 337.15c0,150.53 -81.28,219.75 -227.29,219.75 -76.73,0 -151.24,-18.8 -198.65,-55.67l46.67 -84.31c34.61,27.87 91.06,45.93 142.98,45.93 82.77,0 118.89,-37.64 118.89,-110.63l0 -17.32c-30.83,33.86 -75.25,50.41 -127.92,50.41 -112.14,0 -202.46,-77.51 -202.46,-195.65 0,-118.15 90.32,-195.65 202.46,-195.65 56.41,0 103.08,18.8 133.95,57.96l0 -51.97 111.37 0z"/>
   <path class="fil6" d="M7867.97 3318.06l0 231.78 -117.44 0 0 -213.71c0,-65.48 -30.09,-95.61 -82.02,-95.61 -56.41,0 -97.05,34.65 -97.05,109.15l0 200.17 -117.4 0 0 -404.89 112.11 0 0 47.42c31.61,-34.61 79.02,-53.41 133.95,-53.41 95.6,0 167.85,55.67 167.85,179.1z"/>
   <path class="fil6" d="M8186.95 3144.95l117.41 0 0 404.89 -117.41 0 0 -404.89zm-14.32 -121.88c0,-36.87 29.35,-65.48 73.03,-65.48 43.64,0 72.99,27.1 72.99,63.22 0,39.13 -29.35,67.74 -72.99,67.74 -43.68,0 -73.03,-28.61 -73.03,-65.48z"/>
   <path class="fil6" d="M8827.32 3318.06l0 231.78 -117.41 0 0 -213.71c0,-65.48 -30.09,-95.61 -82.02,-95.61 -56.44,0 -97.05,34.65 -97.05,109.15l0 200.17 -117.44 0 0 -404.89 112.15 0 0 47.42c31.61,-34.61 78.99,-53.41 133.95,-53.41 95.57,0 167.82,55.67 167.82,179.1z"/>
   <polygon class="fil4" points="4985.88,5286 4985.88,5305.08 4838.28,5305.08 4838.28,5096.35 4981.44,5096.35 4981.44,5115.43 4860.37,5115.43 4860.37,5189.69 4968.32,5189.69 4968.32,5208.46 4860.37,5208.46 4860.37,5286 "/>
   <polygon class="fil4" points="5015.73,5233.51 5093.86,5233.51 5093.86,5215.01 5015.73,5215.01 "/>
   <path class="fil4" d="M5400.12 5214.14l0 90.94 -21.17 0 0 -88.86c0,-33.09 -16.69,-50.1 -45.02,-50.1 -32.2,0 -52.49,20.85 -52.49,56.66l0 82.3 -21.17 0 0 -88.86c0,-33.09 -16.72,-50.1 -45.33,-50.1 -31.89,0 -52.49,20.85 -52.49,56.66l0 82.3 -21.17 0 0 -156.84 20.29 0 0 28.61c11.04,-18.77 31.29,-29.81 57.57,-29.81 25.93,0 46.21,11.04 55.74,33.09 11.32,-20.28 33.69,-33.09 62.02,-33.09 38.2,0 63.22,22.05 63.22,67.1z"/>
   <path class="fil4" d="M5554.95 5257.99l0 -25.65 -49.21 0c-30.45,0 -40.25,11.89 -40.25,28.01 0,18.2 14.6,29.53 39.65,29.53 23.85,0 41.45,-11.33 49.81,-31.89zm21.17 -50.13l0 97.22 -20.29 0 0 -24.44c-9.52,16.08 -28.04,25.96 -53.97,25.96 -35.49,0 -57.26,-18.52 -57.26,-45.65 0,-24.16 15.49,-44.45 60.54,-44.45l49.81 0 0 -9.52c0,-26.85 -15.21,-41.46 -44.45,-41.46 -20.28,0 -39.37,7.17 -52.18,18.49l-9.56 -15.8c15.81,-13.41 39.09,-21.17 63.82,-21.17 40.57,0 63.54,20.28 63.54,60.82z"/>
   <path class="fil4" d="M5633.69 5148.24l21.17 0 0 156.84 -21.17 0 0 -156.84zm-4.8 -49.53c0,-8.04 6.88,-14.89 15.52,-14.89 8.65,0 15.49,6.56 15.49,14.61 0,8.64 -6.53,15.52 -15.49,15.52 -8.64,0 -15.52,-6.88 -15.52,-15.24z"/>
   <polygon class="fil4" points="5713.91,5305.08 5735.08,5305.08 5735.08,5083.81 5713.91,5083.81 "/>
   <path class="fil6" d="M4899.91 7223.1c0,-33.41 -22.05,-52.49 -63.82,-52.49l-55.45 0 0 104.35 55.45 0c41.77,0 63.82,-19.09 63.82,-51.86zm22.09 0c0,44.42 -32.21,71.26 -85.31,71.26l-56.05 0 0 65.9 -22.09 0 0 -208.74 78.14 0c53.1,0 85.31,26.85 85.31,71.58z"/>
   <path class="fil6" d="M5060.96 7313.13l0 -25.61 -49.22 0c-30.41,0 -40.25,11.92 -40.25,28.04 0,18.17 14.61,29.53 39.69,29.53 23.85,0 41.41,-11.36 49.78,-31.96zm21.16 -50.06l0 97.19 -20.25 0 0 -24.45c-9.56,16.13 -28.04,25.93 -54.01,25.93 -35.49,0 -57.25,-18.45 -57.25,-45.61 0,-24.13 15.52,-44.42 60.57,-44.42l49.78 0 0 -9.56c0,-26.84 -15.21,-41.45 -44.45,-41.45 -20.25,0 -39.34,7.16 -52.18,18.52l-9.53 -15.84c15.81,-13.4 39.06,-21.16 63.82,-21.16 40.54,0 63.5,20.28 63.5,60.85z"/>
   <path class="fil6" d="M5117.93 7342.41l9.52 -16.72c12.53,9.84 33.73,17.6 55.81,17.6 29.81,0 42.02,-10.16 42.02,-25.68 0,-40.85 -101.67,-8.64 -101.67,-70.66 0,-25.65 22.05,-44.73 62.02,-44.73 20.28,0 42.33,5.68 55.45,14.6l-9.24 17.01c-13.72,-9.53 -30.13,-13.41 -46.21,-13.41 -28.33,0 -40.85,11.04 -40.85,25.93 0,42.37 101.7,10.44 101.7,70.7 0,27.12 -23.88,44.69 -64.73,44.69 -25.93,0 -50.98,-8.32 -63.82,-19.33z"/>
   <path class="fil6" d="M5263.77 7342.41l9.52 -16.72c12.53,9.84 33.69,17.6 55.78,17.6 29.84,0 42.05,-10.16 42.05,-25.68 0,-40.85 -101.71,-8.64 -101.71,-70.66 0,-25.65 22.09,-44.73 62.06,-44.73 20.24,0 42.33,5.68 55.45,14.6l-9.24 17.01c-13.72,-9.53 -30.13,-13.41 -46.21,-13.41 -28.37,0 -40.89,11.04 -40.89,25.93 0,42.37 101.7,10.44 101.7,70.7 0,27.12 -23.84,44.69 -64.7,44.69 -25.96,0 -50.97,-8.32 -63.81,-19.33z"/>
   <polygon class="fil6" points="5658.63,7203.42 5599.26,7360.26 5579.29,7360.26 5529.8,7231.74 5480.27,7360.26 5460.3,7360.26 5401.28,7203.42 5421.53,7203.42 5470.74,7336.7 5521.15,7203.42 5539.32,7203.42 5589.45,7336.7 5639.23,7203.42 "/>
   <path class="fil6" d="M5808.35 7281.84c0,-36.65 -24.76,-61.14 -58.17,-61.14 -33.38,0 -58.42,24.49 -58.42,61.14 0,36.69 25.04,61.14 58.42,61.14 33.41,0 58.17,-24.45 58.17,-61.14zm-138.08 0c0,-46.53 34.01,-79.62 79.91,-79.62 45.93,0 79.65,33.09 79.65,79.62 0,46.53 -33.72,79.9 -79.65,79.9 -45.9,0 -79.91,-33.37 -79.91,-79.9z"/>
   <path class="fil6" d="M5952.07 7202.22l0 20.56 -5.08 -0.28c-32.77,0 -52.77,20.89 -52.77,57.86l0 79.9 -21.17 0 0 -156.84 20.28 0 0 30.69c9.85,-20.89 29.81,-31.89 58.74,-31.89z"/>
   <path class="fil6" d="M6111.03 7281.84c0,-36.65 -25.04,-61.14 -58.13,-61.14 -33.41,0 -58.46,24.49 -58.46,61.14 0,36.69 25.05,61.14 58.46,61.14 33.09,0 58.13,-24.45 58.13,-61.14zm20.89 -142.84l0 221.26 -20.29 0 0 -31.01c-12.8,21.17 -34.6,32.49 -60.53,32.49 -44.74,0 -78.14,-32.49 -78.14,-79.9 0,-47.41 33.4,-79.62 78.14,-79.62 25.08,0 46.53,10.76 59.65,31.01l0 -94.23 21.17 0z"/>
   <path class="fil2" d="M6649.05 9964.96l20.75 -46c22.29,16.23 55.45,27.55 87.17,27.55 36.23,0 50.94,-12.1 50.94,-28.33 0,-49.42 -153.56,-15.45 -153.56,-113.59 0,-44.88 36.23,-82.27 111.3,-82.27 33.19,0 67.17,7.94 91.72,23.42l-18.91 46.43c-24.52,-14.01 -49.78,-20.78 -73.16,-20.78 -36.27,0 -50.21,13.62 -50.21,30.2 0,48.65 153.57,15.1 153.57,112.08 0,44.13 -36.58,81.88 -112.04,81.88 -41.91,0 -84.18,-12.46 -107.57,-30.59z"/>
   <path class="fil2" d="M6906.41 9788.01l58.87 0 0 203.02 -58.87 0 0 -203.02zm-7.17 -61.14c0,-18.48 14.72,-32.81 36.59,-32.81 21.91,0 36.62,13.55 36.62,31.68 0,19.65 -14.71,33.97 -36.62,33.97 -21.87,0 -36.59,-14.32 -36.59,-32.84z"/>
   <path class="fil2" d="M7227.5 9874.79l0 116.24 -58.87 0 0 -107.17c0,-32.85 -15.07,-47.95 -41.1,-47.95 -28.3,0 -48.69,17.36 -48.69,54.72l0 100.4 -58.87 0 0 -203.02 56.23 0 0 23.77c15.84,-17.39 39.62,-26.77 67.17,-26.77 47.9,0 84.13,27.9 84.13,89.78z"/>
   <path class="fil2" d="M7434.3 9883.08c0,-29.81 -22.29,-49.78 -53.23,-49.78 -30.94,0 -53.59,19.97 -53.59,49.78 0,29.85 22.65,49.81 53.59,49.81 30.94,0 53.23,-19.96 53.23,-49.81zm58.11 -95.07l0 169.05c0,75.46 -40.79,110.21 -113.95,110.21 -38.53,0 -75.88,-9.46 -99.66,-27.94l23.39 -42.27c17.39,13.97 45.68,23 71.72,23 41.48,0 59.62,-18.83 59.62,-55.45l0 -8.68c-15.45,16.97 -37.75,25.26 -64.14,25.26 -56.23,0 -101.53,-38.84 -101.53,-98.11 0,-59.23 45.3,-98.07 101.53,-98.07 28.29,0 51.68,9.38 67.17,29.03l0 -26.03 55.85 0z"/>
   <path class="fil2" d="M7653.87 9788.01l58.88 0 0 203.02 -58.88 0 0 -203.02zm-7.16 -61.14c0,-18.48 14.71,-32.81 36.62,-32.81 21.87,0 36.58,13.55 36.58,31.68 0,19.65 -14.71,33.97 -36.58,33.97 -21.91,0 -36.62,-14.32 -36.62,-32.84z"/>
   <path class="fil2" d="M7975.04 9874.79l0 116.24 -58.88 0 0 -107.17c0,-32.85 -15.1,-47.95 -41.13,-47.95 -28.29,0 -48.69,17.36 -48.69,54.72l0 100.4 -58.87 0 0 -203.02 56.23 0 0 23.77c15.84,-17.39 39.62,-26.77 67.17,-26.77 47.91,0 84.17,27.9 84.17,89.78z"/>
   <path class="fil1" d="M9687.85 6658.16l-4716.11 0c-136.49,0 -247.16,-110.66 -247.16,-247.19l0 -632.85c0,-136.52 110.67,-247.22 247.16,-247.22l4716.11 0c136.52,0 247.19,110.7 247.19,247.22l0 632.85c0,136.53 -110.67,247.19 -247.19,247.19z"/>
   <path class="fil4" d="M9687.85 6658.16c0,0 2.68,-0.46 7.93,-0.88 5.26,-0.7 13.2,-0.35 23.46,-2.29 20.54,-2.61 51.4,-9.63 87,-29.14 34.89,-19.86 75,-53.73 100.82,-107.25 12.95,-26.45 21.95,-57.5 23.99,-91.37 1.52,-33.9 0.18,-70.83 0.43,-109.46 -1.13,-154.73 0.17,-345.16 -2.79,-564.24 -5.82,-53.51 -30.09,-107.06 -71.23,-147.49 -40.78,-40.57 -98.42,-66.61 -159.38,-68.76 -124.81,0.04 -256.65,0.11 -395.11,0.11 -1108.82,0.7 -2639.91,1.66 -4330.91,2.71 -102.87,-1.48 -199.57,71.3 -227.97,168.53 -15.13,47.83 -9.1,100.33 -10.37,152.36 0,51.86 0,103.54 -0.04,155.01 0,102.98 -0.03,205.21 -0.03,306.6l-0.04 75.92c-0.24,25.22 1.31,49 7.98,72.56 11.71,47.07 39.15,89.43 75.45,120.8 36.48,31.43 82.34,50.8 129.69,56.02 47.48,2.64 98.03,0.74 146.54,1.37 97.9,0.04 194.8,0.07 290.72,0.11 191.81,0.1 379.59,0.21 562.83,0.32 732.79,0.74 1392.69,1.41 1947.08,1.97 553.9,1.24 1002.24,2.22 1312.65,2.89 154.63,0.78 274.78,1.35 356.87,1.73 40.47,0.43 71.44,0.71 92.82,0.92 20.92,0.32 31.61,0.95 31.61,0.95 0,0 -10.69,0.64 -31.61,0.92 -21.38,0.25 -52.35,0.53 -92.82,0.92 -82.09,0.39 -202.24,0.99 -356.87,1.73 -310.41,0.7 -758.75,1.69 -1312.65,2.92 -554.39,0.57 -1214.29,1.24 -1947.08,1.98 -183.24,0.11 -371.02,0.21 -562.83,0.32 -95.92,0.03 -192.82,0.07 -290.72,0.1 -49.32,-0.63 -97.23,1.45 -148.38,-1.37 -50.94,-5.54 -100.33,-26.36 -139.56,-60.15 -39.05,-33.62 -68.61,-79.24 -81.28,-129.89 -7.12,-24.95 -8.85,-51.9 -8.53,-77.12l-0.04 -75.92c-0.04,-101.39 -0.04,-203.62 -0.07,-306.6 0,-51.47 0,-103.15 0,-155.01l-0.04 -77.93c0.29,-26.56 3.21,-53.9 11.19,-79.8 30.51,-104.77 134.69,-183.12 245.5,-181.54 1691,1.06 3222.09,2.02 4330.91,2.69 138.64,0.42 270.65,0.81 395.57,1.2 63.96,2.5 124.21,30.05 166.65,72.6 42.83,42.4 67.91,98.49 73.73,154.3 2.05,221.12 -0.32,410.07 -0.28,565.26 -0.53,38.84 0.53,75.14 -1.27,109.85 -2.4,34.75 -11.93,66.47 -25.37,93.38 -26.99,54.47 -68.3,88.44 -103.96,108.06 -36.44,19.3 -67.77,25.79 -88.55,27.8 -20.88,2.04 -31.64,1.3 -31.64,1.3z"/>
   <path class="fil1" d="M9687.85 8692.35l-4716.11 0c-136.49,0 -247.16,-110.67 -247.16,-247.19l0 -632.81c0,-136.53 110.67,-247.23 247.16,-247.23l4716.11 0c136.52,0 247.19,110.7 247.19,247.23l0 632.81c0,136.52 -110.67,247.19 -247.19,247.19z"/>
   <path class="fil4" d="M9687.85 8692.35c0,0 2.68,-0.46 7.93,-0.85 5.26,-0.7 13.2,-0.35 23.46,-2.29 20.54,-2.61 51.4,-9.63 87,-29.17 34.89,-19.83 75,-53.7 100.82,-107.21 12.95,-26.5 21.95,-57.54 23.99,-91.41 1.52,-33.9 0.18,-70.8 0.43,-109.43 -1.13,-154.76 0.17,-345.16 -2.79,-564.2 -5.82,-53.55 -30.09,-107.14 -71.23,-147.53 -40.78,-40.57 -98.42,-66.6 -159.38,-68.76 -124.81,0.04 -256.65,0.08 -395.11,0.15 -1108.82,0.67 -2639.91,1.58 -4330.91,2.68 -102.87,-1.48 -199.57,71.26 -227.97,168.48 -15.13,47.88 -9.1,100.33 -10.37,152.37 0,51.89 0,103.57 -0.04,155.04 0,102.98 -0.03,205.18 -0.03,306.6l-0.04 75.92c-0.24,25.19 1.31,49 7.98,72.53 11.71,47.06 39.15,89.5 75.45,120.79 36.48,31.47 82.34,50.84 129.69,56.02 47.48,2.69 98.03,0.78 146.54,1.38 97.9,0.04 194.8,0.11 290.72,0.14 191.81,0.11 379.59,0.21 562.83,0.32 732.79,0.7 1392.69,1.41 1947.08,1.97 553.9,1.24 1002.24,2.23 1312.65,2.93 154.63,0.71 274.78,1.31 356.87,1.7 40.47,0.38 71.44,0.7 92.82,0.91 20.92,0.32 31.61,0.92 31.61,0.92 0,0 -10.69,0.67 -31.61,0.95 -21.38,0.21 -52.35,0.53 -92.82,0.92 -82.09,0.42 -202.24,0.99 -356.87,1.73 -310.41,0.67 -758.75,1.69 -1312.65,2.93 -554.39,0.53 -1214.29,1.23 -1947.08,1.94 -183.24,0.1 -371.02,0.21 -562.83,0.31 -95.92,0.04 -192.82,0.11 -290.72,0.15 -49.32,-0.64 -97.23,1.44 -148.38,-1.38 -50.94,-5.54 -100.33,-26.39 -139.56,-60.15 -39.05,-33.65 -68.61,-79.23 -81.28,-129.89 -7.12,-24.98 -8.85,-51.9 -8.53,-77.12l-0.04 -75.92c-0.04,-101.42 -0.04,-203.62 -0.07,-306.6 0,-51.47 0,-103.15 0,-155.04l-0.04 -77.89c0.29,-26.57 3.21,-53.94 11.19,-79.8 30.51,-104.78 134.69,-183.13 245.5,-181.54 1691,1.06 3222.09,1.97 4330.91,2.68 138.64,0.42 270.65,0.81 395.57,1.2 63.96,2.47 124.21,30.05 166.65,72.56 42.83,42.41 67.91,98.5 73.73,154.34 2.05,221.13 -0.32,410.04 -0.28,565.26 -0.53,38.81 0.53,75.14 -1.27,109.86 -2.4,34.71 -11.93,66.46 -25.37,93.38 -26.99,54.43 -68.3,88.4 -103.96,108.05 -36.44,19.3 -67.77,25.75 -88.55,27.8 -20.88,2.05 -31.64,1.27 -31.64,1.27z"/>
   <path class="fil0" d="M9731.45 12843.84c-0.03,-0.84 10.87,-0.07 31.57,-3.67 20.39,-3.59 51.62,-11.6 84.92,-35.42 32.91,-23.21 67.66,-64.62 80.04,-123.12 6.39,-29 3.43,-61.56 3.88,-96.16 -0.1,-34.64 -0.24,-71.51 -0.38,-110.53 -0.53,-156.29 -1.13,-347.24 -1.84,-568.85 -1.16,-54.05 -26.6,-109.19 -70.94,-146.3 -22.02,-18.59 -48.76,-32.21 -77.44,-39.62 -28.68,-8.01 -59.33,-6.24 -90.94,-6.38 -125.84,0.17 -258.77,0.38 -398.32,0.63 -1117.18,0.71 -2659.81,1.66 -4363.55,2.68 -51.01,-0.21 -101.32,20.57 -137.16,56.41 -36.16,35.49 -57.29,85.41 -57.43,135.75 -0.07,105.16 -0.11,209.66 -0.18,313.34 0,103.78 -0.03,206.76 -0.03,308.89l-0.04 76.48c0.11,25.83 -0.84,50.34 4.59,73.91 9.95,47.44 38.95,90.13 78.32,117.58 19.65,13.8 41.8,23.84 64.98,29.52 23.32,5.97 46.85,6.11 72.18,5.9 49.77,0 99.3,0.03 148.62,0.03 98.6,0.07 196.25,0.11 292.88,0.15 193.28,0.09 382.48,0.21 567.09,0.32 738.29,0.7 1403.17,1.4 1961.69,1.93 558.13,1.23 1009.79,2.25 1322.56,2.93 155.82,0.77 276.86,1.31 359.55,1.72 40.75,0.4 71.97,0.72 93.52,0.88 21.07,0.32 31.86,1 31.86,1 0,0 -10.79,0.6 -31.86,0.92 -21.55,0.21 -52.77,0.53 -93.52,0.91 -82.69,0.38 -203.73,0.99 -359.55,1.69 -312.77,0.71 -764.43,1.7 -1322.56,2.94 -558.52,0.57 -1223.4,1.27 -1961.69,1.97 -184.61,0.11 -373.81,0.21 -567.09,0.32 -96.63,0.03 -194.28,0.11 -292.88,0.14 -49.32,0 -98.85,0.04 -148.62,0.04 -24.35,0.27 -51.19,0.2 -76.45,-6.36 -25.37,-6.21 -49.6,-17.18 -71.05,-32.24 -43.04,-29.95 -74.72,-76.52 -85.66,-128.45 -5.96,-26.07 -4.9,-52.81 -5,-77.75l-0.04 -76.48c-0.04,-102.13 -0.04,-205.11 -0.07,-308.89 0.03,-103.75 0.07,-208.32 0.11,-313.55 0.14,-55.07 23.28,-109.79 62.82,-148.56 39.16,-39.19 94.37,-61.98 150.11,-61.73 1703.74,1.02 3246.37,1.97 4363.55,2.68 139.55,0.21 272.48,0.46 398.32,0.67 30.97,0.21 63.21,-1.52 93.77,7.09 30.33,7.94 58.52,22.44 81.66,42.16 46.68,39.33 73.2,97.61 74.16,154.44 -0.53,221.72 -0.92,412.78 -1.27,569.14 -0.18,39.02 -0.32,75.89 -0.43,110.53 -0.81,34.39 1.98,67.23 -4.86,97.26 -13.3,60.04 -49.43,101.91 -83.3,125.06 -34.25,23.74 -66.07,31.21 -86.74,34.26 -20.99,2.96 -31.86,1.79 -31.86,1.79z"/>
   <path class="fil0" d="M8488.72 12275.86c0,5.09 -527.33,9.21 -1177.68,9.21 -650.56,0 -1177.78,-4.12 -1177.78,-9.21 0,-5.04 527.22,-9.2 1177.78,-9.2 650.35,0 1177.68,4.16 1177.68,9.2z"/>
   <path class="fil7" d="M7967.39 2272.5c0,243.95 -197.77,441.68 -441.72,441.68 -243.94,0 -441.71,-197.73 -441.71,-441.68 0,-243.95 197.77,-441.71 441.71,-441.71 243.95,0 441.72,197.76 441.72,441.71z"/>
   <path class="fil0" d="M7811.32 2607.6c-13.06,-135.75 -128.63,-250.82 -285.51,-250.82 -156.84,0 -264.12,118.71 -285.53,251.78 0,0 96.94,107.21 285.53,105.62 188.63,-1.55 285.51,-106.58 285.51,-106.58z"/>
   <path class="fil0" d="M7699.03 2213.9c0,95.64 -77.54,173.18 -173.22,173.18 -95.63,0 -173.18,-77.54 -173.18,-173.18 0,-95.63 77.55,-173.17 173.18,-173.17 95.68,0 173.22,77.54 173.22,173.17z"/>
   <path class="fil4" d="M7809.27 2592.47c-2.15,0.56 -2.5,-32.1 -27.06,-81.63 -13.05,-24.13 -33.09,-51.54 -62.44,-76.73 -29.28,-24.91 -67.66,-48.26 -112.85,-63.29l-8.96 -3 8.22 -4.37c27.41,-14.71 52.42,-38.39 69,-68.9 16.62,-30.38 24.02,-67.84 18.27,-105.13 -5.04,-37.29 -24.23,-73.87 -54.15,-100.54 -29.67,-26.88 -70.24,-43.18 -112.25,-43.22 -41.95,0.04 -82.45,16.2 -112.11,42.94 -29.99,26.49 -49.15,63.04 -54.37,100.22 -6.07,37.18 1.48,74.54 17.75,105.06 8.25,15.2 18.52,28.86 30.19,40.5 11.65,11.71 24.91,20.6 38.42,29.24l7.62 4.87 -8.75 2.33c-46.49,12.49 -84.87,35.91 -112.85,62.41 -28.22,26.52 -46.64,55.28 -59.13,79.83 -12.45,24.73 -19.15,45.4 -23.28,59.55 -2.12,7.05 -3.35,12.56 -4.27,16.26 -0.91,3.71 -1.37,5.61 -1.59,5.58 -0.21,-0.04 -0.14,-2.02 0.36,-5.83 0.56,-3.77 1.41,-9.38 3.21,-16.61 3.38,-14.43 9.49,-35.6 21.48,-60.93 12.03,-25.22 30.24,-54.92 58.74,-82.51 28.29,-27.62 67.59,-52.21 115.22,-65.44l-1.13 7.2c-13.37,-8.4 -27.66,-17.75 -39.97,-29.96 -12.35,-12.1 -23.25,-26.38 -32.07,-42.33 -17.29,-32 -25.47,-71.33 -19.26,-110.63 5.33,-39.3 25.5,-78 57.15,-106.12 31.29,-28.36 74.26,-45.54 118.64,-45.54 44.48,0 87.49,17.36 118.81,45.83 31.58,28.25 51.72,67.1 56.91,106.5 5.89,39.34 -2.16,78.85 -19.86,110.7 -17.64,32.03 -44.14,56.62 -72.99,71.72l-0.75 -7.37c46.82,16.05 85.13,40.18 114.83,66.07 29.6,26.18 49.6,54.65 62.27,79.59 5.5,12.88 11.15,24.02 13.62,34.64 3.07,10.41 5.85,19.12 6.52,26.57 0.99,6.74 1.77,12.24 2.44,16.72 0.42,3.77 0.6,5.71 0.42,5.75z"/>
   <path class="fil4" d="M7967.39 2272.5c-0.18,0 -0.46,-2.43 -0.85,-7.16 -0.39,-5.22 -0.92,-12.14 -1.55,-20.96 -0.32,-4.65 -0.67,-9.77 -1.06,-15.41 -0.6,-5.65 -1.84,-11.79 -2.89,-18.45 -2.16,-13.3 -4.2,-28.72 -9.35,-45.48 -7.91,-34.07 -23.96,-74.29 -49.18,-116.87 -25.44,-42.44 -62.05,-86.71 -111.87,-124.28 -49.63,-37.22 -112.25,-68.83 -184.5,-81.6 -71.75,-12.28 -152.75,-10.02 -229.87,19.29 -19.61,6.28 -38.06,16.02 -57.04,25.12 -17.96,10.87 -36.9,20.89 -53.59,34.47 -17.78,12.2 -33.3,27.48 -49.6,42.19 -14.71,16.3 -30.16,32.24 -42.83,50.7 -26.03,36.15 -48.75,76.3 -62.47,120.43 -14.26,43.92 -21.91,90.49 -22.55,137.94 0.64,47.45 8.26,94.09 22.51,137.97 13.72,44.17 36.48,84.31 62.48,120.47 12.7,18.49 28.15,34.47 42.82,50.73 16.3,14.71 31.82,29.99 49.6,42.2 16.73,13.61 35.67,23.63 53.63,34.5 18.94,9.1 37.39,18.8 57.04,25.08 77.12,29.35 158.15,31.61 229.91,19.3 72.25,-12.74 134.86,-44.38 184.5,-81.6 49.78,-37.57 86.39,-81.84 111.83,-124.28 25.22,-42.58 41.31,-82.8 49.18,-116.84 5.15,-16.8 7.19,-32.21 9.35,-45.51 1.05,-6.67 2.29,-12.77 2.89,-18.42 0.39,-5.64 0.74,-10.76 1.06,-15.41 0.63,-8.82 1.16,-15.77 1.55,-20.96 0.39,-4.73 0.67,-7.16 0.85,-7.16 0.17,0 0.21,2.43 0.14,7.16 -0.14,5.26 -0.32,12.21 -0.57,21.1 -0.17,4.65 -0.35,9.84 -0.53,15.52 -0.49,5.71 -1.55,11.85 -2.47,18.59 -1.83,13.44 -3.63,29.03 -8.53,46 -7.38,34.54 -23.04,75.36 -48.12,118.78 -25.3,43.22 -62.06,88.48 -112.4,127.04 -50.16,38.17 -113.66,70.73 -187.25,84.1 -73.03,12.91 -155.65,10.9 -234.49,-18.77 -20.08,-6.38 -38.95,-16.22 -58.35,-25.5 -18.38,-11.04 -37.71,-21.24 -54.86,-35.1 -18.17,-12.46 -34.11,-27.98 -50.76,-43.01 -15.07,-16.61 -30.87,-32.91 -43.85,-51.75 -26.67,-36.9 -49.92,-77.96 -64,-123.15 -14.6,-44.88 -22.47,-92.57 -23.11,-141.08 0.64,-48.47 8.51,-96.17 23.11,-141.04 14.11,-45.16 37.36,-86.18 64.03,-123.09 12.98,-18.87 28.79,-35.13 43.85,-51.71 16.65,-15.03 32.6,-30.59 50.77,-43.04 17.11,-13.83 36.44,-24.06 54.82,-35.07 19.4,-9.28 38.27,-19.12 58.35,-25.5 78.84,-29.67 161.43,-31.68 234.49,-18.77 73.55,13.33 137.05,45.93 187.25,84.1 50.31,38.52 87.07,83.79 112.36,127 25.12,43.43 40.78,84.28 48.16,118.78 4.9,16.97 6.7,32.6 8.53,46 0.92,6.74 1.98,12.92 2.47,18.63 0.18,5.68 0.36,10.87 0.53,15.52 0.25,8.89 0.43,15.84 0.57,21.1 0.07,4.73 0.03,7.16 -0.14,7.16z"/>
   <path class="fil0" d="M10254.66 4109.48c0,5.08 -1240.72,9.21 -2770.86,9.21 -1530.63,0 -2771.07,-4.13 -2771.07,-9.21 0,-5.08 1240.44,-9.17 2771.07,-9.17 1530.14,0 2770.86,4.09 2770.86,9.17z"/>
   <path class="fil0" d="M10254.66 11081.36c0,5.05 -1240.72,9.21 -2770.86,9.21 -1530.63,0 -2771.07,-4.16 -2771.07,-9.21 0,-5.08 1240.44,-9.17 2771.07,-9.17 1530.14,0 2770.86,4.09 2770.86,9.17z"/>
   <polygon class="fil2" points="5248.1,8110.69 5327.09,8155.18 5306.52,8191.69 5226.2,8144.56 5226.87,8234.8 5187.04,8234.8 5187.71,8144.56 5107.42,8191.69 5086.81,8155.18 5166.47,8110.69 5086.81,8066.91 5107.42,8029.73 5187.71,8076.86 5187.04,7987.25 5226.87,7987.25 5226.2,8076.86 5306.52,8029.73 5327.09,8066.91 "/>
   <polygon class="fil2" points="5526.9,8110.69 5605.89,8155.18 5585.32,8191.69 5505.03,8144.56 5505.67,8234.8 5465.84,8234.8 5466.51,8144.56 5386.22,8191.69 5365.61,8155.18 5445.27,8110.69 5365.61,8066.91 5386.22,8029.73 5466.51,8076.86 5465.84,7987.25 5505.67,7987.25 5505.03,8076.86 5585.32,8029.73 5605.89,8066.91 "/>
   <polygon class="fil2" points="5805.7,8110.69 5884.69,8155.18 5864.12,8191.69 5783.8,8144.56 5784.47,8234.8 5744.64,8234.8 5745.31,8144.56 5665.02,8191.69 5644.41,8155.18 5724.07,8110.69 5644.41,8066.91 5665.02,8029.73 5745.31,8076.86 5744.64,7987.25 5784.47,7987.25 5783.8,8076.86 5864.12,8029.73 5884.69,8066.91 "/>
   <polygon class="fil2" points="6084.5,8110.69 6163.49,8155.18 6142.92,8191.69 6062.63,8144.56 6063.27,8234.8 6023.44,8234.8 6024.11,8144.56 5943.82,8191.69 5923.25,8155.18 6002.87,8110.69 5923.25,8066.91 5943.82,8029.73 6024.11,8076.86 6023.44,7987.25 6063.27,7987.25 6062.63,8076.86 6142.92,8029.73 6163.49,8066.91 "/>
   <path class="fil2" d="M5264.08 6093.58l0 90.94 -21.16 0 0 -88.86c0,-33.13 -17.29,-50.13 -47.13,-50.13 -33.69,0 -54.86,20.88 -54.86,56.69l0 82.3 -21.17 0 0 -156.88 20.25 0 0 28.93c11.36,-19.08 32.53,-30.13 59.66,-30.13 38.17,0 64.41,22.09 64.41,67.14z"/>
   <path class="fil2" d="M5418.88 6137.39l0 -25.64 -49.21 0c-30.44,0 -40.25,11.92 -40.25,28.04 0,18.17 14.6,29.53 39.65,29.53 23.85,0 41.45,-11.36 49.81,-31.93zm21.17 -50.09l0 97.22 -20.28 0 0 -24.48c-9.53,16.12 -28.05,25.97 -53.98,25.97 -35.49,0 -57.26,-18.49 -57.26,-45.62 0,-24.16 15.49,-44.45 60.54,-44.45l49.81 0 0 -9.56c0,-26.81 -15.2,-41.42 -44.45,-41.42 -20.28,0 -39.37,7.13 -52.17,18.49l-9.56 -15.8c15.8,-13.45 39.05,-21.21 63.81,-21.21 40.57,0 63.54,20.29 63.54,60.86z"/>
   <path class="fil2" d="M5756.46 6093.58l0 90.94 -21.17 0 0 -88.86c0,-33.13 -16.69,-50.13 -45.01,-50.13 -32.21,0 -52.5,20.88 -52.5,56.69l0 82.3 -21.16 0 0 -88.86c0,-33.13 -16.73,-50.13 -45.34,-50.13 -31.92,0 -52.49,20.88 -52.49,56.69l0 82.3 -21.17 0 0 -156.88 20.25 0 0 28.65c11.04,-18.8 31.33,-29.85 57.58,-29.85 25.96,0 46.21,11.05 55.77,33.13 11.32,-20.29 33.69,-33.13 62.02,-33.13 38.17,0 63.22,22.09 63.22,67.14z"/>
   <path class="fil2" d="M5819.99 6096.82l111.23 0c-2.68,-30.69 -25.04,-52.17 -55.74,-52.17 -30.44,0 -52.81,21.48 -55.49,52.17zm131.24 15.84l-131.24 0c2.4,32.78 27.45,54.58 61.74,54.58 19.08,0 36.09,-6.88 48.01,-20.6l11.92 13.72c-14,16.68 -35.77,25.65 -60.53,25.65 -48.9,0 -82.3,-33.41 -82.3,-79.91 0,-46.53 32.49,-79.66 76.65,-79.66 44.14,0 76.03,32.53 76.03,79.66l-0.28 6.56z"/>
   <path class="fil2" d="M6174.57 6108.78c0,-36.09 -24.45,-59.37 -56.66,-59.37 -33.09,0 -56.97,23.57 -56.97,59.37 0,35.77 23.88,59.94 56.97,59.94 32.21,0 56.66,-23.57 56.66,-59.94zm83.5 -3.28c0,50.7 -18.77,80.51 -49.49,80.51 -19.37,0 -32.49,-11.93 -33.69,-32.53 -11.93,20.6 -33.41,32.53 -59.66,32.53 -42.33,0 -73.94,-32.21 -73.94,-77.23 0,-44.73 31.61,-76.66 73.94,-76.66 25.65,0 46.82,11.33 59.06,31.33l0 -30.13 19.36 0 0 113.03c0,16.69 8.36,22.65 18.52,22.65 18.46,0 30.41,-22.96 30.41,-63.22 0,-70.09 -50.41,-116.59 -122.59,-116.59 -73.06,0 -122.87,48.9 -122.87,119.59 0,70.66 49.21,120.19 121.71,120.19 17.89,0 39.93,-4.19 57.26,-13.16l5.04 14.65c-17.89,9.24 -42.33,13.72 -62.3,13.72 -82.02,0 -138.11,-56.38 -138.11,-135.4 0,-79.34 56.97,-134.83 139.27,-134.83 80.83,0 138.08,53.41 138.08,131.55z"/>
   <path class="fil2" d="M6561.67 6093.58l0 90.94 -21.16 0 0 -88.86c0,-33.13 -16.69,-50.13 -45.02,-50.13 -32.21,0 -52.49,20.88 -52.49,56.69l0 82.3 -21.17 0 0 -88.86c0,-33.13 -16.72,-50.13 -45.33,-50.13 -31.93,0 -52.49,20.88 -52.49,56.69l0 82.3 -21.17 0 0 -156.88 20.28 0 0 28.65c11.05,-18.8 31.29,-29.85 57.54,-29.85 25.97,0 46.22,11.05 55.78,33.13 11.32,-20.29 33.69,-33.13 62.01,-33.13 38.17,0 63.22,22.09 63.22,67.14z"/>
   <path class="fil2" d="M6716.47 6137.39l0 -25.64 -49.21 0c-30.41,0 -40.25,11.92 -40.25,28.04 0,18.17 14.6,29.53 39.68,29.53 23.85,0 41.46,-11.36 49.78,-31.93zm21.2 -50.09l0 97.22 -20.28 0 0 -24.48c-9.56,16.12 -28.05,25.97 -53.98,25.97 -35.49,0 -57.25,-18.49 -57.25,-45.62 0,-24.16 15.48,-44.45 60.53,-44.45l49.78 0 0 -9.56c0,-26.81 -15.2,-41.42 -44.41,-41.42 -20.29,0 -39.37,7.13 -52.18,18.49l-9.56 -15.8c15.8,-13.45 39.09,-21.21 63.82,-21.21 40.57,0 63.53,20.29 63.53,60.86z"/>
   <path class="fil2" d="M6795.21 6027.64l21.17 0 0 156.88 -21.17 0 0 -156.88zm-4.76 -49.49c0,-8.04 6.84,-14.92 15.52,-14.92 8.64,0 15.49,6.56 15.49,14.6 0,8.68 -6.56,15.52 -15.49,15.52 -8.68,0 -15.52,-6.84 -15.52,-15.2z"/>
   <polygon class="fil2" points="6875.43,6184.52 6896.6,6184.52 6896.6,5963.22 6875.43,5963.22 "/>
   <path class="fil2" d="M6941.97 6169.6c0,-9.24 7.12,-16.12 15.77,-16.12 8.64,0 16.12,6.88 16.12,16.12 0,9.24 -7.48,16.41 -16.12,16.41 -8.65,0 -15.77,-7.17 -15.77,-16.41z"/>
   <path class="fil2" d="M6998.62 6106.1c0,-46.85 33.97,-79.66 80.82,-79.66 26.53,0 48.9,10.45 61.42,31.05l-15.8 10.72c-10.73,-15.8 -27.45,-23.25 -45.62,-23.25 -34.32,0 -59.37,24.45 -59.37,61.14 0,36.97 25.05,61.14 59.37,61.14 18.17,0 34.89,-7.2 45.62,-22.97l15.8 10.73c-12.52,20.28 -34.89,31.01 -61.42,31.01 -46.85,0 -80.82,-33.1 -80.82,-79.91z"/>
   <path class="fil2" d="M7301.91 6106.1c0,-36.69 -24.77,-61.14 -58.18,-61.14 -33.41,0 -58.42,24.45 -58.42,61.14 0,36.65 25.01,61.14 58.42,61.14 33.41,0 58.18,-24.49 58.18,-61.14zm-138.08 0c0,-46.53 33.97,-79.66 79.9,-79.66 45.93,0 79.66,33.13 79.66,79.66 0,46.5 -33.73,79.91 -79.66,79.91 -45.93,0 -79.9,-33.41 -79.9,-79.91z"/>
   <path class="fil2" d="M7625.47 6093.58l0 90.94 -21.16 0 0 -88.86c0,-33.13 -16.73,-50.13 -45.02,-50.13 -32.24,0 -52.49,20.88 -52.49,56.69l0 82.3 -21.17 0 0 -88.86c0,-33.13 -16.72,-50.13 -45.33,-50.13 -31.93,0 -52.49,20.88 -52.49,56.69l0 82.3 -21.17 0 0 -156.88 20.25 0 0 28.65c11.04,-18.8 31.33,-29.85 57.57,-29.85 25.97,0 46.22,11.05 55.78,33.13 11.32,-20.29 33.69,-33.13 62.02,-33.13 38.17,0 63.21,22.09 63.21,67.14z"/>
   <path class="fil4" d="M4932.33 1448.23c-4.09,0 -8.18,-1.44 -11.5,-4.33l-165.7 -145.31c-3.84,-3.39 -6.03,-8.26 -5.96,-13.37 0.07,-5.08 2.36,-9.92 6.31,-13.16l165.7 -137.76c7.45,-6.18 18.42,-5.15 24.56,2.22 6.17,7.44 5.15,18.42 -2.26,24.59l-150 124.71 150.35 131.86c7.23,6.35 7.98,17.36 1.63,24.59 -3.46,3.95 -8.29,5.96 -13.13,5.96z"/>
   <path class="fil4" d="M9743.66 1289.24c0,48.82 -39.58,88.44 -88.41,88.44 -48.86,0 -88.44,-39.62 -88.44,-88.44 0,-48.83 39.58,-88.44 88.44,-88.44 48.83,0 88.41,39.61 88.41,88.44z"/>
   <path class="fil4" d="M9999.17 1289.24c0,48.82 -39.58,88.44 -88.44,88.44 -48.86,0 -88.44,-39.62 -88.44,-88.44 0,-48.83 39.58,-88.44 88.44,-88.44 48.86,0 88.44,39.61 88.44,88.44z"/>
   <path class="fil4" d="M10254.66 1289.24c0,48.82 -39.62,88.44 -88.45,88.44 -48.86,0 -88.44,-39.62 -88.44,-88.44 0,-48.83 39.58,-88.44 88.44,-88.44 48.83,0 88.45,39.61 88.45,88.44z"/>
   <path class="fil2" d="M14513.18 4518.07l-2111.94 0c-183.98,0 -333.1,149.16 -333.1,333.09l0 525.64c0,183.94 149.12,333.06 333.1,333.06l22.01 0 0 300.39 338.14 -300.39 1751.79 0c183.97,0 333.05,-149.12 333.05,-333.06l0 -525.64c0,-183.93 -149.08,-333.09 -333.05,-333.09z"/>
   <path class="fil4" d="M14513.18 4518.07c0,0 5.61,-0.25 16.61,0 11.12,-0.28 27.45,1.52 48.83,4.83 10.58,2.23 22.33,5.23 35.28,8.54 12.45,4.91 26.84,8.43 40.95,15.88 29.07,12.77 60.72,32.52 90.84,61.17 29.99,28.5 58.71,66.04 78.57,112.85 20.32,46.6 28.32,103.01 26.7,161.65 0.39,117.58 0.81,251.7 1.31,400.47 -0.39,37.36 1.27,74.96 -0.74,114.72 -2.44,39.62 -11.79,79.87 -28.76,117.86 -33.47,75.96 -98.56,142.42 -182.42,176.15 -41.62,17.11 -87.8,25.26 -134.16,25.08 -45.65,0.07 -92.07,0.14 -139.24,0.21 -94.33,0.14 -191.56,0.28 -291.5,0.42 -399.98,0.32 -843.17,0.67 -1314.06,1.03l6 -2.26c-107.88,95.88 -222.11,197.38 -338.07,300.43l-15.28 13.58 0 -20.46c0,-36.3 0,-75.57 0,-114.9 0,-63.54 0,-126.72 0.04,-185.46l9.17 9.17c-65.05,2.51 -132.68,-11.5 -189.51,-43.95 -57.08,-32.14 -103.82,-80.58 -134.41,-137.34 -14.99,-28.57 -25.82,-59.02 -32.84,-90.2 -6,-31.15 -8.12,-63.89 -7.38,-94.34 0.04,-61.73 0.07,-122.91 0.11,-183.55 0.03,-60.64 0.07,-120.68 0.11,-180.16 0.03,-29.74 0.07,-59.3 0.07,-88.72 -0.04,-29.29 -0.5,-58.71 2.47,-88.73 13.26,-119.31 92.63,-224.68 196.88,-270.86 51.33,-25.01 109.33,-32.32 163.44,-31.22 54.08,0.07 107.39,0.14 159.92,0.21 105.05,0.14 207.01,0.32 305.5,0.46 196.89,0.39 380.09,0.77 547.2,1.13 333.58,1.2 603,2.18 789.79,2.85 92.47,0.75 164.43,1.27 214.04,1.7 23.95,0.35 42.4,0.67 55.63,0.88 12.49,0.28 18.91,0.88 18.91,0.88 0,0 -6.42,0.64 -18.91,0.92 -13.23,0.25 -31.68,0.53 -55.63,0.92 -49.61,0.35 -121.57,0.95 -214.04,1.65 -186.79,0.71 -456.17,1.66 -789.79,2.9 -167.11,0.31 -350.31,0.7 -547.2,1.09 -98.49,0.18 -200.45,0.32 -305.5,0.49 -52.53,0.04 -105.84,0.11 -159.92,0.18 -53.55,-0.81 -107.28,6.17 -156.42,30.09 -99.09,44.14 -174.31,144.5 -186.65,257.71 -2.76,27.94 -2.37,57.18 -2.26,86.75 0.03,29.42 0.03,58.98 0.07,88.72 0.03,59.48 0.07,119.52 0.1,180.16 0.04,60.64 0.08,121.82 0.11,183.55 -0.7,31.29 1.41,60.61 7.06,90.63 6.73,29.53 17,58.28 31.15,85.37 28.99,53.7 73.3,99.56 127.38,129.97 54.3,30.65 116.53,43.88 180.52,41.52l9.14 -0.32 0 9.49c0,58.74 0,121.92 0.03,185.46 -0.03,39.33 -0.03,78.6 -0.03,114.9l-15.24 -6.85c115.99,-102.97 230.26,-204.43 338.21,-300.28l2.57 -2.33 3.46 0c470.89,0.39 914.08,0.74 1314.06,1.06 99.94,0.17 197.17,0.28 291.5,0.42 93.98,-2.89 187.78,11.54 268.08,-23.28 80.39,-32 143.19,-95.5 175.68,-168.35 16.47,-36.44 25.68,-75.07 28.15,-113.2 2.22,-38.21 0.81,-76.95 1.34,-113.95 0.5,-148.77 0.95,-282.89 1.31,-400.47 1.97,-58.74 -5.29,-112.51 -24.66,-158.54 -18.98,-45.9 -46.6,-82.94 -75.71,-111.23 -29.14,-28.44 -60.01,-48.33 -88.4,-61.42 -13.8,-7.55 -27.87,-11.26 -40.08,-16.34 -12.7,-3.52 -24.27,-6.8 -34.68,-9.24 -42.12,-8.29 -64.91,-6.56 -64.8,-8.15z"/>
   <polygon class="fil0" points="12719.13,5093.38 12786.82,5129.86 12748.3,5193.57 12678.63,5151.77 12680.6,5228.11 12604.97,5228.11 12606.98,5151.77 12537.27,5193.57 12499.45,5129.86 12567.15,5093.38 12499.45,5056.2 12537.27,4992.49 12606.98,5034.96 12604.97,4957.99 12680.6,4957.99 12678.63,5034.96 12748.3,4992.49 12786.82,5056.2 "/>
   <polygon class="fil0" points="13033.13,5093.38 13100.83,5129.86 13062.31,5193.57 12992.6,5151.77 12994.61,5228.11 12918.94,5228.11 12920.95,5151.77 12851.24,5193.57 12813.42,5129.86 12881.12,5093.38 12813.42,5056.2 12851.24,4992.49 12920.95,5034.96 12918.94,4957.99 12994.61,4957.99 12992.6,5034.96 13062.31,4992.49 13100.83,5056.2 "/>
   <polygon class="fil0" points="13347.11,5093.38 13414.8,5129.86 13376.28,5193.57 13306.61,5151.77 13308.58,5228.11 13232.95,5228.11 13234.92,5151.77 13165.25,5193.57 13127.43,5129.86 13195.09,5093.38 13127.43,5056.2 13165.25,4992.49 13234.92,5034.96 13232.95,4957.99 13308.58,4957.99 13306.61,5034.96 13376.28,4992.49 13414.8,5056.2 "/>
   <polygon class="fil0" points="13661.08,5093.38 13728.78,5129.86 13690.29,5193.57 13620.58,5151.77 13622.59,5228.11 13546.92,5228.11 13548.93,5151.77 13479.22,5193.57 13441.4,5129.86 13509.1,5093.38 13441.4,5056.2 13479.22,4992.49 13548.93,5034.96 13546.92,4957.99 13622.59,4957.99 13620.58,5034.96 13690.29,4992.49 13728.78,5056.2 "/>
   <polygon class="fil0" points="13975.09,5093.38 14042.78,5129.86 14004.26,5193.57 13934.55,5151.77 13936.56,5228.11 13860.93,5228.11 13862.9,5151.77 13793.23,5193.57 13755.38,5129.86 13823.07,5093.38 13755.38,5056.2 13793.23,4992.49 13862.9,5034.96 13860.93,4957.99 13936.56,4957.99 13934.55,5034.96 14004.26,4992.49 14042.78,5056.2 "/>
   <polygon class="fil0" points="14289.06,5093.38 14356.76,5129.86 14318.23,5193.57 14248.56,5151.77 14250.53,5228.11 14174.9,5228.11 14176.91,5151.77 14107.2,5193.57 14069.38,5129.86 14137.08,5093.38 14069.38,5056.2 14107.2,4992.49 14176.91,5034.96 14174.9,4957.99 14250.53,4957.99 14248.56,5034.96 14318.23,4992.49 14356.76,5056.2 "/>
   <path class="fil8" d="M706.28 6452.14c416.09,215.51 735.17,586.63 964.6,995.22 229.41,408.62 377.28,856.97 523.73,1302.07l128.18 2295.7c-484.16,-823.66 -872.77,-1791.93 -977.76,-2741.54 107.4,-9.6 214.79,-19.12 322.18,-28.72 -216.02,-32.95 -397.33,-189.47 -512.71,-375.07 -115.36,-185.56 -174.75,-399.59 -232.71,-610.31 131.02,19.48 262.05,38.99 393.08,58.42 -307.82,-205.42 -530.98,-533.89 -608.59,-895.77z"/>
   <path class="fil9" d="M2322.79 11045.13c-484.16,-823.66 -872.77,-1791.93 -977.76,-2741.54 107.4,-9.6 214.79,-19.12 322.18,-28.72l0 0c-216.02,-32.95 -397.33,-189.47 -512.71,-375.07 -115.36,-185.56 -174.75,-399.59 -232.71,-610.31 131.02,19.48 262.05,38.99 393.08,58.42l0 0c-307.82,-205.42 -530.98,-533.89 -608.59,-895.77 416.09,215.51 735.17,586.63 964.6,995.22 229.41,408.62 377.28,856.97 523.73,1302.07l128.18 2295.7z"/>
   <path class="fil8" d="M2394.46 11583.01c0,0 1050.86,-1257.83 1038.74,-2458.54l-424.51 0c0,0 461.09,-303.25 424.6,-473.01 -36.5,-169.82 -48.63,-812.62 -48.63,-812.62l-388.1 97.01c0,0 291.07,-145.52 327.47,-375.99 36.38,-230.43 -84.9,-1297.76 -84.9,-1297.76 0,0 -473.02,497.27 -618.56,1006.69 -145.55,509.41 -527.59,1103.7 -415.4,2656.2 112.17,1552.43 189.29,1658.02 189.29,1658.02z"/>
   <path class="fil8" d="M1861.69 11701.76c0,0 -1138.5,-758.48 -1391.46,-1726.5l341.29 -92.85c0,0 -437.05,-142.91 -444.86,-287.41 -7.83,-144.5 -138.7,-663.93 -138.7,-663.93l333.27 -6.94c0,0 -265.88,-53.31 -345.55,-230.65 -79.56,-176.99 -215.26,-1059.09 -215.68,-1061.84l0 -0.05c0.42,0.26 489.2,296.45 717.56,673.97 228.45,377.72 665.62,771.92 915.1,2044.6 249.46,1272.68 229.03,1351.6 229.03,1351.6z"/>
   <path class="fil4" d="M2952.05 7358.74c0.31,0.07 -0.33,4.66 -1.86,13.48 -1.83,9.7 -4.24,22.65 -7.33,39.12 -7.03,35.32 -17.03,85.62 -29.83,149.97 -13.45,64.98 -29.31,144.64 -46.69,237.35 -17.7,92.6 -38.57,197.91 -59.02,314.85 -43.29,233.4 -89.37,512.27 -137.27,822.43 -46.4,310.38 -93.16,652.25 -135.18,1011.95 -41.17,359.94 -73.66,703.51 -99.29,1016.35 -24.12,312.95 -42.9,594.99 -54.01,832.1 -6.75,118.53 -10.44,225.81 -14.36,320.03 -4.24,94.2 -6.94,175.34 -8.71,241.72 -2.2,65.56 -3.94,116.82 -5.14,152.8 -0.75,16.72 -1.36,29.87 -1.82,39.71 -0.5,8.97 -0.92,13.55 -1.23,13.55 -0.32,0 -0.53,-4.61 -0.64,-13.58 0,-9.83 -0.01,-22.99 -0.01,-39.75 0.4,-35.99 0.97,-87.31 1.7,-152.89 0.65,-66.4 2.32,-147.64 5.59,-241.9 2.92,-94.3 5.73,-201.69 11.65,-320.29 9.46,-237.32 26.89,-519.65 50.1,-832.84 24.73,-313.09 56.71,-656.98 97.92,-1017.13 42.06,-359.94 89.35,-701.96 136.69,-1012.4 48.86,-310.2 96.28,-589 141.23,-822.19 21.29,-116.87 43.06,-222.03 61.71,-314.53 18.36,-92.57 35.25,-171.98 49.79,-236.82 14.25,-64.03 25.38,-114.13 33.21,-149.3 3.83,-16.3 6.83,-29.1 9.1,-38.7 2.14,-8.71 3.39,-13.16 3.7,-13.09z"/>
   <path class="fil8" d="M2540.2 12353.27c0,0 961.69,-1091.18 1260.28,-1750.77l-225.42 -96.34c163.4,26.98 330.79,-43.22 457.48,-149.9 126.72,-106.61 219.74,-246.91 310.97,-385.13l-296.97 -50.16c270.05,-75.78 507.97,-260.07 648.83,-502.6 -350.41,57.64 -667.42,250.12 -928.69,490.68 -211.56,194.83 -390.7,421 -562.72,652.07 -83.92,112.68 -157.36,232.76 -218.56,359.27 -161.57,334.11 -445.75,1032.12 -445.2,1432.88z"/>
   <path class="fil4" d="M455.12 8266.69c0.27,-0.14 2.35,3.28 6.16,10.23 4.17,7.76 9.61,17.99 16.46,30.83 14.67,28.37 35.35,68.41 61.75,119.49 53.64,103.78 128.53,255.34 218.52,443.83 90.27,188.31 193.63,414.58 304.22,667.63 109.65,253.47 226.02,533.96 341.32,831.11 114.63,297.53 217.26,583.39 306.64,844.72 88.45,261.7 164.19,498.66 224.08,698.75 60.22,199.99 106.76,362.47 136.9,475.33 14.83,55.53 26.46,99.06 34.7,129.9 3.55,14.18 6.41,25.36 8.57,33.93 1.83,7.66 2.62,11.61 2.31,11.71 -0.31,0.08 -1.7,-3.69 -4.13,-11.22 -2.61,-8.46 -6.02,-19.5 -10.32,-33.44 -9.03,-30.58 -21.77,-73.8 -38.02,-128.97 -32.25,-112.15 -80.64,-274.04 -142.42,-473.46 -61.46,-199.46 -138.44,-435.83 -227.68,-697.02 -90.19,-260.85 -193.23,-546.35 -307.77,-843.6 -115.19,-296.9 -231,-577.36 -339.73,-831 -109.65,-253.26 -211.69,-479.92 -300.43,-668.83 -88.42,-189.13 -161.52,-341.46 -213.17,-446.2 -25.05,-51.68 -44.72,-92.25 -58.65,-120.96 -6.18,-13.2 -11.07,-23.68 -14.82,-31.72 -3.26,-7.16 -4.8,-10.9 -4.49,-11.04z"/>
   <path class="fil4" d="M2458.62 12820.8c-0.61,-0.03 -0.32,-7.13 0.81,-20.49 1.53,-15.38 3.49,-34.72 5.86,-58.46 2.56,-25.4 6.2,-56.38 11.89,-92.18 5.5,-35.81 10.82,-76.8 19.68,-121.53 15.64,-89.93 39.11,-196.15 69.78,-312.92 31.74,-116.45 71.3,-243.27 120.15,-373.76 49.61,-130.32 103.76,-251.64 156.91,-360.01 54.14,-107.95 106.74,-203.17 154.45,-280.99 22.91,-39.44 46,-73.7 65.54,-104.21 19.38,-30.62 37.15,-56.3 52.02,-77.05 13.89,-19.4 25.22,-35.17 34.2,-47.69 7.99,-10.83 12.44,-16.3 12.96,-15.95 0.52,0.35 -2.91,6.56 -9.9,18.03 -8.24,13.02 -18.6,29.45 -31.32,49.56 -13.92,21.35 -30.76,47.52 -49.28,78.6 -18.67,30.94 -40.91,65.58 -63.06,105.34 -46.11,78.42 -97.33,173.92 -150.4,281.8 -52.12,108.34 -105.54,229.34 -154.93,359.02 -48.65,129.97 -88.5,256.02 -120.99,371.76 -31.46,116.03 -56.13,221.54 -73.36,310.87 -9.67,44.48 -15.85,85.16 -22.31,120.76 -6.62,35.55 -11.3,66.31 -14.94,91.54 -3.77,23.52 -6.83,42.65 -9.28,57.89 -2.32,13.23 -3.84,20.15 -4.48,20.07z"/>
   <polygon class="fil5" points="1189.68,12993.49 3294.44,12993.49 3294.44,12564.15 1189.68,12564.15 "/>
   <polygon class="fil5" points="3093.88,12993.49 2866.22,14437.65 1594.38,14437.65 1382.19,12993.49 "/>
   <path class="fil4" d="M1318.8 12993.49c0,-5.08 398.16,-9.17 889.21,-9.17 491.2,0 889.29,4.09 889.29,9.17 0,5.07 -398.09,9.21 -889.29,9.21 -491.05,0 -889.21,-4.14 -889.21,-9.21z"/>
   <path class="fil4" d="M11821.62 12829.45c0,0 2529.6,-1318.05 3078.48,-591.19 548.82,726.83 -550.75,1298.44 -763.41,1426.87 -212.65,128.45 -2361.1,858.07 -2361.1,858.07l-566.85 -604.7 612.88 -1089.05z"/>
   <path class="fil5" d="M12819.31 13534.44l1008.63 543.17 921.6 199.64c66.46,14.38 106.78,82.02 87.91,147.28 -10.58,36.59 -37.82,65.62 -73.77,78.13 -228.74,79.67 -1071.7,368.59 -1143.28,324.67 -82.9,-50.79 -1101.9,-502.32 -1101.9,-502.32l300.81 -790.57z"/>
   <path class="fil2" d="M13675.37 14833.71c-8.65,0 -17.26,-0.63 -25.79,-1.9 167.25,-3.39 902.79,-255.55 1114.1,-329.15 30.45,-10.61 54.61,-33.04 67.77,-61.87 0.14,0 0.32,0 0.46,0 -12.87,30.3 -38.17,54.12 -69.78,64.99 -637.15,218.72 -937.08,297.17 -1046.27,323.18 -13.37,3.21 -26.95,4.75 -40.49,4.75zm1159.05 -399.23c-0.11,0 -0.22,0 -0.32,0 1.27,-3.25 2.36,-6.56 3.35,-9.95l0 0c-0.88,3.39 -1.9,6.7 -3.03,9.95z"/>
   <path class="fil10" d="M14831.45 14440.79c0.92,-2.08 1.84,-4.19 2.65,-6.31 0.1,0 0.21,0 0.32,0 -0.78,2.12 -1.63,4.23 -2.51,6.31 -0.14,0 -0.32,0 -0.46,0z"/>
   <path class="fil2" d="M13607.77 14820.27c-4.41,-1.83 -8.75,-3.8 -12.98,-5.99l-43.25 -22.02c24.31,11.71 43.5,21.25 56.23,28.01z"/>
   <path class="fil11" d="M13649.58 14831.81c-14.29,-2.11 -28.33,-5.99 -41.81,-11.54 -12.73,-6.76 -31.92,-16.3 -56.23,-28.01l1285.91 -367.73c-0.99,3.39 -2.08,6.7 -3.35,9.95 -0.81,2.12 -1.73,4.23 -2.65,6.31 -13.16,28.83 -37.32,51.26 -67.77,61.87 -211.31,73.6 -946.85,325.76 -1114.1,329.15z"/>
   <path class="fil11" d="M13364.07 14538.48c-26.31,0 -54.22,-12.57 -64.13,-34.54 -14.29,-31.68 1.48,-82.1 34.85,-91.65 8.05,-3.32 16.73,-4.9 25.44,-4.9 23.85,0 47.94,11.85 60.18,32.45 17.82,30.03 6.67,73.77 -23.77,90.84 -9.39,5.29 -20.82,7.8 -32.57,7.8z"/>
   <path class="fil4" d="M14272.62 14430.66c5.75,-4.33 -35.99,-54.6 -33.8,-129.92 -0.1,-75.42 43.04,-124.49 37.4,-129.01 -2.09,-2.15 -16.58,6.74 -32.11,28.92 -15.59,21.87 -29.81,58.11 -30.48,99.73 -0.46,41.6 12.77,78.22 27.7,100.54 14.92,22.59 29.17,31.87 31.29,29.74z"/>
   <path class="fil4" d="M14446.33 14427.56c6.91,-2.57 -9.6,-52.24 2.18,-112.75 10.45,-60.77 43.43,-101.34 37.93,-106.22 -3.74,-5.61 -50.42,32.5 -62.66,101.71 -13.05,69.04 17.11,121.22 22.55,117.26z"/>
   <path class="fil4" d="M14028.46 14476.77c7.3,-2.36 -18.45,-78.59 -8.4,-174.31 8.58,-95.81 48.55,-165.69 41.84,-169.36 -4.58,-4.41 -57.39,64.16 -66.88,166.96 -10.52,102.63 28.08,180.17 33.44,176.71z"/>
   <path class="fil4" d="M13708.07 14337.26c7.51,0.41 12.7,-67.99 47.41,-142.74 33.69,-75.21 81.99,-123.9 76.77,-129.33 -3.57,-5.33 -63.26,38.18 -99.66,118.89 -37.12,80.39 -30.87,153.98 -24.52,153.18z"/>
   <path class="fil4" d="M13407.99 14185.32c7.48,-0.18 2.37,-74.2 45.37,-149.91 41.35,-76.68 106.79,-111.58 102.94,-118.04 -1.27,-2.74 -19.79,1.87 -45.33,18.49 -25.54,16.4 -56.83,46.39 -79.62,87.34 -22.65,41.11 -31.43,83.56 -31.82,113.86 -0.46,30.46 5.43,48.6 8.46,48.26z"/>
   <path class="fil4" d="M13395.4 14008.18c0.71,-1.26 -11.85,-10.58 -37.89,-21.06 -25.86,-10.34 -65.9,-21.7 -116.77,-20.84 -24.59,1.36 -54.78,0.45 -82.76,22.07 -14,10.72 -22.12,33.2 -14.78,52.17 7.02,18.71 21.87,31.02 37.85,39.63 65.37,31.92 156.39,8.22 202.78,-59.94 45.3,-69.08 37.32,-156.64 -3.88,-214.1 -11.25,-13.73 -26.78,-27.12 -48.08,-28.01 -21.35,-1.1 -38.85,16.12 -43.78,32.03 -10.91,32.63 -3.21,60.65 0.7,85.05 10.37,49.61 29,86.5 43.82,110.07 14.92,23.71 26.14,34.54 27.27,33.66 4.48,-2.26 -37.01,-51.33 -53.59,-146.94 -3.03,-23.49 -7.9,-51.29 1.2,-74.15 4.34,-11.18 13.26,-18.16 23.78,-17.6 10.19,0.28 21.94,8.96 30.48,20.25 33.3,47.83 40.46,127.88 1.23,185.7 -38.52,57.82 -118.57,78.54 -171.38,53.3 -12.66,-6.24 -23.56,-16.01 -27.59,-26.52 -3.98,-10.34 -0.88,-21.44 7.69,-28.9 18.14,-15.81 46.39,-18.16 69.78,-20 96.84,-4.83 152.65,29.18 153.92,24.13z"/>
   <path class="fil4" d="M13180.95 13663.73c0,0 -2383.93,-1444.2 -2706.09,-1623.37 -276.83,-153.89 -1151.64,-494.53 -1459.87,344.05 -308.18,838.62 1351.67,2075.83 1351.67,2075.83l1408.93 62.96 470.25 -179.45 534.07 164.25 401.04 -844.27z"/>
   <path class="fil5" d="M11504.79 14552.52l-1068.52 413.03 -750.93 570.34c-54.15,41.13 -131.76,27.79 -169.08,-28.97 -20.92,-31.82 -25.26,-71.41 -11.36,-106.85 88.19,-225.61 416.84,-1053.83 496.74,-1079.68 92.54,-29.91 1098.2,-510.47 1098.2,-510.47l404.95 742.6z"/>
   <path class="fil2" d="M9516.26 15506.92c-22.41,-32.17 -27.17,-73.63 -12.74,-110.03 212.55,-536.43 342.41,-817.98 407.49,-950.49 0.96,0 2.12,0 3.07,0 -129.61,245.97 -341.1,779.46 -409.18,953.67 -13.9,35.44 -9.56,75.03 11.36,106.85l0 0z"/>
   <path class="fil10" d="M9911.01 14446.4l3.07 0 0 0c-0.95,0 -2.11,0 -3.07,0z"/>
   <path class="fil2" d="M9923.57 14428.67l-3.81 0c7.13,-14.3 13.3,-26.51 18.59,-36.81 10.27,-20.04 24.21,-37.68 40.93,-52.2 -15.24,18.54 -34.19,49.28 -55.71,89.01z"/>
   <path class="fil10" d="M9914.08 14446.4l-3.07 0c3.07,-6.24 6,-12.13 8.75,-17.73l3.81 0c-3.1,5.7 -6.28,11.62 -9.49,17.73z"/>
   <path class="fil2" d="M10015.15 14315.42c4.27,-2.15 8.65,-4.17 13.09,-6l44.84 -18.56c-24.73,10.9 -44.45,19.29 -57.93,24.56z"/>
   <path class="fil11" d="M9516.26 15506.92l0 0c-20.92,-31.82 -25.26,-71.41 -11.36,-106.85 68.08,-174.21 279.57,-707.7 409.18,-953.67l0 0c3.21,-6.11 6.39,-12.03 9.49,-17.73 21.52,-39.73 40.47,-70.47 55.71,-89.01 10.86,-9.46 22.93,-17.61 35.87,-24.24 13.48,-5.27 33.2,-13.66 57.93,-24.52l-556.82 1216.02z"/>
   <path class="fil11" d="M10436.37 14421.32c-3.42,0 -6.84,-0.28 -10.26,-0.88 -34.37,-6 -60.4,-42.93 -53.59,-77.12 5.93,-29.91 39.54,-57.89 70.27,-57.89 4.41,0 8.75,0.56 12.95,1.79 33.37,9.75 61.42,54.45 46.99,86.02 -9.1,27.65 -37.43,48.08 -66.36,48.08z"/>
   <path class="fil4" d="M9878.88 15073.82c-0.43,7.19 64.87,8.14 120.72,58.84 57.32,48.94 66.6,113.59 73.66,112.26 3,-0.18 5.68,-16.98 -1.06,-43.19 -6.53,-26.07 -24.77,-60.43 -55.95,-87.95 -31.29,-27.47 -67.7,-41.2 -94.37,-44.37 -26.85,-3.39 -43.18,1.45 -43,4.41z"/>
   <path class="fil4" d="M9768.28 15207.81c-2.5,6.94 45.93,26.66 84.24,74.99 39.41,47.42 48.76,98.89 56.06,97.87 6.67,0.81 8.08,-59.41 -36.51,-113.77 -43.99,-54.75 -103.22,-65.8 -103.79,-59.09z"/>
   <path class="fil4" d="M10002.63 14858.38c-2.96,7.05 71.76,37.07 137.9,106.92 67.24,68.86 94.3,144.64 101.46,141.92 6.35,-0.63 -11.43,-85.34 -83.36,-159.38 -71.12,-74.72 -155.12,-95.77 -156,-89.46z"/>
   <path class="fil4" d="M10316.96 14705.66c-5.15,5.43 43.46,53.87 77.64,128.86 35.21,74.52 40.82,142.81 48.33,142.43 6.35,0.74 12.14,-72.89 -25.54,-153.04 -36.93,-80.5 -96.87,-123.62 -100.43,-118.25z"/>
   <path class="fil4" d="M10627.54 14576.5c-4.76,5.79 54.86,50.02 84.39,131.95 31.32,81.23 15.31,153.7 22.71,154.93 2.93,0.81 11.47,-16.22 15.49,-46.45 4.13,-30.03 1.7,-73.34 -14.64,-117.3 -16.47,-43.89 -43,-78.18 -65.79,-98.19 -22.86,-20.17 -40.47,-27.48 -42.16,-24.94z"/>
   <path class="fil4" d="M10770.31 14682.13c0.53,1.33 15.73,-2.11 40.61,-15.11 24.73,-12.94 59.37,-35.94 91.79,-75.13 14.92,-19.58 35.31,-41.95 37.04,-77.26 0.95,-17.6 -10.8,-38.38 -30.02,-45.12 -18.77,-6.85 -37.78,-3.6 -54.72,3 -66.74,28.86 -107.91,113.42 -86.36,193 23.04,79.34 94.76,130.18 165.21,136.28 17.74,0.39 38.06,-2.68 52.53,-18.31 14.71,-15.52 13.01,-40.05 4.16,-54.11 -17.71,-29.5 -43.99,-41.84 -65.09,-54.79 -44.38,-24.34 -84.56,-34.18 -112.08,-38.27 -27.69,-4.07 -43.25,-2.58 -43.32,-1.13 -1.23,4.86 63.05,5.29 146.51,54.82 19.79,12.94 44.1,27.34 55.53,49.1 5.64,10.59 5.19,21.91 -2.12,29.5 -6.84,7.58 -21.02,10.86 -35.2,10.05 -57.97,-5.82 -123.48,-52.46 -141.86,-119.84 -18.87,-66.85 17.47,-141.15 70.91,-164.88 13.02,-5.51 27.55,-7.49 38.14,-3.71 10.44,3.71 16.82,13.3 16.93,24.65 0.21,24.06 -16.33,47.04 -30.2,66.01 -59.3,76.73 -121.39,96.97 -118.39,101.25z"/>
   <path class="fil4" d="M11040.61 14819.25c30.02,-15.55 1236.59,-506.84 1236.59,-506.84l-1199.62 -593.89 -722.98 374.08 686.01 726.65z"/>
   <path class="fil8" d="M9548.61 13367.15c0,0 5.68,1.33 16.44,4.83 11.46,3.85 27.27,9.14 47.66,15.99 42.54,14.7 103.89,35.87 182.56,63.07 159.07,55.81 387.88,136.07 670.31,235.19 566.28,199.89 1347.29,475.55 2209.91,780.03 35.91,11.05 71.61,22.02 107.1,32.96l-10.97 4.82c140.86,-296.15 276.29,-580.84 401.46,-844.05l3.35 11.15c-563.03,-344.38 -1046.55,-640.15 -1390.05,-850.26 -170.53,-105.1 -306.32,-188.75 -400.19,-246.63 -45.9,-28.62 -81.49,-50.84 -106.36,-66.39 -11.54,-7.41 -20.46,-13.14 -27.2,-17.43 -6.07,-3.99 -9.1,-6.14 -8.96,-6.31 0.1,-0.26 3.42,1.47 9.73,5 6.95,4.02 16.13,9.35 27.98,16.19 25.22,14.96 61.35,36.38 107.81,64.04 94.51,56.83 231.17,139.03 402.84,242.28 344.38,208.73 829.06,502.53 1393.47,844.61l6.7 4.1 -3.35 7.09c-124.95,263.35 -260.07,548.19 -400.65,844.48l-3.39 7.17 -7.62 -2.31c-35.56,-10.96 -71.4,-21.96 -107.35,-33.04 -55.1,-15.81 -108.3,-35.95 -161.57,-54.72 -53.23,-18.95 -106.08,-37.75 -158.57,-56.4 -104.99,-37.41 -208.46,-74.24 -310.06,-110.4 -203.27,-72.46 -399.34,-142.31 -586.14,-208.91 -373.27,-133.49 -709.51,-253.71 -992.19,-354.82 -281.62,-101.42 -509.8,-183.59 -668.44,-240.7 -78.18,-28.58 -139.14,-50.88 -181.43,-66.37 -20.08,-7.54 -35.67,-13.39 -47.03,-17.66 -10.55,-4.1 -15.8,-6.6 -15.8,-6.6z"/>
   <path class="fil8" d="M11040.61 14819.25c-0.92,0.89 -16.83,-14.35 -44.84,-42.65 -29.81,-30.77 -69.39,-71.54 -117.33,-121 -98.46,-102.73 -233.54,-245.5 -381.92,-403.93 -52.14,-55.84 -102.48,-109.82 -149.23,-159.88l-8.18 -8.78 10.69 -5.2c146.08,-70.76 272.8,-132.14 366.32,-177.43 43.61,-20.4 79.45,-37.15 107,-50.04 25.08,-11.31 38.95,-17.03 39.37,-16.11 0.5,0.91 -12.45,8.42 -36.76,21.49 -26.91,14.07 -61.95,32.34 -104.67,54.64 -92.78,46.78 -218.54,110.2 -363.43,183.3l2.54 -13.93c46.89,49.91 97.44,103.67 149.76,159.38 148.37,158.46 281.97,302.65 378.03,407.6 46.18,51.09 84.32,93.24 113.03,124.99 26.39,29.81 40.57,46.67 39.62,47.55z"/>
   <path class="fil8" d="M13474.67 12479.63c1.98,4.66 -294.96,133.66 -663.12,288.04 -368.3,154.45 -668.33,275.8 -670.31,271.12 -1.94,-4.66 294.92,-133.6 663.19,-288.08 368.19,-154.38 668.3,-275.77 670.24,-271.08z"/>
   <path class="fil8" d="M11639.91 8844.86c-25.08,0 -895.28,-8.36 -1071,167.35 -175.72,175.72 -540.42,2866.32 -540.42,2866.32 187.75,35.49 309.53,104.67 423.54,161.58l1479.13 862.61 640.4 -332.81c88.65,-48.93 110.52,-166.66 45.33,-244.2l851.82 -3079.53c0,0 -163.69,-133.57 -414.76,-225.61 -251,-92.07 -1414.04,-175.71 -1414.04,-175.71z"/>
   <path class="fil8" d="M13180.91 9130.5c0,0 261.69,57.89 361.92,219.43 234.84,378.49 956.73,1723 1078.01,2045.05 128.49,341.1 -9.52,535.27 -102.27,679.13 -99.8,154.9 -648.4,154.45 -897.11,-111.33 -106.64,-113.99 -700.47,-653 -700.47,-653l259.92 -2179.28z"/>
   <path class="fil4" d="M13478.52 9629.65c0.52,0.28 -2.9,9.41 -10.02,26.59 -7.91,18.67 -18.49,43.5 -31.75,74.65 -26.6,65.23 -63.82,160.16 -106.01,278.84 -85.27,237.14 -189.8,569.38 -300.64,937.65 -108.59,368.33 -206.87,701.71 -278.62,945.12 -35.85,120.9 -65.69,218.48 -87,285.76 -10.58,32.2 -19.08,57.85 -25.4,77.11 -6,17.57 -9.45,26.71 -10.05,26.53 -0.6,-0.22 1.65,-9.7 6.52,-27.63 5.51,-19.5 12.84,-45.5 22.09,-78.09 19.75,-69.67 47.41,-167.33 81.38,-287.31 68.65,-242.57 163.02,-577.99 273.48,-946.75 110.87,-368.48 217.48,-700.44 306,-936.84 43.88,-118.32 83,-212.72 111.68,-277.21 14.61,-30.66 26.29,-55.07 35,-73.41 8.18,-16.65 12.74,-25.26 13.34,-25.01z"/>
   <path class="fil8" d="M10609.41 8981.49c0,0 -274.82,156.21 -375.18,248.28 -100.44,92.04 -1139.4,1571.42 -1272.29,2032.25 -77.05,267.26 217.38,820.45 534.91,793.81 415.22,-34.85 1972.88,-632.59 1972.88,-632.59l-349.43 -759.64 -880.46 141.01 640.26 -643.4 -239.05 -1196.37 -31.64 16.65z"/>
   <path class="fil4" d="M14304.54 11237.25c-0.38,0.5 -5.78,-2.71 -15.76,-9.38 -11.54,-8.01 -25.72,-17.85 -42.97,-29.81 -39.13,-28.12 -91.94,-66.15 -156.14,-112.32 -131.38,-95.54 -312.11,-228.53 -511.04,-376.28 -45.54,-33.9 -90.06,-67.06 -132.92,-98.95l12.52 -1.8c-126.93,165.35 -239.64,309.46 -321.73,411.44 -81.81,102.06 -134.02,161.65 -137.23,158.54 22.79,-29.56 59.51,-77.15 127.98,-165.84 80.97,-106.11 191.25,-250.72 316.66,-415.08l5.4 -7.05 7.16 5.29c42.93,31.82 87.52,64.91 133.13,98.71 198.94,147.74 378.43,282.4 507.83,380.57 62.79,48.16 114.4,87.7 152.65,117.02 16.4,13.05 29.91,23.85 40.95,32.6 9.25,7.62 13.87,11.85 13.51,12.34z"/>
   <polygon class="fil12" points="11838.77,10394.08 11140.3,10707.1 11418.96,11312.85 11855.74,11024.35 "/>
   <path class="fil0" d="M12499.06 10453.56l467.29 -316.44c16.44,-11.12 36.2,-16.3 56.02,-14.61l611.16 52.21c24.69,2.08 43.85,23.07 42.79,47.84 -1.06,24.24 -6.78,51.89 -25.54,64.91 -37.15,25.79 -992.47,689.01 -992.47,689.01l-739.64 -117.44 580.39 -405.48z"/>
   <path class="fil12" d="M11838.77 10394.08c0,0 252.31,-186.83 311.54,-197.13 59.26,-10.3 325.82,-9.03 325.82,-9.03l224.12 127.98 -138.78 94.23c-96.41,-21.17 -124.07,-58.74 -124.07,-58.74l-154.98 10.41 -443.65 32.28z"/>
   <path class="fil12" d="M12122.33 10312.84l399.06 137.01 572.84 80.83c0,0 3.57,116.06 -114.08,128.65 -69.11,7.41 -190.01,15.74 -190.01,15.74 0,0 -29.1,105.3 -118.22,128.8 0,0 -38.77,74.47 -86.36,101.84 -5.68,3.28 -11.53,5.89 -17.46,7.62 -55.14,15.98 -164.78,165.28 -238.19,185.28 -73.42,20 -474.17,-74.26 -474.17,-74.26l-16.97 -630.27 283.56 -81.24z"/>
   <path class="fil13" d="M12240.02 10638.31c0.49,-1.73 31.54,6.74 82.3,16.83 50.8,10.19 121.57,21.13 200.41,26.28 78.85,5.08 150.46,3.42 202.11,-0.39 51.65,-3.6 83.47,-8.22 83.75,-6.46 0.11,0.71 -7.69,2.61 -22.01,5.4 -14.29,2.82 -35.18,6 -61.07,8.75 -51.79,5.75 -124.04,8.71 -203.52,3.6 -79.41,-5.22 -150.63,-17.5 -201.29,-29.64 -25.33,-6.06 -45.69,-11.67 -59.48,-16.29 -13.86,-4.52 -21.41,-7.34 -21.2,-8.08z"/>
   <path class="fil13" d="M12317.03 10801.68c1.13,0.18 1.73,15.24 -4.16,39.3 -3.28,11.78 -8.79,26.53 -21.45,38.63 -12.49,12.27 -32.39,18.41 -51.72,17.07 -19.4,-1.02 -36.97,-7.44 -51.43,-14.78 -14.54,-7.3 -26.67,-14.92 -37.05,-20.85 -20.6,-12.13 -34.53,-16.97 -34.11,-18.52 0.28,-1.41 15.63,1.06 37.64,11.68 22.09,9.66 50.31,29.6 85.52,31.61 17.32,1.09 33.54,-3.81 44.41,-13.62 10.94,-9.7 16.83,-22.58 20.85,-33.51 7.44,-22.3 9.7,-37.36 11.5,-37.01z"/>
   <path class="fil13" d="M12611.35 10840.8c0.25,1.45 -16.26,6 -43.53,11.04 -27.24,5.12 -65.23,10.34 -107.46,13.2 -42.22,2.86 -80.57,2.75 -108.23,1.41 -27.69,-1.34 -44.73,-3.6 -44.66,-5.05 0.18,-3.24 68.4,-1.41 152.19,-7.23 83.75,-5.5 151.09,-16.51 151.69,-13.37z"/>
   <path class="fil13" d="M12309.16 11006.25c1.77,2.12 -25.33,22.58 -65.61,28.62 -40.29,6.45 -72.25,-4.77 -71.23,-7.34 0.67,-3.18 31.86,2.75 69.57,-3.39 37.75,-5.61 65.65,-20.74 67.27,-17.89z"/>
   <path class="fil13" d="M12452.85 10999.02c0.39,2.97 -18.84,8.01 -42.97,11.26 -24.13,3.28 -43.99,3.49 -44.41,0.49 -0.43,-2.96 18.83,-8.04 42.96,-11.25 24.13,-3.25 44.03,-3.5 44.42,-0.5z"/>
   <path class="fil13" d="M12521.39 10449.85c-1.27,4.2 -85.47,-23 -186.69,-62.44 -50.73,-19.68 -96.16,-38.59 -128.65,-53.3 -32.57,-14.61 -51.9,-25.44 -51.26,-26.78 0.7,-1.37 21.02,6.95 54.22,19.69 36.58,14.18 80.75,31.29 129.61,50.23 48.79,19.05 92.96,36.27 129.5,50.52 33.09,13.23 53.49,20.85 53.27,22.08z"/>
   <path class="fil12" d="M13106.23 10593.89c0,0 -44.42,-15.24 3.31,-84.91 47.7,-69.64 180.94,14.78 180.94,14.78l170.33 101.49c0,0 38.31,88.55 -9.18,112.01l-35.03 43.22c0,0 66.47,67.2 39.65,126.36 -26.81,59.09 -92.63,50.56 -92.63,50.56 0,0 7.76,119.38 -31.01,165.24 -38.81,45.89 -74.16,49.99 -74.16,49.99 0,0 -32.59,98.88 -147.07,128.09 -114.44,29.17 -174.17,31.29 -205.28,-16.79 -31.08,-48.05 -50.63,-109.22 -50.63,-109.22 0,0 -245.14,-128.66 -250.33,-193.86 -5.18,-65.15 5.82,-71.26 5.82,-71.26 0,0 -19.72,-54.22 5.08,-94.12 24.8,-39.86 122.1,-5.15 122.1,-5.15l312.77 73.56c0,0 -250.22,-117.73 -280.03,-156.21 -29.85,-38.42 2.04,-85.45 102.62,-73.52 100.61,11.89 404.18,68.93 404.18,68.93 0,0 -15.06,-30.37 -35.38,-38.81 -20.32,-8.46 -83.05,-45.12 -83.05,-45.12l-53.02 -45.26z"/>
   <path class="fil13" d="M13180.77 11067.89c-0.81,2.92 -127.67,-29.5 -283.28,-72.32 -155.72,-42.9 -281.23,-79.94 -280.42,-82.84 0.77,-2.89 127.6,29.5 283.31,72.32 155.61,42.87 281.2,79.94 280.39,82.84z"/>
   <path class="fil13" d="M13031.55 11238.45c-0.89,2.86 -41.98,-7.09 -91.44,-23.53 -24.73,-8.25 -46.85,-16.65 -62.52,-23.84 -7.79,-3.6 -14,-6.92 -18.02,-9.81l-4.38 -4.13 0.28 -2.43c-1.83,1.05 38.99,13.47 88.09,29.88 49.25,16.37 88.87,30.97 87.99,33.86z"/>
   <path class="fil13" d="M13299.76 10930.27c-0.7,3.03 -61.7,-9.32 -137.26,-21.77 -75.6,-12.59 -137.27,-20.57 -136.99,-23.64 0.25,-2.89 62.73,0.25 138.75,12.92 76.06,12.48 136.21,29.7 135.5,32.49z"/>
   <path class="fil13" d="M13376.17 10768.55c-1.94,2.54 -26.77,-14.88 -61.31,-27.3 -34.43,-12.74 -64.59,-15.35 -64.45,-18.56 -0.21,-2.78 31.75,-5.08 68.19,8.36 36.51,13.16 59.51,35.49 57.57,37.5z"/>
   <path class="fil4" d="M13648.38 10230.14c-0.07,0.36 -3.99,0.11 -11.47,-0.74 -8.68,-1.09 -19.44,-2.43 -32.59,-4.09 -28.3,-3.63 -69.22,-8.96 -119.81,-14.71 -101.28,-11.5 -241.62,-23.81 -397.01,-27.48 -38.67,-0.6 -77.65,-4.34 -108.84,12.77 -15.66,8.18 -29.91,19.26 -44.41,29.39 -14.36,10.19 -28.47,20.21 -42.23,29.98 -54.78,38.67 -104.35,73.59 -146.44,103.26 -40.92,28.4 -74.54,51.72 -99.23,68.86 -11.04,7.37 -20.08,13.44 -27.34,18.28 -6.28,4.09 -9.7,6.06 -9.95,5.75 -0.21,-0.29 2.79,-2.9 8.68,-7.52 6.95,-5.33 15.59,-11.89 26.1,-19.97 24.24,-17.85 57.19,-42.08 97.26,-71.64 41.7,-30.24 90.81,-65.8 145.1,-105.2 13.69,-9.85 27.69,-19.97 42.02,-30.27 14.36,-10.13 28.64,-21.41 45.51,-30.34 16.89,-9.21 36.68,-13.37 55.95,-14.43 19.43,-1.13 38.63,-0.1 58.06,0.18 155.83,3.7 296.51,17.28 397.69,30.76 50.59,6.74 91.4,13.19 119.52,18.17 13.05,2.43 23.71,4.48 32.32,6.1 7.37,1.52 11.18,2.51 11.11,2.89z"/>
   <path class="fil2" d="M13267.02 10284.54c-4.55,-8.46 -17.32,-12.66 -29.56,-11.32l1.24 -0.35 -4.87 0.91 -2.01 0.43c-9.21,2.15 -17.99,6.28 -23.92,13.51 -7.37,9.06 -8.78,23.53 -0.85,32.1 4.38,4.73 10.76,7.02 17.15,8.04 12.45,2.08 26.14,-0.49 35.49,-8.92 9.42,-8.47 13.33,-23.29 7.33,-34.4z"/>
   <path class="fil4" d="M11877.89 6891.91c-22.58,-12.03 -45.15,-24.06 -67.66,-36.09 -31.47,-16.79 -67.91,-34.18 -103.33,-24.06 -33.37,9.53 -56.83,41.6 -91.44,45.3 -40.08,4.27 -73.31,-31.75 -113.52,-29.95 -37.96,1.69 -68.16,36.62 -106.12,36.37 -28.4,-0.21 -58.1,-20 -82.55,-6.38 -5.08,2.82 -9.21,6.84 -13.97,10.09 -26.7,18.23 -64.2,7.72 -93.66,-5.19 -29.49,-12.91 -63.01,-27.94 -93.88,-16.47 -20.21,7.51 -33.72,24.69 -48.68,39.19 -14.99,14.5 -35.91,27.76 -56.9,23.42 -11.64,-2.4 -21.1,-9.87 -32.56,-12.73 -36.66,-9.28 -67,29.56 -104,39.4 -34.47,9.18 -73.98,-7.62 -105.69,7.91 -24.95,12.24 -35.18,42.54 -26.04,66.35 9.1,23.78 34.11,40.5 61.28,46.25 27.2,5.75 56.2,1.8 83.04,-6.28 21.91,-6.59 43.75,-15.98 66.68,-15.2 52.56,1.8 93.73,56.27 145.24,45.05 25.22,-5.54 43.03,-25.44 63.35,-40.25 28.9,-21.14 65.8,-33.02 102.49,-33.06 24.37,0 49.91,4.8 72.42,-4.16 27.62,-11.04 43.64,-40.43 72.46,-48.37 30.76,-8.46 62.3,10.94 94.12,8.08 21.1,-1.87 40.4,-13.44 61.49,-14.6 29.92,-1.66 57.33,17.71 87.14,15.13 30.51,-2.65 56.69,-27.76 87.06,-25.19 11.93,0.99 22.76,6.28 34.29,9.17 11.5,2.9 25.47,2.79 33.98,-5.15 6.73,-6.31 8.64,-16.47 16.86,-21.16 6,-3.43 13.58,-2.83 20.53,-2.12 33.2,3.39 66.36,6.77 99.52,10.16l-61.95 -55.46z"/>
   <path class="fil4" d="M11984.78 6888.49c-33.26,-24.62 -78.03,-50.23 -115.99,-29.7 -13.69,7.41 -23.81,19.89 -37.85,26.53 -31.72,15.02 -69.75,-4.62 -103.65,4.69 -28.64,7.9 -47.41,34.39 -73.98,47.59 -42.65,21.2 -104.7,8.71 -131.79,46.35 -14.64,20.39 -17.01,53.27 -42.3,58.6 -9,1.9 -18.06,-0.85 -26.81,-3.03 -29.95,-7.55 -61.99,-8.51 -92.89,-2.83 -17.5,3.21 -35.31,8.89 -48.37,20.61 -25.47,22.89 -26.14,61.94 -50.44,85.93 -36.41,36.02 -101.29,18.66 -147.89,41.81 -22.29,11.04 -38.38,30.44 -56.79,46.7 -34.93,30.77 -78.64,50.63 -119.91,73.17 -41.28,22.58 -82.27,49.81 -105.13,89.15 -22.9,39.33 -21.91,93.41 13.55,121.11 16.43,12.87 43.67,17.67 59.33,2.89 5.51,-5.22 8.82,-12.17 14.04,-17.68 10.48,-11.14 26.74,-15.02 41.21,-20.84 14.46,-5.83 29.52,-16.8 29.56,-31.37 0,-9.2 -5.47,-20.21 2.01,-26.42 3,-2.47 7.16,-3.1 11.08,-3.53 37.36,-3.88 83.18,-2.26 103.19,-32.66 8.85,-13.45 9.7,-29.81 15.27,-44.6 9.21,-24.37 32.35,-44.06 58.99,-50.2 22.68,-5.22 48.78,-1.83 67.13,-15.77 20.78,-15.73 21.34,-46.17 40.18,-63.95 31.4,-29.6 93.49,-8.01 121.71,-40.29 6.95,-7.94 10.86,-18.45 19.79,-24.38 25.12,-16.65 55.99,17.54 85.8,11.96 25.54,-4.8 35.2,-34.18 53.34,-52.14 22.57,-22.37 58.2,-26.1 87.27,-40.18 36.83,-17.85 63.75,-52.78 102.98,-64.59 33.83,-10.23 75.46,-3.04 100.58,-27.03 9.63,-9.17 16.15,-22.5 29.06,-26.46 7.59,-2.32 15.67,-0.7 23.43,0.36 38.03,5.22 78.53,-3.04 111.72,-22.83l-37.43 -36.97z"/>
   <path class="fil4" d="M11927.92 6978.1c-85.06,-14.89 -175.58,12.34 -239.26,71.93 -14.36,13.44 -27.76,28.64 -45.33,37.08 -26.92,12.87 -58.31,7.54 -87.95,10.01 -65.19,5.44 -124.88,53.63 -146.01,117.8 -13.3,40.57 -18.31,93.73 -57.19,107.98 -7.16,2.61 -14.99,3.53 -21.48,7.59 -26.42,16.37 -8.29,58.06 -8.54,90.13 -0.53,52.85 -59.27,89.15 -61.45,141.96 -0.81,19.47 6.42,38.35 13.76,56.37 20.46,50.2 42.93,99.59 67.23,147.92 10.91,21.63 25.51,45.62 48.76,48.79 33.58,4.59 54.43,-35.7 64.31,-69.21 7.13,-24.1 13.48,-51.33 1.94,-73.66 -9.67,-18.66 -30.02,-29.71 -38.59,-48.86 -13.9,-31.05 8.29,-64.91 24.34,-94.51 31.5,-58.1 41.34,-128.73 27.02,-194.17 36.65,-6.81 54.01,-56.94 90.63,-63.96 10.19,-1.94 21.03,-0.25 30.73,-4.02 24.51,-9.56 27.16,-46.64 48.79,-62.02 25.36,-18.1 71.57,-3.53 82.55,-33.44 3.42,-9.35 1.62,-20.78 7.47,-28.68 4.56,-6.11 12.35,-8.26 19.55,-10.06 29.67,-7.41 59.34,-14.78 89,-22.15 16.87,-4.24 34.54,-8.82 47.31,-20.99 22.76,-21.63 26.35,-63.5 55.25,-74.86l-12.84 -36.97z"/>
   <path class="fil4" d="M12022.07 6801.57c-3.46,-52.39 -13.47,-115.01 -59.69,-136.35 -27.34,-12.63 -60.22,-6.1 -87.17,-19.69 -51.4,-25.93 -55.67,-109.22 -106.86,-135.64 -48.82,-25.19 -117.33,14.5 -157.3,-24.2 -20.81,-20.11 -23.64,-53.59 -40.78,-77.12 -20.46,-28.04 -57.01,-36.76 -90.63,-38.87 -33.55,-2.12 -68.44,0.14 -99.52,-13.59 -52.63,-23.21 -86.75,-88.93 -143.58,-93.27 -48.01,-3.63 -86.04,38.81 -116.24,77.58 -7.58,9.7 -15.45,20 -17.32,32.38 -3.42,21.84 12.91,42.37 31.43,53.34 38.24,22.65 87.67,18.95 123.47,45.54 13.2,9.78 23.92,23.29 38.32,30.94 20.63,10.97 46.14,8.58 66.11,20.78 38.56,23.6 37.78,88.13 75.99,112.36 36.33,23.07 83.53,-4.44 124.91,5.33 56.59,13.33 87.53,91.9 145.42,94.05 25.61,0.95 49.25,-14.22 74.79,-16.69 32.31,-3.14 65.76,16.58 79.97,47.2 9.32,19.9 10.87,43.18 21.63,62.3 13.58,24.21 40.18,37.96 66.71,41.99 26.56,4.05 53.44,-0.32 79.83,-4.66l-9.49 -63.71z"/>
   <path class="fil4" d="M11978.22 6964.06c-36.79,-66.71 -78.6,-138.05 -151.06,-168.84 -36.4,-15.49 -78.03,-19.34 -112,-39.23 -28.93,-16.97 -49.61,-44.1 -76.8,-63.47 -63.08,-44.98 -149.97,-41.94 -227.76,-29.67 -77.71,12.28 -157.72,31.72 -234.07,12.95 -68.26,-16.83 -127.84,-63.22 -198.22,-67.2 -38.28,-2.15 -75.85,8.61 -112.47,19.29 -42.58,12.39 -85.12,24.77 -127.67,37.15 -13.86,4.02 -28.96,9.03 -36.05,21.03 -13.51,23.07 13.05,49.25 38.49,60.01 41.1,17.32 87.84,22.33 131.94,14.07 34.85,-6.53 69.35,-21.13 104.45,-15.84 24.31,3.63 45.93,16.51 69.64,22.65 29.53,7.69 60.79,4.62 91.16,1.48 47.17,-4.83 94.33,-9.63 141.5,-14.5 36.37,-3.74 75.25,-7.05 107.77,8.89 25.23,12.38 45.51,35.84 73.7,39.02 31.47,3.53 61.49,-19.93 92.74,-15.13 37.47,5.75 56.06,47.62 90.17,63.42 40.47,18.77 93.17,-3.17 132.12,18.31 26.32,14.54 37.75,44.17 54.5,68.34 13.94,20.21 32.6,37.43 54.22,50.13 27.59,16.22 59.27,24.8 90.46,33.23l3.24 -56.09z"/>
   <path class="fil4" d="M12053.01 6667.83c-17.04,-23.21 -42.69,-47.17 -35.67,-75.14 3.46,-13.9 14.89,-25.09 17.22,-39.23 4.27,-25.51 -21.27,-45.3 -30.9,-69.32 -11.36,-28.4 -0.14,-63.4 -16.09,-89.54 -16.79,-27.41 -53.87,-31.32 -84.98,-39.23 -33.8,-8.53 -68.37,-28.32 -78.92,-61.56 -7.2,-22.68 -1.87,-47.3 -4.09,-71.05 -5.79,-61.56 -65.97,-109.57 -127.74,-112.11 -17.99,-0.74 -36.87,1.52 -53.17,-6.07 -29.98,-13.93 -36.69,-52.6 -53.69,-80.92 -23.07,-38.49 -71.58,-59.83 -115.57,-50.87 -21.06,4.3 -44.24,26.24 -31.93,43.92 4.98,7.16 14.04,10.05 20.68,15.66 24.09,20.32 6.66,61.63 20.88,89.75 14.92,29.52 59.34,34.75 72.99,64.84 10.44,23 -1.69,51.4 8.19,74.65 12.13,28.61 49.31,34.6 80.32,36.61 31.01,2.05 68.23,8.51 79.84,37.33 5.08,12.63 3.7,26.81 5.89,40.25 3.81,23.6 19.44,45.01 40.78,55.84 29.99,15.17 71.86,12.49 89.68,40.96 20.07,32.1 -8.58,77.58 9.27,110.99 13.09,24.58 44.63,30.97 68.12,45.86 5.33,3.35 10.62,7.69 12.18,13.76 1.65,6.38 -1.2,12.98 -4.13,18.9 -18.66,38 -42.23,81.71 -24.17,119.95 7.31,15.45 20.43,27.13 32.35,39.3 38.38,39.3 66.82,88.23 81.95,141.07l32.81 -143.68c24.24,-47.31 19.33,-108.06 -12.1,-150.92z"/>
   <path class="fil4" d="M12235.08 6181.6c12.49,-40.96 -3.85,-90.84 -41.63,-110.99 -37.78,-20.11 -92.81,-1.37 -105.16,39.62 -14.15,46.99 25.4,102.06 0.53,144.36 -6.78,11.53 -17.89,20.7 -21.49,33.58 -8.75,31.11 30.27,57.22 30.48,89.53 0.29,35.71 -44.66,55.5 -54.04,89.93 -10.83,39.65 29.42,81.6 14.85,120.05 -4.09,10.79 -12.03,19.54 -18.56,29.03 -41.38,60.57 -20.28,142.21 2.26,212.02l93.52 -13.9c-17.11,-64.91 74.23,-129.68 43.08,-189.12 -14.78,-28.3 -55.42,-48.58 -46.32,-79.17 2.47,-8.29 8.46,-14.95 14.32,-21.37 28.96,-31.68 57.93,-63.36 86.92,-95.08 12.88,-14.04 26.36,-29.53 28.12,-48.5 3.88,-41.35 -47.91,-68.13 -54.43,-109.15 -5.01,-31.68 18.13,-60.19 27.55,-90.84z"/>
   <path class="fil5" d="M12267.04 6711.47c-8.78,-30.69 -48.58,-39.97 -80.19,-35.14 -86.6,13.27 -150.1,85.83 -205.59,153.67 -61.14,74.75 -122.52,149.86 -171.49,233.12 -10.9,18.52 -21.38,38.03 -23.95,59.33 -2.61,21.35 4.23,45.09 21.94,57.22 17.74,12.1 46.6,7.1 54.86,-12.73l25.64 -6.21c83.96,-142.84 196.71,-268.75 329.39,-367.95 27.17,-20.28 58.67,-48.75 49.39,-81.31z"/>
   <path class="fil4" d="M11789.91 8039.5c-20.96,-171.7 -41.06,-344.45 -32.17,-517.21 8.89,-172.75 48.19,-346.95 138.39,-494.52 13.65,-22.4 121.67,-169.3 146.79,-161.79 17.96,5.37 -58.6,147.18 -52.42,164.86 58.74,168.94 47.13,356.06 -1.1,528.28 -48.26,172.23 -115.39,322.55 -199.49,480.38z"/>
   <path class="fil12" d="M12558.54 9166.2c24.7,-119.66 44.52,-214.06 45.44,-213.89 0,0 419.52,38.74 525.99,-363.68 51.44,-194.41 124.74,-603.35 186.83,-974.19 66.68,-398.57 -184.04,-781.44 -576.01,-879.97l-38.92 -9.81c-426.15,-81.03 -733.07,235.62 -802.28,663.86l-289.81 1490.2 665.45 696 283.31 -408.52z"/>
   <path class="fil13" d="M12603.98 8952.31c0,0 -258.23,-49 -486.55,-287.48 0,0 54.36,325.79 466.26,390.7l20.29 -103.22z"/>
   <path class="fil4" d="M13110.74 7934.76c-6.56,30.69 -37.99,50.45 -70.2,44.13 -32.17,-6.24 -52.92,-36.16 -46.35,-66.88 6.59,-30.7 37.99,-50.52 70.13,-44.24 32.21,6.28 52.99,36.23 46.42,66.99z"/>
   <path class="fil4" d="M13188.39 7760.31c-9.07,5.72 -44.59,-37.57 -106.64,-53.02 -61.81,-16.3 -115.36,4.16 -120.2,-5.12 -2.43,-4.16 8.26,-15.94 31.72,-25.4 23.11,-9.45 59.9,-15.06 98.53,-5.18 38.56,9.95 67.49,32.31 82.51,51.54 15.39,19.47 18.46,34.68 14.08,37.18z"/>
   <path class="fil4" d="M12547.99 7826.7c-6.59,30.73 -37.99,50.49 -70.23,44.21 -32.11,-6.28 -52.92,-36.16 -46.32,-66.92 6.56,-30.73 37.99,-50.49 70.13,-44.24 32.21,6.28 52.98,36.26 46.42,66.95z"/>
   <path class="fil4" d="M12574.42 7632.64c-9.03,5.72 -44.67,-37.57 -106.68,-52.99 -61.81,-16.29 -115.33,4.17 -120.16,-5.11 -2.43,-4.23 8.15,-15.98 31.68,-25.4 23.14,-9.46 59.94,-15.07 98.53,-5.22 38.59,9.95 67.52,32.35 82.55,51.57 15.35,19.44 18.42,34.68 14.08,37.15z"/>
   <path class="fil4" d="M12677.15 8165.26c0.56,-3.59 40.81,-0.56 105.3,7.17 16.26,2.32 32.03,2.96 37.43,-7.17 6.6,-10.51 4.27,-29.24 1.23,-49.63 -5.29,-42.09 -10.76,-86.18 -16.54,-132.36 -21.87,-188.1 -33.48,-341.17 -25.9,-341.99 7.62,-0.81 31.47,150.96 53.34,339.09 5.05,46.25 9.88,90.42 14.4,132.61 1.48,19.51 6.63,42.51 -7.41,64.24 -7.23,10.76 -21.03,16.41 -31.89,16.58 -10.9,0.57 -19.86,-1.51 -27.84,-2.99 -63.71,-12.42 -102.8,-21.95 -102.12,-25.55z"/>
   <path class="fil4" d="M12483.75 8162.3c10.23,1.94 -6.52,69.32 39.09,131.59 45.47,62.4 119.17,72.92 117.3,82.44 -0.11,4.45 -19.26,9.07 -49.78,2.29 -29.98,-6.49 -70.98,-26.95 -98.88,-65.01 -27.8,-38.17 -33.06,-81.07 -28.44,-109.29 4.48,-28.79 16.2,-43.57 20.71,-42.02z"/>
   <path class="fil4" d="M12634.28 7380.05c-10.37,15.35 -70.27,-8.22 -145.27,-17.74 -74.79,-11.04 -138.85,-4.48 -144.71,-22.05 -2.47,-8.33 11.75,-21.59 39.58,-31.96 27.62,-10.41 69.04,-16.48 113.98,-10.34 44.88,6.21 83.12,23.18 106.93,40.64 24.02,17.5 34.15,34.11 29.49,41.45z"/>
   <path class="fil4" d="M13214.57 7547.66c-14.43,11.32 -53.48,-14.04 -104.74,-27.63 -50.7,-15.41 -97.23,-14.39 -103.58,-31.64 -2.57,-8.25 7.83,-20.67 30.16,-29.21 22.09,-8.61 56.17,-11.57 91.2,-1.62 35.06,9.98 62.44,30.44 76.69,49.39 14.5,19.05 16.83,35.03 10.27,40.71z"/>
   <path class="fil12" d="M11857.4 7695.72c-6.11,-4.73 -256.76,-151.77 -317.33,126.43 -60.5,278.2 231.25,281.63 233.51,273.76 2.18,-7.9 83.82,-400.19 83.82,-400.19z"/>
   <path class="fil13" d="M11711.52 7972.01c-1.06,-1.16 -5.57,2.33 -14.6,4.31 -8.75,1.9 -23.07,1.44 -36.41,-7.16 -27.02,-17.15 -41.59,-69.22 -32.03,-119.63 4.8,-25.51 15.38,-48.47 28.68,-66.46 12.91,-18.53 29.17,-29.85 44.52,-29.25 15.49,-0.21 24.02,10.9 25.72,19.47 2.04,8.61 -0.92,13.8 0.46,14.57 0.6,0.89 6.98,-3.35 7.23,-15.31 0.07,-5.78 -1.77,-13.05 -7.13,-19.86 -5.54,-6.84 -14.71,-11.78 -25.29,-12.88 -21.77,-3.21 -45.37,12.35 -60.01,32.07 -15.84,19.65 -28.29,45.33 -33.69,73.91 -10.41,56.48 6.88,115.18 44.56,135.54 18.45,9.35 36.08,7.02 45.93,2.29 10.09,-5.01 12.91,-10.9 12.06,-11.61z"/>
   <path class="fil4" d="M13232.7 7115.12c50.31,-15.49 -54.61,-189.8 -154.98,-263.18 -151.73,-110.94 -397.75,-211.1 -561.37,-199.49 -196.99,13.97 -370.81,74.29 -499.46,224.08 -128.63,149.83 -204.9,339.73 -239.72,534.11 -10.65,59.3 -17.35,122.06 3.78,178.47 26.07,69.74 92.64,124.11 71.68,208.45 -7.69,30.8 -5.36,64 11.19,91.13 39.68,64.87 112.71,26.91 152.08,-18.24 83.99,-96.38 117.97,-225.29 149.44,-349.25 22.36,-88.09 44.9,-178.12 37.64,-268.75 -3.95,-49.28 -16.69,-97.75 -17.89,-147.21 -1.27,-49.43 11.36,-102.62 48.72,-135.01 6.07,-5.26 15.63,-11.54 27.45,-18.17 93.31,-52.77 208.13,-50.41 299.79,5.22 145.38,88.23 396.13,227.05 477.23,188.35 116.7,-55.6 151.2,-100.58 151.2,-100.58l43.22 70.07z"/>
   <path class="fil4" d="M10266.86 11860.47c-0.21,-0.49 7.48,-3.84 22.47,-9.81 16.3,-6.28 38.28,-14.78 66.15,-25.57 59.37,-22.19 143.58,-53.73 248.85,-93.14 214.38,-78.77 514.28,-188.98 862.4,-316.93l-4.94 11.89c-71.75,-155.61 -149.72,-324.73 -230.58,-500.24 -40.6,-88.34 -80.46,-175.09 -119.13,-259.29l9.6 5.18c-326.67,49.46 -623.36,94.37 -863.78,130.74l0.85 -0.17c-198.12,55.66 -347.7,135.18 -446.3,195.86 -49.5,30.48 -86.5,56.48 -111.62,74.22 -11.71,8.47 -21.06,15.17 -28.4,20.43 -6.49,4.55 -9.91,6.77 -10.12,6.49 -0.25,-0.28 2.75,-3.03 8.82,-8.11 7.02,-5.72 16.01,-13.02 27.19,-22.12 24.38,-18.88 60.82,-46.01 109.86,-77.65 97.79,-62.97 247.37,-144.96 446.69,-202.78l0.39 -0.1 0.49 -0.04c240.28,-37.5 536.72,-83.75 863.18,-134.69l6.73 -1.06 2.86 6.25c38.77,84.13 78.71,170.85 119.38,259.15 80.61,175.65 158.29,344.91 229.8,500.62l3.99 8.68 -8.96 3.21c-349.04,125.45 -649.71,233.51 -864.66,310.77 -105.98,37.39 -190.82,67.27 -250.54,88.33 -28.33,9.67 -50.66,17.25 -67.14,22.93 -15.34,5.01 -23.39,7.41 -23.53,6.95z"/>
   <path class="fil4" d="M10783.82 10273.43c1.87,1.69 -25.29,34.89 -71.05,86.78 -45.79,51.93 -110.17,122.59 -183.09,198.97 -72.99,76.38 -140.76,143.93 -192.4,190.36 -25.86,23.18 -47.59,41.13 -64.21,51.82 -8.61,4.83 -14.75,9.91 -22.4,8.22 -3.88,-2.64 -2.15,-5.82 -1.91,-6.84l1.24 -1.8 2.04 5.18c2.79,0.15 9.81,-4.83 16.87,-10.58 14.71,-12.03 34.92,-31.22 59.44,-55.46 49,-48.5 115.18,-117.33 188.07,-193.57 70.98,-74.15 135.18,-141.18 186.83,-195.12 48.19,-49.6 78.67,-79.65 80.57,-77.96z"/>
   <path class="fil4" d="M10951.57 9926.68c-3.67,-0.56 7.34,-55.31 7.41,-144.46 0.38,-44.55 -3.95,-97.51 -13.2,-155.54 -10.44,-57.82 -26.46,-120.58 -50.44,-184.08 -24.77,-63.18 -54.97,-120.54 -86.01,-170.42 -32.03,-49.32 -64.31,-91.55 -94.44,-124.32 -59.87,-66.08 -104.67,-99.35 -102.38,-102.24 0.78,-1.02 12.24,6.85 32.39,22.02 10.23,7.4 22.43,16.89 35.45,29.24 13.16,12.17 29,25.26 44.03,42.12 31.85,32.14 65.79,74.26 99.16,123.97 32.43,50.34 63.72,108.58 88.94,173.04 24.48,64.7 40.32,128.9 49.99,187.96 8.54,59.26 11.57,113.24 9.49,158.46 0.17,22.58 -2.75,42.9 -4.38,60.75 -1.41,17.89 -4.05,33.13 -6.73,45.48 -4.77,24.76 -8.05,38.27 -9.28,38.02z"/>
   <path class="fil4" d="M11851.65 12557.32c0.35,-3.22 44.52,1.33 115.67,-0.5 71.05,-1.69 169.3,-12.49 273.33,-43.04 104,-30.86 192.37,-75.1 252.98,-112.25 60.71,-37.11 95.36,-64.88 97.33,-62.41 0.85,0.99 -7.16,8.75 -22.29,21.98 -15,13.47 -38.21,31.18 -68.05,51.36 -59.59,40.5 -148.84,87.53 -254.78,118.96 -106.01,31.08 -206.45,40.03 -278.45,38.38 -36.05,-0.7 -65.16,-3 -85.02,-6.17 -19.97,-2.9 -30.87,-5.09 -30.72,-6.31z"/>
   <path class="fil4" d="M12375.45 11778.27c0.92,0.85 -7.55,11.54 -23.64,30.13 -16.01,18.7 -40.04,44.98 -70.23,76.87 -60.47,63.85 -146.83,149.44 -246.81,239.01 -100.05,89.53 -194.66,165.94 -264.79,219 -35.03,26.57 -63.82,47.49 -84.11,61.39 -20.24,13.93 -31.82,21.17 -32.59,20.13 -0.74,-0.97 9.38,-10.15 28.26,-25.85 22.11,-18.09 48.93,-40.05 80.39,-65.87 67.91,-55.52 160.87,-133.24 260.6,-222.45 99.59,-89.29 187.08,-173.11 249.77,-234.5 29.1,-28.43 53.94,-52.67 74.36,-72.63 17.64,-17.08 27.87,-26.11 28.79,-25.23z"/>
  </g>
 </g>
</svg>
