<?xml version="1.0" encoding="UTF-8"?>
<!DOCTYPE svg PUBLIC "-//W3C//DTD SVG 1.1//EN" "http://www.w3.org/Graphics/SVG/1.1/DTD/svg11.dtd">
<!-- Creator: CorelDRAW 2020 (64 Bit) -->
<svg xmlns="http://www.w3.org/2000/svg" xml:space="preserve" width="156.996mm" height="149.377mm" version="1.1" style="shape-rendering:geometricPrecision; text-rendering:geometricPrecision; image-rendering:optimizeQuality; fill-rule:evenodd; clip-rule:evenodd"
viewBox="0 0 15699.64 14937.7"
 xmlns:xlink="http://www.w3.org/1999/xlink"
 xmlns:xodm="http://www.corel.com/coreldraw/odm/2003">
 <defs>
  <style type="text/css">
   <![CDATA[
    .fil2 {fill:#FEFEFE;fill-rule:nonzero}
    .fil1 {fill:#F7F7F6;fill-rule:nonzero}
    .fil3 {fill:#E5E6E5;fill-rule:nonzero}
    .fil0 {fill:#D9DAD9;fill-rule:nonzero}
    .fil7 {fill:#BD7768;fill-rule:nonzero}
    .fil9 {fill:#ABAEAF;fill-rule:nonzero}
    .fil8 {fill:#794C44;fill-rule:nonzero}
    .fil13 {fill:#A8B8BB;fill-rule:nonzero}
    .fil5 {fill:#42616A;fill-rule:nonzero}
    .fil12 {fill:#33484E;fill-rule:nonzero}
    .fil4 {fill:#2C3C43;fill-rule:nonzero}
    .fil11 {fill:#273035;fill-rule:nonzero}
    .fil10 {fill:#0047B2;fill-rule:nonzero}
    .fil6 {fill:#0066FF;fill-rule:nonzero}
   ]]>
  </style>
 </defs>
 <g id="Camada_x0020_1">
  <metadata id="CorelCorpID_0Corel-Layer"/>
  <g id="_2201069231440">
   <polygon class="fil0" points="12859.95,3020.16 15296.63,3020.16 15296.63,480.12 12859.95,480.12 "/>
   <polygon class="fil1" points="12694.96,3020.16 15131.64,3020.16 15131.64,480.12 12694.96,480.12 "/>
   <path class="fil0" d="M12695.7 3019.42l2435.16 0 0 -2538.52 -2435.16 0 0 2538.52zm2436.67 1.52l-2438.19 0 0 -2541.56 2438.19 0 0 2541.56z"/>
   <polygon class="fil2" points="13022.51,2678.71 14804.07,2678.71 14804.07,821.59 13022.51,821.59 "/>
   <path class="fil0" d="M13022.51 2691.09c1.38,1.62 -15.52,21.06 -43.95,51.08 -28.47,30.06 -68.44,70.66 -113.28,114.83 -44.8,44.17 -86.01,83.47 -116.38,111.37 -30.37,27.94 -49.95,44.45 -51.47,42.94 -1.55,-1.59 15.28,-20.89 43.71,-50.91 28.47,-30.06 68.54,-70.77 113.49,-115.04 44.94,-44.27 86.25,-83.71 116.63,-111.62 30.37,-27.9 49.84,-44.34 51.25,-42.65z"/>
   <path class="fil0" d="M14804.08 2686.5c1.66,-1.41 21.09,15.53 51.12,43.96 30.02,28.47 70.66,68.44 114.79,113.28 44.17,44.8 83.5,86 111.41,116.38 27.9,30.37 44.41,49.95 42.89,51.47 -1.55,1.55 -20.88,-15.28 -50.9,-43.71 -30.02,-28.47 -70.77,-68.55 -115.04,-113.52 -44.28,-44.95 -83.68,-86.22 -111.62,-116.6 -27.91,-30.37 -44.31,-49.85 -42.65,-51.26z"/>
   <path class="fil0" d="M14799.21 826.55c-1.41,-1.65 15.49,-21.09 43.96,-51.11 28.43,-30.03 68.43,-70.67 113.24,-114.8 44.84,-44.17 86,-83.5 116.38,-111.44 30.37,-27.91 49.95,-44.42 51.5,-42.86 1.52,1.55 -15.27,20.88 -43.74,50.9 -28.43,30.02 -68.55,70.73 -113.49,115.04 -44.94,44.24 -86.22,83.68 -116.63,111.59 -30.37,27.94 -49.84,44.34 -51.22,42.68z"/>
   <path class="fil0" d="M13017.61 831.1c-1.66,1.42 -21.06,-15.48 -51.08,-43.95 -30.02,-28.47 -70.66,-68.44 -114.83,-113.24 -44.17,-44.84 -83.47,-86.01 -111.41,-116.38 -27.9,-30.41 -44.41,-49.96 -42.86,-51.51 1.52,-1.52 20.85,15.27 50.87,43.71 30.06,28.47 70.77,68.54 115.04,113.52 44.27,44.95 83.68,86.22 111.62,116.6 27.9,30.37 44.34,49.84 42.65,51.25z"/>
   <path class="fil0" d="M14799.21 2678.71c-0.14,-0.11 -0.28,-3.18 -0.39,-9.03 -0.1,-6.32 -0.25,-14.86 -0.39,-25.9 -0.21,-23.28 -0.46,-56.76 -0.81,-100.26 -0.42,-87.98 -1.02,-215.97 -1.8,-378.49 -0.84,-325.26 -2.04,-788.6 -3.49,-1343.42l6.88 6.85c-518.65,0.32 -1127.73,0.63 -1776.52,1.02l-0.18 0 7.87 -7.87c-0.39,681.61 -0.77,1319.32 -1.09,1857.1l-6.78 -6.78c532.38,1.45 975.65,2.65 1286.44,3.46 155.26,0.78 277.39,1.38 361.35,1.77 41.46,0.35 73.35,0.63 95.57,0.81 10.51,0.14 18.66,0.28 24.73,0.38 5.58,0.11 8.47,0.25 8.61,0.36 0.11,0.14 -2.54,0.28 -7.87,0.39 -5.89,0.1 -13.76,0.21 -23.99,0.38 -21.9,0.18 -53.37,0.46 -94.29,0.78 -83.58,0.42 -205.18,1.02 -359.8,1.76 -311.82,0.85 -756.57,2.05 -1290.75,3.46l-6.77 0.04 0 -6.81c-0.32,-537.78 -0.7,-1175.49 -1.13,-1857.1l0 -7.9 8.08 0c648.79,0.36 1257.87,0.71 1776.52,1.03l6.88 0 0 6.87c-1.48,556.62 -2.68,1021.51 -3.49,1347.83 -0.82,161.85 -1.42,289.31 -1.84,376.94 -0.32,42.9 -0.6,75.95 -0.77,98.92 -0.18,10.72 -0.32,19.01 -0.39,25.19 -0.14,5.61 -0.28,8.36 -0.39,8.22z"/>
   <polygon class="fil3" points="13616.03,2047.38 14210.53,2047.38 14210.53,1452.9 13616.03,1452.9 "/>
   <polygon class="fil0" points="12859.95,6536.76 15296.63,6536.76 15296.63,3996.73 12859.95,3996.73 "/>
   <polygon class="fil1" points="12694.96,6536.76 15131.64,6536.76 15131.64,3996.73 12694.96,3996.73 "/>
   <path class="fil0" d="M12695.7 6535.98l2435.16 0 0 -2538.52 -2435.16 0 0 2538.52zm2436.67 1.52l-2438.19 0 0 -2541.52 2438.19 0 0 2541.52z"/>
   <polygon class="fil2" points="13022.51,6195.3 14804.07,6195.3 14804.07,4338.17 13022.51,4338.17 "/>
   <path class="fil0" d="M13022.51 6207.65c1.38,1.66 -15.52,21.1 -43.95,51.12 -28.47,30.02 -68.44,70.66 -113.28,114.79 -44.8,44.17 -86.01,83.5 -116.38,111.41 -30.37,27.94 -49.95,44.45 -51.47,42.9 -1.55,-1.56 15.28,-20.89 43.71,-50.91 28.47,-30.02 68.54,-70.77 113.49,-115.04 44.94,-44.27 86.25,-83.68 116.63,-111.58 30.37,-27.94 49.84,-44.35 51.25,-42.69z"/>
   <path class="fil0" d="M14804.08 6203.1c1.66,-1.41 21.09,15.52 51.12,43.95 30.02,28.47 70.66,68.44 114.79,113.25 44.17,44.83 83.5,86 111.41,116.38 27.9,30.41 44.41,49.95 42.89,51.5 -1.55,1.52 -20.88,-15.27 -50.9,-43.71 -30.02,-28.47 -70.77,-68.58 -115.04,-113.52 -44.28,-44.94 -83.68,-86.22 -111.62,-116.59 -27.91,-30.38 -44.31,-49.85 -42.65,-51.26z"/>
   <path class="fil0" d="M14799.21 4343.15c-1.41,-1.7 15.49,-21.1 43.96,-51.12 28.43,-30.06 68.43,-70.66 113.24,-114.83 44.84,-44.17 86,-83.47 116.38,-111.41 30.37,-27.9 49.95,-44.41 51.5,-42.86 1.52,1.55 -15.27,20.85 -43.74,50.87 -28.43,30.02 -68.55,70.77 -113.49,115.04 -44.94,44.28 -86.22,83.68 -116.63,111.62 -30.37,27.91 -49.84,44.35 -51.22,42.69z"/>
   <path class="fil0" d="M13017.61 4347.7c-1.66,1.41 -21.06,-15.52 -51.08,-43.96 -30.02,-28.47 -70.66,-68.44 -114.83,-113.27 -44.17,-44.84 -83.47,-86.01 -111.41,-116.39 -27.9,-30.37 -44.41,-49.95 -42.86,-51.47 1.52,-1.55 20.85,15.24 50.87,43.71 30.06,28.44 70.77,68.55 115.04,113.49 44.27,44.98 83.68,86.26 111.62,116.63 27.9,30.37 44.34,49.85 42.65,51.26z"/>
   <path class="fil0" d="M14799.21 6195.3c-0.14,-0.14 -0.28,-3.17 -0.39,-9.03 -0.1,-6.31 -0.25,-14.85 -0.39,-25.93 -0.21,-23.28 -0.46,-56.76 -0.81,-100.22 -0.42,-87.99 -1.02,-215.97 -1.8,-378.5 -0.84,-325.26 -2.04,-788.63 -3.49,-1343.45l6.88 6.88c-518.65,0.29 -1127.73,0.64 -1776.52,1.03l-0.18 0 7.87 -7.91c-0.39,681.64 -0.77,1319.32 -1.09,1857.13l-6.78 -6.77c532.38,1.45 975.65,2.64 1286.44,3.46 155.26,0.77 277.39,1.37 361.35,1.76 41.46,0.35 73.35,0.6 95.57,0.78 10.51,0.17 18.66,0.31 24.73,0.38 5.58,0.15 8.47,0.25 8.61,0.39 0.11,0.14 -2.54,0.25 -7.87,0.39 -5.89,0.11 -13.76,0.21 -23.99,0.39 -21.9,0.17 -53.37,0.42 -94.29,0.77 -83.58,0.39 -205.18,0.99 -359.8,1.77 -311.82,0.84 -756.57,2.01 -1290.75,3.46l-6.77 0.03 0 -6.81c-0.32,-537.81 -0.7,-1175.49 -1.13,-1857.13l0 -7.86 8.08 0c648.79,0.35 1257.87,0.7 1776.52,0.98l6.88 0 0 6.88c-1.48,556.65 -2.68,1021.51 -3.49,1347.83 -0.82,161.89 -1.42,289.35 -1.84,376.94 -0.32,42.93 -0.6,75.95 -0.77,98.95 -0.18,10.73 -0.32,19.02 -0.39,25.16 -0.14,5.61 -0.28,8.39 -0.39,8.25z"/>
   <polygon class="fil3" points="13616.03,5563.97 14210.53,5563.97 14210.53,4969.51 13616.03,4969.51 "/>
   <polygon class="fil0" points="658.69,8641.57 2580.78,8641.57 2580.78,6637.93 658.69,6637.93 "/>
   <polygon class="fil1" points="528.52,8641.57 2450.61,8641.57 2450.61,6637.93 528.52,6637.93 "/>
   <path class="fil0" d="M529.12 8640.97l1920.9 0 0 -2002.44 -1920.9 0 0 2002.44zm1922.08 1.2l-1923.27 0 0 -2004.84 1923.27 0 0 2004.84z"/>
   <polygon class="fil2" points="786.91,8372.22 2192.23,8372.22 2192.23,6907.29 786.91,6907.29 "/>
   <path class="fil0" d="M786.91 8381.96c1.1,1.31 -12.25,16.62 -34.69,40.32 -22.43,23.67 -53.98,55.74 -89.32,90.56 -35.38,34.82 -67.86,65.86 -91.82,87.88 -23.97,22.01 -39.4,35.06 -40.61,33.83 -1.22,-1.24 12.04,-16.48 34.49,-40.15 22.45,-23.7 54.06,-55.81 89.53,-90.73 35.46,-34.93 68.02,-66.04 91.97,-88.06 23.98,-22.01 39.33,-34.96 40.45,-33.65z"/>
   <path class="fil0" d="M2192.23 8378.36c1.31,-1.09 16.63,12.24 40.32,34.68 23.69,22.44 55.74,53.97 90.57,89.32 34.83,35.39 65.85,67.88 87.87,91.83 22.02,23.95 35.05,39.41 33.84,40.61 -1.22,1.2 -16.47,-12.07 -40.16,-34.51 -23.68,-22.43 -55.81,-54.04 -90.75,-89.53 -34.9,-35.45 -66,-68.02 -88.02,-91.97 -22.03,-23.95 -34.98,-39.33 -33.67,-40.43z"/>
   <path class="fil0" d="M2188.38 6911.19c-1.1,-1.3 12.24,-16.65 34.69,-40.32 22.44,-23.71 53.98,-55.74 89.32,-90.56 35.37,-34.85 67.86,-65.86 91.82,-87.87 23.97,-22.05 39.4,-35.07 40.62,-33.83 1.21,1.23 -12.05,16.47 -34.5,40.14 -22.45,23.67 -54.06,55.81 -89.53,90.74 -35.45,34.92 -68.02,66 -91.98,88.05 -23.97,22.01 -39.32,34.96 -40.44,33.65z"/>
   <path class="fil0" d="M783.06 6914.79c-1.32,1.1 -16.65,-12.24 -40.32,-34.68 -23.69,-22.43 -55.74,-53.97 -90.57,-89.32 -34.83,-35.38 -65.85,-67.87 -87.87,-91.83 -22.04,-23.95 -35.06,-39.4 -33.83,-40.6 1.22,-1.24 16.45,12.03 40.14,34.46 23.69,22.48 55.82,54.09 90.74,89.54 34.92,35.45 66.03,68.05 88.05,92 22.02,23.96 34.97,39.3 33.66,40.43z"/>
   <path class="fil0" d="M2188.38 8372.22c-0.09,-0.1 -0.2,-2.5 -0.3,-7.12 -0.08,-5.01 -0.18,-11.72 -0.3,-20.46 -0.17,-18.35 -0.36,-44.77 -0.63,-79.06 -0.34,-69.39 -0.82,-170.36 -1.43,-298.56 -0.67,-256.57 -1.61,-622.09 -2.75,-1059.74l5.41 5.43c-409.11,0.21 -889.55,0.49 -1401.33,0.81l-0.14 0 6.21 -6.24c-0.32,537.7 -0.62,1040.69 -0.87,1464.94l-5.34 -5.36c419.95,1.13 769.6,2.08 1014.76,2.75 122.48,0.6 218.83,1.06 285.03,1.38 32.7,0.28 57.88,0.49 75.42,0.63 8.28,0.11 14.7,0.22 19.48,0.29 4.4,0.1 6.69,0.21 6.78,0.31 0.11,0.11 -1.98,0.18 -6.18,0.29 -4.65,0.1 -10.88,0.17 -18.91,0.31 -17.29,0.14 -42.14,0.36 -74.4,0.6 -65.92,0.36 -161.86,0.81 -283.82,1.41 -245.97,0.67 -596.8,1.59 -1018.16,2.72l-5.34 0.04 -0.01 -5.37c-0.25,-424.25 -0.55,-927.24 -0.88,-1464.94l0 -6.21 6.37 0c511.78,0.28 992.22,0.56 1401.33,0.78l5.43 0 0 5.43c-1.14,439.07 -2.09,805.78 -2.75,1063.2 -0.62,127.67 -1.11,228.21 -1.42,297.32 -0.28,33.87 -0.48,59.94 -0.63,78.04 -0.14,8.46 -0.24,15.02 -0.31,19.86 -0.11,4.44 -0.21,6.63 -0.32,6.52z"/>
   <polygon class="fil3" points="1255.09,7874.21 1724.03,7874.21 1724.03,7405.29 1255.09,7405.29 "/>
   <path class="fil0" d="M15044.71 7571.42c-377.72,195.68 -667.39,532.59 -875.67,903.53 -208.28,370.95 -342.54,777.98 -475.51,1182.09l-116.34 2084.11c439.56,-747.79 792.34,-1626.8 887.66,-2488.92 -97.51,-8.68 -195.02,-17.36 -292.49,-26.04 196.11,-29.95 360.71,-172.05 465.45,-340.53 104.74,-168.49 158.65,-362.77 211.28,-554.04 -118.95,17.67 -237.91,35.35 -356.87,53.06 279.44,-186.55 482.04,-484.76 552.49,-813.26z"/>
   <path class="fil3" d="M13512.13 12229.46c0,0 -954.01,-1141.91 -943.01,-2231.99l385.38 0c0,0 -418.61,-275.27 -385.48,-429.4 33.12,-154.16 44.13,-737.73 44.13,-737.73l352.36 88.05c0,0 -264.27,-132.11 -297.29,-341.31 -33.02,-209.23 77.08,-1178.17 77.08,-1178.17 0,0 429.4,451.45 561.55,913.91 132.12,462.45 478.97,1001.99 377.12,2411.37 -101.84,1409.42 -171.84,1505.27 -171.84,1505.27z"/>
   <path class="fil3" d="M13995.79 12337.23c0,0 1033.57,-688.55 1263.23,-1567.35l-309.84 -84.32c0,0 396.76,-129.71 403.86,-260.91 7.09,-131.16 125.94,-602.76 125.94,-602.76l-302.58 -6.28c0,0 241.37,-48.4 313.72,-209.37 72.32,-160.97 195.8,-964.07 195.8,-964.07 0,0 -444.01,268.99 -651.44,611.89 -207.4,342.9 -604.28,700.79 -830.76,1856.18 -226.48,1155.42 -207.93,1226.99 -207.93,1226.99z"/>
   <path class="fil0" d="M13005.9 8394.48c0.32,-0.07 1.48,3.95 3.46,11.86 2.11,8.85 4.86,20.46 8.32,35.13 7.2,32.07 17.36,77.51 30.34,135.51 13.23,58.8 28.61,130.95 45.33,214.94 16.97,83.96 36.8,179.46 56.13,285.51 40.89,211.73 84,464.85 128.41,746.44 43.04,281.83 86.01,592.35 124.18,919.13 37.39,326.99 66.43,639.19 88.83,923.43 21.02,284.37 36.79,540.66 45.29,756.1 5.33,107.71 7.84,205.18 10.48,290.8 2.89,85.58 4.38,159.31 4.91,219.6 0.6,59.41 1.05,105.94 1.37,138.82 -0.03,15.11 -0.07,27.03 -0.07,36.12 -0.14,8.12 -0.35,12.32 -0.67,12.32 -0.32,0 -0.74,-4.16 -1.23,-12.28 -0.43,-9.11 -0.99,-20.98 -1.73,-36.09 -1.13,-32.84 -2.75,-79.33 -4.84,-138.71 -1.62,-60.22 -4.12,-133.92 -8,-219.43 -3.6,-85.55 -7.02,-182.94 -13.2,-290.51 -10.16,-215.27 -27.27,-471.31 -49.21,-755.4 -23.32,-283.99 -52.81,-595.91 -90.21,-922.66 -38.13,-326.53 -80.57,-636.9 -122.62,-918.67 -43.46,-281.55 -85.23,-534.74 -124.46,-746.65 -18.52,-106.15 -37.43,-201.75 -53.45,-285.86 -15.73,-84.17 -30.09,-156.49 -42.26,-215.51 -11.5,-58.24 -20.53,-103.93 -26.92,-136.17 -2.75,-14.85 -4.9,-26.56 -6.56,-35.53 -1.37,-8 -1.94,-12.17 -1.62,-12.24z"/>
   <path class="fil3" d="M13379.81 12928.7c0,0 -873.06,-990.6 -1144.13,-1589.4l204.65 -87.46c-148.35,24.49 -300.32,-39.26 -415.37,-136.06 -115,-96.84 -199.46,-224.16 -282.29,-349.64l269.59 -45.55c-245.14,-68.79 -461.15,-236.11 -589.03,-456.28 318.14,52.32 605.93,227.05 843.11,445.45 192.05,176.85 354.71,382.2 510.89,591.97 76.16,102.3 142.84,211.34 198.4,326.21 146.69,303.28 404.67,936.97 404.18,1300.76z"/>
   <path class="fil0" d="M15272.74 9218.71c0.29,0.18 -1.06,3.57 -3.98,10.13 -3.46,7.41 -7.87,16.9 -13.41,28.79 -12.7,26.28 -30.48,63.07 -53.09,109.92 -46.82,95.11 -113.07,233.47 -193.29,405.13 -80.47,171.59 -173.07,377.37 -272.56,607.27 -98.67,230.3 -203.79,484.9 -308.36,754.42 -103.96,269.87 -197.52,529.03 -279.43,765.8 -81.07,237.11 -151.03,451.67 -206.87,632.74 -56.16,180.98 -100.19,327.92 -129.58,429.76 -14.74,49.85 -26.35,89.05 -34.64,117.02 -3.92,12.53 -7.02,22.55 -9.45,30.33 -2.26,6.78 -3.53,10.24 -3.85,10.17 -0.32,-0.11 0.39,-3.71 2.01,-10.65 2.01,-7.94 4.52,-18.11 7.73,-30.84 7.48,-28.18 17.99,-67.69 31.32,-118 27.27,-102.45 69.43,-250.02 124,-431.59 54.33,-181.68 123.05,-396.8 203.31,-634.41 81.1,-237.27 174.24,-496.84 278.31,-766.93 104.67,-269.77 210.36,-524.44 309.95,-754.52 100.47,-229.73 194.34,-435.12 276.36,-606.11 81.78,-171.06 149.86,-308.61 198.62,-402.76 23.95,-46.22 42.75,-82.52 56.19,-108.41 6.21,-11.57 11.19,-20.78 15.03,-27.98 3.5,-6.28 5.4,-9.42 5.68,-9.28z"/>
   <path class="fil0" d="M13453.86 13353.21c-0.64,0.06 -2.05,-6.22 -4.24,-18.21 -2.29,-14.08 -5.11,-31.47 -8.57,-52.57 -6.67,-45.73 -18.06,-111.65 -34.08,-192.65 -15.7,-81.07 -38.17,-176.82 -66.74,-282.11 -29.57,-105.06 -65.76,-219.47 -109.89,-337.4 -44.84,-117.73 -93.31,-227.55 -140.55,-325.94 -48.15,-97.93 -94.58,-184.64 -136.38,-255.83 -41.53,-71.37 -76.52,-128.38 -101.75,-167.11 -11.36,-18.14 -20.7,-33.02 -28.29,-45.12 -6.31,-10.4 -9.38,-16.08 -8.85,-16.44 0.53,-0.36 4.58,4.59 11.89,14.36 8.36,11.57 18.66,25.85 31.22,43.24 27.09,37.58 63.85,93.67 106.96,164.44 43.35,70.63 91.19,157.06 140.37,255.02 48.33,98.39 97.51,208.57 142.56,326.89 44.38,118.49 80.25,233.67 109.04,339.43 27.8,106.02 49.07,202.51 63.18,284.13 14.43,81.61 23.89,148.03 28.4,194.14 2.08,21.3 3.78,38.84 5.15,53.05 0.99,12.18 1.2,18.59 0.57,18.68z"/>
   <polygon class="fil0" points="12695.07,13509.97 14605.88,13509.97 14605.88,13120.19 12695.07,13120.19 "/>
   <polygon class="fil0" points="12877.13,13509.97 13073.17,14627.5 14227.78,14627.5 14431.09,13509.97 "/>
   <path class="fil3" d="M14488.66 13509.97c0,5.04 -361.49,9.18 -807.26,9.18 -445.95,0 -807.33,-4.14 -807.33,-9.18 0,-5.07 361.38,-9.2 807.33,-9.2 445.77,0 807.26,4.13 807.26,9.2z"/>
   <polygon class="fil0" points="163.74,5315.51 3266.88,5315.51 3266.88,275.59 163.74,275.59 "/>
   <polygon class="fil3" points="60.53,5315.51 3163.66,5315.51 3163.66,275.59 60.53,275.59 "/>
   <polygon class="fil2" points="192.67,5213.31 3031.52,5213.31 3031.52,377.78 192.67,377.78 "/>
   <polygon class="fil3" points="733.12,4584.98 2478.79,4584.98 2478.79,1006.12 733.12,1006.12 "/>
   <path class="fil0" d="M733.12 3318.51c-4.04,-334.3 302.33,-660.65 639.73,-707.32 160.9,-22.26 331.83,9.06 482.17,-51.44 268.34,-107.95 353.72,-457.76 623.77,-561.52l12.32 2586.75 -1757.99 0 0 -1266.47z"/>
   <path class="fil4" d="M15699.64 14643.2c0,5.08 -3514.76,9.2 -7849.45,9.2 -4336.17,0 -7850.19,-4.12 -7850.19,-9.2 0,-5.04 3514.02,-9.18 7850.19,-9.18 4334.69,0 7849.45,4.14 7849.45,9.18z"/>
   <path class="fil4" d="M11404.36 11587.4l-7109.11 0c-192.4,0 -348.37,-161.33 -348.37,-360.32l0 -10866.72c0,-199 155.97,-360.36 348.37,-360.36l7109.14 0c192.41,0 348.37,161.36 348.37,360.36l0 10866.68c0,199.03 -155.96,360.36 -348.4,360.36z"/>
   <path class="fil5" d="M7985.98 11060.28c0,179.5 -148.24,325.05 -331.05,325.05 -182.88,0 -331.08,-145.55 -331.08,-325.05 0,-179.52 148.2,-325.05 331.08,-325.05 182.81,0 331.05,145.53 331.05,325.05z"/>
   <path class="fil5" d="M8649.59 612.35l-1594.21 0c-61.38,0 -111.16,-51.51 -111.16,-115.04 0,-63.5 49.78,-114.97 111.16,-114.97l1594.21 0c61.42,0 111.19,51.47 111.19,114.97 0,63.53 -49.77,115.04 -111.19,115.04z"/>
   <polygon class="fil2" points="11499.89,10503.57 4186.28,10503.6 4186.28,826.69 11499.86,826.69 "/>
   <polygon class="fil3" points="4193.02,10503.57 11506.63,10503.57 11506.63,826.69 4193.02,826.69 "/>
   <path class="fil2" d="M10545.17 9708.97l-5390.69 0c-192.06,0 -347.7,-155.68 -347.7,-347.73l0 -7397.97c0,-192.01 155.64,-347.69 347.7,-347.69l5390.69 0c192.05,0 347.73,155.68 347.73,347.69l0 7397.97c0,192.05 -155.68,347.73 -347.73,347.73z"/>
   <path class="fil6" d="M6779.62 2659.83l34.32 -77.08c32.74,21.66 79.24,36.44 121.99,36.44 43.32,0 60.22,-12.17 60.22,-30.09 0,-58.63 -210.18,-15.87 -210.18,-153.17 0,-66.01 53.87,-119.88 163.69,-119.88 48.05,0 97.68,11.11 134.12,32.21l-32.21 77.65c-35.38,-19.02 -70.23,-28.51 -102.44,-28.51 -43.82,0 -59.66,14.78 -59.66,33.27 0,56.48 209.62,14.25 209.62,150.49 0,64.42 -53.83,119.35 -163.69,119.35 -60.71,0 -120.93,-16.37 -155.78,-40.68z"/>
   <path class="fil6" d="M7142.49 2406.89l100.36 0 0 286.21 -100.36 0 0 -286.21zm-11.08 -85.02c0,-30.09 24.27,-53.34 61.24,-53.34 36.97,0 61.28,21.66 61.28,51.76 0,31.67 -24.31,54.92 -61.28,54.92 -36.97,0 -61.24,-23.25 -61.24,-53.34z"/>
   <path class="fil6" d="M7516.39 2539.96c0,-34.85 -26.38,-58.07 -62.3,-58.07 -35.91,0 -62.83,23.22 -62.83,58.07 0,34.85 26.92,58.63 62.83,58.63 35.92,0 62.3,-23.78 62.3,-58.63zm99.31 -133.07l0 233.93c0,108.27 -61.28,159.49 -167.96,159.49 -54.89,0 -107.17,-12.7 -142.06,-37.5l36.48 -70.24c23.74,19.02 62.83,30.62 96.62,30.62 53.87,0 76.56,-24.27 76.56,-69.18l0 -9.49c-19.51,22.72 -48.58,33.8 -85.02,33.8 -76.03,0 -140.44,-53.87 -140.44,-138.36 0,-83.96 64.41,-137.83 140.44,-137.83 39.61,0 70.23,12.7 89.78,39.62l0 -34.86 95.6 0z"/>
   <path class="fil6" d="M7984.88 2529.41l0 163.69 -100.33 0 0 -147.32c0,-41.17 -17.95,-58.63 -46.99,-58.63 -32.21,0 -57.04,20.07 -57.04,67.59l0 138.36 -100.33 0 0 -286.21 95.6 0 0 31.15c22.69,-23.74 54.89,-35.91 90.81,-35.91 67.06,0 118.28,38.56 118.28,127.28z"/>
   <path class="fil6" d="M8502.51 2406.89l0 286.21 -95.56 0 0 -30.62c-21.66,23.74 -52.29,35.38 -85.02,35.38 -70.24,0 -121.46,-40.14 -121.46,-130.95l0 -160.02 100.33 0 0 143.65c0,44.35 17.46,61.77 47.51,61.77 29.6,0 53.87,-19.54 53.87,-67.59l0 -137.83 100.33 0z"/>
   <path class="fil6" d="M8786.18 2550.01c0,-43.32 -26.39,-68.12 -60.18,-68.12 -33.8,0 -60.22,24.8 -60.22,68.12 0,43.29 26.42,68.13 60.22,68.13 33.79,0 60.18,-24.84 60.18,-68.13zm101.39 0c0,90.81 -62.83,147.85 -140.44,147.85 -33.3,0 -60.18,-10.05 -79.76,-30.09l0 127.78 -100.33 0 0 -388.66 95.56 0 0 28.54c19.02,-22.72 47.03,-33.3 84.53,-33.3 77.61,0 140.44,57.04 140.44,147.88z"/>
   <polygon class="fil4" points="5502.17,4758.69 5502.17,4797.81 5570.72,4797.81 5570.72,4825.29 5502.17,4825.29 5502.17,4879.23 5467.88,4879.23 5467.88,4731.17 5579.82,4731.17 5579.82,4758.69 "/>
   <path class="fil4" d="M5712.54 4765.42l0 113.81 -31.33 0 0 -13.51c-8.68,9.91 -21.34,15.2 -35.31,15.2 -28.58,0 -48.69,-16.05 -48.69,-51.19l0 -64.31 33.02 0 0 59.45c0,19.05 8.47,27.51 23.07,27.51 15.21,0 26.22,-9.73 26.22,-30.69l0 -56.27 33.02 0z"/>
   <polygon class="fil4" points="5743.26,4879.23 5776.28,4879.23 5776.28,4722.27 5743.26,4722.27 "/>
   <polygon class="fil4" points="5806.97,4879.23 5839.99,4879.23 5839.99,4722.27 5806.97,4722.27 "/>
   <polygon class="fil4" points="6068.74,4731.17 6068.74,4879.23 6040.62,4879.23 5966.75,4789.34 5966.75,4879.23 5932.92,4879.23 5932.92,4731.17 5961.28,4731.17 6034.87,4821.09 6034.87,4731.17 "/>
   <path class="fil4" d="M6169.31 4843.28l0 -11.64 -22.65 0c-15.41,0 -20.28,5.71 -20.28,13.33 0,8.26 6.95,13.76 18.63,13.76 11,0 20.49,-5.08 24.3,-15.45zm33.02 -28.96l0 64.91 -30.9 0 0 -14.15c-6.14,10.37 -17.99,15.84 -34.68,15.84 -26.67,0 -42.54,-14.78 -42.54,-34.46 0,-20.11 14.18,-34.08 48.86,-34.08l26.24 0c0,-14.15 -8.46,-22.4 -26.24,-22.4 -12.03,0 -24.52,4.02 -32.78,10.58l-11.85 -23.07c12.49,-8.89 30.9,-13.76 49.07,-13.76 34.71,0 54.82,16.09 54.82,50.59z"/>
   <path class="fil4" d="M6424.51 4814.07l0 65.16 -32.98 0 0 -60.08c0,-18.38 -8.26,-26.85 -21.59,-26.85 -14.78,0 -25.16,9.53 -25.16,29.81l0 57.12 -33.02 0 0 -60.08c0,-18.38 -7.83,-26.85 -21.59,-26.85 -14.57,0 -24.94,9.53 -24.94,29.81l0 57.12 -33.02 0 0 -113.81 31.54 0 0 13.13c8.47,-9.74 21.13,-14.82 35.74,-14.82 15.87,0 29.42,6.14 37.43,18.63 9.13,-11.65 23.92,-18.63 41.06,-18.63 27.09,0 46.53,15.66 46.53,50.34z"/>
   <path class="fil4" d="M6479.86 4812.38l56.06 0c-2.33,-14.36 -13.12,-23.67 -27.94,-23.67 -15.03,0 -25.79,9.1 -28.12,23.67zm86.5 19.26l-86.11 0c3.18,14.18 15.24,22.86 32.6,22.86 12.06,0 20.74,-3.6 28.54,-11.01l17.57 19.05c-10.55,12.07 -26.43,18.38 -46.96,18.38 -39.33,0 -64.95,-24.73 -64.95,-58.59 0,-34.05 26.04,-58.6 60.72,-58.6 33.44,0 59.23,22.44 59.23,59.02l-0.64 8.89z"/>
   <polygon class="fil4" points="5582.57,5831.24 5582.57,5858.75 5467.88,5858.75 5467.88,5710.66 5579.82,5710.66 5579.82,5738.17 5501.96,5738.17 5501.96,5770.31 5570.72,5770.31 5570.72,5796.98 5501.96,5796.98 5501.96,5831.24 "/>
   <path class="fil4" d="M5799.88 5793.56l0 65.19 -32.98 0 0 -60.11c0,-18.38 -8.26,-26.85 -21.59,-26.85 -14.78,0 -25.15,9.53 -25.15,29.81l0 57.15 -33.02 0 0 -60.11c0,-18.38 -7.84,-26.85 -21.59,-26.85 -14.57,0 -24.95,9.53 -24.95,29.81l0 57.15 -33.02 0 0 -113.8 31.54 0 0 13.08c8.43,-9.73 21.13,-14.81 35.74,-14.81 15.87,0 29.42,6.17 37.43,18.62 9.14,-11.64 23.92,-18.62 41.06,-18.62 27.1,0 46.53,15.66 46.53,50.34z"/>
   <path class="fil4" d="M5897.32 5822.77l0 -11.64 -22.65 0c-15.41,0 -20.28,5.71 -20.28,13.33 0,8.26 6.98,13.76 18.62,13.76 11.01,0 20.5,-5.08 24.31,-15.45zm33.02 -28.96l0 64.94 -30.9 0 0 -14.18c-6.14,10.37 -17.99,15.84 -34.68,15.84 -26.67,0 -42.55,-14.78 -42.55,-34.47 0,-20.07 14.19,-34.04 48.86,-34.04l26.25 0c0,-14.18 -8.47,-22.44 -26.25,-22.44 -12.03,0 -24.51,4.03 -32.77,10.59l-11.85 -23.07c12.49,-8.89 30.9,-13.76 49.07,-13.76 34.71,0 54.82,16.08 54.82,50.59z"/>
   <path class="fil4" d="M5960.22 5744.95l33.02 0 0 113.8 -33.02 0 0 -113.8zm-4.02 -34.29c0,-10.38 8.25,-18.42 20.53,-18.42 12.28,0 20.53,7.62 20.53,17.78 0,11.01 -8.25,19.05 -20.53,19.05 -12.28,0 -20.53,-8.04 -20.53,-18.41z"/>
   <polygon class="fil4" points="6023.93,5858.75 6056.92,5858.75 6056.92,5701.77 6023.93,5701.77 "/>
   <path class="fil4" d="M6236.62 5800.97l-23.49 -56.69 -23.5 56.69 46.99 0zm10.76 26.03l-68.72 0 -13.12 31.75 -35.14 0 66.01 -148.09 33.86 0 66.18 148.09 -35.94 0 -13.13 -31.75z"/>
   <path class="fil4" d="M6392.2 5801.81c0,-19.65 -12.7,-31.5 -28.97,-31.5 -16.51,0 -29.21,11.85 -29.21,31.5 0,19.69 12.7,31.54 29.21,31.54 16.27,0 28.97,-11.85 28.97,-31.54zm32.35 -100.04l0 156.98 -31.51 0 0 -13.12c-8.25,9.95 -20.32,14.78 -35.56,14.78 -32.13,0 -56.86,-22.82 -56.86,-58.6 0,-35.73 24.73,-58.59 56.86,-58.59 13.97,0 25.83,4.44 34.08,13.76l0 -55.21 32.99 0z"/>
   <path class="fil4" d="M6538.67 5801.81c0,-19.65 -12.7,-31.5 -29,-31.5 -16.47,0 -29.17,11.85 -29.17,31.5 0,19.69 12.7,31.54 29.17,31.54 16.3,0 29,-11.85 29,-31.54zm32.35 -100.04l0 156.98 -31.5 0 0 -13.12c-8.26,9.95 -20.32,14.78 -35.56,14.78 -32.14,0 -56.87,-22.82 -56.87,-58.6 0,-35.73 24.73,-58.59 56.87,-58.59 13.97,0 25.82,4.44 34.08,13.76l0 -55.21 32.98 0z"/>
   <path class="fil4" d="M6672.23 5743.22l0 30.48 -7.41 -0.43c-18.2,0 -30.26,9.95 -30.26,31.75l0 53.73 -32.99 0 0 -113.8 31.5 0 0 14.99c8.08,-11.01 21.59,-16.72 39.16,-16.72z"/>
   <path class="fil4" d="M6715.24 5791.9l56.05 0c-2.33,-14.39 -13.12,-23.71 -27.94,-23.71 -14.99,0 -25.79,9.11 -28.11,23.71zm86.53 19.23l-86.11 0c3.17,14.18 15.2,22.86 32.56,22.86 12.07,0 20.74,-3.6 28.58,-11.01l17.56 19.05c-10.58,12.07 -26.45,18.38 -46.99,18.38 -39.33,0 -64.94,-24.73 -64.94,-58.6 0,-34.04 26.03,-58.59 60.75,-58.59 33.4,0 59.19,22.43 59.19,59.05l-0.6 8.86z"/>
   <path class="fil4" d="M6813.45 5848.17l11.01 -23.71c10.16,6.56 25.57,11.01 39.54,11.01 15.24,0 20.96,-4.02 20.96,-10.37 0,-18.59 -68.76,0.42 -68.76,-45.05 0,-21.59 19.47,-36.83 52.67,-36.83 15.66,0 33.02,3.6 43.82,9.95l-11.01 23.49c-11.22,-6.35 -22.44,-8.47 -32.81,-8.47 -14.78,0 -21.17,4.66 -21.17,10.59 0,19.47 68.8,0.63 68.8,45.47 0,21.17 -19.69,36.16 -53.77,36.16 -19.22,0 -38.7,-5.26 -49.28,-12.24z"/>
   <path class="fil4" d="M6925.84 5848.17l11.01 -23.71c10.16,6.56 25.58,11.01 39.55,11.01 15.24,0 20.95,-4.02 20.95,-10.37 0,-18.59 -68.75,0.42 -68.75,-45.05 0,-21.59 19.47,-36.83 52.67,-36.83 15.66,0 33.02,3.6 43.81,9.95l-11.01 23.49c-11.21,-6.35 -22.43,-8.47 -32.8,-8.47 -14.79,0 -21.14,4.66 -21.14,10.59 0,19.47 68.76,0.63 68.76,45.47 0,21.17 -19.68,36.16 -53.76,36.16 -19.23,0 -38.7,-5.26 -49.29,-12.24z"/>
   <path class="fil4" d="M5584.02 6709.79c0,-16.3 -10.58,-25.82 -31.54,-25.82l-27.9 0 0 51.4 27.9 0c20.96,0 31.54,-9.49 31.54,-25.58zm34.68 0c0,32.99 -24.77,53.52 -64.31,53.52l-29.81 0 0 40.82 -34.29 0 0 -148.06 64.1 0c39.54,0 64.31,20.49 64.31,53.72z"/>
   <path class="fil4" d="M5707.42 6768.18l0 -11.64 -22.65 0c-15.41,0 -20.32,5.71 -20.32,13.33 0,8.26 6.99,13.72 18.63,13.72 11.01,0 20.53,-5.04 24.34,-15.41zm32.99 -28.97l0 64.92 -30.87 0 0 -14.15c-6.14,10.34 -17.99,15.84 -34.72,15.84 -26.63,0 -42.51,-14.82 -42.51,-34.47 0,-20.11 14.19,-34.04 48.86,-34.04l26.25 0c0,-14.18 -8.47,-22.44 -26.25,-22.44 -12.06,0 -24.51,3.99 -32.77,10.59l-11.85 -23.08c12.49,-8.89 30.87,-13.75 49.07,-13.75 34.68,0 54.79,16.08 54.79,50.58z"/>
   <path class="fil4" d="M5759.31 6793.58l11.01 -23.71c10.16,6.56 25.61,11.01 39.58,11.01 15.21,0 20.92,-4.02 20.92,-10.37 0,-18.63 -68.75,0.42 -68.75,-45.05 0,-21.59 19.47,-36.83 52.67,-36.83 15.66,0 33.02,3.63 43.81,9.94l-11.01 23.46c-11.21,-6.31 -22.43,-8.43 -32.8,-8.43 -14.79,0 -21.14,4.66 -21.14,10.59 0,19.47 68.76,0.6 68.76,45.47 0,21.17 -19.68,36.16 -53.76,36.16 -19.23,0 -38.7,-5.26 -49.29,-12.24z"/>
   <path class="fil4" d="M5871.71 6793.58l11.01 -23.71c10.16,6.56 25.61,11.01 39.58,11.01 15.2,0 20.92,-4.02 20.92,-10.37 0,-18.63 -68.76,0.42 -68.76,-45.05 0,-21.59 19.47,-36.83 52.67,-36.83 15.66,0 33.02,3.63 43.82,9.94l-11.01 23.46c-11.22,-6.31 -22.44,-8.43 -32.81,-8.43 -14.78,0 -21.13,4.66 -21.13,10.59 0,19.47 68.76,0.6 68.76,45.47 0,21.17 -19.69,36.16 -53.77,36.16 -19.22,0 -38.7,-5.26 -49.28,-12.24z"/>
   <polygon class="fil4" points="6175.77,6690.32 6134.53,6804.13 6102.78,6804.13 6077.2,6733.5 6050.74,6804.13 6019.03,6804.13 5977.97,6690.32 6009.08,6690.32 6035.93,6767.33 6063.87,6690.32 6091.81,6690.32 6118.87,6767.33 6146.56,6690.32 "/>
   <path class="fil4" d="M6271.3 6747.22c0,-19.65 -12.49,-31.5 -29,-31.5 -16.51,0 -29.21,11.85 -29.21,31.5 0,19.69 12.7,31.54 29.21,31.54 16.51,0 29,-11.85 29,-31.54zm-91.62 0c0,-34.29 26.43,-58.59 62.62,-58.59 36.16,0 62.41,24.3 62.41,58.59 0,34.29 -26.25,58.6 -62.41,58.6 -36.19,0 -62.62,-24.31 -62.62,-58.6z"/>
   <path class="fil4" d="M6397.45 6688.63l0 30.44 -7.4 -0.39c-18.21,0 -30.27,9.95 -30.27,31.72l0 53.73 -32.99 0 0 -113.81 31.51 0 0 15.03c8.04,-11.01 21.59,-16.72 39.15,-16.72z"/>
   <path class="fil4" d="M6499.69 6747.22c0,-19.65 -12.7,-31.5 -29,-31.5 -16.47,0 -29.17,11.85 -29.17,31.5 0,19.69 12.7,31.54 29.17,31.54 16.3,0 29,-11.85 29,-31.54zm32.35 -100.04l0 156.95 -31.5 0 0 -13.13c-8.26,9.99 -20.32,14.82 -35.56,14.82 -32.14,0 -56.87,-22.83 -56.87,-58.6 0,-35.77 24.73,-58.59 56.87,-58.59 13.97,0 25.82,4.44 34.07,13.75l0 -55.2 32.99 0z"/>
   <path class="fil6" d="M9383.61 9178.07l-2819.19 0c-93.13,0 -168.66,-75.49 -168.66,-168.62l0 -308.76c0,-93.13 75.53,-168.62 168.66,-168.62l2819.19 0c93.14,-0.04 168.66,75.49 168.66,168.62l0 308.76c0,93.13 -75.52,168.62 -168.66,168.62z"/>
   <path class="fil2" d="M6961.44 8840.47c0,-52.67 40.29,-89.96 95.11,-89.96 31.89,0 57.57,11.6 74.4,32.63l-31.15 28.15c-10.87,-13.12 -24.24,-20.28 -40.78,-20.28 -28.4,0 -48.19,19.79 -48.19,49.46 0,29.59 19.79,49.38 48.19,49.38 16.54,0 29.91,-7.16 40.78,-20.25l31.15 28.19c-16.83,20.96 -42.51,32.56 -74.4,32.56 -54.82,0 -95.11,-37.29 -95.11,-89.88z"/>
   <path class="fil2" d="M7240.06 8790.76l0 42.3c-4.23,-0.53 -7.19,-0.78 -10.65,-0.78 -19.02,0 -32.1,9.67 -32.1,33.13l0 61.52 -46.96 0 0 -133.91 44.73 0 0 16.05c9.64,-12.1 25.19,-18.31 44.98,-18.31z"/>
   <path class="fil2" d="M7296.05 8847.1l54.86 0c-2.47,-14.04 -12.84,-22.97 -27.41,-22.97 -14.57,0 -24.7,8.93 -27.45,22.97zm98.11 24.73l-97.37 0c3.95,13.58 15.59,21.52 32.88,21.52 13.09,0 21.73,-3.74 30.9,-11.61l24.7 25.65c-12.84,14.32 -31.65,21.76 -57.08,21.76 -47.7,0 -78.57,-29.42 -78.57,-69.42 0,-40.29 31.37,-68.97 73.63,-68.97 39.54,0 71.65,25.22 71.65,69.46 0,3.46 -0.5,7.9 -0.74,11.61z"/>
   <path class="fil2" d="M7491.42 8883.93l0 -11.61 -20.25 0c-15.07,0 -20.5,5.43 -20.5,13.58 0,7.91 6.42,13.59 17.53,13.59 10.38,0 19.51,-4.94 23.22,-15.56zm46.95 -31.4l0 74.4 -43.74 0 0 -17.29c-6.67,12.85 -20,19.51 -39.51,19.51 -32.14,0 -49.92,-18.02 -49.92,-41.27 0,-24.7 18.03,-40.01 59.55,-40.01l26.67 0c-0.74,-13.58 -9.88,-21.27 -28.4,-21.27 -12.84,0 -27.2,4.45 -36.34,11.61l-15.8 -31.86c15.31,-10.12 38.03,-15.59 59.05,-15.59 43.5,0 68.44,19.3 68.44,61.77z"/>
   <path class="fil2" d="M7660.36 8921.46c-8.18,5.22 -20.28,7.69 -32.63,7.69 -34.36,0 -54.36,-16.79 -54.36,-51.15l0 -44.94 -19.51 0 0 -35.1 19.51 0 0 -34.86 46.95 0 0 34.86 30.62 0 0 35.1 -30.62 0 0 44.45c0,9.87 5.68,15.31 14.08,15.31 5.18,0 10.37,-1.48 14.32,-4.2l11.64 32.84z"/>
   <path class="fil2" d="M7712.4 8847.1l54.89 0c-2.47,-14.04 -12.84,-22.97 -27.41,-22.97 -14.64,0 -24.77,8.93 -27.48,22.97zm98.11 24.73l-97.34 0c3.95,13.58 15.56,21.52 32.85,21.52 13.09,0 21.76,-3.74 30.87,-11.61l24.73 25.65c-12.85,14.32 -31.65,21.76 -57.08,21.76 -47.66,0 -78.57,-29.42 -78.57,-69.42 0,-40.29 31.36,-68.97 73.63,-68.97 39.54,0 71.65,25.22 71.65,69.46 0,3.46 -0.5,7.9 -0.74,11.61z"/>
   <path class="fil2" d="M8008.52 8857.26l-22.26 -55.35 -22.19 55.35 44.45 0zm14.36 36.09l-73.17 0 -13.58 33.58 -49.88 0 76.34 -172.97 48.15 0 76.59 172.97 -50.91 0 -13.54 -33.58z"/>
   <path class="fil2" d="M8089.2 8859.73c0,-40.29 31.89,-68.97 76.83,-68.97 30.38,0 53.63,13.62 62.76,36.83l-36.33 18.55c-6.42,-12.62 -15.81,-18.06 -26.67,-18.06 -16.3,0 -29.14,11.36 -29.14,31.65 0,20.74 12.84,32.13 29.14,32.13 10.86,0 20.25,-5.46 26.67,-18.06l36.33 18.52c-9.13,23.25 -32.38,36.83 -62.76,36.83 -44.94,0 -76.83,-28.64 -76.83,-69.42z"/>
   <path class="fil2" d="M8236.66 8859.73c0,-40.29 31.86,-68.97 76.84,-68.97 30.37,0 53.58,13.62 62.75,36.83l-36.33 18.55c-6.42,-12.62 -15.81,-18.06 -26.67,-18.06 -16.3,0 -29.14,11.36 -29.14,31.65 0,20.74 12.84,32.13 29.14,32.13 10.86,0 20.25,-5.46 26.67,-18.06l36.33 18.52c-9.17,23.25 -32.38,36.83 -62.75,36.83 -44.98,0 -76.84,-28.64 -76.84,-69.42z"/>
   <path class="fil2" d="M8487.84 8859.73c0,-20.29 -12.14,-31.65 -28.19,-31.65 -15.8,0 -28.15,11.36 -28.15,31.65 0,20.53 12.35,32.13 28.15,32.13 16.05,0 28.19,-11.6 28.19,-32.13zm-103.75 0c0,-40.29 31.85,-68.97 75.56,-68.97 44.24,0 75.64,28.68 75.64,68.97 0,40.5 -31.4,69.42 -75.64,69.42 -43.71,0 -75.56,-28.92 -75.56,-69.42z"/>
   <path class="fil2" d="M8697.74 8793.02l0 133.91 -44.7 0 0 -14.32c-10.12,11.11 -24.48,16.54 -39.75,16.54 -32.88,0 -56.84,-18.8 -56.84,-61.27l0 -74.86 46.96 0 0 67.2c0,20.74 8.11,28.89 22.19,28.89 13.86,0 25.22,-9.13 25.22,-31.61l0 -64.48 46.92 0z"/>
   <path class="fil2" d="M8870.39 8850.34l0 76.59 -46.95 0 0 -68.93c0,-19.26 -8.4,-27.45 -21.98,-27.45 -15.1,0 -26.71,9.42 -26.71,31.65l0 64.73 -46.95 0 0 -133.91 44.77 0 0 14.57c10.58,-11.12 25.64,-16.83 42.47,-16.83 31.36,0 55.35,18.06 55.35,59.58z"/>
   <path class="fil2" d="M8992.1 8921.46c-8.15,5.22 -20.25,7.69 -32.63,7.69 -34.33,0 -54.37,-16.79 -54.37,-51.15l0 -44.94 -19.47 0 0 -35.1 19.47 0 0 -34.86 46.96 0 0 34.86 30.66 0 0 35.1 -30.66 0 0 44.45c0,9.87 5.71,15.31 14.11,15.31 5.15,0 10.37,-1.48 14.32,-4.2l11.61 32.84z"/>
   <path class="fil4" d="M7982.1 4814.07l0 -82.94 34.29 0 0 81.67c0,28.15 12.27,39.79 32.98,39.79 20.92,0 32.99,-11.64 32.99,-39.79l0 -81.67 33.86 0 0 82.94c0,43.57 -24.97,67.7 -67.06,67.7 -42.12,0 -67.06,-24.13 -67.06,-67.7z"/>
   <path class="fil4" d="M8136.82 4868.65l11.01 -23.71c10.16,6.56 25.58,11.01 39.55,11.01 15.24,0 20.92,-3.99 20.92,-10.38 0,-18.59 -68.72,0.46 -68.72,-45.05 0,-21.55 19.47,-36.79 52.67,-36.79 15.66,0 33.02,3.6 43.78,9.95l-11.01 23.46c-11.18,-6.35 -22.4,-8.43 -32.77,-8.43 -14.82,0 -21.14,4.62 -21.14,10.54 0,19.48 68.73,0.64 68.73,45.48 0,21.16 -19.69,36.19 -53.73,36.19 -19.23,0 -38.7,-5.29 -49.29,-12.27z"/>
   <path class="fil4" d="M8284.53 4812.38l56.09 0c-2.32,-14.4 -13.12,-23.67 -27.94,-23.67 -14.99,0 -25.78,9.06 -28.15,23.67zm86.57 19.26l-86.11 0c3.18,14.18 15.24,22.82 32.56,22.82 12.07,0 20.75,-3.59 28.58,-11l17.57 19.05c-10.59,12.06 -26.46,18.41 -46.96,18.41 -39.37,0 -64.95,-24.76 -64.95,-58.59 0,-34.08 26,-58.6 60.68,-58.6 33.45,0 59.23,22.4 59.23,59.02l-0.6 8.89z"/>
   <path class="fil4" d="M8464.45 4763.73l0 30.44 -7.41 -0.42c-18.17,0 -30.23,9.95 -30.23,31.75l0 53.73 -33.02 0 0 -113.81 31.54 0 0 15.03c8,-11.01 21.55,-16.72 39.12,-16.72z"/>
   <path class="fil4" d="M8600.52 4814.07l0 65.16 -32.99 0 0 -60.08c0,-18.41 -8.47,-26.88 -23.07,-26.88 -15.88,0 -27.31,9.74 -27.31,30.69l0 56.27 -32.98 0 0 -113.81 31.5 0 0 13.3c8.89,-9.73 22.23,-14.99 37.68,-14.99 26.85,0 47.17,15.63 47.17,50.34z"/>
   <path class="fil4" d="M8698.13 4843.25l0 -11.61 -22.61 0c-15.46,0 -20.32,5.68 -20.32,13.3 0,8.25 6.98,13.76 18.62,13.76 10.97,0 20.53,-5.08 24.31,-15.45zm33.02 -28.97l0 64.95 -30.87 0 0 -14.18c-6.17,10.37 -17.99,15.87 -34.75,15.87 -26.63,0 -42.51,-14.81 -42.51,-34.5 0,-20.07 14.22,-34.04 48.9,-34.04l26.21 0c0,-14.18 -8.47,-22.44 -26.21,-22.44 -12.07,0 -24.56,4.02 -32.81,10.58l-11.85 -23.03c12.48,-8.89 30.9,-13.76 49.1,-13.76 34.68,0 54.79,16.09 54.79,50.55z"/>
   <path class="fil4" d="M8953.33 4814.07l0 65.16 -33.02 0 0 -60.08c0,-18.41 -8.22,-26.88 -21.56,-26.88 -14.81,0 -25.18,9.52 -25.18,29.84l0 57.12 -33.02 0 0 -60.08c0,-18.41 -7.8,-26.88 -21.56,-26.88 -14.6,0 -24.98,9.52 -24.98,29.84l0 57.12 -33.02 0 0 -113.81 31.54 0 0 13.09c8.47,-9.7 21.17,-14.78 35.77,-14.78 15.84,0 29.39,6.14 37.43,18.59 9.11,-11.61 23.92,-18.59 41.03,-18.59 27.1,0 46.57,15.63 46.57,50.34z"/>
   <path class="fil4" d="M9008.64 4812.38l56.1 0c-2.37,-14.4 -13.13,-23.67 -27.94,-23.67 -15.03,0 -25.83,9.06 -28.16,23.67zm86.54 19.26l-86.08 0c3.14,14.18 15.21,22.82 32.53,22.82 12.06,0 20.74,-3.59 28.57,-11l17.57 19.05c-10.58,12.06 -26.46,18.41 -46.95,18.41 -39.34,0 -64.95,-24.76 -64.95,-58.59 0,-34.08 26,-58.6 60.71,-58.6 33.41,0 59.24,22.4 59.24,59.02l-0.64 8.89z"/>
   <path class="fil4" d="M5490 4354.65c687.81,0 1375.66,0 2063.47,0 5.68,0 5.68,-8.82 0,-8.82 -687.81,0 -1375.66,0 -2063.47,0 -5.68,0 -5.68,8.82 0,8.82z"/>
   <path class="fil4" d="M8165.26 4354.65c687.81,0 1375.66,0 2063.47,0 5.68,0 5.68,-8.82 0,-8.82 -687.81,0 -1375.66,0 -2063.47,0 -5.68,0 -5.68,8.82 0,8.82z"/>
   <path class="fil4" d="M7852.13 4332.14c0,-30.69 -22.96,-53.3 -53.69,-53.3 -31.08,0 -54.08,22.61 -54.08,53.3 0,30.69 23,53.27 54.08,53.27 30.73,0 53.69,-22.58 53.69,-53.27zm-127.56 0c0,-40.64 31.29,-70.94 73.87,-70.94 42.19,0 73.52,30.13 73.52,70.94 0,40.78 -31.33,70.91 -73.52,70.91 -42.58,0 -73.87,-30.3 -73.87,-70.91z"/>
   <path class="fil4" d="M7955.96 4295.49l0 18.41 -4.38 -0.21c-20.39,0 -33.05,12.49 -33.05,35.49l0 52.28 -19.05 0 0 -104.98 18.23 0 0 17.63c6.71,-12.31 19.83,-18.62 38.25,-18.62z"/>
   <path class="fil3" d="M7623.18 5490.42l-2062.2 0c-61.1,0 -110.63,-49.53 -110.63,-110.67l0 -226.02c0,-61.14 49.53,-110.67 110.63,-110.67l2062.2 0c61.1,0 110.67,49.53 110.67,110.67l0 226.02c0,61.14 -49.57,110.67 -110.67,110.67z"/>
   <path class="fil3" d="M10096.79 6440.27l-4535.81 0.04c-61.1,0 -110.63,-49.57 -110.63,-110.67l0 -226.06c0,-61.1 49.53,-110.63 110.63,-110.63l4535.81 -0.04c61.1,0 110.63,49.57 110.63,110.67l0 226.06c0,61.1 -49.53,110.63 -110.63,110.63z"/>
   <path class="fil3" d="M10096.79 7392.67l-4535.81 0c-61.1,0 -110.63,-49.53 -110.63,-110.67l0 -226.03c0,-61.13 49.53,-110.66 110.63,-110.66l4535.81 0c61.1,0 110.63,49.53 110.63,110.66l0 226.03c0,61.14 -49.53,110.67 -110.63,110.67z"/>
   <path class="fil3" d="M10096.79 5490.42l-2020.33 0c-61.1,0 -110.66,-49.53 -110.66,-110.67l0 -226.02c0,-61.14 49.56,-110.67 110.66,-110.67l2020.33 0c61.1,0 110.63,49.53 110.63,110.67l0 226.02c0,61.14 -49.53,110.67 -110.63,110.67z"/>
   <path class="fil6" d="M5658.17 7835.54l-116.41 0c-19.34,0 -35,-15.66 -35,-34.99l0 -116.42c0,-19.33 15.66,-35 35,-35l116.41 0c19.33,0 35,15.67 35,35l0 116.42c0,19.33 -15.67,34.99 -35,34.99z"/>
   <path class="fil0" d="M9994.73 7822.81l-4099.67 0c-37.96,0 -68.75,-30.77 -68.75,-68.72 0,-37.96 30.79,-68.73 68.75,-68.73l4099.67 0c37.96,0 68.76,30.77 68.76,68.73 0,37.95 -30.8,68.72 -68.76,68.72z"/>
   <path class="fil0" d="M6569.54 8079.91l-653.42 0c-37.96,0 -68.72,-30.76 -68.72,-68.72 0,-37.96 30.76,-68.72 68.72,-68.72l653.42 0c37.96,0 68.72,30.76 68.72,68.72l0 0c0,37.96 -30.76,68.72 -68.72,68.72z"/>
   <path class="fil3" d="M10073.89 3916.6l-4448.1 0c-85.34,0 -154.52,-69.18 -154.52,-154.51l0 -277.81c0,-85.31 69.18,-154.49 154.52,-154.49l4448.1 0c85.3,0 154.48,69.18 154.48,154.49l0 277.81c0,85.33 -69.18,154.51 -154.48,154.51z"/>
   <path class="fil4" d="M6949.87 3668.39l7.83 -16.51c11.01,9.95 29.85,17.15 48.86,17.15 25.61,0 36.62,-9.95 36.62,-22.86 0,-36.16 -89.71,-13.34 -89.71,-68.34 0,-22.82 17.78,-42.3 56.69,-42.3 17.35,0 35.35,4.66 47.62,13.13l-6.98 16.93c-12.91,-8.25 -27.52,-12.06 -40.64,-12.06 -25.15,0 -35.95,10.58 -35.95,23.46 0,36.19 89.68,13.54 89.68,67.91 0,22.64 -18.17,42.12 -57.33,42.12 -22.61,0 -44.84,-7.62 -56.69,-18.63z"/>
   <path class="fil4" d="M7091.9 3573.21l20.32 0 0 112.11 -20.32 0 0 -112.11zm-3.6 -34.71c0,-7.41 5.93,-13.34 13.76,-13.34 7.83,0 13.76,5.72 13.76,12.91 0,7.62 -5.72,13.55 -13.76,13.55 -7.83,0 -13.76,-5.71 -13.76,-13.12z"/>
   <path class="fil4" d="M7238.33 3626.3c0,-21.8 -16.08,-36.4 -38.52,-36.4 -22.65,0 -38.7,14.6 -38.7,36.4 0,21.56 16.05,36.59 38.7,36.59 22.44,0 38.52,-15.03 38.52,-36.59zm19.87 -53.09l0 96.87c0,39.55 -20.11,57.54 -58.18,57.54 -20.49,0 -41.24,-5.71 -53.51,-16.72l9.73 -15.66c10.38,8.89 26.64,14.64 43.15,14.64 26.46,0 38.52,-12.32 38.52,-37.68l0 -8.89c-9.74,11.64 -24.34,17.36 -40.43,17.36 -32.35,0 -56.9,-22.02 -56.9,-54.37 0,-32.38 24.55,-54.15 56.9,-54.15 16.72,0 31.96,6.14 41.49,18.38l0 -17.32 19.23 0z"/>
   <path class="fil4" d="M7403.4 3620.8l0 64.52 -20.32 0 0 -62.19c0,-22.01 -11.01,-32.81 -30.23,-32.81 -21.59,0 -35.53,12.91 -35.53,37.25l0 57.75 -20.32 0 0 -112.11 19.44 0 0 16.9c8.25,-11.43 22.65,-17.96 40.43,-17.96 27.27,0 46.53,15.63 46.53,48.65z"/>
   <path class="fil4" d="M7602.58 3573.21l0 112.11 -19.23 0 0 -16.93c-8.25,11.64 -22.22,18.2 -38.1,18.2 -28.96,0 -48.22,-15.87 -48.22,-48.86l0 -64.52 20.28 0 0 62.2c0,21.97 11.01,32.98 30.27,32.98 21.17,0 34.71,-13.12 34.71,-37.22l0 -57.96 20.29 0z"/>
   <path class="fil4" d="M7736.99 3629.23c0,-23.67 -16.27,-39.33 -37.86,-39.33 -21.38,0 -37.67,15.66 -37.67,39.33 0,23.92 16.29,39.58 37.67,39.58 21.59,0 37.86,-15.66 37.86,-39.58zm20.53 0c0,34.5 -23.89,57.36 -56.69,57.36 -15.88,0 -29.85,-6.13 -39.13,-18.2l0 57.96 -20.32 0 0 -153.14 19.44 0 0 17.75c9.14,-12.49 23.5,-18.81 40.01,-18.81 32.8,0 56.69,22.83 56.69,57.08z"/>
   <polygon class="fil4" points="8012.33,3573.21 7970.42,3685.32 7950.95,3685.32 7918.56,3600.27 7885.79,3685.32 7866.35,3685.32 7824.69,3573.21 7843.95,3573.21 7876.51,3662.46 7910.34,3573.21 7927.45,3573.21 7960.68,3662.89 7994.09,3573.21 "/>
   <path class="fil4" d="M8032.97 3573.21l20.28 0 0 112.11 -20.28 0 0 -112.11zm-3.64 -34.71c0,-7.41 5.93,-13.34 13.8,-13.34 7.79,0 13.72,5.72 13.72,12.91 0,7.62 -5.72,13.55 -13.72,13.55 -7.87,0 -13.8,-5.71 -13.8,-13.12z"/>
   <path class="fil4" d="M8155.06 3678.76c-6.14,5.29 -15.48,7.83 -24.59,7.83 -22.61,0 -35.52,-12.48 -35.52,-35.13l0 -61.56 -19.05 0 0 -16.69 19.05 0 0 -24.55 20.32 0 0 24.55 32.17 0 0 16.69 -32.17 0 0 60.71c0,12.07 6.31,18.84 17.57,18.84 5.92,0 11.64,-1.91 15.84,-5.29l6.38 14.6z"/>
   <path class="fil4" d="M8286.01 3620.8l0 64.52 -20.32 0 0 -62.19c0,-22.01 -10.97,-32.81 -30.23,-32.81 -21.55,0 -35.56,12.91 -35.56,37.25l0 57.75 -20.28 0 0 -156.98 20.28 0 0 60.71c8.47,-10.76 22.44,-16.9 39.58,-16.9 27.31,0 46.53,15.63 46.53,48.65z"/>
   <path class="fil4" d="M8486.25 3610.43l20.29 0 0 57.75c-14.75,12.49 -35.32,18.84 -56.03,18.84 -45.47,0 -78.91,-31.96 -78.91,-75.74 0,-43.82 33.44,-75.75 79.3,-75.75 23.5,0 43.39,7.84 56.94,22.86l-13.09 13.13c-12.31,-11.86 -26.28,-17.15 -42.97,-17.15 -34.29,0 -59.02,23.92 -59.02,56.91 0,32.56 24.73,56.9 58.81,56.9 12.46,0 24.1,-2.75 34.68,-9.53l0 -48.22z"/>
   <path class="fil4" d="M8629.8 3629.23c0,-23.88 -16.09,-39.33 -37.68,-39.33 -21.59,0 -37.85,15.45 -37.85,39.33 0,23.92 16.26,39.58 37.85,39.58 21.59,0 37.68,-15.66 37.68,-39.58zm-96.07 0c0,-33.41 24.73,-57.08 58.39,-57.08 33.62,0 58.17,23.67 58.17,57.08 0,33.45 -24.55,57.36 -58.17,57.36 -33.66,0 -58.39,-23.91 -58.39,-57.36z"/>
   <path class="fil4" d="M8764.2 3629.23c0,-23.88 -16.08,-39.33 -37.64,-39.33 -21.62,0 -37.85,15.45 -37.85,39.33 0,23.92 16.23,39.58 37.85,39.58 21.56,0 37.64,-15.66 37.64,-39.58zm-96.02 0c0,-33.41 24.73,-57.08 58.38,-57.08 33.62,0 58.14,23.67 58.14,57.08 0,33.45 -24.52,57.36 -58.14,57.36 -33.65,0 -58.38,-23.91 -58.38,-57.36z"/>
   <path class="fil4" d="M8900.31 3626.3c0,-21.8 -16.09,-36.4 -38.53,-36.4 -22.65,0 -38.7,14.6 -38.7,36.4 0,21.56 16.05,36.59 38.7,36.59 22.44,0 38.53,-15.03 38.53,-36.59zm19.86 -53.09l0 96.87c0,39.55 -20.08,57.54 -58.18,57.54 -20.49,0 -41.24,-5.71 -53.51,-16.72l9.7 -15.66c10.37,8.89 26.67,14.64 43.18,14.64 26.46,0 38.52,-12.32 38.52,-37.68l0 -8.89c-9.73,11.64 -24.37,17.36 -40.43,17.36 -32.38,0 -56.9,-22.02 -56.9,-54.37 0,-32.38 24.52,-54.15 56.9,-54.15 16.73,0 31.97,6.14 41.46,18.38l0 -17.32 19.26 0z"/>
   <polygon class="fil4" points="8958.97,3685.32 8979.26,3685.32 8979.26,3528.34 8958.97,3528.34 "/>
   <path class="fil4" d="M9027.94 3621.44l71.93 0c-2.11,-18.84 -16.3,-32.18 -35.98,-32.18 -19.44,0 -33.83,13.13 -35.95,32.18zm90.98 14.57l-90.98 0c2.54,19.68 18.42,32.8 40.61,32.8 13.12,0 24.13,-4.44 32.38,-13.54l11.18 13.12c-10.12,11.85 -25.57,18.2 -44.16,18.2 -36.2,0 -60.29,-23.91 -60.29,-57.36 0,-33.19 23.88,-57.08 56.23,-57.08 32.38,0 55.46,23.25 55.46,57.72l-0.43 6.14z"/>
   <path class="fil4" d="M6670.33 3623.45l0 33.09 81.17 0c-7.02,28.68 -32.67,46.63 -67.98,46.63 -45.33,0 -78.24,-32.28 -78.28,-76.8 0,-25.57 12.95,-49.91 34.36,-63.92 34.29,-22.47 75.49,-13.83 97.01,10.73 5.47,6.27 14.33,8.32 21.59,4.19 9.14,-5.22 11.75,-17.71 4.8,-25.61 -19.75,-22.36 -49.1,-35.7 -80.61,-35.7 -63.32,0 -111.09,47.41 -111.09,110.24 0,62.87 48.23,110.25 112.22,110.25 60.15,0 103.82,-40.4 103.82,-96.03l0 -17.07 -117.01 0z"/>
   <path class="fil6" d="M11084.49 1750.16c0,204.01 -165.38,369.43 -369.42,369.43 -204.02,0 -369.4,-165.42 -369.4,-369.43 0,-204.05 165.38,-369.43 369.4,-369.43 204.04,0 369.42,165.38 369.42,369.43z"/>
   <polygon class="fil2" points="10620.2,1899.56 10565.7,1845.06 10809.96,1600.76 10864.47,1655.26 "/>
   <polygon class="fil2" points="10864.47,1845.06 10809.96,1899.56 10565.7,1655.26 10620.2,1600.76 "/>
   <path class="fil2" d="M2613.51 11502.46l-228.95 -27.63c-144.94,96.81 -320.63,151.91 -510.56,147.14 -448.01,-11.25 -820.79,-368.33 -852.25,-815.37 -36.34,-516.54 378.57,-953.56 900.08,-940.12 442.74,11.4 812.48,360.12 850.46,801.34 18.85,219 -43.76,424.18 -161.3,587.9l0.38 -0.31 2.14 247.05z"/>
   <path class="fil4" d="M2613.51 11502.46c0,0 -0.43,-5.86 -0.73,-16.69 -0.28,-11.44 -0.67,-27.27 -1.16,-47.76 -0.81,-42.23 -1.97,-103.48 -3.46,-182.6l5.24 2.47 -0.37 0.31 -4.54 -0.42 -0.12 -3.95c62.34,-88.51 131.5,-219.82 154.05,-391.23 11.53,-85.23 10.16,-179.32 -7.34,-277.14 -18.32,-97.65 -55.37,-198.44 -113.43,-293.37 -58.43,-94.58 -138.38,-182.64 -237.05,-253.58 -98.49,-70.63 -215.59,-125.7 -344.07,-148.66 -127.88,-24.03 -265.48,-19.23 -398.05,17.18 -132.96,35.56 -258.74,107.88 -362.56,206.37 -53.94,48.62 -97.34,106.54 -137.21,165.21 -17.69,30.73 -35.9,61.21 -51.01,92.89l-20.77 48.29 -10.23 24.1 -7.77 24.94c-44.08,131.94 -53.92,270.65 -36.05,400.79 17.27,130.7 68.32,251.07 135.48,353.16 67.64,102.24 153.51,186.02 246.58,248.32 93.42,61.99 193.49,102.83 290.89,124.81 24.59,4.31 48.79,8.55 72.56,12.73 23.85,3.62 47.68,4.14 70.86,6.33 46.46,3.56 91.52,1.41 134.37,-2.55 172.4,-17 305.66,-81.52 395.19,-140.19l2.12 -0.49c72.84,9.56 129.51,17.05 168.73,22.19 18.96,2.61 33.68,4.62 44.35,6.07 10.06,1.45 15.5,2.47 15.5,2.47 0,0 -4.7,-0.22 -14.47,-1.18 -10.51,-1.08 -25.05,-2.6 -43.77,-4.54 -39.77,-4.37 -97.23,-10.7 -171.08,-18.8l2.11 -0.49c-89.37,60.22 -223.34,126.71 -397.63,145.06 -43.33,4.3 -88.89,6.77 -135.96,3.42 -23.5,-2.06 -47.64,-2.47 -71.83,-6 -24.12,-4.09 -48.67,-8.29 -73.61,-12.52 -98.85,-21.77 -200.57,-62.76 -295.62,-125.35 -94.69,-62.82 -182.19,-147.63 -251.21,-251.35 -68.55,-103.54 -120.75,-225.92 -138.58,-358.92 -18.44,-132.39 -8.58,-273.54 36.19,-407.95l7.89 -25.36 10.38 -24.56c7.03,-16.36 14.07,-32.77 21.14,-49.21 15.36,-32.24 33.86,-63.29 51.88,-94.58 40.53,-59.79 84.77,-118.74 139.66,-168.24 105.72,-100.29 233.83,-173.85 369.25,-209.97 135.04,-36.97 274.98,-41.66 405.15,-17 130.69,23.6 249.71,79.9 349.6,151.94 100.08,72.35 181,162.06 239.95,258.3 58.58,96.59 95.72,199.04 113.8,298.1 17.25,99.34 18.08,194.55 5.84,280.7 -23.98,173.29 -95.07,305.3 -158.98,393.63l-4.65 -4.37 0.39 -0.32 4.52 0.42 0.73 2.05c-0.13,79.97 -0.22,141.92 -0.29,184.61 -0.15,20.17 -0.26,35.77 -0.35,46.99 -0.12,10.47 -0.45,15.49 -0.45,15.49z"/>
   <polygon class="fil6" points="1509.82,10798.03 1619.81,10680.27 1846.05,10867.99 2263,10438.55 2372.62,10548.79 1837.26,11088.15 "/>
   <path class="fil4" d="M4017.51 8810.37c21.69,-69.14 77.72,-126.57 146.3,-149.96 27.9,-9.53 60.5,-15.7 76.58,-40.43 11.47,-17.67 11.12,-40.25 16.13,-60.75 15.45,-62.9 91.82,-102.8 152.25,-79.52 14.89,5.72 29.11,14.68 45.02,15.1 64.42,1.8 73.98,-122.02 138.36,-119.55 -17.46,21.06 -32.99,45.47 -35.14,72.74 -2.15,27.31 12.95,57.47 39.34,64.66 68.51,18.7 101.28,-113.98 171.69,-105.16 38,4.76 65.9,51.75 103.26,43.46 14.47,-3.17 25.61,-14.25 38.1,-22.19 42.05,-26.6 104.6,-12.24 130.81,30.02 22.44,36.13 25.97,91.9 66.89,103.37 25.36,7.12 50.9,-8.54 72.56,-23.5 16.59,35.14 24.98,74.09 24.35,112.93 79.27,5.22 145.76,84.35 137.23,163.33 41.7,8.89 84.45,18.56 119.62,42.65 35.14,24.1 61.28,66.33 53.87,108.27 -1.69,9.56 -5.08,19.02 -4.05,28.68 1.09,10.41 7.16,19.62 13.58,27.91 24.66,32.07 57.15,58.91 73.83,95.78 16.66,36.83 9.18,89.85 -28.57,104.42 -8.78,3.39 -19.47,5.11 -24.31,13.19 -3.67,6.14 -2.57,13.9 -0.67,20.75 7.8,28.01 27.03,51.11 43.22,75.28 16.19,24.16 30.16,52.6 25.22,81.24 -4.94,28.65 -36.97,53.41 -63.25,40.96 30.09,35.39 60.18,70.77 90.27,106.15 17.93,21.03 37.01,47.66 28.12,73.84 -11.64,34.25 -61.95,36.3 -92.74,17.32 -30.84,-19.01 -52.22,-50.87 -83.51,-69.04 -12.8,-7.41 -27.16,-12.49 -38.17,-22.36 -8.68,-7.84 -15.7,-18.81 -27.06,-21.52 -22.82,-5.47 -36.79,29.45 -24.34,49.35 12.46,19.93 36.94,27.76 58.25,37.68 21.27,9.94 43.42,28.01 41.48,51.4 -0.88,11.32 -7.51,21.62 -8.11,32.95 -2.15,39.19 57.64,47.06 79.97,79.34 16.51,23.84 9.14,56.26 -0.35,83.67 -11.61,33.45 -46.32,72.85 -74.36,51.3 -9.74,-7.48 -13.87,-20.32 -22.69,-28.86 -10.3,-10.02 -25.36,-12.81 -39.19,-16.79 -34.33,-9.91 -65.58,-30.13 -88.69,-57.36 42.97,20 92.6,49.99 92.18,97.36 -0.14,19.83 -9.63,38.17 -15.73,57.01 -11.93,37.01 -10.97,77.15 -22.4,114.34 -11.43,37.15 -42.23,73.73 -81.04,71.58 26.95,28.32 31.22,75.6 9.77,108.3 -21.44,32.7 -66.53,47.59 -103.25,34.11 -10.06,-3.7 -20.04,-9.35 -30.73,-8.57 -11.54,0.85 -21.03,8.93 -30.34,15.77 -55.84,41.17 -135.57,46.99 -196.78,14.36 8.61,-8.75 17.22,-17.5 25.86,-26.25 -65.23,21.98 -133.46,44.27 -201.54,34.26 -68.09,-10.02 -135.12,-63.43 -135.82,-132.23 -0.32,-29.84 9.59,-65.44 -12.56,-85.4 -15.24,-13.8 -38.45,-12.24 -58.88,-9.88 -85.44,9.98 -170.88,19.93 -256.33,29.88 -41.48,4.83 -85.48,9.31 -123.26,-8.4 -37.82,-17.71 -64.27,-66.46 -43.21,-102.51 -33.34,-25.55 -74.05,-41.31 -115.89,-44.98 -47.03,-4.06 -94.19,6.84 -141.36,4.9 -47.17,-1.94 -98.95,-21.7 -116.94,-65.33 -18.03,-43.64 24.37,-104.88 68.54,-88.3 -36.94,-60.93 -152.47,-9.39 -193.15,-67.88 -33.02,-47.55 19.69,-106.36 34.29,-162.38 -15.62,-14.47 -39.47,-17.01 -55.52,-31.01 -33.69,-29.39 -13.34,-85.13 14.46,-120.12 27.8,-35 63.47,-74.12 53.13,-117.62 -10.58,-44.48 -67.13,-72.99 -62.97,-118.53 2.33,-25.23 27.23,-46.15 52.49,-44.06 -6.7,-87.74 158.65,-100.02 165.74,-187.75 0.56,-6.95 -0.14,-14.32 -3.99,-20.11 -3.32,-5.01 -8.64,-8.36 -14.08,-10.97 -25.78,-12.31 -55.73,-11.04 -83.71,-16.86 -27.97,-5.83 -57.89,-23.82 -60.43,-52.29 -2.54,-28.43 43.36,-49.88 55.39,-23.99 14.64,-36.05 68.96,-47.55 96.97,-20.49 7.2,-30.16 42.09,-46.85 72.99,-44.31 30.91,2.5 58.6,19.26 84.99,35.59l2.01 -17.99z"/>
   <path class="fil6" d="M4762.29 9451.9c-76.51,-92.6 -197.09,-137.23 -315.45,-157.9 -49.6,-8.68 -101.71,-13.66 -149.47,2.25 -47.77,15.95 -90.1,57.61 -92.43,107.95l44.73 71.41c52,123.4 195.09,175.61 295.98,263.63 43.89,38.27 89.26,88.05 147.36,83.96 30.44,-2.15 58.03,-19.79 79.06,-41.95 82.72,-87.1 66.74,-236.75 -9.78,-329.35z"/>
   <path class="fil4" d="M5056.97 9994.33c20.39,-123.82 -63.04,-256.26 -183.52,-291.32 14.04,-77.54 -46.46,-152.97 -119.27,-183.13 -72.81,-30.16 -154.66,-25.93 -233.33,-21.2 -119.94,-140.37 -358.38,-156.32 -496,-33.23 -147.39,-76.84 -333.06,-1.59 -451.66,114.9 -28.97,28.47 -56.32,59.83 -92.18,78.88 -26.29,13.97 -55.78,20.56 -83.67,31.04 -153.36,57.57 -241.25,234.53 -225.53,397.58 2.51,26.07 7.23,52.42 2.89,78.28 -5.69,33.87 -26.29,63.08 -40.33,94.44 -30.39,67.81 -29.18,149.02 3.19,215.87 27.51,56.79 76.86,106.25 80.55,169.26 1.86,31.57 -8.36,63.39 -3.35,94.61 14.54,90.53 141.03,123.09 167.9,210.75 5.49,17.89 6.29,36.83 10.31,55.11 8.27,37.36 30.56,71.44 61.52,93.91 23.86,17.39 53.59,29.03 69.06,54.18 11.75,19.09 13.05,42.55 19.51,64 15.7,52.49 215.72,180.06 270.4,183.83l1227.14 -644.98c82.3,-68.48 112.61,-192.66 71.05,-291.36 -6.92,-16.41 -15.77,-33.48 -12.74,-51.01 2.58,-14.96 13.34,-26.92 21.7,-39.59 55.95,-84.45 7.48,-197.52 -48.54,-281.94 -7.87,-11.81 -15.98,-23.84 -19.33,-37.64 -4.91,-20.03 0.88,-40.88 4.23,-61.24z"/>
   <path class="fil7" d="M4708.04 10183.98c-112.5,-218.05 -381.43,-393.63 -652.89,-383.99 -171.13,6.06 -276.97,62.33 -352.57,92.25 -169.36,67.02 -255.58,215.12 -255.58,215.12 -58.83,51.93 -184.19,410.32 -65.36,662.27 132,279.93 304.22,616.51 447.49,800.7 288.11,370.39 627.66,250.65 627.66,250.65l151.34 313.38 423.97 359.09 377.79 -615.99 82.37 -133.07 -784.22 -1560.41z"/>
   <path class="fil8" d="M4370.99 11188.8c-12.45,-18.98 -32.35,-31.5 -52.63,-36.9 -40.61,-10.76 -83.75,7.06 -104.32,43.11 -20.53,36.02 -7.09,73.98 18.2,111.65 28.69,15.42 52.71,32.78 83.19,21.24 4.73,-1.8 9.38,-3.84 13.9,-6.14 21.91,-11.25 40.85,-29.63 49.92,-54.11 9.03,-24.49 7.05,-55.42 -8.26,-78.85z"/>
   <path class="fil4" d="M3689.67 11047.65c14.18,28.05 49.6,39.16 79.13,24.88 29.49,-14.22 41.98,-48.48 27.8,-76.49 -14.18,-28.04 -49.6,-39.16 -79.09,-24.94 -29.57,14.29 -42.02,48.54 -27.84,76.55z"/>
   <path class="fil4" d="M3560.66 10874.09c10.2,3.24 33.55,-47.66 89.64,-78.39 55.6,-31.5 112.61,-25.33 114.9,-35.52 1.31,-4.7 -12.03,-13.3 -37.11,-16.51 -24.76,-3.25 -61.77,0.7 -96.59,20.07 -34.78,19.4 -57.04,48.44 -66.68,70.87 -9.94,22.69 -9.03,38.21 -4.16,39.48z"/>
   <path class="fil4" d="M4132.13 11135.88c-1.49,-3.35 -39.62,9.85 -100.02,33.69 -15.13,6.43 -30.23,11.05 -38.03,2.62 -9.06,-8.51 -11.57,-27.2 -13.79,-47.67 -5.61,-42.05 -11.53,-86.07 -17.71,-132.25 -26.7,-187.43 -54.43,-338.39 -61.98,-337.22 -7.55,1.13 7.97,153.99 34.68,341.45 6.95,46 13.51,89.92 19.86,131.87 3.53,19.26 4.37,42.83 23.49,60.25 9.77,8.54 24.52,10.52 35.07,7.94 10.69,-2.26 18.84,-6.52 26.14,-10.02 58.46,-28.22 93.84,-47.37 92.29,-50.66z"/>
   <path class="fil8" d="M4456.79 11820.98c0,0 284.65,-133.77 465.59,-445.42 0,0 12.92,365.84 -414.26,551.68l-51.33 -106.26z"/>
   <path class="fil4" d="M3485.05 10756.37c16.95,8.5 54.8,-24.31 107.22,-47.73 51.65,-25.12 101.21,-33.13 105.45,-51.55 1.58,-8.71 -11.22,-19.01 -36.2,-23.21 -24.66,-4.27 -61.24,-0.63 -97.01,16.02 -35.74,16.72 -61.9,42.37 -74.32,63.96 -12.71,21.76 -12.89,38.13 -5.14,42.51z"/>
   <path class="fil4" d="M4311.44 10728.25c15.1,27.55 4.24,63.01 -24.23,79.3 -28.4,16.27 -63.71,7.24 -78.81,-20.32 -15.1,-27.55 -4.24,-63.07 24.16,-79.3 28.47,-16.33 63.78,-7.23 78.88,20.32z"/>
   <path class="fil4" d="M4339.21 10473.83c-3.11,10.23 -58.32,0.7 -115.36,29.59 -57.4,28.05 -84.56,78.53 -94.26,74.65 -4.62,-1.55 -4.17,-17.43 7.37,-39.9 11.29,-22.29 35.49,-50.59 71.15,-68.33 35.67,-17.71 72.22,-19.69 96.17,-14.92 24.34,4.62 36.59,14.14 34.93,18.91z"/>
   <path class="fil4" d="M4220.6 10252.88c-4.69,18.63 -55.56,27.38 -108.9,53.38 -54.12,24.37 -93.49,57.96 -110.63,49.6 -7.87,-4.31 -7.34,-20.85 6.1,-43.01 13.16,-21.97 40.47,-48.22 77.37,-65.58 36.93,-17.28 74.43,-21.41 99.55,-17.39 25.44,3.92 38.31,14.18 36.51,23z"/>
   <path class="fil7" d="M4854.58 10604.67c-16.58,-30.27 -20.88,-120.75 6.39,-141.89 72.88,-56.33 220.09,-129.11 332.98,72.61 154.27,275.73 -154.37,373.8 -159.28,366.14 -3.84,-5.96 -122.8,-192.33 -180.09,-296.86z"/>
   <path class="fil8" d="M5054.36 10758.24c0.74,-1.56 6.7,0.67 16.9,-0.15 9.94,-0.81 24.97,-5.92 36.3,-19.36 23.17,-26.99 21.8,-86.96 -4.66,-137.41 -13.37,-25.51 -31.96,-46.43 -51.93,-61.28 -19.72,-15.45 -40.64,-22.22 -56.76,-16.61 -16.48,4.76 -21.94,19.36 -21.03,29 0.64,9.8 5.47,14.32 4.27,15.59 -0.35,1.13 -8.5,-1.27 -12.63,-13.9 -1.94,-6.14 -2.36,-14.47 1.17,-23.39 3.6,-9.07 11.82,-17.25 22.65,-21.87 22.08,-10.41 52.17,-1.59 74.08,14.67 23.18,15.7 44.7,38.91 59.65,67.56 29.35,56.55 29.99,124.46 -3.42,158.29 -16.54,15.88 -36.02,19.12 -48.01,17.29 -12.35,-2.01 -17.25,-7.41 -16.58,-8.43z"/>
   <path class="fil4" d="M3322.33 10807.31c36.71,-65.73 46.23,-132.93 6.52,-196.89 43.17,-9.35 54.54,-77.82 58.52,-121.81 3.99,-43.99 21.58,-74.79 -1.35,-112.54 -4.52,-7.44 -9.45,-15.27 -9.59,-23.99 -0.23,-13.72 11.04,-24.41 20.54,-34.29 48.89,-50.9 68.98,-127.77 51.23,-196.07 73.62,-6.67 145.45,-32.03 206.94,-73.06 51.54,25.79 116.27,23.11 165.48,-6.85 49.25,-29.91 81.39,-86.14 82.2,-143.79 35.81,25.44 83.96,27.91 126.47,16.83 42.48,-11.04 80.72,-34.11 118.25,-56.9 24.31,83.5 118.25,140.01 203.41,122.34 11.51,-2.4 24.56,-5.68 34.19,1.09 9.98,7.02 11.01,21.1 12.66,33.2 10.69,76.62 96.59,133.35 171.24,113.07 -25.96,60 23.39,138.67 88.73,141.39 13.44,0.53 30.58,0.63 35.45,13.16 1.83,4.72 1.13,10.05 0.42,15.13 -5.57,38.74 -9.66,79.94 6.67,115.5 16.3,35.56 60.5,61.24 95.57,43.89 -9.21,25.89 -14.64,55.7 -1.84,79.97 12.84,24.31 50.66,35.42 68.34,14.39 7.51,-8.92 130.45,-111.86 132.01,-123.43 19.82,-149.44 -143.34,-212.73 -223.59,-340.33 -80.26,-127.6 -196.54,-229.94 -325.41,-308.18 -54.04,-32.81 -110.91,-61.85 -171.69,-79.34 -69.25,-19.94 -141.89,-24.49 -213.86,-28.33 -93.91,-5.05 -189.76,-8.93 -280.35,16.26 -168.77,46.96 -294.15,186.59 -398.08,327.63 -39.52,53.65 -77.82,109.15 -101.63,171.41 -28.47,74.44 -35.01,155.43 -35.69,235.16 -0.98,115.18 10.22,232.69 55.68,338.53l22.56 46.85z"/>
   <path class="fil5" d="M3214.76 10740.31c0,0 -3.51,-12.94 -1.39,-37.92 0.81,-12.42 3.22,-27.69 3.51,-45.75 0.1,-17.96 -3.36,-38.81 -12.87,-60.26 -9,-21.66 -23.26,-43.71 -38.79,-67.87 -15.49,-24.06 -32.67,-50.98 -42.95,-83.44 -10.49,-32.2 -15.27,-68.93 -11.45,-107.24 1.91,-19.16 5.98,-38.66 12.56,-57.93 6.43,-19.33 16.15,-37.95 25.91,-56.55 9.58,-18.66 18.95,-38.13 22.16,-59.4 3.28,-21.28 0.26,-43.64 -2.34,-66.54 -5.31,-46.18 -3.26,-95.28 8.54,-144 11.63,-48.65 31.27,-97.65 62.07,-141.47 14.6,-22.47 33.33,-42.36 52.94,-61.66 20.77,-18.03 42.95,-35.35 68.3,-48.16 12.36,-6.87 25.77,-11.95 38.94,-17.49 13.45,-4.87 27.11,-8.96 40.54,-13.51 27.14,-8.54 52.31,-21.42 74.09,-40.5 22.11,-18.49 41.55,-40.78 63.66,-61.17 21.59,-20.96 45.76,-39.52 70.91,-56.94 25.23,-17.4 52.57,-32.11 80.79,-45.26 28.5,-12.7 58.53,-22.62 89.5,-29.6 61.84,-12.88 129.64,-11.36 189.93,15.59 5.93,2.68 11.86,5.36 17.75,8.01l-5.4 0.67c73.24,-65.27 173.07,-90.59 265.01,-82.59 92.32,7.66 180.27,49.18 237.63,116.38l-3.7 -1.55c42.19,-2.5 84.03,-4.72 125.23,-1.97 41.06,2.71 81.67,10.58 118.15,27.48 36.37,17.11 67.24,43.67 88.47,75.88 21.31,32 31.75,71.37 24.87,108.16l-2.78 -4.48c61.31,17.99 110.13,59.76 141.74,107.28 31.79,47.77 48.05,102.34 46.64,153.5 0.32,12.8 -1.9,25.29 -3.35,37.53 -2.15,12.1 -4.76,23.74 -5.54,35.17 -0.81,11.47 0.57,22.58 5.01,32.56 4.3,10.13 10.62,19.2 16.55,28.37 23.88,36.65 42.47,72.56 54.68,106.78 12.13,34.19 18.09,66.68 16.58,94.97 -1.1,28.33 -9.11,51.65 -18.45,68.58 -9.14,17.29 -19.76,27.87 -23.99,36.87 -4.73,8.71 -5.15,14 -5.51,13.9 0,0 0,-5.37 4.41,-14.47 3.99,-9.31 14.43,-20.32 23,-37.39 8.82,-16.87 16.34,-39.83 17.04,-67.59 1.13,-27.77 -5.08,-59.66 -17.35,-93.31 -12.39,-33.69 -31.08,-69.11 -55,-105.31 -5.96,-9.06 -12.52,-18.31 -17.22,-29.1 -4.94,-10.73 -6.56,-23.22 -5.71,-35.25 0.74,-12.06 3.35,-23.91 5.36,-35.84 1.34,-11.96 3.49,-24.09 3.07,-36.55 1.09,-49.81 -14.99,-102.97 -46.18,-149.36 -31.04,-46.25 -78.74,-86.61 -138.01,-103.75l-3.42 -0.99 0.64 -3.53c6.35,-34.54 -3.49,-71.61 -23.96,-102.23 -20.39,-30.77 -50.27,-56.31 -85.19,-72.64 -35.17,-16.19 -74.79,-23.85 -115.15,-26.42 -40.46,-2.61 -81.95,-0.39 -124.11,2.18l-2.25 0.14 -1.48 -1.72c-55.71,-65.09 -141.36,-105.52 -231.53,-112.89 -89.75,-7.76 -186.98,17.07 -257.85,80.29l-2.29 2.05 -3.07 -1.38c-5.68,-2.54 -11.4,-5.12 -17.15,-7.73 -58.1,-26 -123.79,-27.55 -184.18,-15.02 -30.23,6.8 -59.62,16.47 -87.6,28.89 -27.72,12.91 -54.57,27.34 -79.41,44.41 -24.73,17.11 -48.54,35.32 -69.81,55.92 -21.73,19.97 -41.31,42.4 -64.14,61.42 -11.35,9.56 -23.48,18.24 -36.58,25.26 -13.09,7.05 -26.85,12.2 -40.49,16.79 -13.65,4.58 -27.25,8.61 -40.38,13.33 -12.83,5.4 -25.85,10.27 -37.88,16.94 -24.64,12.38 -46.28,29.21 -66.58,46.74 -19.15,18.77 -37.51,38.13 -51.85,60.08 -30.26,42.79 -49.69,90.8 -61.27,138.5 -11.75,47.83 -13.96,95.95 -8.93,141.39 2.47,22.76 5.57,45.79 2.01,68.44 -3.55,22.61 -13.43,42.69 -23.15,61.42 -9.93,18.7 -19.47,36.72 -25.84,55.53 -6.52,18.73 -10.61,37.74 -12.59,56.44 -3.97,37.43 0.48,73.41 10.5,105.02 9.8,31.82 26.42,58.39 41.7,82.62 15.3,24.27 29.49,46.71 38.39,68.86 9.41,21.95 12.71,43.47 12.29,61.78 -0.6,18.31 -3.32,33.51 -4.43,45.86 -1.31,12.34 -1.4,21.8 -1.09,28.15 0.27,6.31 0.81,9.56 0.56,9.59z"/>
   <path class="fil5" d="M3861.4 9475.78c-0.07,0.88 -9.59,-0.17 -26.7,0.6 -16.97,0.85 -41.88,3.95 -70.06,15.45 -28.05,11.26 -59.52,31.33 -83.86,63.15 -24.16,31.58 -41.1,74.37 -41.8,120.47 -0.21,13.23 0.77,26.67 3.42,38.88 2.72,12.1 8.36,23.5 17.99,28.12l11.93 5.71 -12.95 2.97c-35.49,8.11 -63.89,31.32 -80.12,57.11 -16.61,26 -20.6,54.4 -18.91,77.01 1.66,22.9 8.61,40.32 14.15,51.61 5.72,11.29 9.91,16.9 9.35,17.36l-3.67 -3.67c-2.22,-2.54 -5.15,-6.6 -8.5,-12.17 -6.56,-11.08 -14.68,-28.75 -17.25,-52.56 -2.58,-23.53 0.81,-53.8 18.02,-81.81 16.76,-27.73 46.64,-52.85 84.88,-61.92l-0.98 8.68c-13.66,-6.63 -20.15,-21.16 -23.18,-34.29 -2.93,-13.54 -3.88,-27.16 -3.71,-41.2 0.78,-48.33 18.74,-92.99 44.42,-125.7 25.89,-32.98 59.09,-53.23 88.33,-64.03 29.43,-11.04 55.11,-13.15 72.43,-12.87 8.71,0.17 15.45,0.74 19.97,1.55 4.51,0.71 6.84,1.24 6.8,1.55z"/>
   <path class="fil5" d="M4485.29 9547.86c0.53,0.21 -0.74,5.64 -4.27,15.2 -3.56,9.53 -9.38,23.28 -19.43,38.95 -10.06,15.52 -24.59,33.33 -46.22,46.85 -21.2,13.33 -50.02,22.61 -80.18,16.86l5.6 -4.31c-0.6,5.19 -1.23,10.48 -1.87,15.84 -0.95,5.33 -2.32,10.66 -3.49,16.09 -8.89,32.28 -25.79,60.26 -45.68,81 -19.76,20.99 -41.74,35.56 -61.49,44.41 -19.86,8.96 -37.22,12.39 -49.14,13.97 -12.03,0.99 -18.67,0.78 -18.7,0.18 -0.35,-2.05 27.06,-1.55 64.91,-20.21 18.73,-9.32 39.41,-23.89 57.96,-44.31 18.73,-20.18 34.54,-46.96 42.93,-77.47 1.1,-5.12 2.4,-10.2 3.32,-15.21 0.64,-5.08 1.24,-10.09 1.84,-14.92l0.67 -5.29 4.97 0.99c27.06,5.32 53.8,-2.69 74.01,-14.79 20.46,-12.17 34.93,-28.64 45.37,-43.21 20.46,-29.78 27.34,-51.33 28.89,-50.62z"/>
   <path class="fil5" d="M4772.45 9724.74c0.32,-0.07 1.06,1.76 2.16,5.47 0.77,3.74 1.83,9.45 1.12,16.79 -0.88,14.6 -8.74,36.09 -28.39,54.15 -19.55,18.41 -50.31,29.28 -83.86,34.71 -16.86,2.68 -34.29,5.65 -53.2,6.71 -18.52,0.81 -40.04,-0.78 -57.4,-13.94l-4.16 -3.53 7.62 -1.58c-15.24,35.49 -32.84,68.68 -55.17,94.36 -21.95,26 -49,43.01 -73.45,50.66 -24.52,7.98 -46.04,7.48 -59.9,4.41 -6.99,-1.37 -12.24,-3.21 -15.63,-4.76 -3.42,-1.52 -5.12,-2.47 -5.01,-2.75 0.32,-0.85 7.55,2.11 21.24,3.91 13.58,1.84 34,1.27 57.11,-7.12 23.18,-8.19 48.23,-24.73 69.01,-49.99 21.06,-24.98 37.99,-57.36 53.09,-92.5l2.5 -5.86 5.12 4.27 3.46 2.93c14.28,10.94 33.44,12.88 51.18,12.17 17.85,-0.84 35.6,-3.63 52.14,-6.03 32.99,-4.87 62.16,-14.68 80.83,-31.12 18.9,-16.26 27.3,-35.91 29.21,-49.53 2.15,-13.82 -0.6,-21.66 0.38,-21.83z"/>
   <path class="fil5" d="M4527.45 8572.57c0.32,0.56 -4.69,2.78 -11.89,9.56 -7.05,6.7 -15.98,18.8 -19.97,36.86 -4.09,17.89 -3.14,41.1 8.15,64.38 10.69,23.5 29.88,46.08 51.72,69.89l3.53 3.88 -4.73 2.4c-31.61,16.08 -61.81,44.13 -79.8,81.77 -18.2,37.26 -21.06,85.3 0.64,125.8 18.76,37.29 54.04,64.17 90.87,70.28l13.34 2.18 -11.93 6.39c-42.96,23.11 -70.27,64.35 -79.76,103.71 -10.02,39.9 -1.73,77.4 11.15,104.46 13.02,27.48 30.34,45.33 42.83,56.13 12.73,10.79 20.81,15.2 20.42,15.87 -0.14,0.25 -2.22,-0.7 -6.14,-2.78 -3.91,-2.01 -9.49,-5.51 -16.22,-10.66 -13.41,-10.26 -31.9,-27.94 -46.11,-55.98 -14.04,-27.59 -23.6,-66.75 -13.62,-108.87 9.45,-41.49 37.57,-85.16 83.15,-110l1.41 8.61c-40.15,-6.42 -77.89,-35.31 -97.86,-74.96 -11.22,-21.42 -16.86,-45.41 -16.3,-68.69 0.35,-23.32 6.56,-45.61 15.91,-65.4 19.23,-39.59 51.12,-68.62 84.46,-85.02l-1.17 6.24c-21.59,-24.16 -41.06,-47.73 -51.75,-72.6 -11.29,-24.55 -11.71,-49.67 -6.67,-68.12 4.87,-18.84 14.96,-31.22 22.83,-37.61 3.98,-3.21 7.37,-5.29 9.77,-6.31l3.74 -1.41z"/>
   <path class="fil5" d="M5350.9 8902.2c0.21,0.18 -0.84,1.91 -3.07,5.15 -2.32,3.18 -5.36,8.22 -10.33,13.94 -9.67,11.67 -25.47,27.69 -48.9,43.25 -23.39,15.34 -54.64,30.37 -92.78,37.22 -37.78,7.47 -82.72,6.06 -127,-9.99l6.03 -3.95c-2.11,54.12 -26,115.92 -77.89,153.85 -54.93,39.97 -131.41,38.87 -178.22,2.22l7.02 -4.23c3.67,23 0.03,45.68 -7.55,65.3 -7.66,19.68 -18.91,36.54 -31.36,50.62 -25.4,28.08 -55.07,43.99 -79.52,55.07 -24.76,10.86 -45.3,16.93 -59.27,20.99 -14.04,3.98 -21.69,5.68 -21.83,5.22 -0.14,-0.5 7.26,-3.14 20.95,-7.94 13.69,-4.9 33.83,-11.75 57.89,-23.18 23.78,-11.53 52.39,-27.79 76.2,-55.06 23.32,-26.75 42.83,-66.61 35.81,-109.58l-1.83 -11.07 8.85 6.84c43.5,33.76 115.82,34.68 167.25,-2.93 48.93,-35.59 72.22,-94.61 74.61,-146.51l0.29 -6.1 5.75 2.15c42.33,15.66 85.69,17.64 122.52,10.9 37.11,-6.1 67.87,-20.07 91.15,-34.46 46.82,-29.53 63.75,-59.24 65.23,-57.72z"/>
   <path class="fil5" d="M5282.32 9466.79c0.21,-0.04 0.74,2.4 -0.49,6.81 -1.24,4.37 -5.01,10.37 -11.85,15.59 -13.83,10.09 -36.76,19.68 -66.82,23.35 -29.77,3.49 -67.42,-0.49 -102.73,-20.25 -35.03,-19.44 -66.71,-54.47 -80.82,-99.02l-0.32 -0.95 8.47 1.3c-26.42,38.31 -65.12,63.4 -102.66,76.13 -37.82,13.05 -74.58,13.69 -104.1,9.81 -29.67,-3.95 -52.67,-12.07 -67.88,-18.66 -15.2,-6.67 -22.96,-11.65 -22.72,-12.14 0.67,-2.12 33.13,17.46 91.37,24.09 28.86,2.93 64.31,1.63 100.44,-11.39 35.91,-12.66 72.67,-36.94 97.68,-73.24l5.4 -7.79 3.1 9.1 0.29 0.88c13.3,41.98 43.11,75.42 76.09,94.23 33.16,19.12 69,23.74 97.72,21.2 28.82,-2.61 51.89,-11.15 65.3,-19.65 13.93,-9.03 13.76,-19.83 14.53,-19.4z"/>
   <path class="fil5" d="M3927.23 8914.41c2.26,-0.78 1.98,39.72 34.08,92 16.02,25.58 40.71,53.31 75.28,73.38 34.47,19.9 78.74,31.19 124.68,27.69 25.85,-1.94 50.55,-8.5 72.32,-18.31l5.32 -2.43 1.17 5.71c7.33,36.48 21.9,68.76 38.87,95.04 17.22,26.21 36.52,46.78 54.33,61.67 8.82,7.44 17.29,13.97 24.87,18.52 7.66,4.44 15.45,5.75 20.85,3.24 5.5,-2.32 8.47,-6.52 9.28,-9.49l0.74 -4.9c0.14,-0.07 1.3,1.59 0.85,5.26 -0.39,3.56 -3.25,8.82 -9.53,12.06 -6.35,3.57 -15.94,2.4 -24.38,-2.04 -8.46,-4.55 -17.11,-10.69 -26.45,-18.03 -18.77,-14.61 -39.09,-35.17 -57.26,-61.84 -17.96,-26.74 -33.44,-59.9 -41.28,-97.65l6.5 3.31c-22.72,10.41 -48.51,17.36 -75.46,19.41 -47.95,3.6 -94.12,-8.43 -129.86,-29.64 -35.81,-21.41 -60.82,-50.65 -76.59,-77.47 -15.98,-26.95 -22.79,-51.71 -26.07,-68.68 -1.41,-8.57 -2.29,-15.24 -2.4,-19.83 -0.21,-4.55 -0.17,-6.95 0.14,-6.98z"/>
   <path class="fil4" d="M4328.27 11111.33c-8.89,2.22 9.07,60.4 -27.9,117.12 -36.8,56.87 -100.83,69.57 -98.75,77.86 0.32,3.88 17.33,6.99 43.68,-0.42 25.96,-7.09 60.89,-26.99 83.46,-61.67 22.51,-34.75 25.09,-72.6 19.65,-97.05 -5.32,-25.01 -16.29,-37.39 -20.14,-35.84z"/>
   <path class="fil6" d="M4601.14 12110.19c0,0 248.61,1646.63 549.39,1935.19 321.62,308.61 899.72,460.73 899.72,460.73 0,0 769.3,304.27 1036.71,237.92l483.59 -1658.03c0,0 -21.59,-95.52 -131.24,-99.48 -21.76,-0.77 -62.16,12.1 -105.62,24.97 -52.25,15.46 -108.94,30.95 -143.12,22.68 -250.4,-60.42 -837.64,-958.52 -837.64,-958.52 0,0 -557.77,-768.84 -1033.21,-699.49 -325.97,47.51 -460.94,192.79 -583.71,521.37 -29.7,79.51 -75.25,152.26 -134.87,212.66z"/>
   <polygon class="fil6" points="4601.14,12110.19 4384.26,13208.42 3381.7,12923.59 3208.52,13508.88 4904.75,14274.84 5238.54,12886.34 "/>
   <path class="fil4" d="M6869.08 14047.36c-4.72,-1.8 69.04,-207.41 164.75,-459.14 95.74,-251.86 177.2,-454.48 181.93,-452.69 4.76,1.83 -69.01,207.37 -164.75,459.22 -95.71,251.74 -177.17,454.41 -181.93,452.61z"/>
   <path class="fil4" d="M6850.28 13817.02c-4.76,-1.76 36.55,-125.75 92.25,-276.95 55.74,-151.24 104.74,-272.41 109.5,-270.65 4.77,1.76 -36.54,125.76 -92.25,277 -55.7,151.2 -104.74,272.34 -109.5,270.6z"/>
   <path class="fil4" d="M4575.07 12427.89c5.15,0 8.93,115.15 14.57,256.94 2.86,70.9 5.9,135 8.79,181.36 2.79,46.32 5.4,74.97 2.71,75.42 -2.29,0.43 -9.52,-27.79 -15.66,-74.19 -6.21,-46.34 -11.32,-110.7 -14.18,-181.85 -2.89,-71.12 -3.1,-135.58 -2.08,-182.17 1.02,-46.65 3.31,-75.51 5.85,-75.51z"/>
   <polygon class="fil9" points="4186.74,13950.62 4064.11,13895.24 4186.74,13950.62 "/>
   <polygon class="fil10" points="4186.74,13950.62 4064.11,13895.24 4022.94,13876.65 4396.57,13714.2 4601.14,12989.62 4461.97,13882.44 "/>
   <path class="fil10" d="M6828.87 14071.45c-24.1,0 -44.21,-26.88 -47.06,-54.07 -3.07,-28.94 7.69,-57.19 18.23,-83.9 18.1,-45.75 36.16,-91.51 54.26,-137.26 -3.67,13.02 -5.15,20.39 -4.02,20.8 0.03,0 0.07,0 0.11,0 5.36,0 54.08,-120.51 109.39,-270.6 23.99,-65.13 45.3,-125.17 61.42,-172.62 0.11,-0.28 0.25,-0.6 0.35,-0.88 11.15,-28.19 22.83,-57.25 43.25,-78.14 13.94,-14.25 33.13,-23.78 51.72,-23.78 8.68,0 17.22,2.09 25.01,6.67l10.02 5.75c-0.67,2.22 -1.34,4.48 -1.97,6.74 -31.75,79.51 -72.29,183.72 -115.75,298.06 -87.56,230.29 -156.74,421.99 -164.29,454.35 -9.1,14.52 -20.6,26.34 -36.02,28.56 -1.55,0.21 -3.1,0.32 -4.65,0.32zm86.71 -129.67c33.65,-82.94 82.34,-207.44 135.43,-347.03 0.11,-0.29 0.21,-0.57 0.32,-0.89 -41.6,117.65 -86.89,233.72 -135.75,347.92z"/>
   <path class="fil11" d="M6869.54 14042.57c7.55,-32.36 76.73,-224.06 164.29,-454.35 43.46,-114.34 84,-218.55 115.75,-298.06 -30.06,102.26 -62.83,203.55 -98.25,303.7 -0.11,0.32 -0.21,0.6 -0.32,0.89 -53.09,139.59 -101.78,264.09 -135.43,347.03 -10.66,24.94 -21.49,49.77 -32.49,74.54 -3.92,8.78 -8.33,17.95 -13.55,26.25z"/>
   <path class="fil11" d="M6850.39 13817.02c-0.04,0 -0.08,0 -0.11,0 -1.13,-0.41 0.35,-7.78 4.02,-20.8 55.63,-140.8 111.27,-281.59 166.9,-422.42 -16.12,47.45 -37.43,107.49 -61.42,172.62 -55.31,150.09 -104.03,270.6 -109.39,270.6z"/>
   <path class="fil7" d="M1828.59 13070.49c0,0 135.29,-180.39 214.52,-218.97 63.05,-30.73 438.81,-97.15 484.6,-88.31 45.79,8.86 853.99,185.89 853.99,185.89l-104.72 353.05 -51.58 -24.13c0,0 -163.17,81.88 -287.58,42.65 -124.41,-39.19 -283.67,-148.73 -283.67,-148.73l-111.17 41.63c0,0 122.19,38.28 131.31,88.8 9.14,50.55 -60.4,56.04 -60.4,56.04l-5.01 22.23c-8.79,38.99 -46.99,63.72 -86.15,55.85 -71.61,-14.36 -175.07,-38.87 -198.1,-64.42 -9.53,-10.58 -58.65,-100.65 -58.65,-100.65 -75.65,-53.3 -74.44,-106.22 -70.17,-138.54 8.52,-64.66 77.27,-137.11 77.27,-137.11l-136.34 -7.46c0,0 -219.84,225.26 -308.15,82.18z"/>
   <path class="fil7" d="M2963.71 13011.29c-163.99,0 -319.68,-21.94 -441.76,8.5 -32.2,8.05 -64.94,19.72 -88.14,43.42 -23.2,23.72 -33.98,62.34 -17.25,91.02 14.32,24.51 44.43,35.64 72.8,37.26 28.38,1.65 56.62,-4.31 85.04,-4.97 68.3,-1.63 133.46,26.98 194.04,58.59 60.57,31.6 120.44,67.19 187.22,81.6 66.8,14.38 223.65,1.72 269.74,-48.69l-261.69 -266.73z"/>
   <path class="fil8" d="M3225.4 13278.02c0.4,0.32 -2.78,4.63 -10.35,11.53 -7.94,6.35 -20.67,14.79 -38.65,21.92 -35.85,14.28 -90.9,26.45 -159.8,27.22 -34.29,0.82 -73.34,-4.57 -111.41,-18.84 -38.41,-13.61 -76.85,-33.53 -116.56,-54.5 -39.73,-20.85 -81.32,-42.71 -127.14,-56.65 -22.84,-6.87 -46.67,-11.78 -70.99,-12.8 -24.2,-1.49 -48.99,2.88 -75.69,4.58 -26.38,1.87 -55.45,-0.73 -79.62,-15.41 -25.09,-13.63 -39.74,-44.88 -35.11,-71.98 3.36,-27.09 18.92,-51.04 39.01,-66.35 20,-15.67 42.94,-24.49 64.99,-30.87 89.2,-24.24 172.01,-19.54 239.76,-17.77 65.56,3.55 119.77,6.52 160.91,8.78 37.93,2.04 58.96,3.03 58.96,4.41 0,0.63 -5.26,1.23 -15.28,1.72 -10.03,0.6 -24.82,0.88 -43.88,1.03 -38.09,0.28 -93.21,-1.67 -161.08,-2.96 -67.42,-0.22 -149.61,-3.12 -234.62,21.06 -20.92,6.24 -41.76,14.67 -58.86,28.36 -17.16,13.27 -29.35,32.98 -32.04,54.72 -3.07,21.69 6.96,42.99 26.7,54.22 19.56,11.79 44.08,14.5 69.06,12.69 25.04,-1.51 51.18,-6.1 77.61,-4.52 26.21,1.2 51.53,6.54 75.45,13.88 47.92,14.88 90.24,37.68 129.81,58.91 78.22,43.63 152.15,77.96 220.13,75.31 67.24,0.89 121.71,-9.13 157.19,-20.94 36.02,-11.76 50.38,-27.98 51.5,-26.75z"/>
   <path class="fil8" d="M2439.1 12973.23c0.83,2.21 -15.3,9.76 -42.77,14.81 -27.37,5.25 -65.53,8.78 -107.6,9.95 -84.22,2.11 -152.19,-4.66 -151.99,-9.68 0.16,-5.14 68.07,-6.58 151.5,-8.71 41.68,-1.13 79.32,-2.57 106.41,-4.43 27.12,-1.67 43.59,-4.5 44.45,-1.94z"/>
   <path class="fil8" d="M2619.57 13358.66c1.12,4.31 -86.59,18.38 -190.46,-9.38 -104.12,-26.88 -173.57,-82.23 -170.47,-85.44 2.97,-4.91 74.69,41.84 175.15,67.7 100.15,26.84 185.6,21.38 185.78,27.12z"/>
   <path class="fil8" d="M2393.96 13174.58c0.59,-4.9 37.37,-4.37 81.04,6.6 43.7,10.91 76.4,27.77 74.6,32.39 -1.84,4.84 -36.55,-3.98 -79.06,-14.57 -42.47,-10.69 -77.26,-19.26 -76.58,-24.42z"/>
   <path class="fil4" d="M734.71 13451.51l890.08 -435.68c14.63,-7.12 31.82,-5.81 45.23,3.53l978.59 621.88c22.59,15.7 26.85,48.15 9.15,69.5l-517.32 692.25 -1405.73 -951.48z"/>
   <polygon class="fil2" points="845.71,13483.44 2043.65,14272.19 2587.89,13665.44 1644.87,13079.8 "/>
   <polygon class="fil0" points="1311.28,13248.28 2339.69,13942.12 2043.65,14272.19 845.71,13483.44 "/>
   <path class="fil0" d="M1836.97 13268.68l-157.26 127.77c-10.4,8.46 -25.7,6.87 -34.16,-3.53 -8.45,-10.41 -6.86,-25.72 3.54,-34.15l157.26 -127.81c10.4,-8.43 25.7,-6.88 34.15,3.53 8.46,10.4 6.88,25.71 -3.53,34.19z"/>
   <path class="fil0" d="M1908.13 13326.63l-157.26 127.82c-10.4,8.43 -25.7,6.88 -34.15,-3.53 -8.46,-10.44 -6.87,-25.71 3.53,-34.19l157.26 -127.77c10.41,-8.48 25.7,-6.88 34.15,3.53 8.46,10.4 6.88,25.71 -3.53,34.14z"/>
   <path class="fil0" d="M1984.26 13394.51l-157.26 127.78c-10.41,8.46 -25.7,6.87 -34.17,-3.53 -8.46,-10.42 -6.87,-25.68 3.53,-34.14l157.26 -127.82c10.4,-8.43 25.7,-6.85 34.16,3.56 8.46,10.4 6.88,25.68 -3.52,34.15z"/>
   <path class="fil0" d="M2015.51 13486.58l-89.14 72.43c-10.42,8.47 -25.7,6.88 -34.17,-3.53 -8.46,-10.41 -6.87,-25.68 3.53,-34.14l89.15 -72.43c10.41,-8.48 25.7,-6.88 34.16,3.53 8.46,10.4 6.87,25.68 -3.53,34.14z"/>
   <path class="fil6" d="M1704.8 13247.33l-103.7 72.75c-10.98,7.69 -26.12,5.04 -33.81,-5.93 -7.7,-10.98 -5.04,-26.14 5.92,-33.83l103.72 -72.75c10.96,-7.69 26.11,-5.04 33.81,5.93l0 0c7.71,11.01 5.05,26.14 -5.94,33.83z"/>
   <path class="fil6" d="M2239.3 13595.17l-89.57 89.56c-9.48,9.5 -24.86,9.5 -34.34,0l0 0c-9.48,-9.48 -9.48,-24.86 0,-34.35l89.57 -89.58c9.48,-9.45 24.85,-9.45 34.34,0l0 0c9.48,9.5 9.48,24.88 0,34.37z"/>
   <path class="fil4" d="M2140.44 14402.99l0 0c-23.38,36.59 -71.99,47.24 -108.54,23.86l-1308.33 -837.01c-36.56,-23.38 -47.24,-72 -23.85,-108.55l0 0c23.4,-36.58 72,-47.23 108.56,-23.85l1308.32 837.01c36.56,23.38 47.24,72 23.84,108.54z"/>
   <path class="fil5" d="M12188.69 11837.38l38.13 -932.21c0,0 954.13,-206.69 977.94,-378.29l-1798.57 -206.48 -119.06 1450.06 901.56 66.92z"/>
   <path class="fil4" d="M11406.19 10320.4l-11.99 146.16 1743.64 138.85c0,0 60.5,-18.77 77.5,-90.59l-1809.15 -194.42z"/>
   <path class="fil4" d="M12255.36 10916.6c0.43,-8.82 -43.35,-16.19 -84.52,-47.87 -42.02,-30.63 -61.46,-70.52 -69.82,-67.63 -8.25,1.06 0.82,54.75 51.37,92.25 50.2,37.92 104.28,31.5 102.97,23.25z"/>
   <path class="fil4" d="M12450.7 10852.89c2.68,-8.4 -34.33,-26.32 -61.39,-65.9 -28.22,-38.77 -32.7,-79.66 -41.48,-79.94 -8.19,-2.01 -18.24,49.1 16.33,97.68 34.15,48.86 85.73,56.55 86.54,48.16z"/>
   <path class="fil4" d="M12575.65 10634.59c-7.87,-2.47 -23.49,40.6 -4.59,90.63 18.56,50.13 58.67,72.35 62.94,65.29 5.54,-6.84 -19.23,-34.81 -34.11,-76.09 -15.88,-40.92 -15.53,-78.28 -24.24,-79.83z"/>
   <path class="fil4" d="M12223.12 11128.09c-1.59,-4.31 -13.41,-3.95 -31.26,-3.64 -16.72,0.32 -38.77,0.64 -62.76,-2.85 -49.67,-6.21 -87.17,-25.9 -92.32,-18.7 -5.61,5.96 29.74,41.52 88.23,49.18 58.39,8.15 101.92,-16.72 98.11,-23.99z"/>
   <path class="fil12" d="M12217.09 11143.65l-11.61 -0.96c4.94,-2.11 8.93,-4.37 11.89,-6.49l-0.28 7.45z"/>
   <path class="fil12" d="M12063.45 11131.09l-412.64 -33.76 -9.77 -17.78c0,0 322.19,-305.09 511.14,-552.63l985.66 78.49c0,0 0.1,-0.03 0.24,-0.1 -91.61,62.37 -264.08,124.6 -434.51,176.07 -88.69,26.77 -176.81,50.66 -252.77,70.13 -1.23,-8.93 -35.84,-26.99 -61.49,-64.52 -28.22,-38.77 -32.7,-79.66 -41.48,-79.94 -0.14,-0.04 -0.32,-0.07 -0.46,-0.07 -8.08,0 -17.15,50.13 16.79,97.75 23.18,33.16 54.36,47.34 72.28,50.45 -101.52,25.79 -178.89,43.21 -202.28,48.4 -16.47,-7.02 -40.29,-17.14 -63.32,-34.85 -40.57,-29.57 -60.08,-67.77 -68.9,-67.77 -0.32,0 -0.63,0.03 -0.92,0.14 -8.25,1.06 0.82,54.75 51.37,92.25 26.35,19.9 53.8,27.59 73.73,29.21l-8.29 202.53c-3.14,-0.64 -7.52,-0.81 -12.91,-0.81 -3.85,0 -8.22,0.1 -13.06,0.17 -4.79,0.11 -10.05,0.22 -15.66,0.22 -13.9,0 -29.99,-0.57 -47.1,-3.07 -42.19,-5.26 -75.56,-20.25 -87.84,-20.25 -2.18,0 -3.7,0.46 -4.48,1.55 -3.17,3.39 6.81,16.26 26.67,28.19zm511.53 -496.61c-8.01,0 -22.29,42.09 -3.92,90.74 16.3,44.06 49.29,66.6 59.94,66.6 1.45,0 2.51,-0.42 3,-1.31 5.54,-6.84 -19.23,-34.81 -34.11,-76.09 -15.88,-40.92 -15.53,-78.28 -24.24,-79.83 -0.21,-0.07 -0.42,-0.11 -0.67,-0.11z"/>
   <path class="fil11" d="M13137.84 10605.41l-985.66 -78.49c29.95,-39.23 56.55,-77.05 78,-111.94l974.58 111.9c-3.56,25.62 -27.87,52.04 -66.68,78.43l0 0c-0.14,0.07 -0.24,0.1 -0.24,0.1z"/>
   <path class="fil11" d="M12226.12 10922.56l0 0c-19.93,-1.62 -47.38,-9.31 -73.73,-29.21 -50.55,-37.5 -59.62,-91.19 -51.37,-92.25 0.29,-0.11 0.6,-0.14 0.92,-0.14 8.82,0 28.33,38.2 68.9,67.77 23.03,17.71 46.85,27.83 63.32,34.85l0 0c-4.8,1.06 -7.34,1.59 -7.34,1.59l-0.7 17.39z"/>
   <path class="fil11" d="M12436.44 10855.18l0 0c-17.92,-3.11 -49.1,-17.29 -72.28,-50.45 -33.94,-47.62 -24.87,-97.75 -16.79,-97.75 0.14,0 0.32,0.03 0.46,0.07 8.78,0.28 13.26,41.17 41.48,79.94 25.65,37.53 60.26,55.59 61.49,64.52l0 0c-4.83,1.23 -9.59,2.43 -14.36,3.67z"/>
   <path class="fil11" d="M12631 10791.82c-10.65,0 -43.64,-22.54 -59.94,-66.6 -18.37,-48.65 -4.09,-90.74 3.92,-90.74 0.25,0 0.46,0.04 0.67,0.11 8.71,1.55 8.36,38.91 24.24,79.83 14.88,41.28 39.65,69.25 34.11,76.09 -0.49,0.89 -1.55,1.31 -3,1.31z"/>
   <path class="fil11" d="M12205.48 11142.69l-142.03 -11.6c-19.86,-11.93 -29.84,-24.8 -26.67,-28.19 0.78,-1.09 2.3,-1.55 4.48,-1.55 12.28,0 45.65,14.99 87.84,20.25 17.11,2.5 33.2,3.07 47.1,3.07 5.61,0 10.87,-0.11 15.66,-0.22 4.84,-0.07 9.21,-0.17 13.06,-0.17 5.39,0 9.77,0.17 12.91,0.81l0 0 -0.46 11.11 0 0c-2.96,2.12 -6.95,4.38 -11.89,6.49z"/>
   <polygon class="fil12" points="11378.01,10664.04 11394.2,10466.56 11746.91,10494.64 "/>
   <polygon class="fil11" points="11746.91,10494.64 11394.2,10466.56 11406.19,10320.4 11982.35,10386.55 "/>
   <path class="fil4" d="M12339.85 11153.7c-14.49,29.03 -122.76,2735.44 -122.76,2735.44l-931.65 -367.6c0,0 -164.86,-307.77 -135.82,-728.91 29.03,-421.18 275.94,-1713.75 275.94,-1713.75l914.29 74.82z"/>
   <path class="fil5" d="M12091.43 11896.62l-450.39 -817.07c0,0 708.87,-671.2 640.32,-830.3l-1645.21 755.4 649.57 1301.89 805.71 -409.92z"/>
   <path class="fil13" d="M11163.94 11403.29c-31.68,0 -63.11,-22.47 -70.77,-53.52 -8.71,-35.24 15.6,-75.49 51.05,-83.39 4.13,-0.92 8.4,-1.34 12.77,-1.34 33.27,0 71.37,25.29 75.53,57.11 4.69,35.7 -25.82,80.89 -61.7,80.89 -0.28,0 -0.6,0 -0.88,0 -2.01,0.18 -3.99,0.25 -6,0.25z"/>
   <path class="fil4" d="M10636.11 11004.65l65.51 131.23 1563.2 -784.79c0,0 42.01,-47.41 19.33,-117.65l-1648.04 771.21z"/>
   <path class="fil4" d="M11671.34 11074.54c-4.23,-7.76 -45.47,8.6 -97.12,2.85 -51.79,-4.41 -89.08,-28.47 -94.76,-21.66 -6.49,5.19 29.11,46.43 91.76,52.28 62.58,6.43 105.52,-27.09 100.12,-33.47z"/>
   <path class="fil4" d="M11805.4 10918.82c-2.05,-8.57 -43.01,-4.69 -86.68,-24.52 -44.2,-18.55 -69.22,-51.22 -76.87,-46.92 -8.08,2.51 9.81,51.47 64.56,75.11 54.54,24.09 102.62,3.95 98.99,-3.67z"/>
   <path class="fil4" d="M11799.15 10667.36c-8.04,1.94 0.92,46.92 43.01,79.9 41.87,33.27 87.66,31.51 87.7,23.25 1.16,-8.75 -34.51,-19.82 -68.65,-47.41 -34.75,-26.78 -53.84,-58.91 -62.06,-55.74z"/>
   <path class="fil4" d="M11753.36 11272.13c-6.95,-5.51 -37.64,23.67 -83.75,43.18 -45.72,20.42 -87.98,23 -88.69,31.82 -1.69,8.04 46.96,20.11 100.93,-3.64 54.19,-23.31 78.53,-67.13 71.51,-71.36z"/>
   <polygon class="fil9" points="11198.12,12131.81 11131.8,11998.04 11198.44,12131.63 "/>
   <polygon class="fil12" points="11198.44,12131.63 11131.8,11998.04 11131.59,11997.66 11921.95,11589.17 12002.03,11734.9 "/>
   <path class="fil4" d="M7570.55 13086l260.52 -82.79c0,0 479.25,-384.84 1016.64,-334.05 537.35,50.83 973.03,303.53 973.03,303.53l559.15 306.46 1437.78 384.88 -827.79 -1953.41 817.42 -338.9c0,0 817.1,1315.82 1064.01,1686.17 246.88,370.35 434.73,744.43 463.77,1049.4 29.06,305.02 -200.31,732.2 -832.1,804.83 -631.76,72.6 -3335.76,-108.02 -3335.76,-108.02l-2080.26 -60.07 483.59 -1658.03z"/>
   <path class="fil5" d="M7570.55 13086c0,0 -2.44,9.84 -7.73,28.72 -5.4,19.11 -13.34,47.1 -23.78,83.86 -21.23,73.97 -52.6,183.05 -93.38,324.91 -82.09,283.67 -202,698 -353.66,1222.01l-4.9 -6.73c429.12,11.92 929.96,25.86 1490.52,41.42 561.06,6.24 1180.01,57.64 1847.39,88.4 333.69,16.47 679.38,31.89 1035.62,42.36 178.11,4.81 358.88,8.86 542,9.25 91.55,-0.43 183.77,0.11 276.33,-3.71 46.32,-1.2 92.82,-2.42 139.07,-6.81 46.43,-3.3 92.99,-6.31 138.92,-14.95 183.91,-27.2 367.99,-94.09 513.86,-217.16 145.98,-120.49 248.14,-301.85 256.5,-495.83 2.4,-24.11 -1.05,-48.19 -1.27,-72.32 -3.17,-24.13 -5.22,-48.44 -9.77,-72.47 -8.32,-48.08 -19.01,-96.03 -33.05,-143.15 -27.13,-94.55 -63.19,-186.98 -104.28,-277.5 -82.66,-181.01 -184.89,-354.61 -295.84,-523.7 -192.13,-291.04 -374.34,-583.14 -554.89,-869.6 -179.35,-287.23 -355.74,-569.77 -528.53,-846.52l11.08 3.56c-278.38,115.32 -550.97,228.25 -817.53,338.7l4.69 -11.49c294.64,696.1 571.82,1350.98 826.95,1953.71l6.24 14.75 -15.45 -4.16c-519.53,-139.49 -1000.16,-268.5 -1437.5,-385.94l-0.77 -0.22 -0.71 -0.38c-149.08,-81.89 -292.8,-160.83 -430.92,-236.72 -69.42,-37.39 -136.06,-76.4 -203.34,-110.14 -67.52,-33.4 -135.01,-63.36 -201.96,-90.07 -268.04,-105.5 -526.42,-166.44 -758.33,-177.34 -115.93,-3.66 -224.62,11.19 -323.15,34.24 -98.42,24.12 -186.65,56.67 -265.46,90.66 -157.27,69.31 -276.44,145.52 -361.14,209.22l-0.36 0.25 -0.31 0.11c-88.48,27.59 -153.5,47.87 -196.75,61.35 -43.11,13.33 -64.41,19.43 -64.41,19.43 0,0 20.24,-7.12 63.07,-21.09 43.25,-14.01 108.31,-35.06 196.82,-63.71l-0.67 0.34c84.59,-64.7 203.44,-141.77 360.99,-212.15 78.96,-34.46 167.43,-67.59 266.32,-92.26 99.02,-23.56 208.38,-38.9 325.36,-35.59 233.61,10.24 492.76,70.63 762.25,175.93 67.27,26.67 135.11,56.56 203.06,90.03 67.94,33.87 134.69,72.75 204.08,109.93 138.22,75.6 282.08,154.27 431.27,235.86l-1.48 -0.59c437.52,116.76 918.35,245.07 1438.1,383.78l-9.21 10.59c-255.66,-602.51 -533.43,-1257.16 -828.71,-1953.01l-3.42 -8.12 8.15 -3.39c266.52,-110.56 539.04,-223.63 817.35,-339.12l7.02 -2.9 4.02 6.46c172.9,276.69 349.32,559.14 528.74,846.31 180.63,286.39 362.84,578.42 554.78,869.17 111.34,169.7 214,343.96 297.18,526.25 41.38,91.11 77.72,184.35 105.2,280.03 14.18,47.7 25.01,96.31 33.48,145.2 4.59,24.38 6.7,49.19 9.91,73.77 0.28,24.94 3.74,49.91 1.34,74.72 -8.71,200.06 -113.84,385.73 -263.1,508.95 -149.22,125.76 -336.62,193.46 -522.78,220.94 -46.57,8.72 -93.52,11.71 -140.3,15.03 -46.74,4.37 -93.34,5.61 -139.81,6.77 -92.95,3.78 -185.24,3.21 -276.96,3.57 -183.38,-0.5 -364.24,-4.7 -542.47,-9.63 -356.41,-10.76 -702.2,-26.46 -1035.93,-43.29 -667.74,-31.47 -1286.23,-83.67 -1847.18,-90.88 -560.42,-16.78 -1061.19,-31.78 -1490.2,-44.62l-6.81 -0.21 1.9 -6.53c154.06,-524.19 275.88,-938.66 359.31,-1222.44 41.77,-141.18 73.9,-249.8 95.71,-323.47 10.9,-36.34 19.19,-64 24.87,-82.9 5.61,-18.55 8.75,-27.73 8.75,-27.73z"/>
   <path class="fil5" d="M11718.58 13632.38c0.28,-1.22 12.17,0.4 33.48,4.41 21.3,3.84 51.85,10.73 89.57,19.62 74.93,18.91 179.1,47.02 286.49,98.67 108.09,50.56 192.54,122.59 240.52,184.01 12.74,14.82 22.58,29.49 31.12,42.4 8.96,12.67 15.77,24.1 20.67,33.83 10.34,19.16 15.49,29.99 14.36,30.6 -3.14,1.9 -25.86,-40.68 -76.06,-98.46 -49.64,-58.03 -132.54,-126.16 -238.62,-175.87 -105.38,-50.7 -208.1,-80.6 -281.87,-102.62 -74.15,-21.24 -120.3,-33.9 -119.66,-36.59z"/>
   <path class="fil7" d="M2740 14247.46c0,0 -368.65,-209.52 -440.57,-213.89 -102.47,-6.22 -554.33,9.32 -609.7,5.61 -49.56,-3.35 -70.17,49.1 -49.2,84.41 20.98,35.35 71.91,92.43 211.72,88.94 139.81,-3.5 220.19,20.95 255.13,34.93 34.95,14 24.91,56.89 24.91,56.89 0,0 -202.87,10.65 -261.83,-3.1 -80.91,-18.88 -348.72,-200.76 -348.72,-200.76l-106.87 -68.41c0,0 -44.74,54.43 25.16,155.79 69.91,101.35 157.25,192.19 157.25,192.19 0,0 -95.94,60.33 -12.06,152.79 0,0 -61.7,116.25 78.68,184.25 0,0 31.04,81.39 91.57,129.97 42.65,34.19 150.72,27.72 217.1,31.68 75.49,4.52 241.06,-11.67 295.59,-23.14 151.49,-31.86 260.17,-68.68 260.17,-68.68l333.85 19.04 30.39 -569.17 -152.57 10.66z"/>
   <path class="fil8" d="M1810.43 14498.24c-1.69,4.59 -61.24,-13.9 -128.6,-50.31 -67.5,-36.19 -115.69,-75.69 -112.79,-79.65 3.03,-4.3 55.15,27.95 121.5,63.5 66.2,35.77 121.8,61.56 119.89,66.46z"/>
   <path class="fil8" d="M1766.17 14625.7c-1.34,4.66 -50.02,-6.04 -103.97,-34.49 -54.11,-28.27 -90.54,-62.28 -87.45,-66.05 3.22,-4.16 43.55,22.4 95.99,49.77 52.25,27.63 97.04,45.72 95.43,50.77z"/>
   <path class="fil8" d="M1774.02 14762.33c-0.98,4.73 -44.62,-1.34 -92.62,-25.51 -48.12,-23.88 -79.16,-55.13 -75.95,-58.77 3.32,-4.12 38.15,19.55 84.17,42.37 45.84,23.11 85.7,36.76 84.4,41.91z"/>
   <path class="fil10" d="M5463.19 14261.04c162.28,-562.83 274,-1142.36 339.27,-1767.63 15.03,309.38 24.41,601.23 -14.85,908.46 -39.23,307.21 -136.03,613.32 -324.42,859.17z"/>
   <path class="fil6" d="M5834.98 12135.16c3.25,31.4 0.53,-68.44 -0.17,-33.61 -8.86,421.63 -257.39,2218.47 -579.97,2568.18 -246.2,266.88 -2554.94,153.32 -2554.94,153.32l25.42 -601.24c0,0 62.32,-18.1 476.82,-69.88 414.51,-51.83 1259.83,-269.49 1259.83,-269.49l284.59 -1880.21 1088.42 132.93z"/>
   <path class="fil4" d="M4746.56 12002.23c0,0 -0.99,11.58 -3.99,33.87 -3.24,22.93 -7.86,55.88 -13.9,98.81 -12.73,87.24 -31.32,214.53 -55.14,377.51 -48.75,327.2 -118.81,797.25 -204.32,1371.07l-0.71 4.81 -4.69 1.19c-247.19,63.04 -517.84,128.7 -808.5,190.11 -145.4,30.2 -295.72,60.01 -451.85,80.86 -155.12,20.53 -316.58,38.81 -475.66,69.92l6.44 -8.18c-8.04,191.63 -16.54,394.43 -25.22,601.23l-8.67 -9.49c162.98,7.52 335.91,13.2 511.02,17.39 330.24,7.62 652.86,9.54 964.15,0.96 155.61,-4.41 308.4,-11.46 457.59,-23.67 148.9,-12.78 295.17,-28.61 433.38,-62.48 34.4,-8.82 68.27,-18.87 100.44,-32 31.75,-13.44 63.43,-28.88 84.98,-53.89 44.7,-51.65 77.97,-112.3 106.05,-173.4 56.62,-122.52 96.91,-248.15 133.07,-369.86 70.76,-244.22 120.26,-476.36 161.78,-688.66 81.42,-425.12 127.78,-772.72 154.55,-1013.24 13.3,-120.3 21.1,-213.99 24.34,-277.61 0.71,-15.83 1.38,-29.87 1.94,-42.08l0.15 -1.27 1.69 -1.34 1.06 0.82 0.24 1.02 0.18 2.28 0.18 4.32 0.21 7.96c0.03,5.05 0.03,9.64 0.07,13.77 -0.57,8.21 0.95,14.32 -1.87,18.59 -0.92,-4.45 -0.57,-6.39 -0.57,-6.39 0.18,-0.1 0.53,2.19 1.24,5.94 -0.74,-3.46 -0.21,-10.11 -0.67,-18.11 -0.18,-4.12 -0.35,-8.68 -0.57,-13.73l-0.38 -7.94 -0.32 -4.23 -0.21 -2.08 2.43 -0.34 -0.07 0.95c-0.32,12.2 -0.67,26.21 -1.06,42.04 -2.04,63.79 -8.71,157.66 -20.88,278.18 -24.66,240.97 -69.04,589.02 -148.94,1014.93 -40.75,212.73 -89.57,445.28 -159.88,690.5 -35.99,122.23 -76.06,248.39 -133.07,372.39 -28.36,61.87 -61.74,123.54 -108.37,177.62 -24.45,28.16 -58.21,44.38 -90.92,58.35 -33.26,13.62 -67.73,23.88 -102.65,32.92 -140.06,34.53 -286.67,50.51 -436.11,63.53 -149.61,12.42 -302.68,19.65 -458.54,24.2 -311.71,8.82 -634.57,7.05 -965.08,-0.6 -175.24,-4.2 -348.2,-9.88 -511.47,-17.5l-9.07 -0.42 0.39 -9.1c8.81,-206.76 17.46,-409.58 25.61,-601.24l0.31 -6.87 6.13 -1.31c82.27,-17.5 162.02,-27.56 241.97,-39.1 79.76,-10.4 158.63,-20.7 236.51,-30.86 155.18,-20.5 305.39,-50.03 450.62,-79.9 290.37,-60.79 561.12,-125.8 808.21,-188.04l-5.4 5.97c88.16,-573.42 160.34,-1043.14 210.61,-1370.13 25.51,-162.73 45.4,-289.8 59.06,-376.93 6.94,-42.79 12.27,-75.64 15.98,-98.46 3.74,-22.19 6.17,-33.56 6.17,-33.56z"/>
  </g>
 </g>
</svg>
